<?xml version="1.0" encoding="UTF-8"?>
<!DOCTYPE svg PUBLIC "-//W3C//DTD SVG 1.1//EN" "http://www.w3.org/Graphics/SVG/1.1/DTD/svg11.dtd">
<!-- Creator: CorelDRAW X7 -->
<svg xmlns="http://www.w3.org/2000/svg" xml:space="preserve" width="62.8172mm" height="8.7696mm" version="1.1" style="shape-rendering:geometricPrecision; text-rendering:geometricPrecision; image-rendering:optimizeQuality; fill-rule:evenodd; clip-rule:evenodd"
viewBox="0 0 6284 877"
 xmlns:xlink="http://www.w3.org/1999/xlink">
 <defs>
  <style type="text/css">
   <![CDATA[
    .str0 {stroke:#FEFEFE;stroke-width:50.0158;stroke-linecap:round;stroke-linejoin:round}
    .fil0 {fill:none;fill-rule:nonzero}
    .fil1 {fill:#284756;fill-rule:nonzero}
   ]]>
  </style>
 </defs>
 <g id="Слой_x0020_1">
  <metadata id="CorelCorpID_0Corel-Layer"/>
  <g>
   <path class="fil0 str0" d="M357 173l167 0 0 -148 -499 0 0 148 167 0 0 487 166 0 0 -487 0 0 -1 0zm229 43l0 444 163 0 116 -274 4 0 0 274 128 0 0 -444 -162 0 -115 272 -7 0 0 -272 -127 0 0 0zm919 133c0,-37 16,-47 64,-47 49,0 65,12 65,44 0,32 -14,41 -60,41l-49 0 0 89 46 0c62,0 75,10 75,49 0,36 -12,48 -71,48 -55,0 -68,-8 -68,-51l-142 0c0,125 64,144 211,144 142,0 207,-22 207,-135 0,-61 -29,-97 -86,-105l0 -4c45,-10 70,-36 70,-89 0,-99 -60,-127 -198,-127 -109,0 -197,22 -197,119l0 22 134 0 0 0 -1 2zm630 246l-5 66 142 0 0 -278c0,-153 -61,-175 -207,-175 -107,0 -200,4 -200,135l142 0c0,-40 23,-47 59,-47 62,0 64,31 64,72l0 71 -7 0c-15,-48 -70,-50 -119,-50 -102,0 -157,32 -157,139 0,114 58,139 157,139 50,0 115,-12 125,-72l5 0 0 0 1 0zm-5 -77c0,46 -18,56 -78,56 -27,0 -62,-4 -62,-50 0,-41 27,-45 62,-45 46,0 78,2 78,39zm524 -79c0,100 -11,117 -76,117 -64,0 -74,-17 -74,-118 0,-85 11,-119 74,-119 65,0 76,33 76,119l0 1zm-149 155l7 0c23,61 69,73 120,73 119,0 165,-56 165,-191l0 -102c0,-118 -60,-167 -165,-167 -61,0 -107,19 -124,79l-7 0 3 -70 -142 0 0 636 142 0 0 -259 0 0 1 1zm574 -387c-181,0 -217,49 -217,231 0,178 39,228 217,228 181,0 218,-46 218,-228 0,-188 -36,-231 -218,-231zm76 231c0,100 -11,117 -76,117 -63,0 -73,-17 -73,-118 0,-85 11,-119 73,-119 66,0 76,33 76,119l0 1zm336 -132l-5 0 0 -12c0,-105 34,-128 108,-128 116,0 175,-33 175,-134l-102 0c0,25 -20,33 -92,33 -153,0 -212,85 -212,272l0 81c0,185 38,247 217,247 172,0 212,-50 212,-228 0,-171 -50,-212 -192,-212 -54,0 -98,33 -109,80l0 0 0 1zm91 32c61,0 68,20 68,100 0,95 -3,117 -71,117 -67,0 -74,-21 -74,-117 0,-79 14,-100 76,-100l1 0zm353 -122l0 246c0,56 -9,98 -61,98 -12,0 -22,-1 -29,-2l0 105c22,2 37,3 61,3 93,0 162,-45 162,-202l0 -143 103 0 0 338 142 0 0 -444 -378 0 0 0 0 1zm724 192l-73 0c-38,0 -52,-12 -52,-46 0,-32 14,-45 52,-45l73 0 0 90 0 0 0 1zm0 252l142 0 0 -444 -248 0c-109,0 -157,43 -157,147 0,77 27,114 69,133l-85 164 154 0 68 -150 56 0 0 150 1 0zm635 -289c0,-143 -85,-164 -210,-164 -178,0 -208,80 -208,231 0,175 40,229 208,229 138,0 210,-17 210,-166l-142 0c0,53 -7,65 -68,65 -47,0 -66,-16 -66,-90l93 0 0 -89 -93 0c0,-63 20,-78 66,-78 51,0 68,11 68,62l142 0 0 0zm563 183l-114 0 0 -338 -134 0 0 338 -115 0 0 -338 -134 0 0 444 632 0 0 -444 -134 0 0 338 0 0 -1 0zm391 -32l-134 0 0 139 134 0 0 -139zm10 -496l-153 0 10 384 134 0 10 -384 0 0 -1 0z"/>
   <path id="1" class="fil1" d="M357 173l167 0 0 -148 -499 0 0 148 167 0 0 487 166 0 0 -487 0 0 -1 0zm229 43l0 444 163 0 116 -274 4 0 0 274 128 0 0 -444 -162 0 -115 272 -7 0 0 -272 -127 0 0 0zm919 133c0,-37 16,-47 64,-47 49,0 65,12 65,44 0,32 -14,41 -60,41l-49 0 0 89 46 0c62,0 75,10 75,49 0,36 -12,48 -71,48 -55,0 -68,-8 -68,-51l-142 0c0,125 64,144 211,144 142,0 207,-22 207,-135 0,-61 -29,-97 -86,-105l0 -4c45,-10 70,-36 70,-89 0,-99 -60,-127 -198,-127 -109,0 -197,22 -197,119l0 22 134 0 0 0 -1 2zm630 246l-5 66 142 0 0 -278c0,-153 -61,-175 -207,-175 -107,0 -200,4 -200,135l142 0c0,-40 23,-47 59,-47 62,0 64,31 64,72l0 71 -7 0c-15,-48 -70,-50 -119,-50 -102,0 -157,32 -157,139 0,114 58,139 157,139 50,0 115,-12 125,-72l5 0 0 0 1 0zm-5 -77c0,46 -18,56 -78,56 -27,0 -62,-4 -62,-50 0,-41 27,-45 62,-45 46,0 78,2 78,39zm524 -79c0,100 -11,117 -76,117 -64,0 -74,-17 -74,-118 0,-85 11,-119 74,-119 65,0 76,33 76,119l0 1zm-149 155l7 0c23,61 69,73 120,73 119,0 165,-56 165,-191l0 -102c0,-118 -60,-167 -165,-167 -61,0 -107,19 -124,79l-7 0 3 -70 -142 0 0 636 142 0 0 -259 0 0 1 1zm574 -387c-181,0 -217,49 -217,231 0,178 39,228 217,228 181,0 218,-46 218,-228 0,-188 -36,-231 -218,-231zm76 231c0,100 -11,117 -76,117 -63,0 -73,-17 -73,-118 0,-85 11,-119 73,-119 66,0 76,33 76,119l0 1zm336 -132l-5 0 0 -12c0,-105 34,-128 108,-128 116,0 175,-33 175,-134l-102 0c0,25 -20,33 -92,33 -153,0 -212,85 -212,272l0 81c0,185 38,247 217,247 172,0 212,-50 212,-228 0,-171 -50,-212 -192,-212 -54,0 -98,33 -109,80l0 0 0 1zm91 32c61,0 68,20 68,100 0,95 -3,117 -71,117 -67,0 -74,-21 -74,-117 0,-79 14,-100 76,-100l1 0zm353 -122l0 246c0,56 -9,98 -61,98 -12,0 -22,-1 -29,-2l0 105c22,2 37,3 61,3 93,0 162,-45 162,-202l0 -143 103 0 0 338 142 0 0 -444 -378 0 0 0 0 1zm724 192l-73 0c-38,0 -52,-12 -52,-46 0,-32 14,-45 52,-45l73 0 0 90 0 0 0 1zm0 252l142 0 0 -444 -248 0c-109,0 -157,43 -157,147 0,77 27,114 69,133l-85 164 154 0 68 -150 56 0 0 150 1 0zm635 -289c0,-143 -85,-164 -210,-164 -178,0 -208,80 -208,231 0,175 40,229 208,229 138,0 210,-17 210,-166l-142 0c0,53 -7,65 -68,65 -47,0 -66,-16 -66,-90l93 0 0 -89 -93 0c0,-63 20,-78 66,-78 51,0 68,11 68,62l142 0 0 0zm563 183l-114 0 0 -338 -134 0 0 338 -115 0 0 -338 -134 0 0 444 632 0 0 -444 -134 0 0 338 0 0 -1 0zm391 -32l-134 0 0 139 134 0 0 -139zm10 -496l-153 0 10 384 134 0 10 -384 0 0 -1 0z"/>
  </g>
 </g>
</svg>
