<?xml version="1.0" encoding="UTF-8"?>
<!DOCTYPE svg PUBLIC "-//W3C//DTD SVG 1.1//EN" "http://www.w3.org/Graphics/SVG/1.1/DTD/svg11.dtd">
<!-- Creator: CorelDRAW X7 -->
<svg xmlns="http://www.w3.org/2000/svg" xml:space="preserve" width="42.536mm" height="7.9974mm" version="1.1" style="shape-rendering:geometricPrecision; text-rendering:geometricPrecision; image-rendering:optimizeQuality; fill-rule:evenodd; clip-rule:evenodd"
viewBox="0 0 4255 800"
 xmlns:xlink="http://www.w3.org/1999/xlink">
 <defs>
  <style type="text/css">
   <![CDATA[
    .str0 {stroke:#FEFEFE;stroke-width:50.0118;stroke-linecap:round;stroke-linejoin:round}
    .fil0 {fill:none;fill-rule:nonzero}
    .fil1 {fill:#284756;fill-rule:nonzero}
   ]]>
  </style>
 </defs>
 <g id="Слой_x0020_1">
  <metadata id="CorelCorpID_0Corel-Layer"/>
  <g>
   <path class="fil0 str0" d="M358 173l166 0 0 -148 -499 0 0 148 167 0 0 488 166 0 0 -488 0 0zm228 42l0 446 163 0 117 -275 3 0 0 275 127 0 0 -446 -161 0 -116 274 -6 0 0 -274 -127 0zm933 261l76 0c39,0 53,8 53,45 0,35 -14,45 -53,45l-76 0 0 -90 0 0zm-134 185l243 0c111,0 158,-27 158,-129 0,-63 -34,-97 -87,-106l0 -3c45,-11 71,-35 71,-92 0,-90 -56,-116 -150,-116l-235 0 0 446 0 0zm134 -351l72 0c32,0 45,11 45,39 0,32 -13,39 -47,39l-71 0 0 -77 0 0 1 -1zm412 -95l0 145c0,95 -18,150 -53,198l-42 0 0 217 127 0 0 -114 257 0 0 114 127 0 0 -217 -40 0 0 -343 -376 0 0 0 0 0zm233 343l-143 0c32,-51 43,-90 43,-193l0 -47 100 0 0 240 0 0zm446 -351c-182,0 -217,50 -217,232 0,177 39,228 217,228 180,0 217,-47 217,-228 0,-188 -35,-232 -217,-232zm76 232c0,100 -11,116 -77,116 -63,0 -72,-16 -72,-117 0,-85 10,-117 72,-117 66,0 77,32 77,119l0 -1zm438 222l113 0 88 -331 5 0 0 331 127 0 0 -446 -208 0 -66 274 -6 0 -66 -274 -208 0 0 446 127 0 0 -331 5 0 88 331 1 0zm700 -66l-5 66 143 0 0 -278c0,-153 -61,-175 -208,-175 -106,0 -200,5 -200,135l142 0c0,-40 24,-47 60,-47 61,0 63,31 63,72l0 69 -6 0c-14,-48 -69,-50 -117,-50 -103,0 -158,34 -158,140 0,114 58,140 158,140 50,0 114,-13 124,-72l5 0 0 0 -1 0zm-5 -77c0,47 -18,55 -77,55 -27,0 -63,-3 -63,-50 0,-40 27,-45 63,-45 47,0 77,3 77,40l0 0 0 0zm399 3l-134 0 0 140 134 0 0 -140zm11 -496l-154 0 10 385 134 0 11 -385 0 0 -1 0z"/>
   <path id="1" class="fil1" d="M358 173l166 0 0 -148 -499 0 0 148 167 0 0 488 166 0 0 -488 0 0zm228 42l0 446 163 0 117 -275 3 0 0 275 127 0 0 -446 -161 0 -116 274 -6 0 0 -274 -127 0zm933 261l76 0c39,0 53,8 53,45 0,35 -14,45 -53,45l-76 0 0 -90 0 0zm-134 185l243 0c111,0 158,-27 158,-129 0,-63 -34,-97 -87,-106l0 -3c45,-11 71,-35 71,-92 0,-90 -56,-116 -150,-116l-235 0 0 446 0 0zm134 -351l72 0c32,0 45,11 45,39 0,32 -13,39 -47,39l-71 0 0 -77 0 0 1 -1zm412 -95l0 145c0,95 -18,150 -53,198l-42 0 0 217 127 0 0 -114 257 0 0 114 127 0 0 -217 -40 0 0 -343 -376 0 0 0 0 0zm233 343l-143 0c32,-51 43,-90 43,-193l0 -47 100 0 0 240 0 0zm446 -351c-182,0 -217,50 -217,232 0,177 39,228 217,228 180,0 217,-47 217,-228 0,-188 -35,-232 -217,-232zm76 232c0,100 -11,116 -77,116 -63,0 -72,-16 -72,-117 0,-85 10,-117 72,-117 66,0 77,32 77,119l0 -1zm438 222l113 0 88 -331 5 0 0 331 127 0 0 -446 -208 0 -66 274 -6 0 -66 -274 -208 0 0 446 127 0 0 -331 5 0 88 331 1 0zm700 -66l-5 66 143 0 0 -278c0,-153 -61,-175 -208,-175 -106,0 -200,5 -200,135l142 0c0,-40 24,-47 60,-47 61,0 63,31 63,72l0 69 -6 0c-14,-48 -69,-50 -117,-50 -103,0 -158,34 -158,140 0,114 58,140 158,140 50,0 114,-13 124,-72l5 0 0 0 -1 0zm-5 -77c0,47 -18,55 -77,55 -27,0 -63,-3 -63,-50 0,-40 27,-45 63,-45 47,0 77,3 77,40l0 0 0 0zm399 3l-134 0 0 140 134 0 0 -140zm11 -496l-154 0 10 385 134 0 11 -385 0 0 -1 0z"/>
  </g>
 </g>
</svg>
