<?xml version="1.0" encoding="UTF-8"?>
<!DOCTYPE svg PUBLIC "-//W3C//DTD SVG 1.1//EN" "http://www.w3.org/Graphics/SVG/1.1/DTD/svg11.dtd">
<!-- Creator: CorelDRAW X7 -->
<svg xmlns="http://www.w3.org/2000/svg" xml:space="preserve" width="72.9716mm" height="78.7917mm" version="1.1" style="shape-rendering:geometricPrecision; text-rendering:geometricPrecision; image-rendering:optimizeQuality; fill-rule:evenodd; clip-rule:evenodd"
viewBox="0 0 7297 7879"
 xmlns:xlink="http://www.w3.org/1999/xlink">
 <defs>
  <style type="text/css">
   <![CDATA[
    .fil0 {fill:#284756}
    .fil1 {fill:#FEFEFE;fill-rule:nonzero}
   ]]>
  </style>
 </defs>
 <g id="Слой_x0020_1">
  <metadata id="CorelCorpID_0Corel-Layer"/>
  <rect class="fil0" width="7297" height="7879"/>
  <path class="fil1" d="M1304 6155l0 -497 179 0 90 338 89 -338 171 0 0 497 -127 0 0 -280 -78 280 -131 0 -76 -277 0 277 -116 0 -1 0zm640 -148l136 0 0 148 -136 0 0 -148zm728 148l0 -246c-33,26 -72,39 -115,39 -37,0 -69,-8 -98,-26 -27,-17 -49,-41 -61,-71 -13,-31 -21,-74 -21,-128l0 -240 147 0 0 246c0,37 4,61 13,77 8,14 23,22 44,22 32,0 62,-16 89,-48l0 -297 147 0 0 672 -147 0 2 0 0 0zm643 -225l-260 0 0 27c0,44 6,74 19,89 11,14 27,23 47,23 42,0 66,-29 70,-85l124 7c-22,117 -88,174 -197,174 -67,0 -119,-23 -153,-69 -35,-46 -53,-106 -53,-184 0,-86 18,-152 56,-196 37,-46 87,-68 149,-68 56,0 103,20 141,60 37,41 57,114 57,222l0 0 0 0zm-131 -82c0,-6 0,-10 0,-13 0,-63 -21,-95 -64,-95 -42,0 -63,36 -65,108l128 0 1 0zm213 -190l129 0 0 73c27,-54 65,-80 112,-80 44,0 83,20 112,60 30,40 44,102 44,187 0,87 -14,154 -44,198 -29,45 -70,66 -124,66 -38,0 -70,-14 -94,-44l0 205 -137 0 0 -665 2 0 0 0zm136 293c0,47 4,79 12,93 7,15 23,22 47,22 22,0 36,-10 46,-29 10,-18 16,-64 16,-138 0,-60 -5,-102 -13,-123 -9,-22 -23,-33 -45,-33 -17,0 -31,7 -44,20 -12,13 -19,44 -19,95l0 94 0 -1zm345 204l0 -497 139 0 0 178 111 0 0 -178 139 0 0 497 -139 0 0 -211 -111 0 0 211 -139 0zm629 -538l-141 0 0 -137 141 0 0 137zm-141 41l139 0 0 497 -139 0 0 -497zm241 497l0 -497 251 0c32,0 56,3 75,10 19,7 34,20 50,42 15,21 22,46 22,74 0,46 -20,81 -62,105 52,25 77,65 77,119 0,44 -12,78 -37,105 -24,28 -60,42 -103,42l-272 0 -1 0 0 0zm146 -304l77 0c15,0 28,-3 35,-11 8,-7 12,-20 12,-38 0,-15 -3,-26 -7,-38 -5,-10 -17,-15 -39,-15l-76 0 0 102 -2 0zm0 198l84 0c18,0 31,-5 38,-15 8,-8 11,-23 11,-41 0,-19 -3,-32 -11,-42 -7,-10 -20,-14 -38,-14l-84 0 0 113 0 -1zm344 106l0 -497 139 0 0 391 97 0 0 -391 140 0 0 391 61 0 0 224 -99 0 -13 -117 -325 0 0 -1 0 0zm620 -538l-141 0 0 -137 141 0 0 137zm-141 41l139 0 0 497 -139 0 0 -497zm250 349l136 0 0 135 -83 172 -55 0 65 -159 -65 0 0 -148 2 0z"/>
  <path class="fil1" d="M2146 430c-2,-62 -29,-107 -55,-133 -47,-47 -107,-57 -152,-57 -46,0 -98,9 -146,51 -58,52 -79,122 -79,201 0,42 7,89 28,131 25,48 80,113 197,113 67,0 115,-23 148,-55 27,-26 54,-69 59,-129l-135 -9c0,19 -5,35 -14,51 -10,20 -26,34 -54,34 -28,0 -46,-15 -58,-42 -12,-27 -13,-58 -13,-97 0,-34 1,-64 11,-92 12,-33 30,-50 60,-50 34,0 49,23 56,37 7,16 9,41 9,53l138 -7zm50 -61l0 360 139 0 0 -266 77 0 0 266 140 0 0 -360 -356 0zm570 0l-139 0 0 360 139 0 0 -360zm0 -129l-139 0 0 95 139 0 0 -95zm76 129l0 360 222 0c33,0 72,0 102,-23 23,-16 39,-45 39,-78 0,-23 -10,-47 -26,-62 -16,-15 -39,-24 -61,-25l0 -2c19,-3 36,-12 48,-24 13,-14 21,-35 21,-57 0,-33 -17,-56 -33,-68 -26,-19 -59,-21 -89,-21l-223 0zm139 70l25 0c8,0 20,0 31,7 6,5 15,13 15,29 0,16 -7,24 -13,29 -10,8 -22,9 -33,9l-25 0 0 -74zm0 144l38 0c9,0 21,2 28,7 10,7 16,19 16,31 0,10 -5,21 -11,27 -11,10 -23,11 -33,11l-38 0 0 -76zm627 -344c-33,7 -53,10 -85,14 -79,11 -118,14 -150,26 -40,16 -72,44 -94,88 -19,40 -30,97 -30,143 0,57 14,121 44,160 40,55 97,66 156,66 50,0 96,-7 134,-42 28,-26 55,-68 55,-134 0,-85 -42,-123 -69,-139 -36,-22 -79,-24 -97,-24 -39,0 -96,8 -132,64l-2 0c2,-36 22,-66 47,-80 12,-7 33,-15 94,-22 29,-3 38,-2 92,-14 15,-4 23,-6 37,-11l0 -95zm-164 237c19,0 30,7 39,22 13,22 13,45 13,65 0,20 0,44 -13,65 -9,15 -20,22 -39,22 -19,0 -31,-7 -40,-22 -12,-21 -13,-45 -13,-65 0,-20 1,-43 13,-65 9,-15 21,-22 40,-22zm484 127c0,16 -7,27 -14,33 -5,6 -17,14 -38,14 -21,0 -35,-10 -44,-22 -8,-12 -13,-30 -12,-48l240 0 0 -22c0,-31 -4,-92 -52,-142 -44,-46 -98,-54 -135,-54 -34,0 -88,5 -133,43 -29,25 -62,70 -62,144 0,66 26,111 55,138 43,41 91,49 136,49 38,0 87,-6 130,-36 40,-29 53,-63 59,-88l-130 -9zm-108 -93c-1,-19 5,-35 15,-46 13,-15 28,-16 38,-16 8,0 24,1 36,16 10,11 14,30 13,46l-102 0zm629 -5c-4,-47 -27,-86 -53,-108 -17,-14 -52,-35 -116,-35 -66,0 -107,26 -132,51 -28,30 -49,76 -49,137 0,69 27,112 52,137 43,42 95,49 129,49 35,0 78,-6 116,-37 28,-24 50,-61 54,-105l-123 -10c0,14 -3,36 -9,47 -10,16 -22,19 -32,19 -13,0 -25,-5 -34,-23 -7,-13 -11,-32 -11,-79 0,-47 2,-67 10,-80 5,-10 15,-20 33,-20 17,0 27,9 31,17 7,12 11,35 11,50l123 -10zm185 -136l-139 0 0 360 139 0 0 -360zm0 -129l-139 0 0 95 139 0 0 -95zm119 129l0 23c0,122 -6,185 -36,243l-34 0 0 188 125 0 0 -94 147 0 0 94 125 0 0 -188 -42 0 0 -266 -285 0zm98 94l48 0 0 172 -70 0c15,-44 22,-89 22,-161l0 -11zm274 -94l0 360 139 0 0 -25 70 -127c9,-17 8,-11 13,-23 -2,10 -3,21 -3,27l0 148 139 0 0 -360 -139 0 0 25 -73 127c-2,3 -2,5 -10,15 3,-11 3,-20 3,-30l0 -137 -139 0z"/>
  <path class="fil1" d="M1395 1189l0 360 139 0 0 -266 77 0 0 266 139 0 0 -360 -355 0zm570 473l0 -152 2 0c7,13 18,24 37,34 15,7 34,12 54,12 31,0 68,-10 99,-52 30,-40 37,-92 37,-139 0,-38 -4,-92 -35,-135 -22,-30 -50,-48 -93,-48 -28,0 -56,7 -76,21 -13,10 -25,23 -33,38l-2 0 0 -52 -129 0 0 473 139 0zm0 -336c0,-14 1,-32 13,-44 6,-6 16,-10 26,-10 15,0 29,6 38,26 7,13 10,32 10,70 0,35 -2,56 -8,72 -9,22 -24,30 -40,30 -18,0 -28,-13 -31,-19 -6,-11 -8,-27 -8,-46l0 -79zm458 -144c-61,0 -103,22 -131,48 -38,35 -59,87 -59,139 0,51 21,103 59,138 28,26 70,49 131,49 61,0 103,-23 132,-49 37,-35 58,-87 58,-138 0,-52 -21,-104 -58,-139 -29,-26 -71,-48 -132,-48zm0 288c-20,0 -30,-10 -38,-26 -9,-20 -10,-44 -10,-75 0,-37 2,-59 10,-75 9,-18 21,-26 38,-26 17,0 30,8 38,26 9,16 10,38 10,75 0,36 -1,58 -10,75 -8,18 -21,26 -38,26zm247 -281l0 360 222 0c33,0 72,0 102,-23 23,-16 39,-46 39,-79 0,-23 -10,-46 -26,-61 -16,-15 -39,-24 -61,-26l0 -1c19,-3 36,-13 48,-25 13,-14 21,-34 21,-57 0,-33 -17,-56 -33,-68 -26,-19 -59,-20 -89,-20l-223 0zm140 70l24 0c9,0 20,0 31,7 6,4 15,13 15,29 0,15 -7,24 -13,29 -10,7 -22,8 -33,8l-24 0 0 -73zm0 143l37 0c9,0 21,3 29,8 9,6 15,18 15,30 0,11 -5,21 -11,28 -11,10 -23,10 -33,10l-37 0 0 -76zm450 -220c-61,0 -103,22 -132,48 -37,35 -58,87 -58,139 0,51 21,103 58,138 29,26 71,49 132,49 61,0 103,-23 131,-49 38,-35 58,-87 58,-138 0,-52 -20,-104 -58,-139 -28,-26 -70,-48 -131,-48zm0 288c-20,0 -30,-10 -38,-26 -9,-20 -10,-44 -10,-75 0,-37 1,-59 10,-75 8,-18 21,-26 38,-26 17,0 29,8 38,26 8,16 10,38 10,75 0,36 -2,58 -10,75 -9,18 -21,26 -38,26zm290 -281l0 23c0,122 -6,185 -36,242l-34 0 0 189 125 0 0 -94 147 0 0 94 125 0 0 -189 -43 0 0 -265 -284 0zm98 94l47 0 0 171 -69 0c15,-43 22,-88 22,-160l0 -11zm622 -94l-209 0c-33,0 -78,3 -111,29 -19,15 -41,43 -41,91 0,32 11,55 23,69 12,14 30,25 47,31l-81 140 147 0 56 -122 30 0 0 122 139 0 0 -360zm-139 86l0 82 -30 0c-12,0 -27,0 -38,-10 -7,-6 -12,-17 -12,-31 0,-17 6,-26 12,-31 10,-10 26,-10 34,-10l34 0zm179 -86l0 94 97 0 0 266 139 0 0 -266 97 0 0 -94 -333 0zm373 0l0 360 218 0c23,0 64,0 95,-29 25,-22 40,-62 40,-97 0,-37 -17,-65 -35,-81 -30,-27 -71,-30 -100,-30l-79 0 0 -123 -139 0zm139 194l28 0c9,0 21,1 31,9 11,8 13,20 13,30 0,6 -1,21 -13,31 -8,7 -20,10 -32,10l-27 0 0 -80zm601 -59c-5,-47 -28,-85 -54,-107 -16,-14 -52,-35 -116,-35 -65,0 -106,26 -131,51 -28,30 -49,76 -49,137 0,68 27,112 52,136 43,43 95,50 129,50 35,0 78,-6 115,-37 28,-24 51,-61 55,-105l-123 -10c-1,13 -3,36 -10,47 -9,16 -21,19 -31,19 -14,0 -26,-5 -35,-23 -6,-13 -10,-32 -10,-79 0,-47 2,-67 10,-81 5,-9 15,-19 33,-19 16,0 26,9 31,17 7,11 11,35 11,49l123 -10zm395 -135l-210 0c-33,0 -77,3 -110,29 -20,15 -42,43 -42,91 0,32 12,55 24,69 12,14 30,25 47,31l-82 140 148 0 56 -122 29 0 0 122 140 0 0 -360zm-140 86l0 82 -29 0c-12,0 -27,0 -39,-10 -7,-6 -12,-17 -12,-31 0,-17 7,-26 12,-31 11,-10 26,-10 35,-10l33 0z"/>
  <path class="fil1" d="M1422 2009l0 23c0,121 -6,184 -36,242l-34 0 0 188 125 0 0 -94 147 0 0 94 125 0 0 -188 -42 0 0 -265 -285 0zm98 94l48 0 0 171 -70 0c15,-43 22,-88 22,-161l0 -10zm274 -94l0 359 222 0c32,0 71,0 102,-22 22,-16 38,-46 38,-79 0,-23 -10,-46 -26,-62 -15,-15 -38,-24 -61,-25l0 -1c20,-3 37,-13 48,-25 13,-14 21,-34 21,-57 0,-33 -16,-56 -33,-68 -25,-19 -58,-20 -89,-20l-222 0zm139 70l24 0c9,0 21,0 31,7 6,4 15,12 15,29 0,15 -7,23 -13,28 -9,8 -21,9 -33,9l-24 0 0 -73zm0 143l37 0c9,0 21,2 29,8 10,6 15,18 15,30 0,11 -5,21 -11,27 -10,10 -22,11 -33,11l-37 0 0 -76zm418 -213l-139 0 0 359 139 0 0 -359zm0 -130l-139 0 0 96 139 0 0 -96zm62 130l0 107c0,46 10,74 28,92 26,25 68,30 107,30 23,0 53,-3 73,-5l0 135 139 0 0 -359 -139 0 0 140c-7,1 -20,3 -29,3 -8,0 -19,-1 -26,-6 -13,-9 -14,-29 -14,-48l0 -89 -139 0zm562 0l-139 0 0 359 139 0 0 -359zm0 -130l-139 0 0 96 139 0 0 -96zm240 130l0 359 139 0 0 -140 77 0 0 140 139 0 0 -359 -139 0 0 125 -77 0 0 -125 -139 0zm551 117c3,-18 16,-39 54,-39 19,0 30,5 35,11 8,9 8,24 8,31l0 5 -26 2c-52,5 -128,15 -170,48 -27,22 -41,55 -41,87 0,47 33,104 127,104 72,0 103,-35 117,-57 0,26 3,41 5,50l132 0c-10,-36 -10,-58 -10,-78l0 -141c0,-29 0,-58 -14,-85 -30,-55 -97,-62 -156,-62 -40,0 -90,2 -130,28 -19,13 -47,38 -59,84l128 12zm97 74l0 20c0,26 -3,70 -56,70 -25,0 -39,-14 -39,-32 0,-11 5,-26 20,-37 5,-3 20,-12 53,-18l22 -3zm415 -191l0 23c0,121 -7,184 -36,242l-35 0 0 188 125 0 0 -94 147 0 0 94 125 0 0 -188 -42 0 0 -265 -284 0zm98 94l47 0 0 171 -69 0c15,-43 22,-88 22,-161l0 -10zm506 139c-1,17 -8,27 -14,33 -6,6 -18,15 -38,15 -22,0 -36,-10 -44,-22 -9,-12 -14,-31 -13,-49l240 0 0 -22c0,-30 -3,-92 -51,-141 -44,-47 -98,-54 -136,-54 -33,0 -88,4 -132,42 -30,25 -63,71 -63,144 0,66 27,111 55,139 43,40 91,48 137,48 38,0 87,-5 129,-36 40,-28 53,-63 59,-88l-129 -9zm-109 -93c-1,-18 6,-35 15,-46 14,-14 28,-16 38,-16 9,0 25,2 37,16 10,12 14,30 12,46l-102 0zm298 -140l0 359 139 0 0 -140 77 0 0 140 139 0 0 -359 -139 0 0 125 -77 0 0 -125 -139 0zm431 0l0 359 219 0c22,0 63,0 94,-29 25,-21 40,-61 40,-97 0,-36 -16,-64 -35,-80 -30,-27 -71,-30 -100,-30l-79 0 0 -123 -139 0zm139 193l28 0c9,0 21,2 31,10 11,8 13,19 13,30 0,6 -1,21 -13,31 -8,7 -20,9 -32,9l-27 0 0 -80z"/>
  <path class="fil1" d="M752 2821c-61,0 -103,23 -131,49 -38,35 -59,87 -59,138 0,51 21,103 59,138 28,26 70,49 131,49 61,0 103,-23 131,-49 38,-35 59,-87 59,-138 0,-51 -21,-103 -59,-138 -28,-26 -70,-49 -131,-49zm0 288c-20,0 -30,-10 -38,-26 -9,-19 -10,-44 -10,-75 0,-37 2,-58 10,-75 8,-18 21,-26 38,-26 17,0 29,8 38,26 8,17 10,38 10,75 0,37 -2,58 -10,75 -9,18 -21,26 -38,26zm661 -410l-105 0c-18,26 -37,40 -59,51 -23,12 -50,23 -80,28l0 109c23,-3 51,-10 106,-36l0 222 -118 0 0 115 370 0 0 -115 -114 0 0 -374zm360 0c-71,0 -118,35 -143,69 -49,65 -48,173 -48,182 0,59 15,132 48,176 25,34 72,69 143,69 71,0 118,-35 144,-69 33,-44 48,-117 48,-176 0,-9 1,-117 -48,-182 -26,-34 -73,-69 -144,-69zm0 101c33,0 41,25 45,39 8,34 8,92 8,112 0,68 -6,96 -8,105 -4,14 -12,39 -45,39 -33,0 -40,-25 -44,-39 -2,-9 -8,-37 -8,-105 0,-20 0,-78 8,-112 4,-14 11,-39 44,-39zm387 259l-134 0 0 129 134 0 0 -129zm0 -230l-134 0 0 128 134 0 0 -128zm254 -130c-71,0 -118,35 -143,69 -50,65 -49,173 -49,182 0,59 16,132 49,176 25,34 72,69 143,69 71,0 118,-35 143,-69 33,-44 49,-117 49,-176 0,-9 0,-117 -49,-182 -25,-34 -72,-69 -143,-69zm0 101c33,0 41,25 44,39 9,34 9,92 9,112 0,68 -7,96 -9,105 -3,14 -11,39 -44,39 -33,0 -41,-25 -44,-39 -2,-9 -9,-37 -9,-105 0,-20 0,-78 9,-112 3,-14 11,-39 44,-39zm432 -101c-71,0 -118,35 -143,69 -49,65 -49,173 -49,182 0,59 16,132 49,176 25,34 72,69 143,69 71,0 118,-35 143,-69 33,-44 49,-117 49,-176 0,-9 0,-117 -49,-182 -25,-34 -72,-69 -143,-69zm0 101c33,0 41,25 44,39 9,34 9,92 9,112 0,68 -7,96 -9,105 -3,14 -11,39 -44,39 -33,0 -41,-25 -44,-39 -2,-9 -9,-37 -9,-105 0,-20 0,-78 9,-112 3,-14 11,-39 44,-39zm381 28l0 94 97 0 0 266 139 0 0 -266 97 0 0 -94 -333 0zm494 118c2,-19 15,-39 54,-39 19,0 29,5 34,10 9,10 9,24 9,31l0 6 -26 2c-53,4 -129,15 -170,48 -28,22 -41,55 -41,86 0,47 33,105 126,105 72,0 103,-35 118,-57 0,25 2,41 4,50l133 0c-11,-36 -11,-58 -11,-79l0 -140c0,-29 0,-59 -14,-85 -30,-56 -96,-63 -156,-63 -40,0 -90,3 -129,29 -20,13 -48,38 -59,84l128 12zm97 73l0 21c0,26 -4,69 -57,69 -25,0 -38,-13 -38,-31 0,-12 5,-26 19,-37 5,-3 20,-13 54,-18l22 -4zm543 -198c-62,0 -104,23 -132,49 -38,35 -58,87 -58,138 0,51 20,103 58,138 28,26 70,49 132,49 61,0 103,-23 131,-49 38,-35 58,-87 58,-138 0,-51 -20,-103 -58,-138 -28,-26 -70,-49 -131,-49zm0 288c-20,0 -31,-10 -38,-26 -10,-19 -10,-44 -10,-75 0,-37 1,-58 10,-75 8,-18 21,-26 38,-26 16,0 29,8 37,26 9,17 10,38 10,75 0,37 -1,58 -10,75 -8,18 -21,26 -37,26zm661 -410l-105 0c-18,26 -37,40 -59,51 -23,12 -51,23 -80,28l0 109c23,-3 51,-10 106,-36l0 222 -119 0 0 115 370 0 0 -115 -113 0 0 -374zm531 7l-322 0 -21 277 111 15c17,-25 44,-28 56,-28 18,0 35,7 46,18 8,9 14,24 14,41 0,13 -3,28 -16,41 -7,8 -20,17 -43,17 -23,0 -42,-9 -53,-23 -7,-8 -12,-19 -14,-30l-124 15c5,36 21,64 40,84 33,37 90,62 157,62 73,0 116,-28 139,-49 35,-33 54,-77 54,-124 0,-52 -21,-92 -48,-117 -26,-23 -65,-40 -113,-40 -17,0 -49,2 -84,26l6 -73 202 0 13 -112zm216 353l-134 0 0 129 134 0 0 -129zm0 -230l-134 0 0 128 134 0 0 -128zm184 29c5,-28 25,-54 60,-54 18,0 30,7 37,14 6,5 14,16 14,33 0,12 -4,21 -10,28 -9,10 -27,15 -48,15l-53 0 0 94 55 0c17,0 38,0 52,12 9,8 15,22 15,36 0,13 -5,25 -13,34 -14,15 -32,17 -46,17 -24,0 -40,-8 -53,-23 -13,-15 -18,-36 -18,-39l-126 16c20,92 91,154 206,154 49,0 108,-11 145,-42 27,-23 47,-59 47,-104 0,-56 -31,-99 -86,-113 53,-18 71,-65 71,-104 0,-33 -14,-62 -31,-81 -31,-34 -85,-52 -141,-52 -89,0 -170,43 -194,140l117 19zm502 -159c-71,0 -118,35 -144,69 -49,65 -48,173 -48,182 0,59 15,132 48,176 26,34 73,69 144,69 71,0 118,-35 143,-69 33,-44 48,-117 48,-176 0,-9 1,-117 -48,-182 -25,-34 -72,-69 -143,-69zm0 101c33,0 40,25 44,39 8,34 8,92 8,112 0,68 -6,96 -8,105 -4,14 -11,39 -44,39 -33,0 -41,-25 -45,-39 -2,-9 -8,-37 -8,-105 0,-20 0,-78 8,-112 4,-14 12,-39 45,-39z"/>
  <path class="fil1" d="M1673 3768c2,-14 8,-27 17,-36 9,-9 24,-15 38,-15 9,0 19,2 25,7 8,5 12,15 12,23 0,10 -4,17 -10,23 -10,8 -22,10 -33,10l-32 0 0 70 32 0c10,0 24,0 33,6 8,5 13,15 13,26 0,9 -5,19 -10,25 -7,7 -18,12 -32,12 -12,0 -27,-5 -37,-15 -8,-8 -13,-22 -13,-33l-119 17c5,48 38,76 55,87 36,24 80,30 125,30 68,0 101,-12 119,-24 30,-18 54,-53 54,-88 0,-22 -8,-44 -24,-58 -12,-12 -33,-22 -52,-25l0 -1c21,-3 37,-12 48,-24 16,-16 23,-37 23,-55 0,-22 -12,-61 -71,-84 -24,-10 -54,-15 -90,-15 -66,0 -113,17 -141,41 -20,18 -36,45 -43,75l113 21zm456 -130l0 360 139 0 0 -266 77 0 0 266 139 0 0 -360 -355 0zm602 -7c-61,0 -103,22 -131,48 -38,35 -58,87 -58,139 0,51 20,103 58,138 28,26 70,49 131,49 62,0 104,-23 132,-49 38,-35 58,-87 58,-138 0,-52 -20,-104 -58,-139 -28,-26 -70,-48 -132,-48zm0 288c-19,0 -30,-10 -38,-26 -9,-20 -9,-44 -9,-75 0,-37 1,-59 9,-75 9,-18 22,-26 38,-26 17,0 30,8 38,26 9,16 10,38 10,75 0,36 -1,58 -10,75 -8,18 -21,26 -38,26zm248 -281l0 360 139 0 0 -141 77 0 0 141 139 0 0 -360 -139 0 0 125 -77 0 0 -125 -139 0zm664 234c-1,16 -8,26 -15,33 -5,5 -17,14 -37,14 -22,0 -36,-10 -45,-22 -8,-12 -13,-31 -12,-48l240 0 0 -22c0,-31 -4,-92 -51,-142 -45,-46 -99,-54 -136,-54 -34,0 -88,5 -133,43 -29,24 -62,70 -62,144 0,66 26,111 55,138 43,41 91,49 137,49 37,0 87,-6 129,-36 40,-29 53,-64 59,-89l-129 -8zm-109 -94c-1,-18 5,-35 15,-45 13,-15 28,-16 38,-16 8,0 25,1 37,16 9,11 14,29 12,45l-102 0zm340 -140l0 23c0,122 -6,185 -35,242l-35 0 0 189 125 0 0 -94 147 0 0 94 125 0 0 -189 -42 0 0 -265 -285 0zm99 94l47 0 0 171 -70 0c16,-43 23,-88 23,-160l0 -11zm412 -94l-139 0 0 360 139 0 0 -360zm0 -129l-139 0 0 95 139 0 0 -95zm118 129l0 35c0,29 -1,63 -3,93 -4,69 -11,96 -22,113 -12,21 -30,24 -41,24 -3,0 -7,0 -11,0l0 95c15,3 29,4 43,4 33,0 57,-8 80,-28 29,-27 43,-61 52,-128 3,-28 5,-60 7,-114l47 0 0 266 139 0 0 -360 -291 0zm367 0l0 360 139 0 0 -143 17 0c7,0 18,1 26,10 4,5 10,14 20,62 4,16 7,36 16,53 5,9 10,14 18,18l142 0c-20,-19 -23,-38 -33,-75l-12 -39c-5,-20 -12,-40 -30,-57 -16,-17 -31,-23 -52,-27l0 -1c19,-3 33,-6 46,-20 13,-14 19,-32 24,-47 17,-52 14,-48 18,-59 6,-16 14,-27 23,-35l-123 0c-12,4 -21,12 -29,32 -6,15 -9,32 -14,52 -3,12 -7,28 -17,37 -6,5 -16,9 -25,9l-15 0 0 -130 -139 0zm536 117c3,-18 15,-38 54,-38 19,0 29,4 34,10 9,9 9,24 9,31l0 6 -26 2c-53,4 -129,14 -170,47 -28,22 -41,55 -41,87 0,47 33,105 126,105 72,0 104,-36 118,-57 0,25 3,40 5,50l132 0c-11,-36 -11,-59 -11,-79l0 -141c0,-28 0,-58 -14,-85 -29,-55 -96,-62 -156,-62 -40,0 -90,3 -129,29 -20,12 -48,38 -59,83l128 12zm97 74l0 20c0,26 -4,70 -57,70 -25,0 -38,-14 -38,-32 0,-11 5,-26 20,-36 4,-4 19,-13 53,-19l22 -3z"/>
  <path class="fil1" d="M1604 4577c2,-14 9,-26 18,-35 9,-10 23,-16 38,-16 9,0 18,2 24,7 8,6 12,16 12,24 0,9 -3,17 -10,23 -9,8 -22,9 -33,9l-32 0 0 71 32 0c10,0 24,0 33,6 8,5 13,15 13,25 0,10 -4,20 -10,26 -6,7 -18,11 -31,11 -13,0 -28,-4 -38,-14 -8,-9 -12,-22 -13,-33l-119 17c5,48 38,75 55,87 36,24 81,29 126,29 67,0 100,-12 119,-23 30,-18 53,-53 53,-89 0,-21 -8,-43 -23,-58 -13,-12 -34,-21 -52,-24l0 -2c20,-3 36,-12 48,-23 16,-16 23,-37 23,-55 0,-22 -13,-61 -71,-84 -25,-10 -54,-16 -91,-16 -66,0 -113,17 -141,42 -20,17 -36,44 -43,75l113 20zm413 -12c2,-18 15,-39 54,-39 19,0 29,5 34,11 9,9 9,24 9,31l0 5 -26 2c-53,5 -129,15 -170,48 -28,22 -41,55 -41,87 0,47 33,104 126,104 72,0 103,-35 118,-57 0,26 2,41 4,50l133 0c-11,-36 -11,-58 -11,-79l0 -140c0,-29 0,-58 -14,-85 -30,-56 -96,-63 -156,-63 -40,0 -90,3 -129,29 -20,13 -48,38 -59,84l128 12zm97 74l0 20c0,26 -4,69 -57,69 -25,0 -38,-13 -38,-31 0,-11 5,-26 19,-37 5,-3 20,-12 54,-18l22 -3zm491 -74c3,-18 16,-39 54,-39 19,0 30,5 35,11 8,9 8,24 8,31l0 5 -26 2c-53,5 -128,15 -170,48 -27,22 -41,55 -41,87 0,47 33,104 127,104 72,0 103,-35 117,-57 0,26 3,41 5,50l132 0c-10,-36 -10,-58 -10,-79l0 -140c0,-29 0,-58 -14,-85 -30,-56 -97,-63 -156,-63 -40,0 -90,3 -130,29 -19,13 -47,38 -59,84l128 12zm97 74l0 20c0,26 -3,69 -56,69 -25,0 -39,-13 -39,-31 0,-11 5,-26 20,-37 5,-3 20,-12 53,-18l22 -3zm251 -192l0 24c0,121 -6,184 -36,242l-34 0 0 188 125 0 0 -94 147 0 0 94 125 0 0 -188 -43 0 0 -266 -284 0zm98 95l47 0 0 171 -69 0c15,-44 22,-88 22,-161l0 -10zm413 379l0 -152 1 0c8,13 18,24 37,33 15,7 35,12 54,12 31,0 69,-10 99,-51 31,-41 38,-93 38,-139 0,-39 -5,-92 -35,-135 -22,-30 -50,-49 -94,-49 -28,0 -55,7 -75,22 -13,9 -25,23 -34,37l-1 0 0 -52 -129 0 0 474 139 0zm0 -337c0,-13 0,-31 12,-43 7,-6 16,-11 27,-11 14,0 29,7 38,26 6,14 10,33 10,71 0,35 -2,56 -9,71 -9,23 -24,30 -39,30 -19,0 -28,-13 -32,-18 -6,-12 -7,-27 -7,-47l0 -79zm519 97c-1,17 -8,27 -14,33 -6,6 -18,14 -38,14 -22,0 -36,-9 -44,-21 -9,-12 -14,-31 -13,-49l240 0 0 -22c0,-30 -3,-92 -51,-141 -44,-47 -98,-55 -136,-55 -33,0 -88,5 -132,43 -30,25 -63,71 -63,144 0,66 27,111 55,139 43,40 91,48 137,48 38,0 87,-5 129,-36 40,-28 53,-63 59,-88l-129 -9zm-109 -93c-1,-18 6,-35 15,-46 14,-14 28,-16 38,-16 9,0 25,2 37,16 10,12 14,30 12,46l-102 0zm629 -5c-4,-47 -27,-86 -53,-107 -16,-14 -52,-36 -116,-36 -65,0 -107,26 -131,52 -28,29 -50,76 -50,137 0,68 27,111 52,136 43,42 95,49 130,49 35,0 78,-5 115,-36 28,-24 50,-61 55,-106l-123 -10c-1,14 -4,36 -10,48 -9,16 -22,18 -32,18 -13,0 -25,-4 -34,-23 -6,-12 -11,-31 -11,-78 0,-47 2,-68 10,-81 6,-9 16,-20 33,-20 17,0 27,9 32,18 7,11 10,34 10,49l123 -10zm218 -143c-61,0 -103,23 -131,49 -38,35 -59,87 -59,138 0,52 21,104 59,139 28,26 70,48 131,48 61,0 103,-22 131,-48 38,-35 59,-87 59,-139 0,-51 -21,-103 -59,-138 -28,-26 -70,-49 -131,-49zm0 288c-20,0 -30,-9 -38,-26 -9,-19 -10,-44 -10,-75 0,-36 2,-58 10,-75 9,-17 21,-26 38,-26 17,0 30,9 38,26 8,17 10,39 10,75 0,37 -2,59 -10,75 -8,19 -21,26 -38,26zm386 -155l0 -126 -139 0 0 360 139 0 0 -140 35 0c5,45 27,77 49,98 44,43 97,49 133,49 33,0 86,-6 131,-48 38,-35 58,-87 58,-139 0,-52 -20,-103 -58,-138 -45,-42 -98,-49 -131,-49 -34,0 -81,6 -121,38 -27,21 -49,54 -58,95l-38 0zm217 155c-20,0 -30,-9 -38,-26 -9,-19 -10,-44 -10,-75 0,-36 1,-58 10,-75 8,-17 21,-26 38,-26 17,0 29,9 38,26 8,17 10,39 10,75 0,37 -2,59 -10,75 -9,19 -21,26 -38,26zm381 -49l-135 0 0 128 135 0 0 -128zm0 -231l-135 0 0 129 135 0 0 -129z"/>
  <path class="fil1" d="M500 7189l0 -497 251 0c31,0 56,3 74,10 19,8 35,21 51,42 14,22 21,46 21,75 0,46 -20,80 -61,105 51,24 77,64 77,119 0,43 -13,77 -37,105 -25,27 -61,41 -104,41l-271 0 -1 0 0 0zm146 -304l76 0c16,0 29,-3 36,-10 7,-7 12,-20 12,-39 0,-14 -3,-26 -8,-37 -4,-10 -17,-16 -38,-16l-77 0 0 102 -1 0zm0 198l83 0c19,0 32,-4 39,-14 7,-9 10,-23 10,-42 0,-19 -3,-32 -10,-42 -7,-10 -20,-14 -39,-14l-83 0 0 113 0 -1zm273 -391l139 0 66 303 65 -303 119 0 -149 504c-15,48 -28,82 -38,101 -10,19 -26,36 -46,47 -20,13 -46,19 -77,19 -19,0 -39,-3 -59,-7l0 -109c14,1 27,2 39,2 27,0 44,-4 54,-12 10,-9 20,-28 29,-58l-144 -487 2 0zm343 497l148 -497 145 0 136 497 -143 0 -75 -321 -83 321 -128 0zm481 -148l136 0 0 148 -136 0 0 -148zm448 -524l194 0c58,0 104,5 136,15 32,10 59,31 82,66 21,34 33,77 33,129 0,49 -9,90 -26,122 -17,32 -42,56 -73,70 -32,15 -79,22 -145,22l-52 0 0 248 -146 0 0 -672 -3 0zm146 109l0 200 46 0c40,0 68,-10 79,-29 12,-18 17,-43 17,-73 0,-26 -4,-46 -13,-62 -8,-15 -20,-26 -31,-30 -12,-4 -29,-7 -50,-7l-46 0 -2 1zm290 66l140 0 66 303 64 -303 119 0 -149 504c-14,48 -27,82 -37,101 -10,19 -26,36 -46,47 -20,13 -46,19 -78,19 -18,0 -39,-3 -59,-7l0 -109c15,1 28,2 39,2 27,0 45,-4 55,-12 10,-9 20,-28 28,-58l-143 -487 1 0zm786 183l-128 4c-2,-30 -7,-53 -15,-69 -7,-16 -21,-23 -40,-23 -47,0 -70,49 -70,147 0,56 6,96 17,119 12,23 29,34 50,34 35,0 55,-31 58,-93l128 9c-12,130 -77,196 -194,196 -63,0 -112,-21 -147,-64 -34,-43 -50,-108 -50,-193 0,-84 17,-149 53,-194 36,-44 86,-66 149,-66 117,0 180,65 190,193l-1 0zm76 314l0 -497 139 0 0 171 90 0c55,0 94,16 118,49 24,32 36,70 36,115 0,47 -13,86 -37,116 -26,30 -66,46 -122,46l-223 0 -1 0 0 0zm139 -96l66 0c9,0 19,-6 29,-16 10,-10 15,-27 15,-50 0,-42 -14,-63 -44,-63l-66 0 0 129 0 0zm311 -401l140 0 0 191 139 -191 126 0 -125 167 138 330 -151 0 -76 -230 -50 69 0 161 -139 0 0 -497 -2 0zm608 158l-131 -13c6,-50 27,-89 63,-114 36,-28 82,-41 137,-41 46,0 83,9 112,28 28,17 46,38 53,61 7,23 11,61 11,110l0 198c0,61 3,99 7,110l-127 0c-5,-13 -8,-39 -8,-76 -30,58 -76,86 -136,86 -39,0 -70,-11 -95,-34 -24,-23 -36,-58 -36,-101 0,-54 19,-97 55,-128 37,-30 103,-48 200,-54l0 -19c0,-33 -3,-56 -11,-69 -7,-13 -20,-18 -38,-18 -35,0 -55,26 -58,76l2 -2zm106 102c-40,5 -69,13 -86,28 -17,12 -26,35 -26,67 0,42 16,63 46,63 17,0 31,-10 46,-28 13,-19 20,-54 20,-104l0 -24 0 -2zm250 89l136 0 0 135 -83 173 -55 0 65 -160 -65 0 0 -148 2 0zm547 -287l-134 -27c22,-147 96,-220 223,-220 67,0 120,19 155,58 36,37 53,84 53,139 0,56 -20,112 -59,165 -39,55 -113,118 -222,190l290 0 -11 130 -429 0 0 -130c124,-105 200,-180 230,-224 30,-44 46,-85 46,-124 0,-56 -22,-83 -63,-83 -26,0 -45,11 -56,33 -12,21 -20,53 -23,95l0 -2zm598 -247l160 0 0 409 76 0 0 115 -76 0 0 158 -147 0 0 -158 -241 0 0 -115 230 -409 -2 0 0 0zm25 418l0 -277 -149 277 149 0zm617 -102c69,40 104,99 104,174 0,56 -21,105 -59,143 -41,39 -98,59 -175,59 -75,0 -130,-17 -167,-51 -37,-35 -55,-79 -55,-134 0,-33 8,-60 23,-86 16,-25 45,-49 87,-70 -61,-39 -91,-91 -91,-158 0,-52 17,-98 53,-137 36,-39 89,-57 161,-57 69,0 119,16 154,47 34,32 50,73 50,124 0,63 -29,110 -86,143l1 3zm-89 -44c32,-31 46,-62 46,-92 0,-25 -6,-45 -19,-61 -13,-15 -31,-23 -54,-23 -23,0 -42,8 -56,21 -14,14 -22,31 -22,53 0,25 12,46 35,63 23,16 46,29 70,39l0 0zm-69 127c-43,26 -64,59 -64,99 0,29 8,51 25,68 18,17 41,26 71,26 27,0 50,-7 66,-23 16,-16 24,-35 24,-55 0,-17 -7,-34 -20,-51 -13,-18 -47,-38 -102,-62l0 -2z"/>
 </g>
</svg>
