<?xml version="1.0" encoding="UTF-8"?>
<!DOCTYPE svg PUBLIC "-//W3C//DTD SVG 1.1//EN" "http://www.w3.org/Graphics/SVG/1.1/DTD/svg11.dtd">
<!-- Creator: CorelDRAW X7 -->
<svg xmlns="http://www.w3.org/2000/svg" xml:space="preserve" width="87.6592mm" height="210.189mm" version="1.1" style="shape-rendering:geometricPrecision; text-rendering:geometricPrecision; image-rendering:optimizeQuality; fill-rule:evenodd; clip-rule:evenodd"
viewBox="0 0 8767 21020"
 xmlns:xlink="http://www.w3.org/1999/xlink">
 <defs>
  <style type="text/css">
   <![CDATA[
    .str0 {stroke:#FEFEFE;stroke-width:50.0037;stroke-linecap:round;stroke-linejoin:round}
    .fil0 {fill:none}
    .fil7 {fill:#231F20}
    .fil6 {fill:#242122}
    .fil5 {fill:#262223}
    .fil4 {fill:#272425}
    .fil3 {fill:#282526}
    .fil1 {fill:#2A2728}
    .fil12 {fill:#2C292A}
    .fil11 {fill:#2D2A2B}
    .fil9 {fill:#2F2D2E}
    .fil15 {fill:#322E31}
    .fil2 {fill:#363435}
    .fil8 {fill:#5F5F61}
    .fil21 {fill:#8B8C8D}
    .fil19 {fill:#8C8D8E}
    .fil13 {fill:#9C9D9E}
    .fil18 {fill:#9FA0A2}
    .fil20 {fill:#A7A8A9}
    .fil24 {fill:#AEAFB1}
    .fil23 {fill:#B4B5B6}
    .fil22 {fill:#B6B6B8}
    .fil17 {fill:#BABBBC}
    .fil16 {fill:#C1C2C4}
    .fil14 {fill:#CACACC}
    .fil10 {fill:#D0D1D2}
   ]]>
  </style>
 </defs>
 <g id="Слой_x0020_1">
  <metadata id="CorelCorpID_0Corel-Layer"/>
  <g>
   <path class="fil0 str0" d="M1355 20659c46,-70 247,-225 288,-377l252 107c-23,86 -143,134 -222,174 -89,46 -201,86 -316,96l-2 0zm-772 -253c287,-152 211,-153 377,73 51,69 115,111 161,180 -109,-10 -226,-50 -306,-90 -43,-22 -88,-39 -130,-69l-104 -94 0 0 2 0zm683 234l0 -431c101,9 231,33 323,54 -33,124 -222,310 -323,377zm-377 -377c47,-4 171,-42 323,-54l0 431c-102,-68 -189,-159 -259,-261l-64 -115 0 -1zm737 -54c-110,-9 -233,-54 -359,-54l0 -449 485 0c0,167 -68,396 -126,503l0 0 0 0zm323 162c-58,-40 -185,-118 -269,-126l83 -241c26,-90 43,-192 43,-298l431 0c0,353 -184,511 -288,665l0 0 0 0zm-1222 -665l485 0 0 449c-54,2 -110,12 -179,20 -65,7 -99,32 -181,34 -56,-106 -126,-340 -126,-503l0 0 1 0zm-486 0l431 0c0,284 92,390 126,539 -100,23 -186,81 -269,126 -108,-160 -277,-290 -288,-665zm1025 -520c118,-3 253,-45 359,-54 61,117 126,326 126,503l-485 0 0 -449 0 0 0 0zm-414 -54c67,1 105,17 168,29 54,9 149,21 191,25l0 449 -485 0c0,-163 70,-397 126,-503l0 0 0 0zm826 -36c85,-7 212,-86 270,-126 35,53 64,69 104,130 99,153 184,331 184,536l-431 0c0,-103 -17,-198 -40,-285 -10,-39 -22,-73 -39,-122l-48 -133 0 0 0 0zm-1006 539l-431 0c0,-353 184,-511 288,-666l265 133 -79 235c-26,89 -43,192 -43,298l0 0 0 0zm683 -521l-89 0 0 -414c70,47 129,90 183,159 40,51 124,159 140,219 -76,17 -137,36 -234,36l0 0zm-144 -414l0 414c-217,0 -196,-25 -323,-36 32,-125 223,-310 323,-377l0 -1zm144 -17c125,2 502,131 539,269 -55,13 -80,31 -126,54 -44,22 -84,34 -126,54 -33,-144 -242,-310 -288,-377l0 0 1 0zm-538 358c-32,0 -200,-89 -234,-107 71,-107 362,-247 538,-251 -42,63 -152,144 -227,258 -18,29 -43,100 -79,100l0 0 2 0zm-630 594c0,331 96,534 292,767 58,70 209,165 284,201 289,145 649,153 940,7 62,-32 109,-53 159,-92 735,-586 476,-1649 -381,-1872 -336,-88 -729,22 -976,264 -178,175 -318,456 -318,724l0 1z"/>
   <path id="1" class="fil1" d="M1355 20659c46,-70 247,-225 288,-377l252 107c-23,86 -143,134 -222,174 -89,46 -201,86 -316,96l-2 0zm-772 -253c287,-152 211,-153 377,73 51,69 115,111 161,180 -109,-10 -226,-50 -306,-90 -43,-22 -88,-39 -130,-69l-104 -94 0 0 2 0zm683 234l0 -431c101,9 231,33 323,54 -33,124 -222,310 -323,377zm-377 -377c47,-4 171,-42 323,-54l0 431c-102,-68 -189,-159 -259,-261l-64 -115 0 -1zm737 -54c-110,-9 -233,-54 -359,-54l0 -449 485 0c0,167 -68,396 -126,503l0 0 0 0zm323 162c-58,-40 -185,-118 -269,-126l83 -241c26,-90 43,-192 43,-298l431 0c0,353 -184,511 -288,665l0 0 0 0zm-1222 -665l485 0 0 449c-54,2 -110,12 -179,20 -65,7 -99,32 -181,34 -56,-106 -126,-340 -126,-503l0 0 1 0zm-486 0l431 0c0,284 92,390 126,539 -100,23 -186,81 -269,126 -108,-160 -277,-290 -288,-665zm1025 -520c118,-3 253,-45 359,-54 61,117 126,326 126,503l-485 0 0 -449 0 0 0 0zm-414 -54c67,1 105,17 168,29 54,9 149,21 191,25l0 449 -485 0c0,-163 70,-397 126,-503l0 0 0 0zm826 -36c85,-7 212,-86 270,-126 35,53 64,69 104,130 99,153 184,331 184,536l-431 0c0,-103 -17,-198 -40,-285 -10,-39 -22,-73 -39,-122l-48 -133 0 0 0 0zm-1006 539l-431 0c0,-353 184,-511 288,-666l265 133 -79 235c-26,89 -43,192 -43,298l0 0 0 0zm683 -521l-89 0 0 -414c70,47 129,90 183,159 40,51 124,159 140,219 -76,17 -137,36 -234,36l0 0zm-144 -414l0 414c-217,0 -196,-25 -323,-36 32,-125 223,-310 323,-377l0 -1zm144 -17c125,2 502,131 539,269 -55,13 -80,31 -126,54 -44,22 -84,34 -126,54 -33,-144 -242,-310 -288,-377l0 0 1 0zm-538 358c-32,0 -200,-89 -234,-107 71,-107 362,-247 538,-251 -42,63 -152,144 -227,258 -18,29 -43,100 -79,100l0 0 2 0zm-630 594c0,331 96,534 292,767 58,70 209,165 284,201 289,145 649,153 940,7 62,-32 109,-53 159,-92 735,-586 476,-1649 -381,-1872 -336,-88 -729,22 -976,264 -178,175 -318,456 -318,724l0 1z"/>
  </g>
  <g>
   <path class="fil0 str0" d="M600 16646l0 -1005c0,-55 17,-73 35,-108l126 0c19,36 36,53 36,108l0 1042c-114,76 -84,76 -198,0l0 -36 0 0 1 -1zm935 -35l0 -953c0,-66 28,-87 54,-126 58,0 145,-13 145,72l0 1096c-119,62 -197,34 -197,-89l0 0 -2 0zm413 0c-58,0 -145,13 -145,-73l0 -844c15,-10 78,-54 91,-54 68,0 108,52 108,126l0 719c0,65 -28,88 -54,126l0 0zm-1455 0c-57,0 -144,13 -144,-73l0 -844c13,-10 76,-54 89,-54 70,0 108,52 108,126l0 719c0,65 -28,88 -54,126l0 0 1 0zm359 -683l629 0 0 413 -629 0 0 -413zm-730 0c31,-18 -33,-4 47,-19l122 9c1,67 20,366 -14,422 -149,-1 -182,39 -180,-106 0,-96 1,-193 1,-289l25 -17 0 0 -1 0zm2058 413l-126 0 0 -413 180 0c17,70 70,413 -54,413zm-1634 -718c-198,-105 -269,31 -269,234 -278,0 -251,35 -251,395 0,169 132,145 251,145 0,258 65,298 269,250 17,211 306,182 306,0l0 -250 629 0c0,166 -36,395 162,395 130,0 146,-110 162,-145 227,111 252,-95 252,-250 285,0 251,10 251,-396 0,-163 -153,-144 -251,-144 0,-322 -111,-265 -269,-251 -15,-180 -307,-201 -307,53l0 198 -629 0 0 -234c0,-191 -288,-225 -306,0l0 0 0 0z"/>
   <path id="1" class="fil1" d="M600 16646l0 -1005c0,-55 17,-73 35,-108l126 0c19,36 36,53 36,108l0 1042c-114,76 -84,76 -198,0l0 -36 0 0 1 -1zm935 -35l0 -953c0,-66 28,-87 54,-126 58,0 145,-13 145,72l0 1096c-119,62 -197,34 -197,-89l0 0 -2 0zm413 0c-58,0 -145,13 -145,-73l0 -844c15,-10 78,-54 91,-54 68,0 108,52 108,126l0 719c0,65 -28,88 -54,126l0 0zm-1455 0c-57,0 -144,13 -144,-73l0 -844c13,-10 76,-54 89,-54 70,0 108,52 108,126l0 719c0,65 -28,88 -54,126l0 0 1 0zm359 -683l629 0 0 413 -629 0 0 -413zm-730 0c31,-18 -33,-4 47,-19l122 9c1,67 20,366 -14,422 -149,-1 -182,39 -180,-106 0,-96 1,-193 1,-289l25 -17 0 0 -1 0zm2058 413l-126 0 0 -413 180 0c17,70 70,413 -54,413zm-1634 -718c-198,-105 -269,31 -269,234 -278,0 -251,35 -251,395 0,169 132,145 251,145 0,258 65,298 269,250 17,211 306,182 306,0l0 -250 629 0c0,166 -36,395 162,395 130,0 146,-110 162,-145 227,111 252,-95 252,-250 285,0 251,10 251,-396 0,-163 -153,-144 -251,-144 0,-322 -111,-265 -269,-251 -15,-180 -307,-201 -307,53l0 198 -629 0 0 -234c0,-191 -288,-225 -306,0l0 0 0 0z"/>
  </g>
  <g>
   <path class="fil0 str0" d="M358 5312l526 -4 0 520 -526 -516 0 0zm1507 570c-21,32 -832,30 -914,5l-10 -616 -452 -18c-215,1 -180,40 -180,-288l-1 -1188c7,-100 55,-71 163,-71 122,2 355,-13 464,4 270,44 636,15 938,15l-7 2156 0 0 -1 1zm-1609 -2173l0 1563c0,57 437,464 507,535 54,54 115,149 211,149l899 0c42,0 54,-14 54,-54l0 -2192c0,-42 -13,-54 -54,-54l-1564 0c-42,0 -53,14 -53,54l0 0 0 -1z"/>
   <path id="1" class="fil2" d="M358 5312l526 -4 0 520 -526 -516 0 0zm1507 570c-21,32 -832,30 -914,5l-10 -616 -452 -18c-215,1 -180,40 -180,-288l-1 -1188c7,-100 55,-71 163,-71 122,2 355,-13 464,4 270,44 636,15 938,15l-7 2156 0 0 -1 1zm-1609 -2173l0 1563c0,57 437,464 507,535 54,54 115,149 211,149l899 0c42,0 54,-14 54,-54l0 -2192c0,-42 -13,-54 -54,-54l-1564 0c-42,0 -53,14 -53,54l0 0 0 -1z"/>
  </g>
  <g>
   <path class="fil0 str0" d="M1333 1433c0,-56 49,-107 74,-143l554 0 0 266c-139,0 -498,23 -572,-33 -19,-15 -56,-75 -56,-90l0 0zm25 -1013c20,73 52,91 119,194 45,67 82,117 120,191l-820 0c47,-71 490,-364 580,-385l1 0zm240 217l218 0 0 168c-181,0 -148,-36 -218,-168zm-1013 168l-241 0 0 74 1472 0 0 314c-169,0 -555,-47 -555,217 0,273 332,217 555,217l0 433 -1664 0 0 -1423 674 24 -241 144zm385 -240l-724 -1c-90,0 -168,-23 -168,73l0 1497 1809 0 0 -507 145 0c0,-473 37,-434 -145,-434l0 -627 -361 0c-183,-345 -137,-280 -556,0l0 0 0 -1z"/>
   <path id="1" class="fil3" d="M1333 1433c0,-56 49,-107 74,-143l554 0 0 266c-139,0 -498,23 -572,-33 -19,-15 -56,-75 -56,-90l0 0zm25 -1013c20,73 52,91 119,194 45,67 82,117 120,191l-820 0c47,-71 490,-364 580,-385l1 0zm240 217l218 0 0 168c-181,0 -148,-36 -218,-168zm-1013 168l-241 0 0 74 1472 0 0 314c-169,0 -555,-47 -555,217 0,273 332,217 555,217l0 433 -1664 0 0 -1423 674 24 -241 144zm385 -240l-724 -1c-90,0 -168,-23 -168,73l0 1497 1809 0 0 -507 145 0c0,-473 37,-434 -145,-434l0 -627 -361 0c-183,-345 -137,-280 -556,0l0 0 0 -1z"/>
  </g>
  <g>
   <path class="fil0 str0" d="M1573 13019l203 0 0 111 -203 0 0 -111zm-1168 0l203 0 0 111 -203 0 0 -111zm-90 -1842l1550 0 0 1775 -1550 0 0 -1775zm1617 360l45 0 0 269 -45 0 0 -269zm-1729 0l45 0 0 269 -45 0 0 -269zm45 -91c-90,1 -54,-7 -113,22l0 405c51,11 52,17 113,22l0 1124 90 0 0 180c144,33 192,33 337,0l0 -180 831 0 0 180c144,33 192,33 338,0l0 -180 89 0 24 -1145 91 0 0 -404c-59,-28 -25,-21 -113,-23l0 -337 -1685 0 0 337 0 0 -2 -1z"/>
   <path id="1" class="fil4" d="M1573 13019l203 0 0 111 -203 0 0 -111zm-1168 0l203 0 0 111 -203 0 0 -111zm-90 -1842l1550 0 0 1775 -1550 0 0 -1775zm1617 360l45 0 0 269 -45 0 0 -269zm-1729 0l45 0 0 269 -45 0 0 -269zm45 -91c-90,1 -54,-7 -113,22l0 405c51,11 52,17 113,22l0 1124 90 0 0 180c144,33 192,33 337,0l0 -180 831 0 0 180c144,33 192,33 338,0l0 -180 89 0 24 -1145 91 0 0 -404c-59,-28 -25,-21 -113,-23l0 -337 -1685 0 0 337 0 0 -2 -1z"/>
  </g>
  <g>
   <path class="fil0 str0" d="M379 8586l340 0c130,-193 98,-271 195,-342 2,141 62,232 72,366l74 0c5,-27 122,-316 218,-341 27,120 118,245 146,364l72 0c22,-92 51,-101 73,-193 62,46 102,131 121,218l170 0c-134,256 -610,683 -706,828 -201,-134 -644,-645 -779,-900l0 0 4 0zm292 -74l-364 0c-32,-131 -259,-512 -8,-785 246,-267 711,-146 811,226 206,-56 82,-366 558,-366 187,0 338,142 391,267 112,259 -23,545 -147,732l-169 0c-28,-118 -95,-174 -121,-293 -159,42 -45,102 -171,194l-169 -390c-121,82 -142,268 -245,342 -48,-104 -47,-262 -96,-366 -92,24 -55,14 -145,195 -41,80 -81,163 -123,243l0 0 -2 1zm-559 -511c0,238 16,313 121,511 -127,0 -115,-25 -169,49 76,37 110,25 218,25 97,183 67,115 184,277 172,235 439,453 554,612 55,77 62,67 137,107 108,-162 331,-306 452,-472l310 -395c71,-94 62,-33 161,-82 -28,-76 53,-34 -72,-47 139,-266 272,-620 44,-895 -69,-81 -192,-155 -314,-175 -121,-18 -259,-11 -364,48 -83,46 -193,161 -217,268 -88,-63 -96,-159 -218,-245 -318,-219 -828,17 -828,414l0 0 1 0z"/>
   <path id="1" class="fil4" d="M379 8586l340 0c130,-193 98,-271 195,-342 2,141 62,232 72,366l74 0c5,-27 122,-316 218,-341 27,120 118,245 146,364l72 0c22,-92 51,-101 73,-193 62,46 102,131 121,218l170 0c-134,256 -610,683 -706,828 -201,-134 -644,-645 -779,-900l0 0 4 0zm292 -74l-364 0c-32,-131 -259,-512 -8,-785 246,-267 711,-146 811,226 206,-56 82,-366 558,-366 187,0 338,142 391,267 112,259 -23,545 -147,732l-169 0c-28,-118 -95,-174 -121,-293 -159,42 -45,102 -171,194l-169 -390c-121,82 -142,268 -245,342 -48,-104 -47,-262 -96,-366 -92,24 -55,14 -145,195 -41,80 -81,163 -123,243l0 0 -2 1zm-559 -511c0,238 16,313 121,511 -127,0 -115,-25 -169,49 76,37 110,25 218,25 97,183 67,115 184,277 172,235 439,453 554,612 55,77 62,67 137,107 108,-162 331,-306 452,-472l310 -395c71,-94 62,-33 161,-82 -28,-76 53,-34 -72,-47 139,-266 272,-620 44,-895 -69,-81 -192,-155 -314,-175 -121,-18 -259,-11 -364,48 -83,46 -193,161 -217,268 -88,-63 -96,-159 -218,-245 -318,-219 -828,17 -828,414l0 0 1 0z"/>
  </g>
  <g>
   <path class="fil0 str0" d="M2865 17254c0,-156 35,-197 161,-197 70,104 54,83 54,251 0,166 -215,186 -215,-54l0 0zm431 180c-174,0 -178,-377 0,-377l35 0c167,250 -17,377 -35,377zm-216 -413c-50,-12 -73,-36 -107,-36 -111,0 -198,125 -198,234 0,197 54,221 180,288l125 -38 2 201 89 0 0 -216c189,128 306,-29 306,-180 0,-236 -109,-365 -306,-234l0 -234c-66,2 -80,-9 -91,54 -4,28 2,128 2,163l0 0 -2 -2z"/>
   <path id="1" class="fil5" d="M2865 17254c0,-156 35,-197 161,-197 70,104 54,83 54,251 0,166 -215,186 -215,-54l0 0zm431 180c-174,0 -178,-377 0,-377l35 0c167,250 -17,377 -35,377zm-216 -413c-50,-12 -73,-36 -107,-36 -111,0 -198,125 -198,234 0,197 54,221 180,288l125 -38 2 201 89 0 0 -216c189,128 306,-29 306,-180 0,-236 -109,-365 -306,-234l0 -234c-66,2 -80,-9 -91,54 -4,28 2,128 2,163l0 0 -2 -2z"/>
  </g>
  <g>
   <path class="fil0 str0" d="M472 11626l1237 0 0 832 -1237 0 0 -832zm-67 899l1325 0c52,0 68,-16 68,-67l0 -832c0,-51 -16,-67 -68,-67l-1325 0 0 966 0 0z"/>
   <path id="1" class="fil1" d="M472 11626l1237 0 0 832 -1237 0 0 -832zm-67 899l1325 0c52,0 68,-16 68,-67l0 -832c0,-51 -16,-67 -68,-67l-1325 0 0 966 0 0z"/>
  </g>
  <g>
   <polygon class="fil0 str0" points="5213,11206 5841,11206 5841,10721 5751,10721 5751,11133 5571,11133 5571,10721 5482,10721 5482,11133 5302,11133 5302,10721 5213,10721 "/>
   <polygon id="1" class="fil4" points="5213,11206 5841,11206 5841,10721 5751,10721 5751,11133 5571,11133 5571,10721 5482,10721 5482,11133 5302,11133 5302,10721 5213,10721 "/>
  </g>
  <g>
   <path class="fil0 str0" d="M3783 20969l91 0 17 -377 108 377 89 0c7,-78 34,-112 57,-178l39 -122c22,-47 17,-28 29,-42l0 340 90 0 0 -484 -126 0c-31,132 -94,240 -126,377l-69 -183c-21,-62 -52,-129 -57,-196l-144 0 0 485 2 3z"/>
   <path id="1" class="fil4" d="M3783 20969l91 0 17 -377 108 377 89 0c7,-78 34,-112 57,-178l39 -122c22,-47 17,-28 29,-42l0 340 90 0 0 -484 -126 0c-31,132 -94,240 -126,377l-69 -183c-21,-62 -52,-129 -57,-196l-144 0 0 485 2 3z"/>
  </g>
  <g>
   <path class="fil0 str0" d="M4938 1579c-209,0 -181,-377 -17,-377 49,0 77,12 101,42 89,111 25,335 -84,335zm-251 -287c0,64 19,182 41,228 31,66 69,100 150,121 270,74 373,-380 156,-482 -141,-66 -192,4 -276,60 62,-264 105,-144 292,-193 71,-18 79,-17 84,-94 -78,1 -84,17 -180,17 -222,1 -268,140 -268,341l0 0 1 2z"/>
   <path id="1" class="fil5" d="M4938 1579c-209,0 -181,-377 -17,-377 49,0 77,12 101,42 89,111 25,335 -84,335zm-251 -287c0,64 19,182 41,228 31,66 69,100 150,121 270,74 373,-380 156,-482 -141,-66 -192,4 -276,60 62,-264 105,-144 292,-193 71,-18 79,-17 84,-94 -78,1 -84,17 -180,17 -222,1 -268,140 -268,341l0 0 1 2z"/>
  </g>
  <g>
   <path class="fil0 str0" d="M3028 15516c-153,0 -145,-130 -145,-215 0,-82 38,-93 72,-145l127 0c57,88 72,44 72,197 0,75 -51,163 -126,163l0 0 0 0zm-19 71c355,0 313,-690 -143,-448 1,-109 47,-151 145,-161 124,-14 203,44 215,-91 -416,0 -398,58 -439,281 -17,91 -6,296 94,371 21,15 101,48 130,48l-2 0z"/>
   <path id="1" class="fil5" d="M3028 15516c-153,0 -145,-130 -145,-215 0,-82 38,-93 72,-145l127 0c57,88 72,44 72,197 0,75 -51,163 -126,163l0 0 0 0zm-19 71c355,0 313,-690 -143,-448 1,-109 47,-151 145,-161 124,-14 203,44 215,-91 -416,0 -398,58 -439,281 -17,91 -6,296 94,371 21,15 101,48 130,48l-2 0z"/>
  </g>
  <g>
   <path class="fil0 str0" d="M5172 9517c-271,0 -125,-529 81,-332 75,72 62,332 -81,332zm-162 -377l0 17 -21 -14 21 -3zm0 0l0 -90c80,-54 57,-74 197,-73 113,2 159,7 162,-106 -47,1 -219,22 -256,32 -208,51 -187,235 -175,399 13,189 81,336 302,268 75,-24 122,-85 141,-166 60,-253 -157,-354 -281,-316 -36,25 -50,33 -90,54l0 -2z"/>
   <path id="1" class="fil5" d="M5172 9517c-271,0 -125,-529 81,-332 75,72 62,332 -81,332zm-162 -377l0 17 -21 -14 21 -3zm0 0l0 -90c80,-54 57,-74 197,-73 113,2 159,7 162,-106 -47,1 -219,22 -256,32 -208,51 -187,235 -175,399 13,189 81,336 302,268 75,-24 122,-85 141,-166 60,-253 -157,-354 -281,-316 -36,25 -50,33 -90,54l0 -2z"/>
  </g>
  <g>
   <path class="fil0 str0" d="M5097 19781c0,-326 269,-252 269,-89 0,75 10,233 -126,233 -86,0 -143,-56 -143,-144l0 0 0 0zm-91 -234c0,163 -21,264 61,371 68,90 389,170 389,-228 0,-125 -94,-197 -234,-197 -82,0 -93,38 -145,72 0,-350 355,-34 360,-287 -230,19 -432,16 -432,269l0 0 1 0z"/>
   <path id="1" class="fil6" d="M5097 19781c0,-326 269,-252 269,-89 0,75 10,233 -126,233 -86,0 -143,-56 -143,-144l0 0 0 0zm-91 -234c0,163 -21,264 61,371 68,90 389,170 389,-228 0,-125 -94,-197 -234,-197 -82,0 -93,38 -145,72 0,-350 355,-34 360,-287 -230,19 -432,16 -432,269l0 0 1 0z"/>
  </g>
  <g>
   <path class="fil0 str0" d="M2894 7816l72 0 0 -377c84,62 100,286 143,377l72 0 115 -317c22,-47 17,-27 30,-43l0 360 89 0 0 -486 -126 0 -118 331c-1,5 -9,21 -11,25l-138 -357 -127 1 0 486 -1 0z"/>
   <path id="1" class="fil6" d="M2894 7816l72 0 0 -377c84,62 100,286 143,377l72 0 115 -317c22,-47 17,-27 30,-43l0 360 89 0 0 -486 -126 0 -118 331c-1,5 -9,21 -11,25l-138 -357 -127 1 0 486 -1 0z"/>
  </g>
  <g>
   <path class="fil0 str0" d="M3021 11152c-81,0 -231,-122 -72,-359l144 0c25,38 71,79 71,145 0,105 -42,215 -143,215l0 0 0 -1zm-234 -323c0,162 13,374 220,392 51,6 113,-17 146,-46 136,-118 160,-454 -150,-454 -82,0 -93,39 -143,72 27,-339 325,-50 377,-269 -293,0 -448,5 -448,306l0 0 -2 -1z"/>
   <path id="1" class="fil5" d="M3021 11152c-81,0 -231,-122 -72,-359l144 0c25,38 71,79 71,145 0,105 -42,215 -143,215l0 0 0 -1zm-234 -323c0,162 13,374 220,392 51,6 113,-17 146,-46 136,-118 160,-454 -150,-454 -82,0 -93,39 -143,72 27,-339 325,-50 377,-269 -293,0 -448,5 -448,306l0 0 -2 -1z"/>
  </g>
  <g>
   <path class="fil0 str0" d="M6981 20620l-198 0 0 -233 269 0c100,147 49,233 -71,233l0 0zm-288 359l90 0 0 -269c92,0 253,2 324,-34 117,-62 164,-379 -144,-379l-270 0 0 682 0 0z"/>
   <path id="1" class="fil5" d="M6981 20620l-198 0 0 -233 269 0c100,147 49,233 -71,233l0 0zm-288 359l90 0 0 -269c92,0 253,2 324,-34 117,-62 164,-379 -144,-379l-270 0 0 682 0 0z"/>
  </g>
  <g>
   <path class="fil0 str0" d="M5954 13819c-91,0 -229,-126 -73,-359l145 0c164,246 -9,359 -72,359l0 0 0 0zm-234 -359c0,105 -9,230 42,317 73,126 234,132 314,73 142,-105 161,-463 -141,-463 -80,0 -93,38 -143,72 4,-167 63,-180 234,-179 104,0 123,-5 143,-91 -223,0 -448,-10 -448,270l0 0 -1 1z"/>
   <path id="1" class="fil6" d="M5954 13819c-91,0 -229,-126 -73,-359l145 0c164,246 -9,359 -72,359l0 0 0 0zm-234 -359c0,105 -9,230 42,317 73,126 234,132 314,73 142,-105 161,-463 -141,-463 -80,0 -93,38 -143,72 4,-167 63,-180 234,-179 104,0 123,-5 143,-91 -223,0 -448,-10 -448,270l0 0 -1 1z"/>
  </g>
  <g>
   <path class="fil0 str0" d="M5407 12544l71 0c34,52 72,75 72,162 0,335 -391,201 -257,-96 21,-47 54,-66 114,-66l0 0zm-234 73c0,182 70,404 291,347 65,-18 118,-60 145,-125 66,-153 23,-367 -222,-367 -81,0 -93,40 -144,72 27,-339 326,-50 377,-269 -318,0 -448,17 -448,342l0 0 1 0z"/>
   <path id="1" class="fil5" d="M5407 12544l71 0c34,52 72,75 72,162 0,335 -391,201 -257,-96 21,-47 54,-66 114,-66l0 0zm-234 73c0,182 70,404 291,347 65,-18 118,-60 145,-125 66,-153 23,-367 -222,-367 -81,0 -93,40 -144,72 27,-339 326,-50 377,-269 -318,0 -448,17 -448,342l0 0 1 0z"/>
  </g>
  <g>
   <path class="fil0 str0" d="M2894 277l178 0 0 359 -251 0c37,-78 73,-244 73,-359l0 0zm-73 0c0,92 -13,224 -52,306 -36,77 1,45 -74,53l0 215 73 0 0 -143 377 0 0 143 72 0 0 -215 -54 0 0 -431 -342 0 0 72 0 0 0 0z"/>
   <path id="1" class="fil5" d="M2894 277l178 0 0 359 -251 0c37,-78 73,-244 73,-359l0 0zm-73 0c0,92 -13,224 -52,306 -36,77 1,45 -74,53l0 215 73 0 0 -143 377 0 0 143 72 0 0 -215 -54 0 0 -431 -342 0 0 72 0 0 0 0z"/>
  </g>
  <g>
   <path class="fil0 str0" d="M8128 17483l72 0 0 -377c58,67 87,259 143,377l73 0 144 -359 0 359 73 0 0 -486 -108 0c-32,58 -41,96 -66,169 -25,75 -54,107 -60,191l-36 0c-9,-106 -83,-250 -108,-360l-126 0 0 486 0 0 -1 0z"/>
   <path id="1" class="fil6" d="M8128 17483l72 0 0 -377c58,67 87,259 143,377l73 0 144 -359 0 359 73 0 0 -486 -108 0c-32,58 -41,96 -66,169 -25,75 -54,107 -60,191l-36 0c-9,-106 -83,-250 -108,-360l-126 0 0 486 0 0 -1 0z"/>
  </g>
  <g>
   <path class="fil0 str0" d="M4093 9517c-119,-63 -106,-81 -106,-233 0,-157 251,-259 251,72 0,126 -78,147 -145,161zm-106 -395c-21,-51 12,-36 -91,-36l0 630c0,60 32,52 91,54l0 -234c9,5 106,54 106,54 369,0 268,-719 -106,-468l0 0z"/>
   <path id="1" class="fil4" d="M4093 9517c-119,-63 -106,-81 -106,-233 0,-157 251,-259 251,72 0,126 -78,147 -145,161zm-106 -395c-21,-51 12,-36 -91,-36l0 630c0,60 32,52 91,54l0 -234c9,5 106,54 106,54 369,0 268,-719 -106,-468l0 0z"/>
  </g>
  <g>
   <path class="fil0 str0" d="M3978 18566l178 0 0 358 -251 0c25,-102 69,-176 73,-358l0 0zm-197 358l0 216c82,-7 72,-2 72,-145l377 0 0 145c84,-7 72,0 72,-162 0,-50 -13,-43 -54,-54l0 -412 -341 0c0,96 12,398 -126,412l0 0 0 0z"/>
   <path id="1" class="fil5" d="M3978 18566l178 0 0 358 -251 0c25,-102 69,-176 73,-358l0 0zm-197 358l0 216c82,-7 72,-2 72,-145l377 0 0 145c84,-7 72,0 72,-162 0,-50 -13,-43 -54,-54l0 -412 -341 0c0,96 12,398 -126,412l0 0 0 0z"/>
  </g>
  <g>
   <path class="fil0 str0" d="M6236 8286l197 0 0 342 -251 0c5,-66 24,-91 37,-160 14,-70 17,-90 17,-182l0 0zm-72 73c0,95 -13,260 -126,269l0 215 72 0 0 -143 377 0c0,142 -10,137 71,143l0 -215 -54 0 0 -414 -341 0 0 145 1 0z"/>
   <path id="1" class="fil5" d="M6236 8286l197 0 0 342 -251 0c5,-66 24,-91 37,-160 14,-70 17,-90 17,-182l0 0zm-72 73c0,95 -13,260 -126,269l0 215 72 0 0 -143 377 0c0,142 -10,137 71,143l0 -215 -54 0 0 -414 -341 0 0 145 1 0z"/>
  </g>
  <g>
   <path class="fil0 str0" d="M4420 8466c0,-188 98,-197 197,-197 40,57 127,180 41,310 -56,83 -142,86 -198,10 -16,-20 -40,-96 -40,-123l0 0zm0 -215c-18,-47 37,-33 -71,-36 0,162 -35,684 36,684 84,0 54,-145 54,-234 92,47 102,73 207,27 190,-81 184,-495 -81,-495 -84,0 -72,34 -145,54l0 0 0 0z"/>
   <path id="1" class="fil5" d="M4420 8466c0,-188 98,-197 197,-197 40,57 127,180 41,310 -56,83 -142,86 -198,10 -16,-20 -40,-96 -40,-123l0 0zm0 -215c-18,-47 37,-33 -71,-36 0,162 -35,684 36,684 84,0 54,-145 54,-234 92,47 102,73 207,27 190,-81 184,-495 -81,-495 -84,0 -72,34 -145,54l0 0 0 0z"/>
  </g>
  <g>
   <path class="fil0 str0" d="M2992 11667l197 0 0 341 -251 0c6,-65 24,-90 37,-160 15,-70 17,-89 17,-181l0 0zm-71 72c0,97 -13,260 -126,269 0,216 -17,209 72,216l0 -143 378 0c0,142 -11,136 72,143l0 -216 -54 0 0 -413 -340 0 0 144 -2 0z"/>
   <path id="1" class="fil5" d="M2992 11667l197 0 0 341 -251 0c6,-65 24,-90 37,-160 15,-70 17,-89 17,-181l0 0zm-71 72c0,97 -13,260 -126,269 0,216 -17,209 72,216l0 -143 378 0c0,142 -11,136 72,143l0 -216 -54 0 0 -413 -340 0 0 144 -2 0z"/>
  </g>
  <g>
   <path class="fil0 str0" d="M3879 1185c104,55 126,78 126,197 0,51 -9,99 -31,130 -134,199 -297,-77 -204,-257 28,-54 58,-48 109,-71l0 0 0 1zm-215 0l0 593c0,60 32,54 90,54l0 -234c69,35 178,105 280,-25 58,-74 154,-443 -190,-443 -62,0 -25,31 -108,54l0 -54 -54 0c-13,21 -18,20 -18,54l0 0 0 1z"/>
   <path id="1" class="fil4" d="M3879 1185c104,55 126,78 126,197 0,51 -9,99 -31,130 -134,199 -297,-77 -204,-257 28,-54 58,-48 109,-71l0 0 0 1zm-215 0l0 593c0,60 32,54 90,54l0 -234c69,35 178,105 280,-25 58,-74 154,-443 -190,-443 -62,0 -25,31 -108,54l0 -54 -54 0c-13,21 -18,20 -18,54l0 0 0 1z"/>
  </g>
  <g>
   <path class="fil0 str0" d="M3967 16369c-160,0 -193,-377 19,-377 148,0 148,377 -19,377zm-112 -396l-31 22 0 -58 -71 0 0 666 89 0 0 -216c83,44 144,70 235,19 119,-66 162,-331 14,-446 -73,-56 -175,-52 -234,14l0 0 -2 -1z"/>
   <path id="1" class="fil4" d="M3967 16369c-160,0 -193,-377 19,-377 148,0 148,377 -19,377zm-112 -396l-31 22 0 -58 -71 0 0 666 89 0 0 -216c83,44 144,70 235,19 119,-66 162,-331 14,-446 -73,-56 -175,-52 -234,14l0 0 -2 -1z"/>
  </g>
  <g>
   <path class="fil0 str0" d="M4177 12008l-161 0 0 -144 126 0c66,0 108,26 108,89 0,23 -37,54 -73,54l0 0 0 1zm17 -215l-178 0 0 -126 178 0 36 54 -37 72 0 0 1 0zm-268 288c194,0 347,35 396,-92 27,-74 4,-123 -54,-161 78,-115 34,-233 -89,-233l-253 0 0 486 0 0 0 0z"/>
   <path id="1" class="fil5" d="M4177 12008l-161 0 0 -144 126 0c66,0 108,26 108,89 0,23 -37,54 -73,54l0 0 0 1zm17 -215l-178 0 0 -126 178 0 36 54 -37 72 0 0 1 0zm-268 288c194,0 347,35 396,-92 27,-74 4,-123 -54,-161 78,-115 34,-233 -89,-233l-253 0 0 486 0 0 0 0z"/>
  </g>
  <g>
   <path class="fil0 str0" d="M5644 8628l-162 0 0 -145 126 0c66,0 108,27 108,90 0,22 -38,54 -72,54l0 0 0 1zm17 -216l-179 0c0,-132 -13,-156 96,-134 88,18 62,6 118,45 -8,36 -17,66 -35,89zm-270 288c193,0 347,36 396,-92 27,-73 4,-122 -54,-160 45,-84 35,-74 35,-179 -120,-80 -147,-54 -377,-54l0 486 0 0 0 -1z"/>
   <path id="1" class="fil6" d="M5644 8628l-162 0 0 -145 126 0c66,0 108,27 108,90 0,22 -38,54 -72,54l0 0 0 1zm17 -216l-179 0c0,-132 -13,-156 96,-134 88,18 62,6 118,45 -8,36 -17,66 -35,89zm-270 288c193,0 347,36 396,-92 27,-73 4,-122 -54,-160 45,-84 35,-74 35,-179 -120,-80 -147,-54 -377,-54l0 486 0 0 0 -1z"/>
  </g>
  <g>
   <path class="fil0 str0" d="M3124 9500l-162 0 0 -144 126 0c66,0 108,26 108,89 0,22 -37,54 -72,54l0 0 0 1zm18 -215l-180 0 0 -143c89,0 159,15 216,53 -10,36 -19,66 -36,90l0 0zm-269 288c193,0 347,35 395,-92 28,-74 4,-123 -54,-161 44,-84 36,-73 36,-178 -121,-81 -149,-54 -377,-54l0 486 0 0 0 -1z"/>
   <path id="1" class="fil6" d="M3124 9500l-162 0 0 -144 126 0c66,0 108,26 108,89 0,22 -37,54 -72,54l0 0 0 1zm18 -215l-180 0 0 -143c89,0 159,15 216,53 -10,36 -19,66 -36,90l0 0zm-269 288c193,0 347,35 395,-92 28,-74 4,-123 -54,-161 44,-84 36,-73 36,-178 -121,-81 -149,-54 -377,-54l0 486 0 0 0 -1z"/>
  </g>
  <g>
   <path class="fil0 str0" d="M4221 12741c0,-216 106,-215 197,-215 58,84 113,201 39,310 -94,141 -238,21 -238,-95l2 0zm0 -215l0 -54 -73 0 0 665 91 0 0 -216c84,43 149,100 264,-22 133,-138 68,-445 -139,-445 -82,0 -95,38 -145,72l2 0z"/>
   <path id="1" class="fil5" d="M4221 12741c0,-216 106,-215 197,-215 58,84 113,201 39,310 -94,141 -238,21 -238,-95l2 0zm0 -215l0 -54 -73 0 0 665 91 0 0 -216c84,43 149,100 264,-22 133,-138 68,-445 -139,-445 -82,0 -95,38 -145,72l2 0z"/>
  </g>
  <g>
   <path class="fil0 str0" d="M4059 4032l-161 0 0 -144 126 0c65,0 106,26 106,90 0,21 -37,54 -72,54l0 0 1 0zm18 -215l-179 0 0 -126c177,0 140,-15 215,35 -9,36 -18,66 -36,89l0 2zm-269 287c380,0 336,18 414,-144 -35,-67 -17,-70 -72,-89 0,0 134,-253 -108,-253l-234 0 0 486z"/>
   <path id="1" class="fil5" d="M4059 4032l-161 0 0 -144 126 0c65,0 106,26 106,90 0,21 -37,54 -72,54l0 0 1 0zm18 -215l-179 0 0 -126c177,0 140,-15 215,35 -9,36 -18,66 -36,89l0 2zm-269 287c380,0 336,18 414,-144 -35,-67 -17,-70 -72,-89 0,0 134,-253 -108,-253l-234 0 0 486z"/>
  </g>
  <g>
   <path class="fil0 str0" d="M3304 1579c-98,0 -90,-52 -90,-126 61,-31 42,-24 123,-39 39,-9 5,-4 59,-15 53,-12 55,-17 56,8l-1 47c-12,75 -53,125 -147,125l0 0 0 0zm-162 -340c0,68 -5,5 18,54 79,-9 25,9 62,-28 20,-19 34,-44 46,-62l180 18c4,48 9,48 17,89 -121,58 -340,-3 -340,198 0,90 51,122 133,138 85,16 155,-38 209,-67 19,74 5,53 90,54l-18 -431c-107,-71 -38,-72 -234,-72 -58,0 -100,24 -133,64 -13,16 -27,31 -27,44l0 0 -3 1z"/>
   <path id="1" class="fil6" d="M3304 1579c-98,0 -90,-52 -90,-126 61,-31 42,-24 123,-39 39,-9 5,-4 59,-15 53,-12 55,-17 56,8l-1 47c-12,75 -53,125 -147,125l0 0 0 0zm-162 -340c0,68 -5,5 18,54 79,-9 25,9 62,-28 20,-19 34,-44 46,-62l180 18c4,48 9,48 17,89 -121,58 -340,-3 -340,198 0,90 51,122 133,138 85,16 155,-38 209,-67 19,74 5,53 90,54l-18 -431c-107,-71 -38,-72 -234,-72 -58,0 -100,24 -133,64 -13,16 -27,31 -27,44l0 0 -3 1z"/>
  </g>
  <g>
   <path class="fil0 str0" d="M5998 9571l108 0 216 -360 0 360 89 0 0 -486 -108 0 -207 351c-2,1 -6,5 -8,9l0 -359 -91 0 0 487 0 0 1 -2z"/>
   <path id="1" class="fil5" d="M5998 9571l108 0 216 -360 0 360 89 0 0 -486 -108 0 -207 351c-2,1 -6,5 -8,9l0 -359 -91 0 0 487 0 0 1 -2z"/>
  </g>
  <g>
   <path class="fil0 str0" d="M4272 16422l108 0 215 -342 0 342 91 0 0 -487 -108 0c-17,73 -63,119 -102,186l-115 174 0 -360 -89 0 0 487 0 0 0 0z"/>
   <path id="1" class="fil4" d="M4272 16422l108 0 215 -342 0 342 91 0 0 -487 -108 0c-17,73 -63,119 -102,186l-115 174 0 -360 -89 0 0 487 0 0 0 0z"/>
  </g>
  <g>
   <path class="fil0 str0" d="M4895 13819c-170,0 -170,-377 0,-377 205,0 167,377 0,377zm-126 -377l0 -54 -71 0 0 665 89 0 0 -216c208,138 323,-75 323,-163 0,-103 5,-304 -197,-304 -81,0 -93,38 -144,70l0 0 0 2z"/>
   <path id="1" class="fil6" d="M4895 13819c-170,0 -170,-377 0,-377 205,0 167,377 0,377zm-126 -377l0 -54 -71 0 0 665 89 0 0 -216c208,138 323,-75 323,-163 0,-103 5,-304 -197,-304 -81,0 -93,38 -144,70l0 0 0 2z"/>
  </g>
  <g>
   <path class="fil0 str0" d="M7601 8645c-127,0 -163,-134 1,-160 78,-12 83,-8 144,-37 0,121 -24,197 -145,197l0 0zm-89 -288c30,-130 148,-100 234,-54l0 91c-66,1 -258,28 -302,75 -83,91 -23,232 106,246 21,2 92,-14 116,-21 67,-25 27,-29 95,-48l0 54 91 0c-84,-175 113,-503 -215,-503 -62,0 -145,25 -176,58 -82,88 -19,102 51,104l0 0 0 -2z"/>
   <path id="1" class="fil5" d="M7601 8645c-127,0 -163,-134 1,-160 78,-12 83,-8 144,-37 0,121 -24,197 -145,197l0 0zm-89 -288c30,-130 148,-100 234,-54l0 91c-66,1 -258,28 -302,75 -83,91 -23,232 106,246 21,2 92,-14 116,-21 67,-25 27,-29 95,-48l0 54 91 0c-84,-175 113,-503 -215,-503 -62,0 -145,25 -176,58 -82,88 -19,102 51,104l0 0 0 -2z"/>
  </g>
  <g>
   <path class="fil0 str0" d="M7126 5023l107 0c16,-58 117,-210 158,-273l50 -78c1,-1 5,-5 8,-9l0 358 90 0 0 -486 -107 0 -216 360 0 -360 -89 0 0 486 0 0 -1 2z"/>
   <path id="1" class="fil5" d="M7126 5023l107 0c16,-58 117,-210 158,-273l50 -78c1,-1 5,-5 8,-9l0 358 90 0 0 -486 -107 0 -216 360 0 -360 -89 0 0 486 0 0 -1 2z"/>
  </g>
  <g>
   <path class="fil0 str0" d="M6842 16369c-137,0 -201,-172 144,-180 0,59 8,180 -144,180zm-180 -288c63,0 62,5 90,-17 2,-1 52,-69 54,-72 107,0 96,-9 180,35l0 90c-54,5 -163,23 -215,35 -162,40 -184,248 25,283 73,11 157,-40 209,-66l0 54 89 0c-47,-208 76,-503 -197,-503 -133,0 -208,52 -234,161l0 0 -1 0z"/>
   <path id="1" class="fil5" d="M6842 16369c-137,0 -201,-172 144,-180 0,59 8,180 -144,180zm-180 -288c63,0 62,5 90,-17 2,-1 52,-69 54,-72 107,0 96,-9 180,35l0 90c-54,5 -163,23 -215,35 -162,40 -184,248 25,283 73,11 157,-40 209,-66l0 54 89 0c-47,-208 76,-503 -197,-503 -133,0 -208,52 -234,161l0 0 -1 0z"/>
  </g>
  <g>
   <path class="fil0 str0" d="M4223 7385c180,0 145,-47 145,359l-269 0c110,-209 24,-359 126,-359l0 0 -2 0zm-207 359l-27 13 0 188 54 0 0 -129 377 0c23,37 10,-43 19,53 1,17 -2,57 -2,77l54 0 0 -201 -54 0 0 -414 -340 0c0,170 0,315 -81,414l0 -1z"/>
   <path id="1" class="fil6" d="M4223 7385c180,0 145,-47 145,359l-269 0c110,-209 24,-359 126,-359l0 0 -2 0zm-207 359l-27 13 0 188 54 0 0 -129 377 0c23,37 10,-43 19,53 1,17 -2,57 -2,77l54 0 0 -201 -54 0 0 -414 -340 0c0,170 0,315 -81,414l0 -1z"/>
  </g>
  <g>
   <path class="fil0 str0" d="M6574 1579c-66,0 -107,-25 -107,-89 0,-70 191,-79 251,-108 0,122 -23,197 -144,197l0 0zm-179 -305c41,10 41,14 89,18 7,-78 -2,-32 36,-90 152,0 122,-14 197,36l0 89c-474,11 -374,294 -191,317 92,11 141,-48 209,-66l0 54 91 0c-66,-284 99,-503 -234,-503 -171,0 -171,88 -197,144l0 0 0 1z"/>
   <path id="1" class="fil5" d="M6574 1579c-66,0 -107,-25 -107,-89 0,-70 191,-79 251,-108 0,122 -23,197 -144,197l0 0zm-179 -305c41,10 41,14 89,18 7,-78 -2,-32 36,-90 152,0 122,-14 197,36l0 89c-474,11 -374,294 -191,317 92,11 141,-48 209,-66l0 54 91 0c-66,-284 99,-503 -234,-503 -171,0 -171,88 -197,144l0 0 0 1z"/>
  </g>
  <g>
   <path class="fil0 str0" d="M5525 11650c100,0 141,26 144,143l-251 0c1,-83 39,-143 107,-143l0 0zm-215 178c0,322 394,347 449,108 -42,-9 -42,-13 -90,-17 -33,142 -220,162 -270,-54l360 0c0,-119 -17,-288 -215,-288 -151,0 -234,144 -234,251l0 0z"/>
   <path id="1" class="fil5" d="M5525 11650c100,0 141,26 144,143l-251 0c1,-83 39,-143 107,-143l0 0zm-215 178c0,322 394,347 449,108 -42,-9 -42,-13 -90,-17 -33,142 -220,162 -270,-54l360 0c0,-119 -17,-288 -215,-288 -151,0 -234,144 -234,251l0 0z"/>
  </g>
  <g>
   <path class="fil0 str0" d="M6672 17429c-97,0 -89,-52 -89,-126 55,-26 159,-47 234,-54 0,59 9,179 -145,179l0 0 0 1zm-161 -288c147,-2 84,-170 306,-53l0 89c-193,16 -221,39 -323,108l0 143c163,110 193,79 341,0 19,73 5,52 90,54l-18 -325c0,-60 -1,-97 -32,-130 -78,-76 -359,-84 -363,112l0 0 -1 2z"/>
   <path id="1" class="fil5" d="M6672 17429c-97,0 -89,-52 -89,-126 55,-26 159,-47 234,-54 0,59 9,179 -145,179l0 0 0 1zm-161 -288c147,-2 84,-170 306,-53l0 89c-193,16 -221,39 -323,108l0 143c163,110 193,79 341,0 19,73 5,52 90,54l-18 -325c0,-60 -1,-97 -32,-130 -78,-76 -359,-84 -363,112l0 0 -1 2z"/>
  </g>
  <g>
   <path class="fil0 str0" d="M3367 18853c2,-4 6,-13 8,-10l17 -20c1,-1 5,-6 9,-9 45,-39 164,-49 219,-51 0,127 -15,180 -197,180 -25,-36 -33,-50 -54,-90l-2 0zm-54 -197c68,-1 51,21 126,-90 159,0 180,-13 180,126 -32,2 -154,20 -188,27 -76,21 -85,48 -137,81l0 144c149,100 175,88 342,0 20,72 5,51 89,54l-17 -325c-1,-262 -291,-174 -339,-139 -44,34 -56,47 -57,122l0 0 1 0z"/>
   <path id="1" class="fil6" d="M3367 18853c2,-4 6,-13 8,-10l17 -20c1,-1 5,-6 9,-9 45,-39 164,-49 219,-51 0,127 -15,180 -197,180 -25,-36 -33,-50 -54,-90l-2 0zm-54 -197c68,-1 51,21 126,-90 159,0 180,-13 180,126 -32,2 -154,20 -188,27 -76,21 -85,48 -137,81l0 144c149,100 175,88 342,0 20,72 5,51 89,54l-17 -325c-1,-262 -291,-174 -339,-139 -44,34 -56,47 -57,122l0 0 1 0z"/>
  </g>
  <g>
   <path class="fil0 str0" d="M3938 2488c-97,0 -89,-52 -89,-126 27,-14 226,-89 246,-47 13,30 -21,173 -157,173l0 0 0 0zm-161 -304l71 19c18,-68 21,-39 55,-92l178 17c4,49 10,49 19,90 -121,58 -342,-3 -342,198 0,47 12,79 42,101 101,78 205,21 300,-30 18,74 5,53 89,54 -5,-74 -18,-97 -18,-197 1,-78 0,-156 0,-234 -107,-71 -37,-72 -234,-72 -92,0 -154,56 -162,144l0 0 2 2z"/>
   <path id="1" class="fil6" d="M3938 2488c-97,0 -89,-52 -89,-126 27,-14 226,-89 246,-47 13,30 -21,173 -157,173l0 0 0 0zm-161 -304l71 19c18,-68 21,-39 55,-92l178 17c4,49 10,49 19,90 -121,58 -342,-3 -342,198 0,47 12,79 42,101 101,78 205,21 300,-30 18,74 5,53 89,54 -5,-74 -18,-97 -18,-197 1,-78 0,-156 0,-234 -107,-71 -37,-72 -234,-72 -92,0 -154,56 -162,144l0 0 2 2z"/>
  </g>
  <g>
   <path class="fil0 str0" d="M3511 15138c101,0 141,26 145,144l-253 0c2,-65 32,-144 108,-144l0 0zm19 448c111,0 193,-66 215,-162 -41,-9 -41,-13 -89,-17 -37,157 -222,150 -270,-54l359 0c0,-119 -16,-287 -215,-287 -263,0 -308,400 -96,491 19,9 79,29 96,29l0 0z"/>
   <path id="1" class="fil5" d="M3511 15138c101,0 141,26 145,144l-253 0c2,-65 32,-144 108,-144l0 0zm19 448c111,0 193,-66 215,-162 -41,-9 -41,-13 -89,-17 -37,157 -222,150 -270,-54l359 0c0,-119 -16,-287 -215,-287 -263,0 -308,400 -96,491 19,9 79,29 96,29l0 0z"/>
  </g>
  <g>
   <path class="fil0 str0" d="M3645 12868c-110,53 -134,43 -215,0 0,-123 94,-141 251,-144 -2,62 -13,103 -36,144l0 0zm-287 -251c185,-4 -21,-90 269,-90 45,66 51,23 54,126 -157,14 -342,28 -342,179 0,145 164,191 342,72 37,70 4,54 107,54 -26,-56 -35,-332 -35,-431 -62,-42 -68,-72 -180,-72 -122,0 -205,46 -215,162l0 0z"/>
   <path id="1" class="fil5" d="M3645 12868c-110,53 -134,43 -215,0 0,-123 94,-141 251,-144 -2,62 -13,103 -36,144l0 0zm-287 -251c185,-4 -21,-90 269,-90 45,66 51,23 54,126 -157,14 -342,28 -342,179 0,145 164,191 342,72 37,70 4,54 107,54 -26,-56 -35,-332 -35,-431 -62,-42 -68,-72 -180,-72 -122,0 -205,46 -215,162l0 0z"/>
  </g>
  <g>
   <path class="fil0 str0" d="M6428 16351l-162 0 0 -145 162 0c43,0 72,30 72,72 0,42 -29,73 -72,73l0 0 0 0zm-17 -216l-145 0 0 -126 145 0c35,0 72,32 72,54 0,42 -30,72 -72,72l0 0zm-216 288c148,0 396,33 396,-126 0,-74 -29,-98 -72,-126 181,-272 -157,-236 -325,-236l0 486 1 2z"/>
   <path id="1" class="fil6" d="M6428 16351l-162 0 0 -145 162 0c43,0 72,30 72,72 0,42 -29,73 -72,73l0 0 0 0zm-17 -216l-145 0 0 -126 145 0c35,0 72,32 72,54 0,42 -30,72 -72,72l0 0zm-216 288c148,0 396,33 396,-126 0,-74 -29,-98 -72,-126 181,-272 -157,-236 -325,-236l0 486 1 2z"/>
  </g>
  <g>
   <path class="fil0 str0" d="M6434 654c-81,0 -158,-124 3,-157 66,-13 108,-16 159,-40 0,67 1,111 -31,149 -25,30 -82,48 -131,48zm-161 -304c47,13 14,-2 54,17 38,-28 46,-52 72,-90 152,0 122,-14 197,36l0 89c-60,0 -179,20 -219,32 -153,48 -147,174 -74,243 96,92 210,31 293,-25 37,69 4,54 108,54 -120,-250 165,-504 -270,-504 -97,0 -143,65 -161,145l0 0 0 3z"/>
   <path id="1" class="fil5" d="M6434 654c-81,0 -158,-124 3,-157 66,-13 108,-16 159,-40 0,67 1,111 -31,149 -25,30 -82,48 -131,48zm-161 -304c47,13 14,-2 54,17 38,-28 46,-52 72,-90 152,0 122,-14 197,36l0 89c-60,0 -179,20 -219,32 -153,48 -147,174 -74,243 96,92 210,31 293,-25 37,69 4,54 108,54 -120,-250 165,-504 -270,-504 -97,0 -143,65 -161,145l0 0 0 3z"/>
  </g>
  <g>
   <path class="fil0 str0" d="M3541 10775l19 0 35 0c41,60 65,47 73,143l-270 0c8,-88 50,-143 145,-143l-2 0zm-233 178c0,149 47,230 190,262 62,13 120,-3 167,-29 58,-34 62,-68 92,-124 -49,-4 -50,-9 -91,-17 -43,161 -253,137 -269,-54l360 0c0,-84 -7,-136 -43,-191 -107,-165 -408,-119 -408,156l0 0 2 -3z"/>
   <path id="1" class="fil5" d="M3541 10775l19 0 35 0c41,60 65,47 73,143l-270 0c8,-88 50,-143 145,-143l-2 0zm-233 178c0,149 47,230 190,262 62,13 120,-3 167,-29 58,-34 62,-68 92,-124 -49,-4 -50,-9 -91,-17 -43,161 -253,137 -269,-54l360 0c0,-84 -7,-136 -43,-191 -107,-165 -408,-119 -408,156l0 0 2 -3z"/>
  </g>
  <g>
   <path class="fil0 str0" d="M4610 11650c94,0 136,54 144,143l-269 0c17,-72 39,-143 126,-143l0 0 -1 0zm-216 178c0,279 235,303 357,232 58,-35 64,-69 92,-124 -48,-4 -48,-9 -89,-17 -34,126 -159,129 -225,62 -27,-28 -40,-70 -44,-117l358 0c0,-410 -449,-352 -449,-36l0 0 0 0z"/>
   <path id="1" class="fil5" d="M4610 11650c94,0 136,54 144,143l-269 0c17,-72 39,-143 126,-143l0 0 -1 0zm-216 178c0,279 235,303 357,232 58,-35 64,-69 92,-124 -48,-4 -48,-9 -89,-17 -34,126 -159,129 -225,62 -27,-28 -40,-70 -44,-117l358 0c0,-410 -449,-352 -449,-36l0 0 0 0z"/>
  </g>
  <g>
   <path class="fil0 str0" d="M3385 13819c-66,0 -108,-26 -108,-90 0,-64 180,-88 253,-90 0,113 -36,180 -145,180l0 0zm-165 -323c9,13 2,14 25,35l51 0c30,-131 228,-147 234,36 -513,42 -342,298 -192,316 92,12 140,-47 209,-65l0 53 89 0c-59,-124 39,-354 -66,-454 -56,-54 -287,-108 -350,77l0 0 0 2z"/>
   <path id="1" class="fil5" d="M3385 13819c-66,0 -108,-26 -108,-90 0,-64 180,-88 253,-90 0,113 -36,180 -145,180l0 0zm-165 -323c9,13 2,14 25,35l51 0c30,-131 228,-147 234,36 -513,42 -342,298 -192,316 92,12 140,-47 209,-65l0 53 89 0c-59,-124 39,-354 -66,-454 -56,-54 -287,-108 -350,77l0 0 0 2z"/>
  </g>
  <g>
   <path class="fil0 str0" d="M4872 2488c-54,0 -72,-17 -106,-35l0 -89c62,-33 39,-25 123,-38 44,-6 92,-18 128,-35 0,96 -29,197 -145,197l0 0zm-178 -304c47,13 14,-2 54,17 38,-28 46,-52 72,-90l161 0c25,48 35,52 36,126 -469,0 -379,303 -195,321 75,7 153,-41 195,-70 37,70 4,54 108,54 -24,-48 -37,-226 -36,-306 3,-205 -46,-197 -234,-197 -96,0 -143,64 -161,145z"/>
   <path id="1" class="fil6" d="M4872 2488c-54,0 -72,-17 -106,-35l0 -89c62,-33 39,-25 123,-38 44,-6 92,-18 128,-35 0,96 -29,197 -145,197l0 0zm-178 -304c47,13 14,-2 54,17 38,-28 46,-52 72,-90l161 0c25,48 35,52 36,126 -469,0 -379,303 -195,321 75,7 153,-41 195,-70 37,70 4,54 108,54 -24,-48 -37,-226 -36,-306 3,-205 -46,-197 -234,-197 -96,0 -143,64 -161,145z"/>
  </g>
  <g>
   <polygon class="fil0 str0" points="3783,5023 4160,5023 4160,5167 4233,5167 4233,4951 4179,4951 4179,4538 4088,4538 4088,4951 3873,4951 3873,4538 3783,4538 "/>
   <polygon id="1" class="fil4" points="3783,5023 4160,5023 4160,5167 4233,5167 4233,4951 4179,4951 4179,4538 4088,4538 4088,4951 3873,4951 3873,4538 3783,4538 "/>
  </g>
  <g>
   <path class="fil0 str0" d="M7153 11133l-161 0 0 -144c136,0 140,-13 233,35 0,41 3,108 -72,108l0 1zm-17 -215l-144 0 0 -126 144 0c34,0 71,31 71,54 0,43 -29,72 -71,72l0 0 0 0zm-215 288c114,0 373,39 395,-126 -20,-82 -10,-85 -72,-127 48,-71 35,-36 35,-178 -118,-80 -136,-54 -358,-54l0 486 0 0 0 -1z"/>
   <path id="1" class="fil6" d="M7153 11133l-161 0 0 -144c136,0 140,-13 233,35 0,41 3,108 -72,108l0 1zm-17 -215l-144 0 0 -126 144 0c34,0 71,31 71,54 0,43 -29,72 -71,72l0 0 0 0zm-215 288c114,0 373,39 395,-126 -20,-82 -10,-85 -72,-127 48,-71 35,-36 35,-178 -118,-80 -136,-54 -358,-54l0 486 0 0 0 -1z"/>
  </g>
  <g>
   <path class="fil0 str0" d="M7483 15138c106,0 125,58 144,144l-269 0c1,-99 64,-144 126,-144l0 0 -1 0zm-216 162c0,116 -13,148 66,220 130,118 327,69 365,-96 -47,-13 -14,2 -53,-17 -43,32 -78,108 -127,108 -109,0 -159,-51 -161,-163 312,0 373,33 351,-77 -66,-324 -441,-245 -441,25l0 0 0 0z"/>
   <path id="1" class="fil5" d="M7483 15138c106,0 125,58 144,144l-269 0c1,-99 64,-144 126,-144l0 0 -1 0zm-216 162c0,116 -13,148 66,220 130,118 327,69 365,-96 -47,-13 -14,2 -53,-17 -43,32 -78,108 -127,108 -109,0 -159,-51 -161,-163 312,0 373,33 351,-77 -66,-324 -441,-245 -441,25l0 0 0 0z"/>
  </g>
  <g>
   <path class="fil0 str0" d="M7752 20548l126 0c40,61 63,49 71,145l-268 0c8,-96 32,-84 71,-145zm-161 145c0,322 218,339 341,269 48,-26 84,-55 90,-126 -48,-13 -15,1 -54,-18 -59,43 -12,13 -52,57 -84,100 -233,53 -236,-110 239,0 453,66 325,-181 -54,-101 -233,-157 -339,-50 -36,34 -77,96 -77,159l0 0 2 0z"/>
   <path id="1" class="fil5" d="M7752 20548l126 0c40,61 63,49 71,145l-268 0c8,-96 32,-84 71,-145zm-161 145c0,322 218,339 341,269 48,-26 84,-55 90,-126 -48,-13 -15,1 -54,-18 -59,43 -12,13 -52,57 -84,100 -233,53 -236,-110 239,0 453,66 325,-181 -54,-101 -233,-157 -339,-50 -36,34 -77,96 -77,159l0 0 2 0z"/>
  </g>
  <g>
   <path class="fil0 str0" d="M5816 19890c-111,54 -134,43 -216,0l0 -89c80,-40 178,-37 251,-73 0,74 -10,115 -35,162l0 0 0 0zm-288 -251c68,-1 47,13 84,-25 1,-1 39,-63 42,-66 137,0 195,-17 197,127 -482,10 -368,304 -194,320 75,8 152,-39 194,-70 37,70 4,54 108,54 -36,-73 -36,-311 -36,-431 -76,-51 -47,-72 -180,-72 -122,0 -205,46 -215,163l0 0 0 0z"/>
   <path id="1" class="fil6" d="M5816 19890c-111,54 -134,43 -216,0l0 -89c80,-40 178,-37 251,-73 0,74 -10,115 -35,162l0 0 0 0zm-288 -251c68,-1 47,13 84,-25 1,-1 39,-63 42,-66 137,0 195,-17 197,127 -482,10 -368,304 -194,320 75,8 152,-39 194,-70 37,70 4,54 108,54 -36,-73 -36,-311 -36,-431 -76,-51 -47,-72 -180,-72 -122,0 -205,46 -215,163l0 0 0 0z"/>
  </g>
  <g>
   <path class="fil0 str0" d="M5992 15516c-97,0 -90,-54 -90,-126 54,-25 174,-51 251,-54 -9,104 -44,180 -161,180l0 0zm-162 -287c185,-4 -21,-90 269,-90 28,42 48,58 54,126 -156,13 -341,28 -341,180 0,144 164,191 341,73 20,73 13,53 108,53 -54,-113 -35,-268 -35,-430 -92,-62 -208,-116 -337,-31 -43,29 -54,58 -59,120l0 0 0 -1z"/>
   <path id="1" class="fil6" d="M5992 15516c-97,0 -90,-54 -90,-126 54,-25 174,-51 251,-54 -9,104 -44,180 -161,180l0 0zm-162 -287c185,-4 -21,-90 269,-90 28,42 48,58 54,126 -156,13 -341,28 -341,180 0,144 164,191 341,73 20,73 13,53 108,53 -54,-113 -35,-268 -35,-430 -92,-62 -208,-116 -337,-31 -43,29 -54,58 -59,120l0 0 0 -1z"/>
  </g>
  <g>
   <path class="fil0 str0" d="M4931 17057c107,0 125,58 145,145l-269 0c6,-78 48,-145 126,-145l0 0 -2 0zm-215 162c0,315 235,311 342,252 47,-26 84,-56 89,-126 -47,-13 -15,1 -54,-17 -59,43 -12,13 -51,58 -86,100 -234,52 -238,-112 309,0 374,34 355,-81 -53,-305 -444,-247 -444,27l0 0 1 -1z"/>
   <path id="1" class="fil5" d="M4931 17057c107,0 125,58 145,145l-269 0c6,-78 48,-145 126,-145l0 0 -2 0zm-215 162c0,315 235,311 342,252 47,-26 84,-56 89,-126 -47,-13 -15,1 -54,-17 -59,43 -12,13 -51,58 -86,100 -234,52 -238,-112 309,0 374,34 355,-81 -53,-305 -444,-247 -444,27l0 0 1 -1z"/>
  </g>
  <g>
   <path class="fil0 str0" d="M3737 7385c96,0 124,47 126,143l-215 0c-96,0 -36,-143 89,-143zm-234 197c0,47 36,134 54,162 58,88 209,106 308,54 51,-28 61,-78 88,-127 -41,-9 -42,-13 -90,-18 -46,170 -255,130 -269,-54l359 0c0,-416 -450,-352 -450,-17l0 0 0 0z"/>
   <path id="1" class="fil5" d="M3737 7385c96,0 124,47 126,143l-215 0c-96,0 -36,-143 89,-143zm-234 197c0,47 36,134 54,162 58,88 209,106 308,54 51,-28 61,-78 88,-127 -41,-9 -42,-13 -90,-18 -46,170 -255,130 -269,-54l359 0c0,-416 -450,-352 -450,-17l0 0 0 0z"/>
  </g>
  <g>
   <path class="fil0 str0" d="M3614 5843c-254,122 -347,-136 35,-145 -1,62 -13,103 -35,145zm-288 -253c156,-4 39,-89 197,-89 91,0 124,35 126,126 -59,5 -154,24 -214,36 -250,52 -118,437 214,215 37,70 5,54 108,54 -43,-89 -36,-294 -36,-431 -105,-71 -204,-100 -324,-37 -49,25 -66,59 -71,126l0 0 0 0z"/>
   <path id="1" class="fil5" d="M3614 5843c-254,122 -347,-136 35,-145 -1,62 -13,103 -35,145zm-288 -253c156,-4 39,-89 197,-89 91,0 124,35 126,126 -59,5 -154,24 -214,36 -250,52 -118,437 214,215 37,70 5,54 108,54 -43,-89 -36,-294 -36,-431 -105,-71 -204,-100 -324,-37 -49,25 -66,59 -71,126l0 0 0 0z"/>
  </g>
  <g>
   <path class="fil0 str0" d="M5096 20915c-98,0 -90,-54 -90,-126 58,-28 165,-54 251,-54 -1,110 -51,180 -161,180zm-162 -288c84,-1 51,21 126,-91l145 0c44,67 51,24 54,127 -462,10 -389,283 -209,317 81,16 163,-35 209,-65 19,73 13,54 107,54 -51,-107 -35,-276 -35,-431 -88,-59 -209,-119 -335,-29 -43,30 -55,56 -61,119l0 0 -1 -1z"/>
   <path id="1" class="fil6" d="M5096 20915c-98,0 -90,-54 -90,-126 58,-28 165,-54 251,-54 -1,110 -51,180 -161,180zm-162 -288c84,-1 51,21 126,-91l145 0c44,67 51,24 54,127 -462,10 -389,283 -209,317 81,16 163,-35 209,-65 19,73 13,54 107,54 -51,-107 -35,-276 -35,-431 -88,-59 -209,-119 -335,-29 -43,30 -55,56 -61,119l0 0 -1 -1z"/>
  </g>
  <g>
   <path class="fil0 str0" d="M4681 4969c-81,0 -90,-24 -90,-126 69,-16 115,-51 251,-54 -1,106 -43,179 -161,179l0 1zm-162 -288c156,-4 39,-89 197,-89 89,0 118,42 126,126 -159,13 -341,32 -341,180 0,89 52,122 132,138 82,16 163,-36 209,-67 20,74 13,54 108,54 -47,-99 -36,-284 -36,-431 -182,-122 -381,-78 -395,89l0 0 0 0z"/>
   <path id="1" class="fil5" d="M4681 4969c-81,0 -90,-24 -90,-126 69,-16 115,-51 251,-54 -1,106 -43,179 -161,179l0 1zm-162 -288c156,-4 39,-89 197,-89 89,0 118,42 126,126 -159,13 -341,32 -341,180 0,89 52,122 132,138 82,16 163,-36 209,-67 20,74 13,54 108,54 -47,-99 -36,-284 -36,-431 -182,-122 -381,-78 -395,89l0 0 0 0z"/>
  </g>
  <g>
   <path class="fil0 str0" d="M7740 9500l-161 0 0 -144 161 0c42,0 73,30 73,72 0,42 -31,72 -73,72l0 0 0 0zm-17 -215l-144 0c0,-220 22,-126 197,-126 1,1 59,126 -54,126l1 0zm-215 288c116,0 268,17 343,-36 50,-35 96,-139 -20,-217 189,-281 -206,-234 -323,-234l0 487 0 0 0 0z"/>
   <path id="1" class="fil6" d="M7740 9500l-161 0 0 -144 161 0c42,0 73,30 73,72 0,42 -31,72 -73,72l0 0 0 0zm-17 -215l-144 0c0,-220 22,-126 197,-126 1,1 59,126 -54,126l1 0zm-215 288c116,0 268,17 343,-36 50,-35 96,-139 -20,-217 189,-281 -206,-234 -323,-234l0 487 0 0 0 0z"/>
  </g>
  <g>
   <path class="fil0 str0" d="M8104 10775c117,0 137,35 163,143l-269 0c1,-71 -9,-51 29,-96 22,-25 43,-47 77,-47l0 0zm-197 161c0,144 16,245 191,279 118,22 217,-49 240,-153 -47,-13 -14,2 -54,-17 -50,36 -61,107 -144,107 -124,0 -122,-80 -162,-162 231,0 381,38 369,-60 -43,-339 -441,-271 -441,6l0 0 1 0z"/>
   <path id="1" class="fil5" d="M8104 10775c117,0 137,35 163,143l-269 0c1,-71 -9,-51 29,-96 22,-25 43,-47 77,-47l0 0zm-197 161c0,144 16,245 191,279 118,22 217,-49 240,-153 -47,-13 -14,2 -54,-17 -50,36 -61,107 -144,107 -124,0 -122,-80 -162,-162 231,0 381,38 369,-60 -43,-339 -441,-271 -441,6l0 0 1 0z"/>
  </g>
  <g>
   <path class="fil0 str0" d="M4582 7816l108 0 215 -360 0 360 72 0 0 -486 -89 0c-35,68 -179,314 -215,341l0 -341 -90 0 0 486 0 0 -1 0z"/>
   <path id="1" class="fil6" d="M4582 7816l108 0 215 -360 0 360 72 0 0 -486 -89 0c-35,68 -179,314 -215,341l0 -341 -90 0 0 486 0 0 -1 0z"/>
  </g>
  <g>
   <path class="fil0 str0" d="M4493 5501c67,0 106,60 107,143l-251 0c2,-92 49,-143 144,-143l0 0zm-234 126c0,141 -17,180 67,258 130,118 326,68 364,-96 -48,-13 -15,1 -54,-17 -22,14 -130,197 -258,59 -47,-51 -17,-51 -47,-115l359 0c0,-441 -431,-290 -431,-89l0 0 0 0z"/>
   <path id="1" class="fil5" d="M4493 5501c67,0 106,60 107,143l-251 0c2,-92 49,-143 144,-143l0 0zm-234 126c0,141 -17,180 67,258 130,118 326,68 364,-96 -48,-13 -15,1 -54,-17 -22,14 -130,197 -258,59 -47,-51 -17,-51 -47,-115l359 0c0,-441 -431,-290 -431,-89l0 0 0 0z"/>
  </g>
  <g>
   <path class="fil0 str0" d="M5248 708c137,0 96,-47 234,-252l72 -106 0 358 90 0 0 -503c-107,0 -75,-26 -198,180 -22,38 -36,60 -60,101l-66 96 0 -377 -72 0 0 503 0 0 0 0z"/>
   <path id="1" class="fil6" d="M5248 708c137,0 96,-47 234,-252l72 -106 0 358 90 0 0 -503c-107,0 -75,-26 -198,180 -22,38 -36,60 -60,101l-66 96 0 -377 -72 0 0 503 0 0 0 0z"/>
  </g>
  <g>
   <path class="fil0 str0" d="M4660 18656c0,-89 139,-90 233,-90l0 180c-89,0 -233,-6 -233,-90zm35 126l0 36c-64,17 -113,122 -143,179l106 0c13,-48 49,-96 79,-137 38,-51 71,-60 155,-60l0 197 91 0 0 -485c-224,0 -392,-41 -404,129 -5,73 28,132 116,140l0 1z"/>
   <path id="1" class="fil6" d="M4660 18656c0,-89 139,-90 233,-90l0 180c-89,0 -233,-6 -233,-90zm35 126l0 36c-64,17 -113,122 -143,179l106 0c13,-48 49,-96 79,-137 38,-51 71,-60 155,-60l0 197 91 0 0 -485c-224,0 -392,-41 -404,129 -5,73 28,132 116,140l0 1z"/>
  </g>
  <g>
   <path class="fil0 str0" d="M4832 4103c114,0 90,9 191,-167l133 -192 0 359 72 0 0 -486 -90 0 -100 169c-36,57 -71,141 -114,173l0 -342 -91 0 0 486 0 0 -1 0z"/>
   <path id="1" class="fil6" d="M4832 4103c114,0 90,9 191,-167l133 -192 0 359 72 0 0 -486 -90 0 -100 169c-36,57 -71,141 -114,173l0 -342 -91 0 0 486 0 0 -1 0z"/>
  </g>
  <g>
   <path class="fil0 str0" d="M5353 4103l108 0c14,-63 17,-50 46,-97 25,-40 28,-51 54,-89l106 -163c2,-2 5,-6 9,-10l0 359 73 0 0 -486c-82,0 -78,-5 -113,50l-193 310 0 -360 -90 0 0 486 0 0z"/>
   <path id="1" class="fil6" d="M5353 4103l108 0c14,-63 17,-50 46,-97 25,-40 28,-51 54,-89l106 -163c2,-2 5,-6 9,-10l0 359 73 0 0 -486c-82,0 -78,-5 -113,50l-193 310 0 -360 -90 0 0 486 0 0z"/>
  </g>
  <g>
   <path class="fil0 str0" d="M6604 5023c125,0 91,0 193,-166l130 -193 0 359 72 0 0 -486 -90 0c-32,61 -162,302 -216,341l0 -341 -89 0 0 486z"/>
   <path id="1" class="fil6" d="M6604 5023c125,0 91,0 193,-166l130 -193 0 359 72 0 0 -486 -90 0c-32,61 -162,302 -216,341l0 -341 -89 0 0 486z"/>
  </g>
  <g>
   <path class="fil0 str0" d="M6127 7816c117,0 108,-37 234,-251l72 -109 0 360 90 0 0 -486 -108 0c-16,66 -108,193 -157,276l-59 84 0 -359 -72 0 0 486 0 0 0 -1z"/>
   <path id="1" class="fil6" d="M6127 7816c117,0 108,-37 234,-251l72 -109 0 360 90 0 0 -486 -108 0c-16,66 -108,193 -157,276l-59 84 0 -359 -72 0 0 486 0 0 0 -1z"/>
  </g>
  <g>
   <path class="fil0 str0" d="M7039 11667c41,-30 110,-24 167,-9 10,44 27,140 -9,165 -94,11 -145,-13 -216,-31 0,-104 -24,-107 58,-127l0 2zm-147 0c0,97 -13,188 106,197l-143 215 108 0c81,-122 90,-185 234,-197l0 197 89 0 0 -486c-327,0 -250,-25 -396,72l0 0 2 2z"/>
   <path id="1" class="fil6" d="M7039 11667c41,-30 110,-24 167,-9 10,44 27,140 -9,165 -94,11 -145,-13 -216,-31 0,-104 -24,-107 58,-127l0 2zm-147 0c0,97 -13,188 106,197l-143 215 108 0c81,-122 90,-185 234,-197l0 197 89 0 0 -486c-327,0 -250,-25 -396,72l0 0 2 2z"/>
  </g>
  <g>
   <path class="fil0 str0" d="M6649 7816c119,0 94,-16 184,-159 34,-54 77,-151 122,-183l0 342 89 0 0 -486c-126,0 -81,-5 -193,165 -38,57 -83,161 -130,194l0 -359 -72 0 0 486 0 0z"/>
   <path id="1" class="fil6" d="M6649 7816c119,0 94,-16 184,-159 34,-54 77,-151 122,-183l0 342 89 0 0 -486c-126,0 -81,-5 -193,165 -38,57 -83,161 -130,194l0 -359 -72 0 0 486 0 0z"/>
  </g>
  <g>
   <path class="fil0 str0" d="M3375 9571c127,0 81,5 193,-165 38,-57 84,-161 130,-195l0 360 72 0 0 -486c-119,0 -95,15 -183,159 -35,54 -78,151 -122,183l0 -342 -89 0 0 486 0 0 -1 0z"/>
   <path id="1" class="fil6" d="M3375 9571c127,0 81,5 193,-165 38,-57 84,-161 130,-195l0 360 72 0 0 -486c-119,0 -95,15 -183,159 -35,54 -78,151 -122,183l0 -342 -89 0 0 486 0 0 -1 0z"/>
  </g>
  <g>
   <path class="fil0 str0" d="M6537 9571l377 0 0 143c84,-6 72,0 72,-161 0,-50 -14,-44 -54,-54l0 -414 -89 0 0 414 -234 0 0 -414 -72 0 0 486 0 0 0 0z"/>
   <path id="1" class="fil6" d="M6537 9571l377 0 0 143c84,-6 72,0 72,-161 0,-50 -14,-44 -54,-54l0 -414 -89 0 0 414 -234 0 0 -414 -72 0 0 486 0 0 0 0z"/>
  </g>
  <g>
   <path class="fil0 str0" d="M7828 19979c120,0 95,-14 183,-157 36,-56 79,-151 122,-183l0 340 90 0 0 -484c-95,0 -92,-7 -133,65 -36,63 -145,260 -191,295l0 -359 -72 0 0 485 0 0 1 -2z"/>
   <path id="1" class="fil6" d="M7828 19979c120,0 95,-14 183,-157 36,-56 79,-151 122,-183l0 340 90 0 0 -484c-95,0 -92,-7 -133,65 -36,63 -145,260 -191,295l0 -359 -72 0 0 485 0 0 1 -2z"/>
  </g>
  <g>
   <path class="fil0 str0" d="M8375 16009c39,-29 110,-21 164,-9 13,47 28,140 -9,167 -126,9 -122,-11 -215,-32 0,-108 -25,-106 60,-126l0 0 0 0zm-150 72c0,80 32,120 107,126 -21,80 -100,119 -126,216l89 0c27,-40 56,-91 87,-130 36,-48 74,-62 147,-69l0 198 90 0 0 -487c-193,0 -395,-39 -395,145l0 0 1 1z"/>
   <path id="1" class="fil6" d="M8375 16009c39,-29 110,-21 164,-9 13,47 28,140 -9,167 -126,9 -122,-11 -215,-32 0,-108 -25,-106 60,-126l0 0 0 0zm-150 72c0,80 32,120 107,126 -21,80 -100,119 -126,216l89 0c27,-40 56,-91 87,-130 36,-48 74,-62 147,-69l0 198 90 0 0 -487c-193,0 -395,-39 -395,145l0 0 1 1z"/>
  </g>
  <g>
   <path class="fil0 str0" d="M4889 11152c-168,0 -227,-377 18,-377 166,0 174,377 -18,377zm-233 -179c0,246 270,310 398,183 78,-79 88,-262 9,-375 -80,-115 -407,-139 -407,192l0 0z"/>
   <path id="1" class="fil5" d="M4889 11152c-168,0 -227,-377 18,-377 166,0 174,377 -18,377zm-233 -179c0,246 270,310 398,183 78,-79 88,-262 9,-375 -80,-115 -407,-139 -407,192l0 0z"/>
  </g>
  <g>
   <path class="fil0 str0" d="M6332 13620l35 -126c58,-89 253,-86 253,126 0,263 -288,263 -288,0l0 0zm-91 0c0,52 36,159 62,191 29,38 117,77 174,77 207,-1 298,-260 173,-441 -96,-138 -407,-99 -407,173l-2 0z"/>
   <path id="1" class="fil5" d="M6332 13620l35 -126c58,-89 253,-86 253,126 0,263 -288,263 -288,0l0 0zm-91 0c0,52 36,159 62,191 29,38 117,77 174,77 207,-1 298,-260 173,-441 -96,-138 -407,-99 -407,173l-2 0z"/>
  </g>
  <g>
   <path class="fil0 str0" d="M5892 1634l89 0 0 -215 216 0 0 215 89 0 0 -503c-108,2 -89,-8 -89,216l-216 0c0,-224 17,-213 -89,-216l0 503z"/>
   <path id="1" class="fil4" d="M5892 1634l89 0 0 -215 216 0 0 215 89 0 0 -503c-108,2 -89,-8 -89,216l-216 0c0,-224 17,-213 -89,-216l0 503z"/>
  </g>
  <g>
   <path class="fil0 str0" d="M5415 13819c-138,0 -184,-210 -109,-325 71,-106 253,-56 253,126 0,100 -53,198 -144,198l0 0 0 1zm-234 -180c0,328 468,323 468,0 0,-348 -468,-373 -468,0z"/>
   <path id="1" class="fil5" d="M5415 13819c-138,0 -184,-210 -109,-325 71,-106 253,-56 253,126 0,100 -53,198 -144,198l0 0 0 1zm-234 -180c0,328 468,323 468,0 0,-348 -468,-373 -468,0z"/>
  </g>
  <g>
   <path class="fil0 str0" d="M3317 20718c0,-243 288,-245 288,0 0,261 -288,261 -288,0zm377 0c0,-308 -396,-333 -448,-90 -97,448 448,464 448,90z"/>
   <path id="1" class="fil5" d="M3317 20718c0,-243 288,-245 288,0 0,261 -288,261 -288,0zm377 0c0,-308 -396,-333 -448,-90 -97,448 448,464 448,90z"/>
  </g>
  <g>
   <path class="fil0 str0" d="M4780 511l0 -161c103,-70 17,-73 197,-73 71,107 73,38 73,234 0,185 -270,185 -270,0zm-89 -72c0,423 449,311 449,72 0,-445 -354,-294 -399,-238 -28,34 -50,107 -50,167l0 0 0 -1z"/>
   <path id="1" class="fil5" d="M4780 511l0 -161c103,-70 17,-73 197,-73 71,107 73,38 73,234 0,185 -270,185 -270,0zm-89 -72c0,423 449,311 449,72 0,-445 -354,-294 -399,-238 -28,34 -50,107 -50,167l0 0 0 -1z"/>
  </g>
  <g>
   <path class="fil0 str0" d="M4382 1204l73 0c65,97 72,39 72,215 0,183 -262,247 -280,-24 -7,-94 25,-191 137,-191l0 0 -2 0zm-215 126l0 89c0,289 449,346 449,-54 0,-73 -20,-122 -54,-161 -125,-141 -395,-70 -395,126l0 0z"/>
   <path id="1" class="fil6" d="M4382 1204l73 0c65,97 72,39 72,215 0,183 -262,247 -280,-24 -7,-94 25,-191 137,-191l0 0 -2 0zm-215 126l0 89c0,289 449,346 449,-54 0,-73 -20,-122 -54,-161 -125,-141 -395,-70 -395,126l0 0z"/>
  </g>
  <g>
   <path class="fil0 str0" d="M4924 8466c0,-272 287,-241 287,-54 0,368 -287,242 -287,54zm-73 -72l0 126c0,222 450,315 450,-72 0,-346 -450,-309 -450,-54l0 0 0 0z"/>
   <path id="1" class="fil6" d="M4924 8466c0,-272 287,-241 287,-54 0,368 -287,242 -287,54zm-73 -72l0 126c0,222 450,315 450,-72 0,-346 -450,-309 -450,-54l0 0 0 0z"/>
  </g>
  <g>
   <path class="fil0 str0" d="M4720 19925c-231,0 -210,-377 -17,-377 137,0 171,190 108,307 -14,24 -65,70 -91,70l0 0zm-251 -197c0,158 72,259 218,264 54,3 128,-27 164,-61 113,-104 107,-455 -148,-455 -153,0 -234,101 -234,252l0 0 0 0z"/>
   <path id="1" class="fil6" d="M4720 19925c-231,0 -210,-377 -17,-377 137,0 171,190 108,307 -14,24 -65,70 -91,70l0 0zm-251 -197c0,158 72,259 218,264 54,3 128,-27 164,-61 113,-104 107,-455 -148,-455 -153,0 -234,101 -234,252l0 0 0 0z"/>
  </g>
  <g>
   <path class="fil0 str0" d="M3284 16189c0,-263 288,-246 288,-54 0,369 -288,238 -288,54zm-72 -72l0 126c0,223 448,315 448,-71 0,-350 -448,-300 -448,-54l0 -1z"/>
   <path id="1" class="fil6" d="M3284 16189c0,-263 288,-246 288,-54 0,369 -288,238 -288,54zm-72 -72l0 126c0,223 448,315 448,-71 0,-350 -448,-300 -448,-54l0 -1z"/>
  </g>
  <g>
   <path class="fil0 str0" d="M3505 654c-86,0 -144,-84 -144,-197 0,-110 31,-117 73,-178 88,0 215,-15 215,178 0,100 -52,197 -144,197l0 0 0 0zm-234 -197c0,254 240,334 383,204 88,-82 183,-455 -185,-455 -118,0 -198,129 -198,251z"/>
   <path id="1" class="fil6" d="M3505 654c-86,0 -144,-84 -144,-197 0,-110 31,-117 73,-178 88,0 215,-15 215,178 0,100 -52,197 -144,197l0 0 0 0zm-234 -197c0,254 240,334 383,204 88,-82 183,-455 -185,-455 -118,0 -198,129 -198,251z"/>
  </g>
  <g>
   <path class="fil0 str0" d="M4724 12724c0,-235 288,-310 288,17 0,220 -288,212 -288,-17zm-72 -72l0 126c0,179 276,264 399,113 74,-92 95,-436 -184,-436 -110,0 -215,84 -215,197z"/>
   <path id="1" class="fil6" d="M4724 12724c0,-235 288,-310 288,17 0,220 -288,212 -288,-17zm-72 -72l0 126c0,179 276,264 399,113 74,-92 95,-436 -184,-436 -110,0 -215,84 -215,197z"/>
  </g>
  <g>
   <path class="fil0 str0" d="M4489 9374c0,-197 1,-129 72,-234l126 0c71,105 71,37 71,234 0,192 -269,189 -269,0zm-90 -72c0,138 35,274 218,284 309,13 311,-517 16,-517 -140,0 -234,92 -234,234l0 -1z"/>
   <path id="1" class="fil6" d="M4489 9374c0,-197 1,-129 72,-234l126 0c71,105 71,37 71,234 0,192 -269,189 -269,0zm-90 -72c0,138 35,274 218,284 309,13 311,-517 16,-517 -140,0 -234,92 -234,234l0 -1z"/>
  </g>
  <g>
   <path class="fil0 str0" d="M3459 11847c0,-272 287,-242 287,-54 0,360 -287,250 -287,54zm-71 -72l0 126c0,222 448,315 448,-73 0,-348 -448,-299 -448,-53l0 0 0 0z"/>
   <path id="1" class="fil6" d="M3459 11847c0,-272 287,-242 287,-54 0,360 -287,250 -287,54zm-71 -72l0 126c0,222 448,315 448,-73 0,-348 -448,-299 -448,-53l0 0 0 0z"/>
  </g>
  <g>
   <path class="fil0 str0" d="M7786 17052c196,0 205,377 0,377 -181,0 -181,-377 0,-377zm-215 162c0,92 -5,148 58,211 100,100 393,149 393,-231 0,-261 -450,-313 -450,18l-1 2z"/>
   <path id="1" class="fil6" d="M7786 17052c196,0 205,377 0,377 -181,0 -181,-377 0,-377zm-215 162c0,92 -5,148 58,211 100,100 393,149 393,-231 0,-261 -450,-313 -450,18l-1 2z"/>
  </g>
  <g>
   <polygon class="fil0 str0" points="5867,12081 5958,12081 5958,11865 6172,11865 6172,12081 6261,12081 6261,11595 6172,11595 6172,11793 5958,11793 5958,11595 5867,11595 "/>
   <polygon id="1" class="fil5" points="5867,12081 5958,12081 5958,11865 6172,11865 6172,12081 6261,12081 6261,11595 6172,11595 6172,11793 5958,11793 5958,11595 5867,11595 "/>
  </g>
  <g>
   <polygon class="fil0 str0" points="4770,15569 4859,15569 4859,15156 5075,15156 5075,15569 5165,15569 5165,15084 4770,15084 "/>
   <polygon id="1" class="fil4" points="4770,15569 4859,15569 4859,15156 5075,15156 5075,15569 5165,15569 5165,15084 4770,15084 "/>
  </g>
  <g>
   <polygon class="fil0 str0" points="6919,8700 7009,8700 7009,8483 7224,8483 7224,8700 7315,8700 7315,8214 7224,8214 7224,8411 7009,8411 7009,8214 6919,8214 "/>
   <polygon id="1" class="fil5" points="6919,8700 7009,8700 7009,8483 7224,8483 7224,8700 7315,8700 7315,8214 7224,8214 7224,8411 7009,8411 7009,8214 6919,8214 "/>
  </g>
  <g>
   <polygon class="fil0 str0" points="6389,12081 6478,12081 6478,11865 6693,11865 6693,12081 6784,12081 6784,11595 6693,11595 6693,11793 6478,11793 6478,11595 6389,11595 "/>
   <polygon id="1" class="fil5" points="6389,12081 6478,12081 6478,11865 6693,11865 6693,12081 6784,12081 6784,11595 6693,11595 6693,11793 6478,11793 6478,11595 6389,11595 "/>
  </g>
  <g>
   <polygon class="fil0 str0" points="4311,4103 4401,4103 4401,3888 4616,3888 4616,4103 4706,4103 4706,3618 4616,3618 4616,3815 4401,3815 4401,3618 4311,3618 "/>
   <polygon id="1" class="fil4" points="4311,4103 4401,4103 4401,3888 4616,3888 4616,4103 4706,4103 4706,3618 4616,3618 4616,3815 4401,3815 4401,3618 4311,3618 "/>
  </g>
  <g>
   <polygon class="fil0 str0" points="2821,5932 2912,5932 2912,5518 3128,5518 3128,5932 3217,5932 3217,5447 2821,5447 "/>
   <polygon id="1" class="fil4" points="2821,5932 2912,5932 2912,5518 3128,5518 3128,5932 3217,5932 3217,5447 2821,5447 "/>
  </g>
  <g>
   <polygon class="fil0 str0" points="7722,16422 7811,16422 7811,16206 8028,16206 8028,16422 8118,16422 8118,15937 8028,15937 8028,16135 7811,16135 7811,15937 7722,15937 "/>
   <polygon id="1" class="fil5" points="7722,16422 7811,16422 7811,16206 8028,16206 8028,16422 8118,16422 8118,15937 8028,15937 8028,16135 7811,16135 7811,15937 7722,15937 "/>
  </g>
  <g>
   <polygon class="fil0 str0" points="7200,16422 7291,16422 7291,16206 7507,16206 7507,16422 7596,16422 7596,15937 7507,15937 7507,16135 7291,16135 7291,15937 7200,15937 "/>
   <polygon id="1" class="fil5" points="7200,16422 7291,16422 7291,16206 7507,16206 7507,16422 7596,16422 7596,15937 7507,15937 7507,16135 7291,16135 7291,15937 7200,15937 "/>
  </g>
  <g>
   <path class="fil0 str0" d="M3340 3871c0,-232 288,-310 288,17 0,230 -288,201 -288,-17zm-72 -73l0 126c0,222 450,316 450,-72 0,-69 -25,-136 -58,-175 -130,-149 -392,-47 -392,123l0 0 0 -2z"/>
   <path id="1" class="fil6" d="M3340 3871c0,-232 288,-310 288,17 0,230 -288,201 -288,-17zm-72 -73l0 126c0,222 450,316 450,-72 0,-69 -25,-136 -58,-175 -130,-149 -392,-47 -392,123l0 0 0 -2z"/>
  </g>
  <g>
   <path class="fil0 str0" d="M5783 12724c0,-272 288,-241 288,-53 0,316 -199,241 -249,176 -16,-20 -39,-96 -39,-123l0 0 0 0zm-72 -72l0 126c0,166 249,264 391,122 96,-95 99,-445 -175,-445 -107,0 -215,91 -215,197l0 0 -1 0z"/>
   <path id="1" class="fil6" d="M5783 12724c0,-272 288,-241 288,-53 0,316 -199,241 -249,176 -16,-20 -39,-96 -39,-123l0 0 0 0zm-72 -72l0 126c0,166 249,264 391,122 96,-95 99,-445 -175,-445 -107,0 -215,91 -215,197l0 0 -1 0z"/>
  </g>
  <g>
   <path class="fil0 str0" d="M4447 15138c205,0 189,377 0,377 -183,0 -190,-377 0,-377zm-216 126l0 89c0,282 448,363 448,-71 0,-279 -448,-277 -448,-18z"/>
   <path id="1" class="fil6" d="M4447 15138c205,0 189,377 0,377 -183,0 -190,-377 0,-377zm-216 126l0 89c0,282 448,363 448,-71 0,-279 -448,-277 -448,-18z"/>
  </g>
  <g>
   <path class="fil0 str0" d="M7211 13871c130,0 95,-25 190,-168 43,-62 85,-154 133,-190l0 358 71 0 0 -484c-100,0 -84,-17 -192,166 -46,81 -75,154 -131,175l0 -341 -72 0 0 484 1 0z"/>
   <path id="1" class="fil7" d="M7211 13871c130,0 95,-25 190,-168 43,-62 85,-154 133,-190l0 358 71 0 0 -484c-100,0 -84,-17 -192,166 -46,81 -75,154 -131,175l0 -341 -72 0 0 484 1 0z"/>
  </g>
  <g>
   <path class="fil0 str0" d="M6578 10775c209,0 181,377 18,377 -205,0 -209,-377 -18,-377zm-216 161c0,155 53,291 231,284 299,-13 295,-516 -15,-516 -128,0 -216,104 -216,234l0 -2z"/>
   <path id="1" class="fil6" d="M6578 10775c209,0 181,377 18,377 -205,0 -209,-377 -18,-377zm-216 161c0,155 53,291 231,284 299,-13 295,-516 -15,-516 -128,0 -216,104 -216,234l0 -2z"/>
  </g>
  <g>
   <path class="fil0 str0" d="M3477 4969c-45,0 -96,-15 -119,-42 -121,-138 22,-474 197,-288 103,111 18,329 -78,329l0 1zm-251 -197l0 18c0,351 448,281 448,54l0 -126c0,-230 -448,-298 -448,54l0 0 0 0z"/>
   <path id="1" class="fil6" d="M3477 4969c-45,0 -96,-15 -119,-42 -121,-138 22,-474 197,-288 103,111 18,329 -78,329l0 1zm-251 -197l0 18c0,351 448,281 448,54l0 -126c0,-230 -448,-298 -448,54l0 0 0 0z"/>
  </g>
  <g>
   <path class="fil0 str0" d="M3273 2417l0 36c-47,24 -18,17 -89,18l0 73c205,0 180,-36 180,-431l216 0 0 431 72 0 0 -504 -377 0 0 377 0 0 -2 0z"/>
   <path id="1" class="fil6" d="M3273 2417l0 36c-47,24 -18,17 -89,18l0 73c205,0 180,-36 180,-431l216 0 0 431 72 0 0 -504 -377 0 0 377 0 0 -2 0z"/>
  </g>
  <g>
   <path class="fil0 str0" d="M5094 4898l0 35c-47,23 -19,16 -90,18l0 72c198,0 163,23 163,-414l215 0 0 414 89 0 0 -486 -377 0 0 360 0 0 0 1z"/>
   <path id="1" class="fil6" d="M5094 4898l0 35c-47,23 -19,16 -90,18l0 72c198,0 163,23 163,-414l215 0 0 414 89 0 0 -486 -377 0 0 360 0 0 0 1z"/>
  </g>
  <g>
   <path class="fil0 str0" d="M7086 17286c0,62 -13,70 -17,126 -80,1 -84,-5 -91,72l162 -18c32,-137 18,-233 18,-395l216 0 0 413 91 0 0 -486 -378 0 0 288 0 0 -1 0z"/>
   <path id="1" class="fil5" d="M7086 17286c0,62 -13,70 -17,126 -80,1 -84,-5 -91,72l162 -18c32,-137 18,-233 18,-395l216 0 0 413 91 0 0 -486 -378 0 0 288 0 0 -1 0z"/>
  </g>
  <g>
   <path class="fil0 str0" d="M5327 15444l0 36c-47,22 -20,17 -89,17l0 72 126 0c82,-124 54,-171 54,-414l215 0 0 414 72 0 0 -486 -377 0 0 360 0 0 -1 1z"/>
   <path id="1" class="fil6" d="M5327 15444l0 36c-47,22 -20,17 -89,17l0 72 126 0c82,-124 54,-171 54,-414l215 0 0 414 72 0 0 -486 -377 0 0 360 0 0 -1 1z"/>
  </g>
  <g>
   <path class="fil0 str0" d="M5770 708l72 0 0 -215 234 0 0 215 89 0c0,-485 42,-500 -89,-503l0 215c-276,0 -234,43 -234,-215l-72 0 0 503z"/>
   <path id="1" class="fil6" d="M5770 708l72 0 0 -215 234 0 0 215 89 0c0,-485 42,-500 -89,-503l0 215c-276,0 -234,43 -234,-215l-72 0 0 503z"/>
  </g>
  <g>
   <path class="fil0 str0" d="M3505 8717c0,84 -78,122 -145,90 4,166 156,92 209,-44l205 -550 -91 0c-19,88 -96,249 -126,377 -9,-13 -9,-9 -21,-34 -9,-21 -9,-27 -17,-54l-105 -291 -91 0c28,53 180,446 180,504l0 0 2 2z"/>
   <path id="1" class="fil5" d="M3505 8717c0,84 -78,122 -145,90 4,166 156,92 209,-44l205 -550 -91 0c-19,88 -96,249 -126,377 -9,-13 -9,-9 -21,-34 -9,-21 -9,-27 -17,-54l-105 -291 -91 0c28,53 180,446 180,504l0 0 2 2z"/>
  </g>
  <g>
   <path class="fil0 str0" d="M630 11312l921 0 0 67 -921 0 0 -67zm-68 135l1056 0 0 -202 -1056 0 0 202z"/>
   <path id="1" class="fil1" d="M630 11312l921 0 0 67 -921 0 0 -67zm-68 135l1056 0 0 -202 -1056 0 0 202z"/>
  </g>
  <g>
   <path class="fil0 str0" d="M6808 12975c0,84 -78,123 -145,90 4,177 156,77 198,-17 14,-31 23,-62 32,-92 17,-48 25,-56 41,-104 21,-61 47,-122 67,-184 21,-66 47,-139 75,-196l-91 0c-32,133 -93,241 -126,377 -33,-47 -46,-117 -70,-182 -14,-42 -25,-57 -37,-90 -15,-43 -21,-69 -38,-106l-89 0c28,52 180,445 180,503l0 0 3 1z"/>
   <path id="1" class="fil5" d="M6808 12975c0,84 -78,123 -145,90 4,177 156,77 198,-17 14,-31 23,-62 32,-92 17,-48 25,-56 41,-104 21,-61 47,-122 67,-184 21,-66 47,-139 75,-196l-91 0c-32,133 -93,241 -126,377 -33,-47 -46,-117 -70,-182 -14,-42 -25,-57 -37,-90 -15,-43 -21,-69 -38,-106l-89 0c28,52 180,445 180,503l0 0 3 1z"/>
  </g>
  <g>
   <path class="fil0 str0" d="M5854 16422c0,23 -30,86 -45,99 -35,36 -63,25 -100,8 4,162 133,101 192,-25 28,-60 49,-114 71,-180 22,-67 41,-115 68,-184 28,-69 58,-122 65,-205 -113,3 -62,-19 -128,159 -18,50 -69,153 -69,218l-17 0c0,-55 -108,-298 -127,-377l-89 0c15,32 180,479 180,487l0 0 -1 0z"/>
   <path id="1" class="fil6" d="M5854 16422c0,23 -30,86 -45,99 -35,36 -63,25 -100,8 4,162 133,101 192,-25 28,-60 49,-114 71,-180 22,-67 41,-115 68,-184 28,-69 58,-122 65,-205 -113,3 -62,-19 -128,159 -18,50 -69,153 -69,218l-17 0c0,-55 -108,-298 -127,-377l-89 0c15,32 180,479 180,487l0 0 -1 0z"/>
  </g>
  <g>
   <path class="fil0 str0" d="M2870 20105c16,32 13,23 17,71 167,0 157,-42 263,-312l133 -369 -90 0c-10,122 -97,227 -107,358l-36 0c-10,-132 -97,-238 -108,-358l-89 0c28,114 84,239 124,342 18,48 53,132 43,167 -20,79 -74,99 -149,100l0 0 -1 1z"/>
   <path id="1" class="fil6" d="M2870 20105c16,32 13,23 17,71 167,0 157,-42 263,-312l133 -369 -90 0c-10,122 -97,227 -107,358l-36 0c-10,-132 -97,-238 -108,-358l-89 0c28,114 84,239 124,342 18,48 53,132 43,167 -20,79 -74,99 -149,100l0 0 -1 1z"/>
  </g>
  <g>
   <polygon class="fil0 str0" points="6082,5023 6172,5023 6172,4807 6406,4807 6406,5023 6478,5023 6478,4538 6406,4538 6406,4735 6172,4735 6172,4538 6082,4538 "/>
   <polygon id="1" class="fil6" points="6082,5023 6172,5023 6172,4807 6406,4807 6406,5023 6478,5023 6478,4538 6406,4538 6406,4735 6172,4735 6172,4538 6082,4538 "/>
  </g>
  <g>
   <polygon class="fil0 str0" points="7091,19979 7181,19979 7181,19764 7415,19764 7415,19979 7487,19979 7487,19495 7415,19495 7415,19692 7181,19692 7181,19495 7091,19495 "/>
   <polygon id="1" class="fil6" points="7091,19979 7181,19979 7181,19764 7415,19764 7415,19979 7487,19979 7487,19495 7415,19495 7415,19692 7181,19692 7181,19495 7091,19495 "/>
  </g>
  <g>
   <polygon class="fil0 str0" points="6764,15569 6854,15569 6854,15353 7087,15353 7087,15569 7160,15569 7160,15084 7087,15084 7087,15282 6854,15282 6854,15084 6764,15084 "/>
   <polygon id="1" class="fil6" points="6764,15569 6854,15569 6854,15353 7087,15353 7087,15569 7160,15569 7160,15084 7087,15084 7087,15282 6854,15282 6854,15084 6764,15084 "/>
  </g>
  <g>
   <polygon class="fil0 str0" points="2854,12958 2927,12958 2927,12741 3160,12741 3160,12958 3250,12958 3250,12472 3160,12472 3160,12669 2927,12669 2927,12472 2854,12472 "/>
   <polygon id="1" class="fil6" points="2854,12958 2927,12958 2927,12741 3160,12741 3160,12958 3250,12958 3250,12472 3160,12472 3160,12669 2927,12669 2927,12472 2854,12472 "/>
  </g>
  <g>
   <polygon class="fil0 str0" points="7404,11206 7495,11206 7495,10990 7729,10990 7729,11206 7801,11206 7801,10721 7729,10721 7729,10918 7495,10918 7495,10721 7404,10721 "/>
   <polygon id="1" class="fil6" points="7404,11206 7495,11206 7495,10990 7729,10990 7729,11206 7801,11206 7801,10721 7729,10721 7729,10918 7495,10918 7495,10721 7404,10721 "/>
  </g>
  <g>
   <polygon class="fil0 str0" points="5605,7816 5678,7816 5678,7601 5912,7601 5912,7816 6002,7816 6002,7331 5912,7331 5912,7528 5678,7528 5678,7331 5605,7331 "/>
   <polygon id="1" class="fil6" points="5605,7816 5678,7816 5678,7601 5912,7601 5912,7816 6002,7816 6002,7331 5912,7331 5912,7528 5678,7528 5678,7331 5605,7331 "/>
  </g>
  <g>
   <polygon class="fil0 str0" points="5109,18997 5181,18997 5181,18781 5415,18781 5415,18997 5504,18997 5504,18512 5415,18512 5415,18710 5181,18710 5181,18512 5109,18512 "/>
   <polygon id="1" class="fil6" points="5109,18997 5181,18997 5181,18781 5415,18781 5415,18997 5504,18997 5504,18512 5415,18512 5415,18710 5181,18710 5181,18512 5109,18512 "/>
  </g>
  <g>
   <polygon class="fil0 str0" points="4213,17488 4302,17488 4302,17272 4536,17272 4536,17488 4608,17488 4608,17002 4536,17002 4536,17201 4302,17201 4302,17002 4213,17002 "/>
   <polygon id="1" class="fil6" points="4213,17488 4302,17488 4302,17272 4536,17272 4536,17488 4608,17488 4608,17002 4536,17002 4536,17201 4302,17201 4302,17002 4213,17002 "/>
  </g>
  <g>
   <polygon class="fil0 str0" points="2783,4103 2874,4103 2874,3691 3090,3691 3090,4103 3160,4103 3160,3618 2783,3618 "/>
   <polygon id="1" class="fil6" points="2783,4103 2874,4103 2874,3691 3090,3691 3090,4103 3160,4103 3160,3618 2783,3618 "/>
  </g>
  <g>
   <path class="fil0 str0" d="M6840 19907l-144 0 0 -162c129,0 125,-11 215,36 0,47 10,126 -71,126l0 0zm-233 72c316,0 395,27 395,-215 -114,-76 -96,-91 -306,-91l0 -178 -89 0 0 484 0 0 0 0z"/>
   <path id="1" class="fil5" d="M6840 19907l-144 0 0 -162c129,0 125,-11 215,36 0,47 10,126 -71,126l0 0zm-233 72c316,0 395,27 395,-215 -114,-76 -96,-91 -306,-91l0 -178 -89 0 0 484 0 0 0 0z"/>
  </g>
  <g>
   <path class="fil0 str0" d="M6942 18924l-127 0 0 -161c141,0 205,-19 234,107l-35 36c-25,14 -32,17 -72,17l0 1zm-216 73c329,0 396,28 396,-216 -44,-29 -42,-46 -98,-66 -72,-26 -131,-25 -209,-25l0 -178 -89 0 0 485 0 0 0 0z"/>
   <path id="1" class="fil5" d="M6942 18924l-127 0 0 -161c141,0 205,-19 234,107l-35 36c-25,14 -32,17 -72,17l0 1zm-216 73c329,0 396,28 396,-216 -44,-29 -42,-46 -98,-66 -72,-26 -131,-25 -209,-25l0 -178 -89 0 0 485 0 0 0 0z"/>
  </g>
  <g>
   <path class="fil0 str0" d="M3097 2542l0 -482 -362 0c-37,54 -17,413 -17,482l89 0 0 -431 215 0 0 431 75 0 0 0z"/>
   <path id="1" class="fil5" d="M3097 2542l0 -482 -362 0c-37,54 -17,413 -17,482l89 0 0 -431 215 0 0 431 75 0 0 0z"/>
  </g>
  <g>
   <path class="fil0 str0" d="M5831 4951l-144 0 0 -162c100,0 129,-5 215,35 0,48 10,127 -71,127l0 0zm-233 72c156,0 395,39 395,-145 0,-174 -184,-144 -306,-144l0 -197 -89 0 0 486 0 0z"/>
   <path id="1" class="fil6" d="M5831 4951l-144 0 0 -162c100,0 129,-5 215,35 0,48 10,127 -71,127l0 0zm-233 72c156,0 395,39 395,-145 0,-174 -184,-144 -306,-144l0 -197 -89 0 0 486 0 0z"/>
  </g>
  <g>
   <path class="fil0 str0" d="M3846 8700l90 0 0 -431c273,0 215,-73 215,431l72 0 0 -486 -377 0 0 486 0 0z"/>
   <path id="1" class="fil6" d="M3846 8700l90 0 0 -431c273,0 215,-73 215,431l72 0 0 -486 -377 0 0 486 0 0z"/>
  </g>
  <g>
   <path class="fil0 str0" d="M4431 20969l89 0 0 -431c274,0 216,-74 216,431l72 0 0 -485 -377 0 0 485 0 0z"/>
   <path id="1" class="fil6" d="M4431 20969l89 0 0 -431c274,0 216,-74 216,431l72 0 0 -485 -377 0 0 485 0 0z"/>
  </g>
  <g>
   <path class="fil0 str0" d="M3978 13513c106,0 84,-9 126,-73 177,0 177,145 0,145 6,77 2,58 71,74 80,19 73,31 73,124 -75,40 -110,62 -182,-14 -48,-50 11,-40 -105,-40 77,337 568,70 304,-107 10,-13 119,-125 14,-209 -89,-70 -262,-66 -300,101l0 0 -1 -1z"/>
   <path id="1" class="fil5" d="M3978 13513c106,0 84,-9 126,-73 177,0 177,145 0,145 6,77 2,58 71,74 80,19 73,31 73,124 -75,40 -110,62 -182,-14 -48,-50 11,-40 -105,-40 77,337 568,70 304,-107 10,-13 119,-125 14,-209 -89,-70 -262,-66 -300,101l0 0 -1 -1z"/>
  </g>
  <g>
   <path class="fil0 str0" d="M2864 18638c106,0 84,-9 126,-72 177,0 177,144 0,144l0 72c130,0 144,-1 144,127 -75,39 -110,61 -182,-16 -48,-49 11,-38 -106,-38 79,337 565,65 307,-108 120,-181 -3,-252 -127,-252 -95,0 -143,64 -161,144l0 0 -1 -1z"/>
   <path id="1" class="fil5" d="M2864 18638c106,0 84,-9 126,-72 177,0 177,144 0,144l0 72c130,0 144,-1 144,127 -75,39 -110,61 -182,-16 -48,-49 11,-38 -106,-38 79,337 565,65 307,-108 120,-181 -3,-252 -127,-252 -95,0 -143,64 -161,144l0 0 -1 -1z"/>
  </g>
  <g>
   <path class="fil0 str0" d="M3817 15210c56,5 35,0 73,17 26,-98 71,-89 144,-89 51,98 61,144 -91,144l0 71c250,0 131,163 36,163 -87,0 -36,-86 -179,-90 19,226 355,193 377,18 -18,-83 -10,-84 -72,-126 130,-195 -38,-252 -126,-252 -88,0 -155,60 -162,144l0 0 0 0z"/>
   <path id="1" class="fil5" d="M3817 15210c56,5 35,0 73,17 26,-98 71,-89 144,-89 51,98 61,144 -91,144l0 71c250,0 131,163 36,163 -87,0 -36,-86 -179,-90 19,226 355,193 377,18 -18,-83 -10,-84 -72,-126 130,-195 -38,-252 -126,-252 -88,0 -155,60 -162,144l0 0 0 0z"/>
  </g>
  <g>
   <path class="fil0 str0" d="M2707 1239c12,18 3,16 21,35l54 0c13,-53 7,-28 36,-72 119,0 126,-16 126,107 -48,25 -53,35 -126,35l0 54c52,12 53,17 126,17 13,54 17,55 17,126 -119,63 -159,36 -216,-71 -33,16 -22,13 -72,17 35,151 152,182 255,149 137,-45 173,-174 51,-256 36,-53 86,-111 30,-192 -43,-65 -240,-125 -303,48l0 0 1 3z"/>
   <path id="1" class="fil5" d="M2707 1239c12,18 3,16 21,35l54 0c13,-53 7,-28 36,-72 119,0 126,-16 126,107 -48,25 -53,35 -126,35l0 54c52,12 53,17 126,17 13,54 17,55 17,126 -119,63 -159,36 -216,-71 -33,16 -22,13 -72,17 35,151 152,182 255,149 137,-45 173,-174 51,-256 36,-53 86,-111 30,-192 -43,-65 -240,-125 -303,48l0 0 1 3z"/>
  </g>
  <g>
   <path class="fil0 str0" d="M3809 402c0,103 -15,302 201,321 43,4 119,-25 145,-46 35,-31 62,-92 67,-149l-89 0c-4,174 -165,134 -213,70 -17,-25 -33,-100 -36,-126 -1,-25 16,-104 27,-130 26,-59 67,-65 132,-65 91,0 42,84 128,90 27,1 35,-2 43,-21 1,-6 -21,-141 -152,-141 -122,0 -253,33 -253,197z"/>
   <path id="1" class="fil5" d="M3809 402c0,103 -15,302 201,321 43,4 119,-25 145,-46 35,-31 62,-92 67,-149l-89 0c-4,174 -165,134 -213,70 -17,-25 -33,-100 -36,-126 -1,-25 16,-104 27,-130 26,-59 67,-65 132,-65 91,0 42,84 128,90 27,1 35,-2 43,-21 1,-6 -21,-141 -152,-141 -122,0 -253,33 -253,197z"/>
  </g>
  <g>
   <path class="fil0 str0" d="M6103 19853l0 36c-47,22 -19,17 -90,17l0 72 90 0c173,0 -22,-431 127,-431 228,0 180,-66 180,431l70 0 0 -485 -377 0 0 359 0 0 0 1z"/>
   <path id="1" class="fil7" d="M6103 19853l0 36c-47,22 -19,17 -90,17l0 72 90 0c173,0 -22,-431 127,-431 228,0 180,-66 180,431l70 0 0 -485 -377 0 0 359 0 0 0 1z"/>
  </g>
  <g>
   <path class="fil0 str0" d="M3983 19853l0 36c-47,22 -20,17 -89,17l0 72 89 0c172,0 -21,-431 126,-431 229,0 180,-66 180,431l72 0 0 -485 -377 0 0 359 0 0 -1 1z"/>
   <path id="1" class="fil7" d="M3983 19853l0 36c-47,22 -20,17 -89,17l0 72 89 0c172,0 -21,-431 126,-431 229,0 180,-66 180,431l72 0 0 -485 -377 0 0 359 0 0 -1 1z"/>
  </g>
  <g>
   <path class="fil0 str0" d="M2877 8448c0,410 437,256 423,104 -4,-46 -25,-31 -83,-32 -4,55 -5,57 -39,87 -220,190 -307,-338 -87,-338 157,0 42,86 197,90 -21,-243 -413,-220 -413,89l0 0 2 0z"/>
   <path id="1" class="fil5" d="M2877 8448c0,410 437,256 423,104 -4,-46 -25,-31 -83,-32 -4,55 -5,57 -39,87 -220,190 -307,-338 -87,-338 157,0 42,86 197,90 -21,-243 -413,-220 -413,89l0 0 2 0z"/>
  </g>
  <g>
   <path class="fil0 str0" d="M5810 18727c0,329 251,321 355,232 44,-37 57,-66 58,-141 -114,1 -57,-11 -99,63 -64,114 -226,60 -226,-81l0 -162c71,-47 123,-133 220,-21 45,51 -1,39 105,39 -60,-257 -414,-205 -414,71l0 0 1 0z"/>
   <path id="1" class="fil5" d="M5810 18727c0,329 251,321 355,232 44,-37 57,-66 58,-141 -114,1 -57,-11 -99,63 -64,114 -226,60 -226,-81l0 -162c71,-47 123,-133 220,-21 45,51 -1,39 105,39 -60,-257 -414,-205 -414,71l0 0 1 0z"/>
  </g>
  <g>
   <polygon class="fil0 str0" points="5473,20969 5545,20969 5545,20753 5779,20753 5779,20969 5851,20969 5851,20484 5779,20484 5779,20681 5545,20681 5545,20484 5473,20484 "/>
   <polygon id="1" class="fil7" points="5473,20969 5545,20969 5545,20753 5779,20753 5779,20969 5851,20969 5851,20484 5779,20484 5779,20681 5545,20681 5545,20484 5473,20484 "/>
  </g>
  <g>
   <polygon class="fil0 str0" points="5495,9571 5567,9571 5567,9356 5800,9356 5800,9571 5872,9571 5872,9086 5800,9086 5800,9284 5567,9284 5567,9086 5495,9086 "/>
   <polygon id="1" class="fil7" points="5495,9571 5567,9571 5567,9356 5800,9356 5800,9571 5872,9571 5872,9086 5800,9086 5800,9284 5567,9284 5567,9086 5495,9086 "/>
  </g>
  <g>
   <path class="fil0 str0" d="M3811 10846l89 0c58,-108 88,-71 162,-54l0 108c-42,9 -53,17 -107,17l0 72c158,0 103,4 144,89 -36,42 -100,124 -194,32 -61,-62 31,-46 -94,-49 1,70 5,78 47,114 156,133 365,-34 311,-166 -2,-4 -6,-14 -9,-10 -1,2 -12,-13 -17,-17 -21,-17 -26,-17 -46,-27 9,-13 118,-125 12,-209 -67,-54 -171,-54 -238,0 -31,26 -43,68 -60,101l0 0 0 -1z"/>
   <path id="1" class="fil6" d="M3811 10846l89 0c58,-108 88,-71 162,-54l0 108c-42,9 -53,17 -107,17l0 72c158,0 103,4 144,89 -36,42 -100,124 -194,32 -61,-62 31,-46 -94,-49 1,70 5,78 47,114 156,133 365,-34 311,-166 -2,-4 -6,-14 -9,-10 -1,2 -12,-13 -17,-17 -21,-17 -26,-17 -46,-27 9,-13 118,-125 12,-209 -67,-54 -171,-54 -238,0 -31,26 -43,68 -60,101l0 0 0 -1z"/>
  </g>
  <g>
   <path class="fil0 str0" d="M4896 11721l91 0c56,-108 88,-71 161,-54l0 108c-71,17 -90,5 -126,53 40,54 32,36 126,36 15,31 21,58 36,89 -36,42 -100,124 -193,32 -63,-62 29,-46 -96,-49 5,218 360,209 360,0 0,-73 -17,-93 -73,-108 36,-53 54,-35 54,-107 0,-166 -197,-171 -281,-102 -31,27 -43,69 -60,102l0 0 1 0z"/>
   <path id="1" class="fil5" d="M4896 11721l91 0c56,-108 88,-71 161,-54l0 108c-71,17 -90,5 -126,53 40,54 32,36 126,36 15,31 21,58 36,89 -36,42 -100,124 -193,32 -63,-62 29,-46 -96,-49 5,218 360,209 360,0 0,-73 -17,-93 -73,-108 36,-53 54,-35 54,-107 0,-166 -197,-171 -281,-102 -31,27 -43,69 -60,102l0 0 1 0z"/>
  </g>
  <g>
   <path class="fil0 str0" d="M5236 17237c0,351 408,335 414,71 -102,3 -52,-1 -96,66 -42,63 -227,158 -227,-172 0,-92 108,-219 218,-93 45,52 -1,39 105,39 -51,-218 -273,-180 -355,-85 -34,39 -57,106 -57,176l0 0 -2 -2z"/>
   <path id="1" class="fil5" d="M5236 17237c0,351 408,335 414,71 -102,3 -52,-1 -96,66 -42,63 -227,158 -227,-172 0,-92 108,-219 218,-93 45,52 -1,39 105,39 -51,-218 -273,-180 -355,-85 -34,39 -57,106 -57,176l0 0 -2 -2z"/>
  </g>
  <g>
   <path class="fil0 str0" d="M6210 17195l-9 48 72 25c25,15 35,19 59,35l0 89c-49,27 -85,53 -145,21 -102,-57 15,-73 -143,-73 78,334 565,66 306,-108l58 -70c-9,-237 -298,-237 -344,-38 105,0 83,-9 126,-72 72,0 150,9 126,89 -35,53 -21,52 -104,54l0 0 -2 0z"/>
   <path id="1" class="fil6" d="M6210 17195l-9 48 72 25c25,15 35,19 59,35l0 89c-49,27 -85,53 -145,21 -102,-57 15,-73 -143,-73 78,334 565,66 306,-108l58 -70c-9,-237 -298,-237 -344,-38 105,0 83,-9 126,-72 72,0 150,9 126,89 -35,53 -21,52 -104,54l0 0 -2 0z"/>
  </g>
  <g>
   <path class="fil0 str0" d="M5117 16242c-17,204 -253,147 -253,-54 0,-92 36,-197 127,-197 157,0 42,86 198,89 -18,-214 -319,-205 -385,-25 -35,98 -25,221 25,294 78,115 288,111 356,-25 36,-73 21,-82 -68,-84l0 0 0 2z"/>
   <path id="1" class="fil5" d="M5117 16242c-17,204 -253,147 -253,-54 0,-92 36,-197 127,-197 157,0 42,86 198,89 -18,-214 -319,-205 -385,-25 -35,98 -25,221 25,294 78,115 288,111 356,-25 36,-73 21,-82 -68,-84l0 0 0 2z"/>
  </g>
  <g>
   <path class="fil0 str0" d="M2758 4753c0,355 291,309 363,220 21,-25 81,-130 13,-130 -80,0 -39,126 -161,126 -253,0 -123,-555 92,-326 47,50 -12,40 105,40 -27,-56 -13,-73 -67,-112 -134,-101 -346,-29 -346,184l0 0 1 -2z"/>
   <path id="1" class="fil5" d="M2758 4753c0,355 291,309 363,220 21,-25 81,-130 13,-130 -80,0 -39,126 -161,126 -253,0 -123,-555 92,-326 47,50 -12,40 105,40 -27,-56 -13,-73 -67,-112 -134,-101 -346,-29 -346,184l0 0 1 -2z"/>
  </g>
  <g>
   <path class="fil0 str0" d="M5085 7493c0,180 195,152 306,126l0 197 90 0 0 -486 -90 0c0,269 36,234 -180,234 -61,-92 -54,-109 -54,-234l-72 0 0 161 0 0 0 2z"/>
   <path id="1" class="fil5" d="M5085 7493c0,180 195,152 306,126l0 197 90 0 0 -486 -90 0c0,269 36,234 -180,234 -61,-92 -54,-109 -54,-234l-72 0 0 161 0 0 0 2z"/>
  </g>
  <g>
   <path class="fil0 str0" d="M2818 16422l70 0 0 -216c94,8 161,131 180,216l90 0c-25,-111 -130,-205 -162,-251l71 -128c54,-84 80,25 91,-106l-107 0c-114,215 -57,195 -163,198l0 -198 -70 0 0 486 0 -1z"/>
   <path id="1" class="fil6" d="M2818 16422l70 0 0 -216c94,8 161,131 180,216l90 0c-25,-111 -130,-205 -162,-251l71 -128c54,-84 80,25 91,-106l-107 0c-114,215 -57,195 -163,198l0 -198 -70 0 0 486 0 -1z"/>
  </g>
  <g>
   <path class="fil0 str0" d="M3865 5932l72 0 0 -216c88,8 96,58 179,216l90 0c-121,-227 -65,-109 -161,-252 105,-157 43,-153 143,-162l0 -72c-234,0 -65,182 -251,197l0 -197 -72 0 0 486 0 0 0 0z"/>
   <path id="1" class="fil6" d="M3865 5932l72 0 0 -216c88,8 96,58 179,216l90 0c-121,-227 -65,-109 -161,-252 105,-157 43,-153 143,-162l0 -72c-234,0 -65,182 -251,197l0 -197 -72 0 0 486 0 0 0 0z"/>
  </g>
  <g>
   <path class="fil0 str0" d="M505 4481c21,32 3,36 54,36l1025 0c51,0 33,-8 54,-36 -21,-30 -3,-35 -54,-35l-1025 0c-31,0 -49,9 -54,35z"/>
   <path id="1" class="fil8" d="M505 4481c21,32 3,36 54,36l1025 0c51,0 33,-8 54,-36 -21,-30 -3,-35 -54,-35l-1025 0c-31,0 -49,9 -54,35z"/>
  </g>
  <g>
   <path class="fil0 str0" d="M2849 20969l72 0 0 -216c80,7 74,25 112,86 28,44 45,85 68,130l90 0c-13,-48 -49,-100 -75,-141 -40,-62 -70,-76 -104,-130 133,-35 12,-126 162,-162l0 -53c-232,0 -75,182 -253,197l0 -197 -72 0 0 484 0 0 0 2z"/>
   <path id="1" class="fil6" d="M2849 20969l72 0 0 -216c80,7 74,25 112,86 28,44 45,85 68,130l90 0c-13,-48 -49,-100 -75,-141 -40,-62 -70,-76 -104,-130 133,-35 12,-126 162,-162l0 -53c-232,0 -75,182 -253,197l0 -197 -72 0 0 484 0 0 0 2z"/>
  </g>
  <g>
   <path class="fil0 str0" d="M4279 11206l72 0 0 -216c88,8 96,58 180,216l89 0c-110,-211 -110,-167 -180,-270 57,-15 61,-17 91,-144l71 0 0 -72c-232,0 -75,182 -251,197l0 -197 -72 0 0 486 0 0 0 0z"/>
   <path id="1" class="fil6" d="M4279 11206l72 0 0 -216c88,8 96,58 180,216l89 0c-110,-211 -110,-167 -180,-270 57,-15 61,-17 91,-144l71 0 0 -72c-232,0 -75,182 -251,197l0 -197 -72 0 0 486 0 0 0 0z"/>
  </g>
  <g>
   <path class="fil0 str0" d="M4244 2111l145 0 0 431 89 0 0 -431 162 0c-9,-106 -28,-72 -396,-72l0 72 0 0z"/>
   <path id="1" class="fil4" d="M4244 2111l145 0 0 431 89 0 0 -431 162 0c-9,-106 -28,-72 -396,-72l0 72 0 0z"/>
  </g>
  <g>
   <path class="fil0 str0" d="M4260 277l145 0 0 431 89 0 0 -431 162 0c-10,-106 -29,-72 -396,-72l0 72 0 0z"/>
   <path id="1" class="fil4" d="M4260 277l145 0 0 431 89 0 0 -431 162 0c-10,-106 -29,-72 -396,-72l0 72 0 0z"/>
  </g>
  <g>
   <polygon class="fil0 str0" points="5424,1204 5567,1204 5567,1634 5658,1634 5658,1204 5801,1204 5801,1131 5424,1131 "/>
   <polygon id="1" class="fil4" points="5424,1204 5567,1204 5567,1634 5658,1634 5658,1204 5801,1204 5801,1131 5424,1131 "/>
  </g>
  <g>
   <path class="fil0 str0" d="M8149 20370l0 126 -54 0 0 54 54 0 17 413 162 17 0 -72c-70,-1 -42,5 -90,-17l0 -341 73 0 0 -54 -73 0 0 -180c-39,21 -53,30 -89,54l0 0 0 0z"/>
   <path id="1" class="fil4" d="M8149 20370l0 126 -54 0 0 54 54 0 17 413 162 17 0 -72c-70,-1 -42,5 -90,-17l0 -341 73 0 0 -54 -73 0 0 -180c-39,21 -53,30 -89,54l0 0 0 0z"/>
  </g>
  <g>
   <path class="fil0 str0" d="M5931 10792l144 0 0 414 90 0 0 -414c162,0 155,13 162,-72l-396 0 0 72 0 0z"/>
   <path id="1" class="fil4" d="M5931 10792l144 0 0 414 90 0 0 -414c162,0 155,13 162,-72l-396 0 0 72 0 0z"/>
  </g>
  <g>
   <path class="fil0 str0" d="M6197 12544l144 0 0 414 90 0 0 -414c161,0 155,14 161,-72l-395 0 0 72 0 0z"/>
   <path id="1" class="fil4" d="M6197 12544l144 0 0 414 90 0 0 -414c161,0 155,14 161,-72l-395 0 0 72 0 0z"/>
  </g>
  <g>
   <polygon class="fil0 str0" points="5243,16009 5386,16009 5386,16422 5477,16422 5477,16009 5620,16009 5620,15937 5243,15937 "/>
   <polygon id="1" class="fil4" points="5243,16009 5386,16009 5386,16422 5477,16422 5477,16009 5620,16009 5620,15937 5243,15937 "/>
  </g>
  <g>
   <polygon class="fil0 str0" points="6745,13459 6888,13459 6888,13871 6978,13871 6978,13459 7122,13459 7122,13387 6745,13387 "/>
   <polygon id="1" class="fil4" points="6745,13459 6888,13459 6888,13871 6978,13871 6978,13459 7122,13459 7122,13387 6745,13387 "/>
  </g>
  <g>
   <path class="fil0 str0" d="M8418 20476c-32,17 -23,14 -72,18l0 54 72 0c0,456 -38,431 162,431l0 -72 -72 0c-32,-133 -19,-200 -19,-359l91 0 0 -54c-71,-1 -43,6 -91,-18l0 -143c-100,22 -71,22 -71,143l0 0z"/>
   <path id="1" class="fil7" d="M8418 20476c-32,17 -23,14 -72,18l0 54 72 0c0,456 -38,431 162,431l0 -72 -72 0c-32,-133 -19,-200 -19,-359l91 0 0 -54c-71,-1 -43,6 -91,-18l0 -143c-100,22 -71,22 -71,143l0 0z"/>
  </g>
  <g>
   <polygon class="fil0 str0" points="505,3978 1638,3978 1638,3924 505,3924 "/>
   <polygon id="1" class="fil6" points="505,3978 1638,3978 1638,3924 505,3924 "/>
  </g>
  <g>
   <path class="fil0 str0" d="M8652 20351l0 629 90 0 0 -681c-58,1 -90,-6 -90,53l0 -1z"/>
   <path id="1" class="fil4" d="M8652 20351l0 629 90 0 0 -681c-58,1 -90,-6 -90,53l0 -1z"/>
  </g>
  <g>
   <path class="fil0 str0" d="M559 4248l1079 0 0 -54 -1133 0c11,39 4,54 54,54z"/>
   <path id="1" class="fil4" d="M559 4248l1079 0 0 -54 -1133 0c11,39 4,54 54,54z"/>
  </g>
  <g>
   <polygon class="fil0 str0" points="3745,17074 3907,17074 3907,17488 3979,17488 3979,17074 4141,17074 4141,17002 3745,17002 "/>
   <polygon id="1" class="fil6" points="3745,17074 3907,17074 3907,17488 3979,17488 3979,17074 4141,17074 4141,17002 3745,17002 "/>
  </g>
  <g>
   <polygon class="fil0 str0" points="4727,5518 4888,5518 4888,5932 4960,5932 4960,5518 5122,5518 5122,5447 4727,5447 "/>
   <polygon id="1" class="fil6" points="4727,5518 4888,5518 4888,5932 4960,5932 4960,5518 5122,5518 5122,5447 4727,5447 "/>
  </g>
  <g>
   <path class="fil0 str0" d="M2756 13459l161 0 0 412 73 0 0 -412c161,0 155,13 161,-72l-395 0 0 72z"/>
   <path id="1" class="fil6" d="M2756 13459l161 0 0 412 73 0 0 -412c161,0 155,13 161,-72l-395 0 0 72z"/>
  </g>
  <g>
   <path class="fil0 str0" d="M6298 15156l161 0 0 414 73 0 0 -414c161,0 155,13 161,-72l-395 0 0 72z"/>
   <path id="1" class="fil6" d="M6298 15156l161 0 0 414 73 0 0 -414c161,0 155,13 161,-72l-395 0 0 72z"/>
  </g>
  <g>
   <path class="fil0 str0" d="M7394 20548c-18,-21 -12,21 -18,-54l-72 0 0 485 72 0c0,-167 -17,-280 54,-412 74,0 58,-7 108,17 9,-41 13,-41 17,-90 -35,-9 -131,-57 -161,54l0 0z"/>
   <path id="1" class="fil6" d="M7394 20548c-18,-21 -12,21 -18,-54l-72 0 0 485 72 0c0,-167 -17,-280 54,-412 74,0 58,-7 108,17 9,-41 13,-41 17,-90 -35,-9 -131,-57 -161,54l0 0z"/>
  </g>
  <g>
   <path class="fil0 str0" d="M6260 18566c206,0 161,-62 161,431l73 0c0,-493 -45,-431 161,-431l0 -54 -395 0 0 54z"/>
   <path id="1" class="fil7" d="M6260 18566c206,0 161,-62 161,431l73 0c0,-493 -45,-431 161,-431l0 -54 -395 0 0 54z"/>
  </g>
  <g>
   <path class="fil0 str0" d="M7023 9140c206,0 162,-61 162,431l72 0c0,-494 -45,-431 162,-431l0 -54 -396 0 0 54z"/>
   <path id="1" class="fil7" d="M7023 9140c206,0 162,-61 162,431l72 0c0,-494 -45,-431 162,-431l0 -54 -396 0 0 54z"/>
  </g>
  <g>
   <path class="fil0 str0" d="M3624 19979l72 0 0 -377c0,-42 14,-54 54,-54l145 0 0 -53 -269 0 0 484 0 0 -2 0z"/>
   <path id="1" class="fil7" d="M3624 19979l72 0 0 -377c0,-42 14,-54 54,-54l145 0 0 -53 -269 0 0 484 0 0 -2 0z"/>
  </g>
  <g>
   <path class="fil0 str0" d="M5244 1185l0 449 90 0 0 -503c-58,2 -90,-5 -90,54l0 0 0 0z"/>
   <path id="1" class="fil4" d="M5244 1185l0 449 90 0 0 -503c-58,2 -90,-5 -90,54l0 0 0 0z"/>
  </g>
  <g>
   <polygon class="fil0 str0" points="5976,20969 6065,20969 6065,20484 5976,20484 "/>
   <polygon id="1" class="fil4" points="5976,20969 6065,20969 6065,20484 5976,20484 "/>
  </g>
  <g>
   <polygon class="fil0 str0" points="5895,8700 5985,8700 5985,8214 5895,8214 "/>
   <polygon id="1" class="fil4" points="5895,8700 5985,8700 5985,8214 5895,8214 "/>
  </g>
  <g>
   <polygon class="fil0 str0" points="7993,9571 8082,9571 8082,9086 7993,9086 "/>
   <polygon id="1" class="fil4" points="7993,9571 8082,9571 8082,9086 7993,9086 "/>
  </g>
  <g>
   <polygon class="fil0 str0" points="7612,19979 7702,19979 7702,19495 7612,19495 "/>
   <polygon id="1" class="fil4" points="7612,19979 7702,19979 7702,19495 7612,19495 "/>
  </g>
  <g>
   <path class="fil0 str0" d="M631 4786c23,13 20,19 54,19l700 0 0 -54 -700 0c-33,0 -50,9 -54,35z"/>
   <path id="1" class="fil7" d="M631 4786c23,13 20,19 54,19l700 0 0 -54 -700 0c-33,0 -50,9 -54,35z"/>
  </g>
  <g>
   <polygon class="fil0 str0" points="6227,20969 6299,20969 6299,20484 6227,20484 "/>
   <polygon id="1" class="fil7" points="6227,20969 6299,20969 6299,20484 6227,20484 "/>
  </g>
  <g>
   <polygon class="fil0 str0" points="3584,17488 3656,17488 3656,17002 3584,17002 "/>
   <polygon id="1" class="fil7" points="3584,17488 3656,17488 3656,17002 3584,17002 "/>
  </g>
  <g>
   <polygon class="fil0 str0" points="4390,18997 4462,18997 4462,18512 4390,18512 "/>
   <polygon id="1" class="fil7" points="4390,18997 4462,18997 4462,18512 4390,18512 "/>
  </g>
  <g>
   <polygon class="fil0 str0" points="5630,18997 5701,18997 5701,18512 5630,18512 "/>
   <polygon id="1" class="fil7" points="5630,18997 5701,18997 5701,18512 5630,18512 "/>
  </g>
  <g>
   <polygon class="fil0 str0" points="4322,5023 4394,5023 4394,4538 4322,4538 "/>
   <polygon id="1" class="fil7" points="4322,5023 4394,5023 4394,4538 4322,4538 "/>
  </g>
  <g>
   <path class="fil0 str0" d="M450 12749c0,-89 67,-90 156,-90 2,2 74,156 -67,156 -43,0 -90,-41 -90,-67l0 0 1 1zm-68 -23c0,255 475,206 248,-136 -93,0 -248,-11 -248,136z"/>
   <path id="1" class="fil1" d="M450 12749c0,-89 67,-90 156,-90 2,2 74,156 -67,156 -43,0 -90,-41 -90,-67l0 0 1 1zm-68 -23c0,255 475,206 248,-136 -93,0 -248,-11 -248,136z"/>
  </g>
  <g>
   <path class="fil0 str0" d="M1548 12728l24 -25c16,-25 11,-18 24,-42l113 0c36,137 29,29 0,157l-113 0 -46 -90 -2 0zm-65 -1c0,154 131,156 247,156 94,-140 92,-153 0,-291 -78,0 -146,-11 -192,33 -8,7 -55,99 -55,102l0 0 0 0z"/>
   <path id="1" class="fil1" d="M1548 12728l24 -25c16,-25 11,-18 24,-42l113 0c36,137 29,29 0,157l-113 0 -46 -90 -2 0zm-65 -1c0,154 131,156 247,156 94,-140 92,-153 0,-291 -78,0 -146,-11 -192,33 -8,7 -55,99 -55,102l0 0 0 0z"/>
  </g>
  <g>
   <path class="fil0 str0" d="M631 5057c21,30 3,35 54,35l503 0c52,0 33,-7 54,-35 -58,-32 -587,-28 -611,0z"/>
   <path id="1" class="fil9" d="M631 5057c21,30 3,35 54,35l503 0c52,0 33,-7 54,-35 -58,-32 -587,-28 -611,0z"/>
  </g>
  <g>
   <path class="fil0 str0" d="M1864 5882l-909 0c0,-91 21,-543 -16,-610l9 617c83,25 895,25 914,-6l2 -1z"/>
   <path id="1" class="fil10" d="M1864 5882l-909 0c0,-91 21,-543 -16,-610l9 617c83,25 895,25 914,-6l2 -1z"/>
  </g>
  <g>
   <polygon class="fil0 str0" points="5704,17290 5956,17290 5956,17201 5704,17201 "/>
   <polygon id="1" class="fil4" points="5704,17290 5956,17290 5956,17201 5704,17201 "/>
  </g>
  <g>
   <path class="fil0 str0" d="M1170 5379l359 0c50,0 43,-13 54,-54l-414 0 0 54 1 0z"/>
   <path id="1" class="fil1" d="M1170 5379l359 0c50,0 43,-13 54,-54l-414 0 0 54 1 0z"/>
  </g>
  <g>
   <path class="fil0 str0" d="M5445 151c92,0 125,-35 126,-126l-54 0c-19,75 -7,38 -72,72 -63,-34 -51,3 -71,-72l-54 0c2,89 36,126 127,126l-2 0z"/>
   <path id="1" class="fil11" d="M5445 151c92,0 125,-35 126,-126l-54 0c-19,75 -7,38 -72,72 -63,-34 -51,3 -71,-72l-54 0c2,89 36,126 127,126l-2 0z"/>
  </g>
  <g>
   <path class="fil0 str0" d="M7233 4447c96,48 222,48 234,-89 -140,14 22,54 -144,54 -102,0 22,-51 -126,-54 14,32 21,58 35,89l0 0 1 0z"/>
   <path id="1" class="fil12" d="M7233 4447c96,48 222,48 234,-89 -140,14 22,54 -144,54 -102,0 22,-51 -126,-54 14,32 21,58 35,89l0 0 1 0z"/>
  </g>
  <g>
   <path class="fil0 str0" d="M5461 3529c96,47 222,47 234,-89 -141,14 22,54 -145,54 -76,0 -13,-45 -126,-54 15,31 21,57 36,89l0 0 1 0z"/>
   <path id="1" class="fil12" d="M5461 3529c96,47 222,47 234,-89 -141,14 22,54 -145,54 -76,0 -13,-45 -126,-54 15,31 21,57 36,89l0 0 1 0z"/>
  </g>
  <g>
   <path class="fil0 str0" d="M8026 19422c118,0 102,-29 144,-107 -156,3 -8,53 -144,53 -77,0 -14,-44 -127,-53 17,69 40,107 127,107z"/>
   <path id="1" class="fil4" d="M8026 19422c118,0 102,-29 144,-107 -156,3 -8,53 -144,53 -77,0 -14,-44 -127,-53 17,69 40,107 127,107z"/>
  </g>
  <g>
   <path class="fil0 str0" d="M6846 7259l72 0c32,-47 42,-50 72,-106 -156,2 -8,53 -144,53 -76,0 -13,-44 -126,-53 17,69 40,106 126,106l0 0 0 0z"/>
   <path id="1" class="fil4" d="M6846 7259l72 0c32,-47 42,-50 72,-106 -156,2 -8,53 -144,53 -76,0 -13,-44 -126,-53 17,69 40,106 126,106l0 0 0 0z"/>
  </g>
  <g>
   <path class="fil0 str0" d="M3097 2542c15,-27 6,29 14,-36l1 -467 -288 -1c-8,0 -47,1 -52,1 -40,9 -14,3 -37,20l362 0 0 482 0 0 0 1z"/>
   <path id="1" class="fil13" d="M3097 2542c15,-27 6,29 14,-36l1 -467 -288 -1c-8,0 -47,1 -52,1 -40,9 -14,3 -37,20l362 0 0 482 0 0 0 1z"/>
  </g>
  <g>
   <path class="fil0 str0" d="M277 16341c34,-57 15,-354 14,-421l-122 -10c-80,15 -15,2 -47,19l155 0 0 414 0 0 0 -2z"/>
   <path id="1" class="fil14" d="M277 16341c34,-57 15,-354 14,-421l-122 -10c-80,15 -15,2 -47,19l155 0 0 414 0 0 0 -2z"/>
  </g>
  <g>
   <path class="fil0 str0" d="M5976 20339c0,61 31,53 89,54l0 -106c-58,1 -89,-5 -89,54l0 0 0 -2z"/>
   <path id="1" class="fil15" d="M5976 20339c0,61 31,53 89,54l0 -106c-58,1 -89,-5 -89,54l0 0 0 -2z"/>
  </g>
  <g>
   <path class="fil0 str0" d="M7993 8942c0,60 31,54 89,54l0 -108c-58,1 -89,-5 -89,54l0 0 0 0z"/>
   <path id="1" class="fil15" d="M7993 8942c0,60 31,54 89,54l0 -108c-58,1 -89,-5 -89,54l0 0 0 0z"/>
  </g>
  <g>
   <path class="fil0 str0" d="M1401 1405c24,38 19,31 29,77 118,-3 118,-1 121,-120 -64,-17 -21,2 -74,-24l-77 68 0 0 1 -1z"/>
   <path id="1" class="fil4" d="M1401 1405c24,38 19,31 29,77 118,-3 118,-1 121,-120 -64,-17 -21,2 -74,-24l-77 68 0 0 1 -1z"/>
  </g>
  <g>
   <polygon class="fil0 str0" points="6138,20412 6227,20412 6227,20322 6138,20322 "/>
   <polygon id="1" class="fil3" points="6138,20412 6227,20412 6227,20322 6138,20322 "/>
  </g>
  <g>
   <polygon class="fil0 str0" points="6299,20412 6389,20412 6389,20322 6299,20322 "/>
   <polygon id="1" class="fil5" points="6299,20412 6389,20412 6389,20322 6299,20322 "/>
  </g>
  <g>
   <polygon class="fil0 str0" points="5244,1042 5334,1042 5334,951 5244,951 "/>
   <polygon id="1" class="fil3" points="5244,1042 5334,1042 5334,951 5244,951 "/>
  </g>
  <g>
   <polygon class="fil0 str0" points="5630,18421 5701,18421 5701,18315 5630,18315 "/>
   <polygon id="1" class="fil12" points="5630,18421 5701,18421 5701,18315 5630,18315 "/>
  </g>
  <g>
   <polygon class="fil0 str0" points="4390,18421 4462,18421 4462,18315 4390,18315 "/>
   <polygon id="1" class="fil12" points="4390,18421 4462,18421 4462,18315 4390,18315 "/>
  </g>
  <g>
   <polygon class="fil0 str0" points="3584,16913 3656,16913 3656,16805 3584,16805 "/>
   <polygon id="1" class="fil11" points="3584,16913 3656,16913 3656,16805 3584,16805 "/>
  </g>
  <g>
   <polygon class="fil0 str0" points="4322,4447 4394,4447 4394,4358 4322,4358 "/>
   <polygon id="1" class="fil6" points="4322,4447 4394,4447 4394,4358 4322,4358 "/>
  </g>
  <g>
   <path class="fil0 str0" d="M7629 19387c25,17 -32,17 55,17 20,-40 17,-21 18,-80l-73 -16 -2 79 2 0z"/>
   <path id="1" class="fil1" d="M7629 19387c25,17 -32,17 55,17 20,-40 17,-21 18,-80l-73 -16 -2 79 2 0z"/>
  </g>
  <g>
   <path class="fil0 str0" d="M8530 16167c38,-28 22,-121 9,-167 -54,-12 -126,-21 -164,9l155 0 0 159 0 -1z"/>
   <path id="1" class="fil16" d="M8530 16167c38,-28 22,-121 9,-167 -54,-12 -126,-21 -164,9l155 0 0 159 0 -1z"/>
  </g>
  <g>
   <path class="fil0 str0" d="M7197 11824c35,-25 19,-120 9,-165 -58,-15 -126,-21 -167,9l159 0 0 156 -1 0z"/>
   <path id="1" class="fil17" d="M7197 11824c35,-25 19,-120 9,-165 -58,-15 -126,-21 -167,9l159 0 0 156 -1 0z"/>
  </g>
  <g>
   <path class="fil0 str0" d="M5910 8106c6,53 61,2 62,0l0 -73 -62 0 0 73z"/>
   <path id="1" class="fil3" d="M5910 8106c6,53 61,2 62,0l0 -73 -62 0 0 73z"/>
  </g>
  <g>
   <path class="fil0 str0" d="M4043 7945l-54 0 0 -188 27 -13 -45 0 0 215c11,0 30,1 36,-1 42,-9 22,-5 36,-13l0 0 0 0z"/>
   <path id="1" class="fil18" d="M4043 7945l-54 0 0 -188 27 -13 -45 0 0 215c11,0 30,1 36,-1 42,-9 22,-5 36,-13l0 0 0 0z"/>
  </g>
  <g>
   <path class="fil0 str0" d="M5910 8106l0 -73 62 0 0 73 13 -89 -92 0c0,11 -1,43 2,54 6,30 6,21 15,35l0 0z"/>
   <path id="1" class="fil19" d="M5910 8106l0 -73 62 0 0 73 13 -89 -92 0c0,11 -1,43 2,54 6,30 6,21 15,35l0 0z"/>
  </g>
  <g>
   <path class="fil0 str0" d="M4493 7946l-54 0c0,-20 1,-60 1,-77 -9,-96 4,-16 -18,-53l0 143 72 -13 0 0 -1 0z"/>
   <path id="1" class="fil20" d="M4493 7946l-54 0c0,-20 1,-60 1,-77 -9,-96 4,-16 -18,-53l0 143 72 -13 0 0 -1 0z"/>
  </g>
  <g>
   <path class="fil0 str0" d="M7629 19387l1 -79 74 16c-33,-32 14,-13 -37,-25 -11,-3 -41,-2 -54,-2 0,11 -1,44 1,53 7,30 8,22 16,37l0 0 -1 0z"/>
   <path id="1" class="fil20" d="M7629 19387l1 -79 74 16c-33,-32 14,-13 -37,-25 -11,-3 -41,-2 -54,-2 0,11 -1,44 1,53 7,30 8,22 16,37l0 0 -1 0z"/>
  </g>
  <g>
   <path class="fil0 str0" d="M6273 17268l-72 -25 9 -48c-17,23 -21,-23 -21,73l84 0 0 0 0 0z"/>
   <path id="1" class="fil21" d="M6273 17268l-72 -25 9 -48c-17,23 -21,-23 -21,73l84 0 0 0 0 0z"/>
  </g>
  <g>
   <path class="fil0 str0" d="M3854 15972c-4,-5 -13,-14 -14,-17 -2,-1 -7,-8 -10,-9 -1,-1 -5,-5 -9,-9l0 57 32 -21 1 -1z"/>
   <path id="1" class="fil22" d="M3854 15972c-4,-5 -13,-14 -14,-17 -2,-1 -7,-8 -10,-9 -1,-1 -5,-5 -9,-9l0 57 32 -21 1 -1z"/>
  </g>
  <g>
   <path class="fil0 str0" d="M3245 13531c-23,-21 -18,-22 -25,-35l-18 35 43 1 0 0 0 -1z"/>
   <path id="1" class="fil23" d="M3245 13531c-23,-21 -18,-22 -25,-35l-18 35 43 1 0 0 0 -1z"/>
  </g>
  <g>
   <path class="fil0 str0" d="M2728 1276c-18,-21 -9,-17 -21,-36l-16 36 37 1 0 -1z"/>
   <path id="1" class="fil24" d="M2728 1276c-18,-21 -9,-17 -21,-36l-16 36 37 1 0 -1z"/>
  </g>
 </g>
</svg>
