<?xml version="1.0" encoding="UTF-8"?>
<!DOCTYPE svg PUBLIC "-//W3C//DTD SVG 1.1//EN" "http://www.w3.org/Graphics/SVG/1.1/DTD/svg11.dtd">
<!-- Creator: CorelDRAW X7 -->
<svg xmlns="http://www.w3.org/2000/svg" xml:space="preserve" width="34.429mm" height="164.811mm" version="1.1" style="shape-rendering:geometricPrecision; text-rendering:geometricPrecision; image-rendering:optimizeQuality; fill-rule:evenodd; clip-rule:evenodd"
viewBox="0 0 3443 16480"
 xmlns:xlink="http://www.w3.org/1999/xlink">
 <defs>
  <style type="text/css">
   <![CDATA[
    .str0 {stroke:#FEFEFE;stroke-width:49.9954;stroke-linecap:round;stroke-linejoin:round}
    .fil0 {fill:none}
    .fil1 {fill:#153647}
    .fil2 {fill:#153848}
    .fil4 {fill:#173848}
    .fil3 {fill:#173949}
    .fil5 {fill:#416075}
    .fil15 {fill:#46657B}
    .fil7 {fill:#47657C}
    .fil13 {fill:#47667D}
    .fil14 {fill:#49677E}
    .fil9 {fill:#4B6A81}
    .fil10 {fill:#4C6B82}
    .fil12 {fill:#517189}
    .fil6 {fill:#53728B}
    .fil8 {fill:#54748C}
    .fil11 {fill:#5B7C95}
   ]]>
  </style>
 </defs>
 <g id="Слой_x0020_1">
  <metadata id="CorelCorpID_0Corel-Layer"/>
  <g id="_677252992">
   <g>
    <g>
     <path class="fil0 str0" d="M2560 14352c-152,-442 310,-581 400,-293 131,424 -297,585 -400,293zm-253 94c-425,61 -295,-435 -178,-483 279,-111 375,267 178,483zm165 -527c-75,-81 -230,-196 -416,-100 -340,176 -163,1165 416,675l24 27c43,46 89,99 151,119 521,174 610,-744 236,-866 -272,-88 -364,101 -411,145l0 0z"/>
    </g>
   </g>
   <g id="_780408288">
    <g>
     <path id="_1" class="fil0 str0" d="M2560 14352c-152,-442 310,-581 400,-293 131,424 -297,585 -400,293zm-253 94c-425,61 -295,-435 -178,-483 279,-111 375,267 178,483zm165 -527c-75,-81 -230,-196 -416,-100 -340,176 -163,1165 416,675l24 27c43,46 89,99 151,119 521,174 610,-744 236,-866 -272,-88 -364,101 -411,145l0 0z"/>
    </g>
    <g>
     <path id="_1_0" class="fil0 str0" d="M2560 14352c-152,-442 310,-581 400,-293 131,424 -297,585 -400,293zm-253 94c-425,61 -295,-435 -178,-483 279,-111 375,267 178,483zm165 -527c-75,-81 -230,-196 -416,-100 -340,176 -163,1165 416,675l24 27c43,46 89,99 151,119 521,174 610,-744 236,-866 -272,-88 -364,101 -411,145l0 0z"/>
     <path id="1" class="fil1" d="M2560 14352c-152,-442 310,-581 400,-293 131,424 -297,585 -400,293zm-253 94c-425,61 -295,-435 -178,-483 279,-111 375,267 178,483zm165 -527c-75,-81 -230,-196 -416,-100 -340,176 -163,1165 416,675l24 27c43,46 89,99 151,119 521,174 610,-744 236,-866 -272,-88 -364,101 -411,145l0 0z"/>
    </g>
   </g>
  </g>
  <g>
   <g>
    <g>
     <path class="fil0 str0" d="M2655 6609c472,-51 353,517 181,578 -163,59 -265,-31 -289,-180 -34,-198 12,-297 108,-398l0 0 0 0zm-527 546c-156,-146 -121,-296 -54,-483 180,-70 322,-44 336,186 15,241 -57,321 -282,297zm344 -552c-61,-45 -90,-97 -169,-120 -633,-186 -532,1284 169,718 5,4 11,10 14,13l36 42c8,8 34,38 35,40 104,99 276,82 368,32 246,-138 263,-761 -40,-874 -273,-101 -379,116 -413,149l0 0 0 0z"/>
    </g>
   </g>
   <g>
    <g>
     <path id="_1_0_1" class="fil0 str0" d="M2655 6609c472,-51 353,517 181,578 -163,59 -265,-31 -289,-180 -34,-198 12,-297 108,-398l0 0 0 0zm-527 546c-156,-146 -121,-296 -54,-483 180,-70 322,-44 336,186 15,241 -57,321 -282,297zm344 -552c-61,-45 -90,-97 -169,-120 -633,-186 -532,1284 169,718 5,4 11,10 14,13l36 42c8,8 34,38 35,40 104,99 276,82 368,32 246,-138 263,-761 -40,-874 -273,-101 -379,116 -413,149l0 0 0 0z"/>
    </g>
    <g>
     <path id="_1_2" class="fil0 str0" d="M2655 6609c472,-51 353,517 181,578 -163,59 -265,-31 -289,-180 -34,-198 12,-297 108,-398l0 0 0 0zm-527 546c-156,-146 -121,-296 -54,-483 180,-70 322,-44 336,186 15,241 -57,321 -282,297zm344 -552c-61,-45 -90,-97 -169,-120 -633,-186 -532,1284 169,718 5,4 11,10 14,13l36 42c8,8 34,38 35,40 104,99 276,82 368,32 246,-138 263,-761 -40,-874 -273,-101 -379,116 -413,149l0 0 0 0z"/>
     <path id="1" class="fil1" d="M2655 6609c472,-51 353,517 181,578 -163,59 -265,-31 -289,-180 -34,-198 12,-297 108,-398l0 0 0 0zm-527 546c-156,-146 -121,-296 -54,-483 180,-70 322,-44 336,186 15,241 -57,321 -282,297zm344 -552c-61,-45 -90,-97 -169,-120 -633,-186 -532,1284 169,718 5,4 11,10 14,13l36 42c8,8 34,38 35,40 104,99 276,82 368,32 246,-138 263,-761 -40,-874 -273,-101 -379,116 -413,149l0 0 0 0z"/>
    </g>
   </g>
  </g>
  <g>
   <g>
    <g>
     <path class="fil0 str0" d="M709 5773c-168,-415 271,-592 384,-320 70,167 30,512 -258,449 -128,-29 -125,-126 -126,-129l0 0 0 0zm-537 -66c-93,-395 304,-437 366,-207 101,367 -291,529 -366,207zm441 200c107,96 177,234 425,135 287,-114 285,-736 -2,-850 -249,-99 -316,44 -423,140 -261,-242 -582,-166 -582,285 0,439 327,540 582,290l0 0 0 0z"/>
    </g>
   </g>
   <g>
    <g>
     <path id="_1_1" class="fil0 str0" d="M709 5773c-168,-415 271,-592 384,-320 70,167 30,512 -258,449 -128,-29 -125,-126 -126,-129l0 0 0 0zm-537 -66c-93,-395 304,-437 366,-207 101,367 -291,529 -366,207zm441 200c107,96 177,234 425,135 287,-114 285,-736 -2,-850 -249,-99 -316,44 -423,140 -261,-242 -582,-166 -582,285 0,439 327,540 582,290l0 0 0 0z"/>
    </g>
    <g>
     <path id="_1_3" class="fil0 str0" d="M709 5773c-168,-415 271,-592 384,-320 70,167 30,512 -258,449 -128,-29 -125,-126 -126,-129l0 0 0 0zm-537 -66c-93,-395 304,-437 366,-207 101,367 -291,529 -366,207zm441 200c107,96 177,234 425,135 287,-114 285,-736 -2,-850 -249,-99 -316,44 -423,140 -261,-242 -582,-166 -582,285 0,439 327,540 582,290l0 0 0 0z"/>
     <path id="1" class="fil2" d="M709 5773c-168,-415 271,-592 384,-320 70,167 30,512 -258,449 -128,-29 -125,-126 -126,-129l0 0 0 0zm-537 -66c-93,-395 304,-437 366,-207 101,367 -291,529 -366,207zm441 200c107,96 177,234 425,135 287,-114 285,-736 -2,-850 -249,-99 -316,44 -423,140 -261,-242 -582,-166 -582,285 0,439 327,540 582,290l0 0 0 0z"/>
    </g>
   </g>
  </g>
  <g>
   <g>
    <g>
     <path class="fil0 str0" d="M799 13924c202,-23 286,9 315,192 26,164 -10,314 -137,362 -306,116 -411,-336 -178,-554l0 0 0 0zm-631 358c-69,-410 320,-415 372,-191 99,421 -322,488 -372,191zm445 210c4,5 4,12 12,15 11,2 21,23 26,28l119 97c501,215 644,-698 271,-852 -277,-112 -387,98 -428,138 -197,-217 -584,-215 -582,292 3,428 288,524 582,282l0 0 0 0z"/>
    </g>
   </g>
   <g>
    <g>
     <path id="_1_2_4" class="fil0 str0" d="M799 13924c202,-23 286,9 315,192 26,164 -10,314 -137,362 -306,116 -411,-336 -178,-554l0 0 0 0zm-631 358c-69,-410 320,-415 372,-191 99,421 -322,488 -372,191zm445 210c4,5 4,12 12,15 11,2 21,23 26,28l119 97c501,215 644,-698 271,-852 -277,-112 -387,98 -428,138 -197,-217 -584,-215 -582,292 3,428 288,524 582,282l0 0 0 0z"/>
    </g>
    <g>
     <path id="_1_5" class="fil0 str0" d="M799 13924c202,-23 286,9 315,192 26,164 -10,314 -137,362 -306,116 -411,-336 -178,-554l0 0 0 0zm-631 358c-69,-410 320,-415 372,-191 99,421 -322,488 -372,191zm445 210c4,5 4,12 12,15 11,2 21,23 26,28l119 97c501,215 644,-698 271,-852 -277,-112 -387,98 -428,138 -197,-217 -584,-215 -582,292 3,428 288,524 582,282l0 0 0 0z"/>
     <path id="1" class="fil1" d="M799 13924c202,-23 286,9 315,192 26,164 -10,314 -137,362 -306,116 -411,-336 -178,-554l0 0 0 0zm-631 358c-69,-410 320,-415 372,-191 99,421 -322,488 -372,191zm445 210c4,5 4,12 12,15 11,2 21,23 26,28l119 97c501,215 644,-698 271,-852 -277,-112 -387,98 -428,138 -197,-217 -584,-215 -582,292 3,428 288,524 582,282l0 0 0 0z"/>
    </g>
   </g>
  </g>
  <g>
   <g>
    <g>
     <path class="fil0 str0" d="M698 627c-138,-431 297,-571 399,-298 159,419 -297,617 -399,298zm-427 -387c176,-21 260,11 278,186 44,418 -358,393 -384,119 -17,-163 15,-221 106,-305l0 0zm342 534c33,33 132,239 413,140 311,-111 286,-730 24,-849 -238,-108 -324,24 -437,136 -101,-80 -192,-183 -389,-113 -305,111 -282,946 220,798 96,-27 97,-60 169,-112l0 0 0 0z"/>
    </g>
   </g>
   <g>
    <g>
     <path id="_1_3_6" class="fil0 str0" d="M698 627c-138,-431 297,-571 399,-298 159,419 -297,617 -399,298zm-427 -387c176,-21 260,11 278,186 44,418 -358,393 -384,119 -17,-163 15,-221 106,-305l0 0zm342 534c33,33 132,239 413,140 311,-111 286,-730 24,-849 -238,-108 -324,24 -437,136 -101,-80 -192,-183 -389,-113 -305,111 -282,946 220,798 96,-27 97,-60 169,-112l0 0 0 0z"/>
    </g>
    <g>
     <path id="_1_7" class="fil0 str0" d="M698 627c-138,-431 297,-571 399,-298 159,419 -297,617 -399,298zm-427 -387c176,-21 260,11 278,186 44,418 -358,393 -384,119 -17,-163 15,-221 106,-305l0 0zm342 534c33,33 132,239 413,140 311,-111 286,-730 24,-849 -238,-108 -324,24 -437,136 -101,-80 -192,-183 -389,-113 -305,111 -282,946 220,798 96,-27 97,-60 169,-112l0 0 0 0z"/>
     <path id="1" class="fil1" d="M698 627c-138,-431 297,-571 399,-298 159,419 -297,617 -399,298zm-427 -387c176,-21 260,11 278,186 44,418 -358,393 -384,119 -17,-163 15,-221 106,-305l0 0zm342 534c33,33 132,239 413,140 311,-111 286,-730 24,-849 -238,-108 -324,24 -437,136 -101,-80 -192,-183 -389,-113 -305,111 -282,946 220,798 96,-27 97,-60 169,-112l0 0 0 0z"/>
    </g>
   </g>
  </g>
  <g>
   <g>
    <g>
     <path class="fil0 str0" d="M2033 12157c-129,-594 838,-582 933,-201 73,288 -108,454 -354,483 -276,34 -521,-22 -579,-282l0 0 0 0zm657 -622c-780,-163 -910,519 -728,839 67,119 175,195 333,228 974,205 1061,-928 395,-1067z"/>
    </g>
   </g>
   <g>
    <g>
     <path id="_1_4" class="fil0 str0" d="M2033 12157c-129,-594 838,-582 933,-201 73,288 -108,454 -354,483 -276,34 -521,-22 -579,-282l0 0 0 0zm657 -622c-780,-163 -910,519 -728,839 67,119 175,195 333,228 974,205 1061,-928 395,-1067z"/>
    </g>
    <g>
     <path id="_1_8" class="fil0 str0" d="M2033 12157c-129,-594 838,-582 933,-201 73,288 -108,454 -354,483 -276,34 -521,-22 -579,-282l0 0 0 0zm657 -622c-780,-163 -910,519 -728,839 67,119 175,195 333,228 974,205 1061,-928 395,-1067z"/>
     <path id="1" class="fil1" d="M2033 12157c-129,-594 838,-582 933,-201 73,288 -108,454 -354,483 -276,34 -521,-22 -579,-282l0 0 0 0zm657 -622c-780,-163 -910,519 -728,839 67,119 175,195 333,228 974,205 1061,-928 395,-1067z"/>
    </g>
   </g>
  </g>
  <g>
   <g>
    <g>
     <path class="fil0 str0" d="M782 9498c530,76 479,838 -309,701 -456,-80 -485,-816 309,-701zm-733 487c70,331 366,441 756,384 666,-96 640,-1188 -320,-1040 -334,51 -520,272 -436,656l0 0z"/>
    </g>
   </g>
   <g>
    <g>
     <path id="_1_5_9" class="fil0 str0" d="M782 9498c530,76 479,838 -309,701 -456,-80 -485,-816 309,-701zm-733 487c70,331 366,441 756,384 666,-96 640,-1188 -320,-1040 -334,51 -520,272 -436,656l0 0z"/>
    </g>
    <g>
     <path id="_1_10" class="fil0 str0" d="M782 9498c530,76 479,838 -309,701 -456,-80 -485,-816 309,-701zm-733 487c70,331 366,441 756,384 666,-96 640,-1188 -320,-1040 -334,51 -520,272 -436,656l0 0z"/>
     <path id="1" class="fil1" d="M782 9498c530,76 479,838 -309,701 -456,-80 -485,-816 309,-701zm-733 487c70,331 366,441 756,384 666,-96 640,-1188 -320,-1040 -334,51 -520,272 -436,656l0 0z"/>
    </g>
   </g>
  </g>
  <g>
   <g>
    <g>
     <path class="fil0 str0" d="M175 12194c-62,-267 96,-412 346,-441 770,-90 770,653 231,712 -275,31 -519,-23 -577,-271l0 0 0 0zm-124 56c131,601 1363,558 1181,-303 -122,-566 -1363,-534 -1181,303z"/>
    </g>
   </g>
   <g>
    <g>
     <path id="_1_6" class="fil0 str0" d="M175 12194c-62,-267 96,-412 346,-441 770,-90 770,653 231,712 -275,31 -519,-23 -577,-271l0 0 0 0zm-124 56c131,601 1363,558 1181,-303 -122,-566 -1363,-534 -1181,303z"/>
    </g>
    <g>
     <path id="_1_11" class="fil0 str0" d="M175 12194c-62,-267 96,-412 346,-441 770,-90 770,653 231,712 -275,31 -519,-23 -577,-271l0 0 0 0zm-124 56c131,601 1363,558 1181,-303 -122,-566 -1363,-534 -1181,303z"/>
     <path id="1" class="fil1" d="M175 12194c-62,-267 96,-412 346,-441 770,-90 770,653 231,712 -275,31 -519,-23 -577,-271l0 0 0 0zm-124 56c131,601 1363,558 1181,-303 -122,-566 -1363,-534 -1181,303z"/>
    </g>
   </g>
  </g>
  <g>
   <g>
    <g>
     <path class="fil0 str0" d="M733 3656c-260,23 -516,-29 -562,-273 -53,-282 116,-419 370,-442 761,-73 744,668 192,715l0 0zm-687 -230c111,599 1343,591 1189,-268 -104,-583 -1346,-569 -1189,268z"/>
    </g>
   </g>
   <g>
    <g>
     <path id="_1_7_12" class="fil0 str0" d="M733 3656c-260,23 -516,-29 -562,-273 -53,-282 116,-419 370,-442 761,-73 744,668 192,715l0 0zm-687 -230c111,599 1343,591 1189,-268 -104,-583 -1346,-569 -1189,268z"/>
    </g>
    <g>
     <path id="_1_13" class="fil0 str0" d="M733 3656c-260,23 -516,-29 -562,-273 -53,-282 116,-419 370,-442 761,-73 744,668 192,715l0 0zm-687 -230c111,599 1343,591 1189,-268 -104,-583 -1346,-569 -1189,268z"/>
     <path id="1" class="fil1" d="M733 3656c-260,23 -516,-29 -562,-273 -53,-282 116,-419 370,-442 761,-73 744,668 192,715l0 0zm-687 -230c111,599 1343,591 1189,-268 -104,-583 -1346,-569 -1189,268z"/>
    </g>
   </g>
  </g>
  <g>
   <g>
    <g>
     <path class="fil0 str0" d="M642 6393c180,395 -73,771 -375,561 -114,-80 -274,-649 375,-561zm148 55c150,74 309,242 373,430l113 -72c-35,-107 -163,-271 -218,-331 -284,-312 -933,-390 -1011,95 -56,353 101,628 465,582 366,-47 323,-393 278,-704l0 0z"/>
    </g>
   </g>
   <g>
    <g>
     <path id="_1_8_14" class="fil0 str0" d="M642 6393c180,395 -73,771 -375,561 -114,-80 -274,-649 375,-561zm148 55c150,74 309,242 373,430l113 -72c-35,-107 -163,-271 -218,-331 -284,-312 -933,-390 -1011,95 -56,353 101,628 465,582 366,-47 323,-393 278,-704l0 0z"/>
    </g>
    <g>
     <path id="_1_15" class="fil0 str0" d="M642 6393c180,395 -73,771 -375,561 -114,-80 -274,-649 375,-561zm148 55c150,74 309,242 373,430l113 -72c-35,-107 -163,-271 -218,-331 -284,-312 -933,-390 -1011,95 -56,353 101,628 465,582 366,-47 323,-393 278,-704l0 0z"/>
     <path id="1" class="fil2" d="M642 6393c180,395 -73,771 -375,561 -114,-80 -274,-649 375,-561zm148 55c150,74 309,242 373,430l113 -72c-35,-107 -163,-271 -218,-331 -284,-312 -933,-390 -1011,95 -56,353 101,628 465,582 366,-47 323,-393 278,-704l0 0z"/>
    </g>
   </g>
  </g>
  <g>
   <g>
    <g>
     <path class="fil0 str0" d="M2503 11160c-202,-468 143,-775 379,-568 161,140 186,696 -379,568zm-154 -85l29 52 -48 -38c-193,-90 -301,-346 -367,-419l-93 64c64,221 320,478 529,560 587,231 865,-333 635,-760 -58,-104 -195,-168 -365,-157 -352,21 -349,373 -320,698l0 0 0 0z"/>
    </g>
   </g>
   <g>
    <g>
     <path id="_1_9" class="fil0 str0" d="M2503 11160c-202,-468 143,-775 379,-568 161,140 186,696 -379,568zm-154 -85l29 52 -48 -38c-193,-90 -301,-346 -367,-419l-93 64c64,221 320,478 529,560 587,231 865,-333 635,-760 -58,-104 -195,-168 -365,-157 -352,21 -349,373 -320,698l0 0 0 0z"/>
    </g>
    <g>
     <path id="_1_16" class="fil0 str0" d="M2503 11160c-202,-468 143,-775 379,-568 161,140 186,696 -379,568zm-154 -85l29 52 -48 -38c-193,-90 -301,-346 -367,-419l-93 64c64,221 320,478 529,560 587,231 865,-333 635,-760 -58,-104 -195,-168 -365,-157 -352,21 -349,373 -320,698l0 0 0 0z"/>
     <path id="1" class="fil2" d="M2503 11160c-202,-468 143,-775 379,-568 161,140 186,696 -379,568zm-154 -85l29 52 -48 -38c-193,-90 -301,-346 -367,-419l-93 64c64,221 320,478 529,560 587,231 865,-333 635,-760 -58,-104 -195,-168 -365,-157 -352,21 -349,373 -320,698l0 0 0 0z"/>
    </g>
   </g>
  </g>
  <g>
   <g>
    <g>
     <path class="fil0 str0" d="M2513 3537c-14,-17 -17,-9 -32,-47l-24 -191c-3,-88 -3,-184 30,-257 63,-133 264,-178 396,-70 214,175 100,708 -370,565l0 0 0 0zm-154 -58c-109,-50 -160,-106 -237,-190 -61,-67 -90,-168 -157,-240 -69,34 -39,5 -90,75 48,148 236,375 353,454 73,49 95,67 174,95 876,301 931,-960 265,-919 -353,21 -363,393 -308,725l0 0 0 0z"/>
    </g>
   </g>
   <g>
    <g>
     <path id="_1_10_17" class="fil0 str0" d="M2513 3537c-14,-17 -17,-9 -32,-47l-24 -191c-3,-88 -3,-184 30,-257 63,-133 264,-178 396,-70 214,175 100,708 -370,565l0 0 0 0zm-154 -58c-109,-50 -160,-106 -237,-190 -61,-67 -90,-168 -157,-240 -69,34 -39,5 -90,75 48,148 236,375 353,454 73,49 95,67 174,95 876,301 931,-960 265,-919 -353,21 -363,393 -308,725l0 0 0 0z"/>
    </g>
    <g>
     <path id="_1_18" class="fil0 str0" d="M2513 3537c-14,-17 -17,-9 -32,-47l-24 -191c-3,-88 -3,-184 30,-257 63,-133 264,-178 396,-70 214,175 100,708 -370,565l0 0 0 0zm-154 -58c-109,-50 -160,-106 -237,-190 -61,-67 -90,-168 -157,-240 -69,34 -39,5 -90,75 48,148 236,375 353,454 73,49 95,67 174,95 876,301 931,-960 265,-919 -353,21 -363,393 -308,725l0 0 0 0z"/>
     <path id="1" class="fil2" d="M2513 3537c-14,-17 -17,-9 -32,-47l-24 -191c-3,-88 -3,-184 30,-257 63,-133 264,-178 396,-70 214,175 100,708 -370,565l0 0 0 0zm-154 -58c-109,-50 -160,-106 -237,-190 -61,-67 -90,-168 -157,-240 -69,34 -39,5 -90,75 48,148 236,375 353,454 73,49 95,67 174,95 876,301 931,-960 265,-919 -353,21 -363,393 -308,725l0 0 0 0z"/>
    </g>
   </g>
  </g>
  <g>
   <g>
    <g>
     <path class="fil0 str0" d="M282 11357l366 23 9 -61c5,-253 -87,-674 276,-592 273,63 181,415 135,656l128 0c261,-843 -408,-972 -592,-707 -107,152 -66,279 -93,471l32 97c-95,5 -134,5 -208,-26l-166 3 0 -603 -128 -8 2 741 239 6 0 0 0 0z"/>
    </g>
   </g>
   <g>
    <g>
     <path id="_1_11_19" class="fil0 str0" d="M282 11357l366 23 9 -61c5,-253 -87,-674 276,-592 273,63 181,415 135,656l128 0c261,-843 -408,-972 -592,-707 -107,152 -66,279 -93,471l32 97c-95,5 -134,5 -208,-26l-166 3 0 -603 -128 -8 2 741 239 6 0 0 0 0z"/>
    </g>
    <g>
     <path id="_1_20" class="fil0 str0" d="M282 11357l366 23 9 -61c5,-253 -87,-674 276,-592 273,63 181,415 135,656l128 0c261,-843 -408,-972 -592,-707 -107,152 -66,279 -93,471l32 97c-95,5 -134,5 -208,-26l-166 3 0 -603 -128 -8 2 741 239 6 0 0 0 0z"/>
     <path id="1" class="fil3" d="M282 11357l366 23 9 -61c5,-253 -87,-674 276,-592 273,63 181,415 135,656l128 0c261,-843 -408,-972 -592,-707 -107,152 -66,279 -93,471l32 97c-95,5 -134,5 -208,-26l-166 3 0 -603 -128 -8 2 741 239 6 0 0 0 0z"/>
    </g>
   </g>
  </g>
  <g>
   <g>
    <g>
     <path class="fil0 str0" d="M78 15637c72,1 90,19 120,-23 -21,-291 -155,-646 282,-584 128,168 89,244 89,483l128 -3c0,-235 -35,-587 280,-483 242,79 107,425 99,622 168,0 149,-49 166,-232 22,-236 -7,-547 -314,-562 -178,-9 -236,53 -294,145 -70,-69 -96,-133 -238,-145 -134,-11 -230,46 -281,113 -128,164 -77,470 -37,669l0 0 0 0z"/>
    </g>
   </g>
   <g>
    <g>
     <path id="_1_12" class="fil0 str0" d="M78 15637c72,1 90,19 120,-23 -21,-291 -155,-646 282,-584 128,168 89,244 89,483l128 -3c0,-235 -35,-587 280,-483 242,79 107,425 99,622 168,0 149,-49 166,-232 22,-236 -7,-547 -314,-562 -178,-9 -236,53 -294,145 -70,-69 -96,-133 -238,-145 -134,-11 -230,46 -281,113 -128,164 -77,470 -37,669l0 0 0 0z"/>
    </g>
    <g>
     <path id="_1_21" class="fil0 str0" d="M78 15637c72,1 90,19 120,-23 -21,-291 -155,-646 282,-584 128,168 89,244 89,483l128 -3c0,-235 -35,-587 280,-483 242,79 107,425 99,622 168,0 149,-49 166,-232 22,-236 -7,-547 -314,-562 -178,-9 -236,53 -294,145 -70,-69 -96,-133 -238,-145 -134,-11 -230,46 -281,113 -128,164 -77,470 -37,669l0 0 0 0z"/>
     <path id="1" class="fil2" d="M78 15637c72,1 90,19 120,-23 -21,-291 -155,-646 282,-584 128,168 89,244 89,483l128 -3c0,-235 -35,-587 280,-483 242,79 107,425 99,622 168,0 149,-49 166,-232 22,-236 -7,-547 -314,-562 -178,-9 -236,53 -294,145 -70,-69 -96,-133 -238,-145 -134,-11 -230,46 -281,113 -128,164 -77,470 -37,669l0 0 0 0z"/>
    </g>
   </g>
  </g>
  <g>
   <g>
    <g>
     <path class="fil0 str0" d="M1939 15637c70,1 87,19 119,-23 -20,-294 -153,-645 280,-584 129,166 90,244 90,483l128 6c0,-228 -41,-614 295,-486 214,82 93,418 84,616 93,0 112,21 139,-64 14,-40 26,-147 29,-192 47,-619 -439,-654 -610,-392 -76,-73 -103,-142 -262,-146 -423,-11 -346,521 -292,782l0 0z"/>
    </g>
   </g>
   <g>
    <g>
     <path id="_1_13_22" class="fil0 str0" d="M1939 15637c70,1 87,19 119,-23 -20,-294 -153,-645 280,-584 129,166 90,244 90,483l128 6c0,-228 -41,-614 295,-486 214,82 93,418 84,616 93,0 112,21 139,-64 14,-40 26,-147 29,-192 47,-619 -439,-654 -610,-392 -76,-73 -103,-142 -262,-146 -423,-11 -346,521 -292,782l0 0z"/>
    </g>
    <g>
     <path id="_1_23" class="fil0 str0" d="M1939 15637c70,1 87,19 119,-23 -20,-294 -153,-645 280,-584 129,166 90,244 90,483l128 6c0,-228 -41,-614 295,-486 214,82 93,418 84,616 93,0 112,21 139,-64 14,-40 26,-147 29,-192 47,-619 -439,-654 -610,-392 -76,-73 -103,-142 -262,-146 -423,-11 -346,521 -292,782l0 0z"/>
     <path id="1" class="fil2" d="M1939 15637c70,1 87,19 119,-23 -20,-294 -153,-645 280,-584 129,166 90,244 90,483l128 6c0,-228 -41,-614 295,-486 214,82 93,418 84,616 93,0 112,21 139,-64 14,-40 26,-147 29,-192 47,-619 -439,-654 -610,-392 -76,-73 -103,-142 -262,-146 -423,-11 -346,521 -292,782l0 0z"/>
    </g>
   </g>
  </g>
  <g>
   <g>
    <g>
     <path class="fil0 str0" d="M1939 8387c91,3 88,23 123,-31 -29,-199 -113,-554 108,-608 302,-73 258,282 258,515l128 -15c0,-102 -12,-317 21,-404 35,-90 168,-132 279,-84 212,95 75,427 82,639 89,0 109,15 134,-64 46,-136 51,-450 -24,-596 -49,-96 -129,-166 -286,-166 -154,1 -199,67 -272,152 -276,-323 -727,-183 -551,662l0 0 0 0z"/>
    </g>
   </g>
   <g>
    <g>
     <path id="_1_14" class="fil0 str0" d="M1939 8387c91,3 88,23 123,-31 -29,-199 -113,-554 108,-608 302,-73 258,282 258,515l128 -15c0,-102 -12,-317 21,-404 35,-90 168,-132 279,-84 212,95 75,427 82,639 89,0 109,15 134,-64 46,-136 51,-450 -24,-596 -49,-96 -129,-166 -286,-166 -154,1 -199,67 -272,152 -276,-323 -727,-183 -551,662l0 0 0 0z"/>
    </g>
    <g>
     <path id="_1_24" class="fil0 str0" d="M1939 8387c91,3 88,23 123,-31 -29,-199 -113,-554 108,-608 302,-73 258,282 258,515l128 -15c0,-102 -12,-317 21,-404 35,-90 168,-132 279,-84 212,95 75,427 82,639 89,0 109,15 134,-64 46,-136 51,-450 -24,-596 -49,-96 -129,-166 -286,-166 -154,1 -199,67 -272,152 -276,-323 -727,-183 -551,662l0 0 0 0z"/>
     <path id="1" class="fil2" d="M1939 8387c91,3 88,23 123,-31 -29,-199 -113,-554 108,-608 302,-73 258,282 258,515l128 -15c0,-102 -12,-317 21,-404 35,-90 168,-132 279,-84 212,95 75,427 82,639 89,0 109,15 134,-64 46,-136 51,-450 -24,-596 -49,-96 -129,-166 -286,-166 -154,1 -199,67 -272,152 -276,-323 -727,-183 -551,662l0 0 0 0z"/>
    </g>
   </g>
  </g>
  <g>
   <g>
    <g>
     <path class="fil0 str0" d="M2425 6100l117 17c0,-114 -20,-280 28,-363 33,-178 556,-400 356,506l125 -9c81,-177 75,-554 -24,-696 -87,-124 -334,-212 -531,23 -80,-67 -96,-139 -266,-144 -418,-7 -351,529 -290,828l134 -14c-52,-172 -112,-550 52,-625 323,-147 313,247 299,477l0 0 0 0z"/>
    </g>
   </g>
   <g>
    <g>
     <path id="_1_15_25" class="fil0 str0" d="M2425 6100l117 17c0,-114 -20,-280 28,-363 33,-178 556,-400 356,506l125 -9c81,-177 75,-554 -24,-696 -87,-124 -334,-212 -531,23 -80,-67 -96,-139 -266,-144 -418,-7 -351,529 -290,828l134 -14c-52,-172 -112,-550 52,-625 323,-147 313,247 299,477l0 0 0 0z"/>
    </g>
    <g>
     <path id="_1_26" class="fil0 str0" d="M2425 6100l117 17c0,-114 -20,-280 28,-363 33,-178 556,-400 356,506l125 -9c81,-177 75,-554 -24,-696 -87,-124 -334,-212 -531,23 -80,-67 -96,-139 -266,-144 -418,-7 -351,529 -290,828l134 -14c-52,-172 -112,-550 52,-625 323,-147 313,247 299,477l0 0 0 0z"/>
     <path id="1" class="fil2" d="M2425 6100l117 17c0,-114 -20,-280 28,-363 33,-178 556,-400 356,506l125 -9c81,-177 75,-554 -24,-696 -87,-124 -334,-212 -531,23 -80,-67 -96,-139 -266,-144 -418,-7 -351,529 -290,828l134 -14c-52,-172 -112,-550 52,-625 323,-147 313,247 299,477l0 0 0 0z"/>
    </g>
   </g>
  </g>
  <g>
   <g>
    <g>
     <path class="fil0 str0" d="M1971 1932c42,12 15,15 65,12 60,-3 22,15 50,-27 -47,-151 -100,-343 -38,-509 64,-176 261,-144 404,-41 99,68 220,207 291,300 221,286 165,330 357,330l0 -883 -127 0 -4 624c-137,-190 -406,-574 -666,-617 -235,-39 -343,84 -390,271 -41,167 -25,406 58,540l0 0 0 0z"/>
    </g>
   </g>
   <g>
    <g>
     <path id="_1_16_27" class="fil0 str0" d="M1971 1932c42,12 15,15 65,12 60,-3 22,15 50,-27 -47,-151 -100,-343 -38,-509 64,-176 261,-144 404,-41 99,68 220,207 291,300 221,286 165,330 357,330l0 -883 -127 0 -4 624c-137,-190 -406,-574 -666,-617 -235,-39 -343,84 -390,271 -41,167 -25,406 58,540l0 0 0 0z"/>
    </g>
    <g>
     <path id="_1_28" class="fil0 str0" d="M1971 1932c42,12 15,15 65,12 60,-3 22,15 50,-27 -47,-151 -100,-343 -38,-509 64,-176 261,-144 404,-41 99,68 220,207 291,300 221,286 165,330 357,330l0 -883 -127 0 -4 624c-137,-190 -406,-574 -666,-617 -235,-39 -343,84 -390,271 -41,167 -25,406 58,540l0 0 0 0z"/>
     <path id="1" class="fil1" d="M1971 1932c42,12 15,15 65,12 60,-3 22,15 50,-27 -47,-151 -100,-343 -38,-509 64,-176 261,-144 404,-41 99,68 220,207 291,300 221,286 165,330 357,330l0 -883 -127 0 -4 624c-137,-190 -406,-574 -666,-617 -235,-39 -343,84 -390,271 -41,167 -25,406 58,540l0 0 0 0z"/>
    </g>
   </g>
  </g>
  <g>
   <g>
    <g>
     <path class="fil0 str0" d="M951 8243l6 -646 279 -7 3 -160 -282 -6 0 -122c-102,20 -85,29 -120,128l-430 1 0 153 424 7 0 476c-133,-60 -278,-171 -396,-244 -139,-84 -250,-159 -388,-238l-6 153c186,128 704,504 910,505l0 0 0 0z"/>
    </g>
   </g>
   <g>
    <g>
     <path id="_1_17" class="fil0 str0" d="M951 8243l6 -646 279 -7 3 -160 -282 -6 0 -122c-102,20 -85,29 -120,128l-430 1 0 153 424 7 0 476c-133,-60 -278,-171 -396,-244 -139,-84 -250,-159 -388,-238l-6 153c186,128 704,504 910,505l0 0 0 0z"/>
    </g>
    <g>
     <path id="_1_29" class="fil0 str0" d="M951 8243l6 -646 279 -7 3 -160 -282 -6 0 -122c-102,20 -85,29 -120,128l-430 1 0 153 424 7 0 476c-133,-60 -278,-171 -396,-244 -139,-84 -250,-159 -388,-238l-6 153c186,128 704,504 910,505l0 0 0 0z"/>
     <path id="1" class="fil2" d="M951 8243l6 -646 279 -7 3 -160 -282 -6 0 -122c-102,20 -85,29 -120,128l-430 1 0 153 424 7 0 476c-133,-60 -278,-171 -396,-244 -139,-84 -250,-159 -388,-238l-6 153c186,128 704,504 910,505l0 0 0 0z"/>
    </g>
   </g>
  </g>
  <g>
   <g>
    <g>
     <path class="fil0 str0" d="M837 1200c-23,14 -14,16 -55,23 -9,2 -46,3 -47,3l-317 -1 0 148 410 0 3 477c-185,-95 -683,-450 -790,-477l3 152c199,130 695,498 913,500l0 -648 284 -6 -6 -160 -278 -8c-1,-103 0,-82 -30,-118 -69,33 -54,48 -90,115l0 0 0 0z"/>
    </g>
   </g>
   <g>
    <g>
     <path id="_1_18_30" class="fil0 str0" d="M837 1200c-23,14 -14,16 -55,23 -9,2 -46,3 -47,3l-317 -1 0 148 410 0 3 477c-185,-95 -683,-450 -790,-477l3 152c199,130 695,498 913,500l0 -648 284 -6 -6 -160 -278 -8c-1,-103 0,-82 -30,-118 -69,33 -54,48 -90,115l0 0 0 0z"/>
    </g>
    <g>
     <path id="_1_31" class="fil0 str0" d="M837 1200c-23,14 -14,16 -55,23 -9,2 -46,3 -47,3l-317 -1 0 148 410 0 3 477c-185,-95 -683,-450 -790,-477l3 152c199,130 695,498 913,500l0 -648 284 -6 -6 -160 -278 -8c-1,-103 0,-82 -30,-118 -69,33 -54,48 -90,115l0 0 0 0z"/>
     <path id="1" class="fil1" d="M837 1200c-23,14 -14,16 -55,23 -9,2 -46,3 -47,3l-317 -1 0 148 410 0 3 477c-185,-95 -683,-450 -790,-477l3 152c199,130 695,498 913,500l0 -648 284 -6 -6 -160 -278 -8c-1,-103 0,-82 -30,-118 -69,33 -54,48 -90,115l0 0 0 0z"/>
    </g>
   </g>
  </g>
  <g>
   <g>
    <g>
     <path class="fil0 str0" d="M2029 966l1 -678 1067 550 1 -191c-196,-85 -385,-187 -574,-283 -160,-79 -441,-278 -622,-241l0 837 127 6 0 0 0 0z"/>
    </g>
   </g>
   <g>
    <g>
     <path id="_1_19" class="fil0 str0" d="M2029 966l1 -678 1067 550 1 -191c-196,-85 -385,-187 -574,-283 -160,-79 -441,-278 -622,-241l0 837 127 6 0 0 0 0z"/>
    </g>
    <g>
     <path id="_1_32" class="fil0 str0" d="M2029 966l1 -678 1067 550 1 -191c-196,-85 -385,-187 -574,-283 -160,-79 -441,-278 -622,-241l0 837 127 6 0 0 0 0z"/>
     <path id="1" class="fil3" d="M2029 966l1 -678 1067 550 1 -191c-196,-85 -385,-187 -574,-283 -160,-79 -441,-278 -622,-241l0 837 127 6 0 0 0 0z"/>
    </g>
   </g>
  </g>
  <g>
   <g>
    <g>
     <path class="fil0 str0" d="M2521 4025c-151,-75 -442,-267 -619,-239l0 844 127 -6 7 -680 1059 552c8,-249 -3,-186 -574,-471l0 0z"/>
    </g>
   </g>
   <g>
    <g>
     <path id="_1_20_33" class="fil0 str0" d="M2521 4025c-151,-75 -442,-267 -619,-239l0 844 127 -6 7 -680 1059 552c8,-249 -3,-186 -574,-471l0 0z"/>
    </g>
    <g>
     <path id="_1_34" class="fil0 str0" d="M2521 4025c-151,-75 -442,-267 -619,-239l0 844 127 -6 7 -680 1059 552c8,-249 -3,-186 -574,-471l0 0z"/>
     <path id="1" class="fil3" d="M2521 4025c-151,-75 -442,-267 -619,-239l0 844 127 -6 7 -680 1059 552c8,-249 -3,-186 -574,-471l0 0z"/>
    </g>
   </g>
  </g>
  <g>
   <g>
    <g>
     <path class="fil0 str0" d="M2047 9691l1051 547 2 -183c-188,-76 -401,-195 -584,-286 -143,-72 -416,-248 -577,-248 -54,150 -23,641 -23,833l100 0 2 -612c15,-69 -5,-11 29,-51l0 0 0 0z"/>
    </g>
   </g>
   <g>
    <g>
     <path id="_1_21_35" class="fil0 str0" d="M2047 9691l1051 547 2 -183c-188,-76 -401,-195 -584,-286 -143,-72 -416,-248 -577,-248 -54,150 -23,641 -23,833l100 0 2 -612c15,-69 -5,-11 29,-51l0 0 0 0z"/>
    </g>
    <g>
     <path id="_1_36" class="fil0 str0" d="M2047 9691l1051 547 2 -183c-188,-76 -401,-195 -584,-286 -143,-72 -416,-248 -577,-248 -54,150 -23,641 -23,833l100 0 2 -612c15,-69 -5,-11 29,-51l0 0 0 0z"/>
     <path id="1" class="fil1" d="M2047 9691l1051 547 2 -183c-188,-76 -401,-195 -584,-286 -143,-72 -416,-248 -577,-248 -54,150 -23,641 -23,833l100 0 2 -612c15,-69 -5,-11 29,-51l0 0 0 0z"/>
    </g>
   </g>
  </g>
  <g>
   <g>
    <g>
     <path class="fil0 str0" d="M1955 9329c642,-90 468,-296 1460,33l-6 -149c-280,-232 -1190,-252 -1469,-19l-24 119c26,31 -38,57 39,16l0 0 0 0z"/>
    </g>
   </g>
   <g>
    <g>
     <path id="_1_22" class="fil0 str0" d="M1955 9329c642,-90 468,-296 1460,33l-6 -149c-280,-232 -1190,-252 -1469,-19l-24 119c26,31 -38,57 39,16l0 0 0 0z"/>
    </g>
    <g>
     <path id="_1_37" class="fil0 str0" d="M1955 9329c642,-90 468,-296 1460,33l-6 -149c-280,-232 -1190,-252 -1469,-19l-24 119c26,31 -38,57 39,16l0 0 0 0z"/>
     <path id="1" class="fil2" d="M1955 9329c642,-90 468,-296 1460,33l-6 -149c-280,-232 -1190,-252 -1469,-19l-24 119c26,31 -38,57 39,16l0 0 0 0z"/>
    </g>
   </g>
  </g>
  <g>
   <g>
    <g>
     <path class="fil0 str0" d="M1556 9138c5,-165 37,-172 -311,-267 -394,-106 -852,-74 -1198,115l-6 147c166,-22 310,-156 741,-161 354,-5 497,90 774,166l0 0 0 0z"/>
    </g>
   </g>
   <g>
    <g>
     <path id="_1_23_38" class="fil0 str0" d="M1556 9138c5,-165 37,-172 -311,-267 -394,-106 -852,-74 -1198,115l-6 147c166,-22 310,-156 741,-161 354,-5 497,90 774,166l0 0 0 0z"/>
    </g>
    <g>
     <path id="_1_39" class="fil0 str0" d="M1556 9138c5,-165 37,-172 -311,-267 -394,-106 -852,-74 -1198,115l-6 147c166,-22 310,-156 741,-161 354,-5 497,90 774,166l0 0 0 0z"/>
     <path id="1" class="fil2" d="M1556 9138c5,-165 37,-172 -311,-267 -394,-106 -852,-74 -1198,115l-6 147c166,-22 310,-156 741,-161 354,-5 497,90 774,166l0 0 0 0z"/>
    </g>
   </g>
  </g>
  <g>
   <g>
    <g>
     <path class="fil0 str0" d="M3418 12983l0 -169c-399,115 -632,261 -1175,118 -109,-29 -249,-98 -341,-109l0 144c186,109 479,184 739,187 343,5 508,-87 777,-171l0 0z"/>
    </g>
   </g>
   <g>
    <g>
     <path id="_1_24_40" class="fil0 str0" d="M3418 12983l0 -169c-399,115 -632,261 -1175,118 -109,-29 -249,-98 -341,-109l0 144c186,109 479,184 739,187 343,5 508,-87 777,-171l0 0z"/>
    </g>
    <g>
     <path id="_1_41" class="fil0 str0" d="M3418 12983l0 -169c-399,115 -632,261 -1175,118 -109,-29 -249,-98 -341,-109l0 144c186,109 479,184 739,187 343,5 508,-87 777,-171l0 0z"/>
     <path id="1" class="fil2" d="M3418 12983l0 -169c-399,115 -632,261 -1175,118 -109,-29 -249,-98 -341,-109l0 144c186,109 479,184 739,187 343,5 508,-87 777,-171l0 0z"/>
    </g>
   </g>
  </g>
  <g>
   <g>
    <g>
     <path class="fil0 str0" d="M1559 12988l0 -163c-373,102 -644,254 -1173,116 -116,-31 -244,-95 -345,-107l0 140c183,102 486,177 741,180 347,5 503,-87 777,-166l0 0z"/>
    </g>
   </g>
   <g>
    <g>
     <path id="_1_25" class="fil0 str0" d="M1559 12988l0 -163c-373,102 -644,254 -1173,116 -116,-31 -244,-95 -345,-107l0 140c183,102 486,177 741,180 347,5 503,-87 777,-166l0 0z"/>
    </g>
    <g>
     <path id="_1_42" class="fil0 str0" d="M1559 12988l0 -163c-373,102 -644,254 -1173,116 -116,-31 -244,-95 -345,-107l0 140c183,102 486,177 741,180 347,5 503,-87 777,-166l0 0z"/>
     <path id="1" class="fil2" d="M1559 12988l0 -163c-373,102 -644,254 -1173,116 -116,-31 -244,-95 -345,-107l0 140c183,102 486,177 741,180 347,5 503,-87 777,-166l0 0z"/>
    </g>
   </g>
  </g>
  <g>
   <g>
    <g>
     <path class="fil0 str0" d="M154 4395c64,-47 40,-17 40,-131l1047 0 -3 -162 -1195 2 53 219c43,103 -10,26 58,72z"/>
    </g>
   </g>
   <g>
    <g>
     <path id="_1_26_43" class="fil0 str0" d="M154 4395c64,-47 40,-17 40,-131l1047 0 -3 -162 -1195 2 53 219c43,103 -10,26 58,72z"/>
    </g>
    <g>
     <path id="_1_44" class="fil0 str0" d="M154 4395c64,-47 40,-17 40,-131l1047 0 -3 -162 -1195 2 53 219c43,103 -10,26 58,72z"/>
     <path id="1" class="fil4" d="M154 4395c64,-47 40,-17 40,-131l1047 0 -3 -162 -1195 2 53 219c43,103 -10,26 58,72z"/>
    </g>
   </g>
  </g>
  <g>
   <g>
    <g>
     <polygon class="fil0 str0" points="2597,16208 2597,16450 2723,16455 2723,16220 2969,16203 2975,16069 2727,16059 2723,15815 2597,15821 2594,16063 2346,16063 2350,16208 "/>
    </g>
   </g>
   <g>
    <g>
     <polygon id="_1_27" class="fil0 str0" points="2597,16208 2597,16450 2723,16455 2723,16220 2969,16203 2975,16069 2727,16059 2723,15815 2597,15821 2594,16063 2346,16063 2350,16208 "/>
    </g>
    <g>
     <polygon id="_1_45" class="fil0 str0" points="2597,16208 2597,16450 2723,16455 2723,16220 2969,16203 2975,16069 2727,16059 2723,15815 2597,15821 2594,16063 2346,16063 2350,16208 "/>
     <polygon id="1" class="fil2" points="2597,16208 2597,16450 2723,16455 2723,16220 2969,16203 2975,16069 2727,16059 2723,15815 2597,15821 2594,16063 2346,16063 2350,16208 "/>
    </g>
   </g>
  </g>
  <g>
   <g>
    <g>
     <path class="fil0 str0" d="M738 16208l0 242 126 5 0 -235 246 -17 6 -134 -249 -10c-1,-80 13,-171 -18,-244l-102 1 -14 247 -247 0 5 145 247 0 0 0z"/>
    </g>
   </g>
   <g>
    <g>
     <path id="_1_28_46" class="fil0 str0" d="M738 16208l0 242 126 5 0 -235 246 -17 6 -134 -249 -10c-1,-80 13,-171 -18,-244l-102 1 -14 247 -247 0 5 145 247 0 0 0z"/>
    </g>
    <g>
     <path id="_1_47" class="fil0 str0" d="M738 16208l0 242 126 5 0 -235 246 -17 6 -134 -249 -10c-1,-80 13,-171 -18,-244l-102 1 -14 247 -247 0 5 145 247 0 0 0z"/>
     <path id="1" class="fil2" d="M738 16208l0 242 126 5 0 -235 246 -17 6 -134 -249 -10c-1,-80 13,-171 -18,-244l-102 1 -14 247 -247 0 5 145 247 0 0 0z"/>
    </g>
   </g>
  </g>
  <g>
   <g>
    <g>
     <polygon class="fil0 str0" points="2722,5229 2723,4778 2597,4781 2597,5224 "/>
    </g>
   </g>
   <g>
    <g>
     <polygon id="_1_29_48" class="fil0 str0" points="2722,5229 2723,4778 2597,4781 2597,5224 "/>
    </g>
    <g>
     <polygon id="_1_49" class="fil0 str0" points="2722,5229 2723,4778 2597,4781 2597,5224 "/>
     <polygon id="1" class="fil2" points="2722,5229 2723,4778 2597,4781 2597,5224 "/>
    </g>
   </g>
  </g>
  <g>
   <g>
    <g>
     <polygon class="fil0 str0" points="855,2595 866,2159 782,2159 738,2162 739,2592 "/>
    </g>
   </g>
   <g>
    <g>
     <polygon id="_1_30" class="fil0 str0" points="855,2595 866,2159 782,2159 738,2162 739,2592 "/>
    </g>
    <g>
     <polygon id="_1_50" class="fil0 str0" points="855,2595 866,2159 782,2159 738,2162 739,2592 "/>
     <polygon id="1" class="fil2" points="855,2595 866,2159 782,2159 738,2162 739,2592 "/>
    </g>
   </g>
  </g>
  <g>
   <g>
    <g>
     <polygon class="fil0 str0" points="854,4999 854,4572 733,4581 738,4996 "/>
    </g>
   </g>
   <g>
    <g>
     <polygon id="_1_31_51" class="fil0 str0" points="854,4999 854,4572 733,4581 738,4996 "/>
    </g>
    <g>
     <polygon id="_1_52" class="fil0 str0" points="854,4999 854,4572 733,4581 738,4996 "/>
     <polygon id="1" class="fil2" points="854,4999 854,4572 733,4581 738,4996 "/>
    </g>
   </g>
  </g>
  <g>
   <g>
    <g>
     <polygon class="fil0 str0" points="2713,2138 2597,2141 2594,2570 2713,2584 "/>
    </g>
   </g>
   <g>
    <g>
     <polygon id="_1_32_53" class="fil0 str0" points="2713,2138 2597,2141 2594,2570 2713,2584 "/>
    </g>
    <g>
     <polygon id="_1_54" class="fil0 str0" points="2713,2138 2597,2141 2594,2570 2713,2584 "/>
     <polygon id="1" class="fil2" points="2713,2138 2597,2141 2594,2570 2713,2584 "/>
    </g>
   </g>
  </g>
  <g>
   <g>
    <g>
     <path class="fil0 str0" d="M2047 9691c-34,40 -14,-18 -29,51l-2 612 -100 0c0,-192 -31,-683 23,-833 -46,16 -51,-57 -46,193 1,184 -20,535 14,663l117 3 23 -689 0 0 0 0z"/>
    </g>
   </g>
   <g>
    <g>
     <path id="_1_33" class="fil0 str0" d="M2047 9691c-34,40 -14,-18 -29,51l-2 612 -100 0c0,-192 -31,-683 23,-833 -46,16 -51,-57 -46,193 1,184 -20,535 14,663l117 3 23 -689 0 0 0 0z"/>
    </g>
    <g>
     <path id="_1_55" class="fil0 str0" d="M2047 9691c-34,40 -14,-18 -29,51l-2 612 -100 0c0,-192 -31,-683 23,-833 -46,16 -51,-57 -46,193 1,184 -20,535 14,663l117 3 23 -689 0 0 0 0z"/>
     <path id="1" class="fil5" d="M2047 9691c-34,40 -14,-18 -29,51l-2 612 -100 0c0,-192 -31,-683 23,-833 -46,16 -51,-57 -46,193 1,184 -20,535 14,663l117 3 23 -689 0 0 0 0z"/>
    </g>
   </g>
  </g>
  <g>
   <g>
    <g>
     <path class="fil0 str0" d="M2713 2138l0 446 -119 -14c30,29 -14,25 49,32 68,11 32,3 84,-15 18,-110 28,-359 -14,-449l0 0 0 0z"/>
    </g>
   </g>
   <g>
    <g>
     <path id="_1_34_56" class="fil0 str0" d="M2713 2138l0 446 -119 -14c30,29 -14,25 49,32 68,11 32,3 84,-15 18,-110 28,-359 -14,-449l0 0 0 0z"/>
    </g>
    <g>
     <path id="_1_57" class="fil0 str0" d="M2713 2138l0 446 -119 -14c30,29 -14,25 49,32 68,11 32,3 84,-15 18,-110 28,-359 -14,-449l0 0 0 0z"/>
     <path id="1" class="fil6" d="M2713 2138l0 446 -119 -14c30,29 -14,25 49,32 68,11 32,3 84,-15 18,-110 28,-359 -14,-449l0 0 0 0z"/>
    </g>
   </g>
  </g>
  <g>
   <g>
    <g>
     <path class="fil0 str0" d="M837 1200l-431 3c-7,43 -16,52 -13,95 8,114 8,46 25,75l0 -148 317 1c1,0 38,-1 47,-3 41,-7 32,-9 55,-23l0 0 0 0z"/>
    </g>
   </g>
   <g>
    <g>
     <path id="_1_35" class="fil0 str0" d="M837 1200l-431 3c-7,43 -16,52 -13,95 8,114 8,46 25,75l0 -148 317 1c1,0 38,-1 47,-3 41,-7 32,-9 55,-23l0 0 0 0z"/>
    </g>
    <g>
     <path id="_1_58" class="fil0 str0" d="M837 1200l-431 3c-7,43 -16,52 -13,95 8,114 8,46 25,75l0 -148 317 1c1,0 38,-1 47,-3 41,-7 32,-9 55,-23l0 0 0 0z"/>
     <path id="1" class="fil7" d="M837 1200l-431 3c-7,43 -16,52 -13,95 8,114 8,46 25,75l0 -148 317 1c1,0 38,-1 47,-3 41,-7 32,-9 55,-23l0 0 0 0z"/>
    </g>
   </g>
  </g>
  <g>
   <g>
    <g>
     <path class="fil0 str0" d="M854 4999l24 -104c5,-99 20,-326 -47,-349 -133,3 -72,12 -98,35l121 -9 0 427 0 0 0 0z"/>
    </g>
   </g>
   <g>
    <g>
     <path id="_1_36_59" class="fil0 str0" d="M854 4999l24 -104c5,-99 20,-326 -47,-349 -133,3 -72,12 -98,35l121 -9 0 427 0 0 0 0z"/>
    </g>
    <g>
     <path id="_1_60" class="fil0 str0" d="M854 4999l24 -104c5,-99 20,-326 -47,-349 -133,3 -72,12 -98,35l121 -9 0 427 0 0 0 0z"/>
     <path id="1" class="fil8" d="M854 4999l24 -104c5,-99 20,-326 -47,-349 -133,3 -72,12 -98,35l121 -9 0 427 0 0 0 0z"/>
    </g>
   </g>
  </g>
  <g>
   <g>
    <g>
     <path class="fil0 str0" d="M2570 5754c-48,83 -28,249 -28,363l-117 -17c29,31 -51,35 96,40 82,-67 44,-273 49,-386l0 0z"/>
    </g>
   </g>
   <g>
    <g>
     <path id="_1_37_61" class="fil0 str0" d="M2570 5754c-48,83 -28,249 -28,363l-117 -17c29,31 -51,35 96,40 82,-67 44,-273 49,-386l0 0z"/>
    </g>
    <g>
     <path id="_1_62" class="fil0 str0" d="M2570 5754c-48,83 -28,249 -28,363l-117 -17c29,31 -51,35 96,40 82,-67 44,-273 49,-386l0 0z"/>
     <path id="1" class="fil9" d="M2570 5754c-48,83 -28,249 -28,363l-117 -17c29,31 -51,35 96,40 82,-67 44,-273 49,-386l0 0z"/>
    </g>
   </g>
  </g>
  <g>
   <g>
    <g>
     <path class="fil0 str0" d="M657 11319l-9 61 -366 -23c85,46 293,49 404,29l-29 -67 0 0z"/>
    </g>
   </g>
   <g>
    <g>
     <path id="_1_38" class="fil0 str0" d="M657 11319l-9 61 -366 -23c85,46 293,49 404,29l-29 -67 0 0z"/>
    </g>
    <g>
     <path id="_1_63" class="fil0 str0" d="M657 11319l-9 61 -366 -23c85,46 293,49 404,29l-29 -67 0 0z"/>
     <path id="1" class="fil10" d="M657 11319l-9 61 -366 -23c85,46 293,49 404,29l-29 -67 0 0z"/>
    </g>
   </g>
  </g>
  <g>
   <g>
    <g>
     <path class="fil0 str0" d="M1955 9329c-77,41 -13,15 -39,-16l24 -119c-75,31 -47,75 -47,173 108,-17 35,-6 62,-38l0 0 0 0z"/>
    </g>
   </g>
   <g>
    <g>
     <path id="_1_39_64" class="fil0 str0" d="M1955 9329c-77,41 -13,15 -39,-16l24 -119c-75,31 -47,75 -47,173 108,-17 35,-6 62,-38l0 0 0 0z"/>
    </g>
    <g>
     <path id="_1_65" class="fil0 str0" d="M1955 9329c-77,41 -13,15 -39,-16l24 -119c-75,31 -47,75 -47,173 108,-17 35,-6 62,-38l0 0 0 0z"/>
     <path id="1" class="fil5" d="M1955 9329c-77,41 -13,15 -39,-16l24 -119c-75,31 -47,75 -47,173 108,-17 35,-6 62,-38l0 0 0 0z"/>
    </g>
   </g>
  </g>
  <g>
   <g>
    <g>
     <path class="fil0 str0" d="M511 11147l-11 67c0,3 -6,12 -8,18l-157 -14c74,31 113,31 208,26l-32 -97 0 0 0 0z"/>
    </g>
   </g>
   <g>
    <g>
     <path id="_1_40" class="fil0 str0" d="M511 11147l-11 67c0,3 -6,12 -8,18l-157 -14c74,31 113,31 208,26l-32 -97 0 0 0 0z"/>
    </g>
    <g>
     <path id="_1_66" class="fil0 str0" d="M511 11147l-11 67c0,3 -6,12 -8,18l-157 -14c74,31 113,31 208,26l-32 -97 0 0 0 0z"/>
     <path id="1" class="fil11" d="M511 11147l-11 67c0,3 -6,12 -8,18l-157 -14c74,31 113,31 208,26l-32 -97 0 0 0 0z"/>
    </g>
   </g>
  </g>
  <g>
   <g>
    <g>
     <path class="fil0 str0" d="M2086 1917c-28,42 10,24 -50,27 -50,3 -23,0 -65,-12 42,46 -20,17 45,36 31,8 61,4 93,4l-23 -55 0 0 0 0z"/>
    </g>
   </g>
   <g>
    <g>
     <path id="_1_41_67" class="fil0 str0" d="M2086 1917c-28,42 10,24 -50,27 -50,3 -23,0 -65,-12 42,46 -20,17 45,36 31,8 61,4 93,4l-23 -55 0 0 0 0z"/>
    </g>
    <g>
     <path id="_1_68" class="fil0 str0" d="M2086 1917c-28,42 10,24 -50,27 -50,3 -23,0 -65,-12 42,46 -20,17 45,36 31,8 61,4 93,4l-23 -55 0 0 0 0z"/>
     <path id="1" class="fil7" d="M2086 1917c-28,42 10,24 -50,27 -50,3 -23,0 -65,-12 42,46 -20,17 45,36 31,8 61,4 93,4l-23 -55 0 0 0 0z"/>
    </g>
   </g>
  </g>
  <g>
   <g>
    <g>
     <path class="fil0 str0" d="M2062 8356c-35,54 -32,34 -123,31 26,17 4,18 51,24 48,6 48,-1 87,-7l-15 -48 0 0 0 0z"/>
    </g>
   </g>
   <g>
    <g>
     <path id="_1_42_69" class="fil0 str0" d="M2062 8356c-35,54 -32,34 -123,31 26,17 4,18 51,24 48,6 48,-1 87,-7l-15 -48 0 0 0 0z"/>
    </g>
    <g>
     <path id="_1_70" class="fil0 str0" d="M2062 8356c-35,54 -32,34 -123,31 26,17 4,18 51,24 48,6 48,-1 87,-7l-15 -48 0 0 0 0z"/>
     <path id="1" class="fil12" d="M2062 8356c-35,54 -32,34 -123,31 26,17 4,18 51,24 48,6 48,-1 87,-7l-15 -48 0 0 0 0z"/>
    </g>
   </g>
  </g>
  <g>
   <g>
    <g>
     <path class="fil0 str0" d="M2058 15614c-32,42 -49,24 -119,23 21,13 6,18 51,22 49,5 46,-1 89,-9l-21 -36 0 0 0 0z"/>
    </g>
   </g>
   <g>
    <g>
     <path id="_1_43" class="fil0 str0" d="M2058 15614c-32,42 -49,24 -119,23 21,13 6,18 51,22 49,5 46,-1 89,-9l-21 -36 0 0 0 0z"/>
    </g>
    <g>
     <path id="_1_71" class="fil0 str0" d="M2058 15614c-32,42 -49,24 -119,23 21,13 6,18 51,22 49,5 46,-1 89,-9l-21 -36 0 0 0 0z"/>
     <path id="1" class="fil13" d="M2058 15614c-32,42 -49,24 -119,23 21,13 6,18 51,22 49,5 46,-1 89,-9l-21 -36 0 0 0 0z"/>
    </g>
   </g>
  </g>
  <g>
   <g>
    <g>
     <path class="fil0 str0" d="M198 15614c-30,42 -48,24 -120,23 23,13 8,18 53,22 51,5 44,-1 89,-9l-22 -36 0 0 0 0z"/>
    </g>
   </g>
   <g>
    <g>
     <path id="_1_44_72" class="fil0 str0" d="M198 15614c-30,42 -48,24 -120,23 23,13 8,18 53,22 51,5 44,-1 89,-9l-22 -36 0 0 0 0z"/>
    </g>
    <g>
     <path id="_1_73" class="fil0 str0" d="M198 15614c-30,42 -48,24 -120,23 23,13 8,18 53,22 51,5 44,-1 89,-9l-22 -36 0 0 0 0z"/>
     <path id="1" class="fil14" d="M198 15614c-30,42 -48,24 -120,23 23,13 8,18 53,22 51,5 44,-1 89,-9l-22 -36 0 0 0 0z"/>
    </g>
   </g>
  </g>
  <g>
   <g>
    <g>
     <polygon class="fil0 str0" points="2349,11075 2330,11089 2378,11127 "/>
    </g>
   </g>
   <g>
    <g>
     <polygon id="_1_45_74" class="fil0 str0" points="2349,11075 2330,11089 2378,11127 "/>
    </g>
    <g>
     <polygon id="_1_75" class="fil0 str0" points="2349,11075 2330,11089 2378,11127 "/>
     <polygon id="1" class="fil15" points="2349,11075 2330,11089 2378,11127 "/>
    </g>
   </g>
  </g>
 </g>
</svg>
