<?xml version="1.0" encoding="UTF-8"?>
<!DOCTYPE svg PUBLIC "-//W3C//DTD SVG 1.1//EN" "http://www.w3.org/Graphics/SVG/1.1/DTD/svg11.dtd">
<!-- Creator: CorelDRAW X7 -->
<svg xmlns="http://www.w3.org/2000/svg" xml:space="preserve" width="84.8617mm" height="6.0621mm" version="1.1" style="shape-rendering:geometricPrecision; text-rendering:geometricPrecision; image-rendering:optimizeQuality; fill-rule:evenodd; clip-rule:evenodd"
viewBox="0 0 8458 604"
 xmlns:xlink="http://www.w3.org/1999/xlink">
 <defs>
  <style type="text/css">
   <![CDATA[
    .fil0 {fill:#284756;fill-rule:nonzero}
   ]]>
  </style>
 </defs>
 <g id="Слой_x0020_1">
  <metadata id="CorelCorpID_0Corel-Layer"/>
  <path class="fil0" d="M93 256l127 0 0 84 -127 0 0 173 160 0 0 84 -253 0 0 -590 253 0 0 84 -160 0 0 165zm476 -165l-108 0 0 360c0,29 -4,54 -11,73 -8,19 -17,34 -30,45 -12,11 -26,19 -42,23 -16,5 -33,7 -51,7 -8,0 -16,0 -22,0 -7,0 -14,0 -22,-2l0 -84c5,1 10,1 16,1 5,0 11,0 16,0 14,0 27,-4 37,-11 11,-7 16,-23 16,-46l0 -450 294 0 0 590 -93 0 0 -506zm253 165l127 0 0 84 -127 0 0 173 160 0 0 84 -253 0 0 -590 253 0 0 84 -160 0 0 165zm337 106l-29 54 0 181 -93 0 0 -590 93 0 0 257 123 -257 91 0 -129 263 129 327 -95 0 -90 -235zm202 -355l287 0 0 84 -97 0 0 506 -93 0 0 -506 -97 0 0 -84zm466 0c47,0 81,12 104,37 23,25 34,61 34,109l0 77c0,47 -11,84 -34,108 -23,25 -57,38 -104,38l-44 0 0 221 -93 0 0 -590 137 0zm-44 84l0 200 44 0c15,0 26,-4 34,-12 8,-8 12,-22 12,-44l0 -88c0,-22 -4,-36 -12,-44 -8,-8 -19,-12 -34,-12l-44 0zm309 371c0,21 4,36 13,45 9,8 20,13 35,13 15,0 26,-5 35,-13 9,-9 13,-24 13,-45l0 -319c0,-22 -4,-37 -13,-46 -9,-8 -20,-13 -35,-13 -15,0 -26,5 -35,13 -9,9 -13,24 -13,46l0 319zm-93 -313c0,-48 12,-85 36,-111 25,-25 59,-38 105,-38 46,0 80,13 105,38 24,26 36,63 36,111l0 307c0,48 -12,84 -36,110 -25,25 -59,38 -105,38 -46,0 -80,-13 -105,-38 -24,-26 -36,-62 -36,-110l0 -307zm539 277l63 -419 129 0 0 590 -88 0 0 -423 -64 423 -88 0 -69 -417 0 417 -81 0 0 -590 129 0 69 419zm344 36c0,21 4,36 13,45 9,8 20,13 35,13 15,0 26,-5 35,-13 9,-9 13,-24 13,-45l0 -319c0,-22 -4,-37 -13,-46 -9,-8 -20,-13 -35,-13 -15,0 -26,5 -35,13 -9,9 -13,24 -13,46l0 319zm-93 -313c0,-48 12,-85 36,-111 24,-25 59,-38 105,-38 45,0 80,13 105,38 24,26 36,63 36,111l0 307c0,48 -12,84 -36,110 -25,25 -60,38 -105,38 -46,0 -81,-13 -105,-38 -24,-26 -36,-62 -36,-110l0 -307zm434 448l-93 0 0 -590 93 0 0 253 105 0 0 -253 95 0 0 590 -95 0 0 -253 -105 0 0 253zm242 -590l287 0 0 84 -97 0 0 506 -93 0 0 -506 -97 0 0 -84zm629 590l-94 0 -16 -107 -114 0 -16 107 -85 0 94 -590 136 0 95 590zm-212 -187l89 0 -44 -299 -45 299zm324 187l-96 0 130 -327 -130 -263 92 0 122 255 0 -255 94 0 0 255 122 -255 91 0 -129 263 129 327 -95 0 -90 -235 -28 52 0 183 -94 0 0 -183 -28 -52 -90 235zm560 0l-93 0 0 -590 93 0 0 253 106 0 0 -253 94 0 0 590 -94 0 0 -253 -106 0 0 253zm363 0l-95 0 0 -590 82 0 0 353 96 -353 116 0 0 590 -83 0 0 -427 -116 427zm388 -235l-28 54 0 181 -93 0 0 -590 93 0 0 257 123 -257 91 0 -129 263 129 327 -95 0 -91 -235zm224 -102l169 0 0 84 -169 0 0 -84zm500 117l0 79c0,48 -11,84 -35,110 -23,25 -58,38 -103,38 -46,0 -80,-13 -104,-38 -23,-26 -35,-62 -35,-110l0 -307c0,-48 12,-85 35,-111 24,-25 58,-38 104,-38 45,0 80,13 103,38 24,26 35,63 35,111l0 57 -88 0 0 -63c0,-22 -4,-37 -13,-46 -8,-8 -20,-13 -35,-13 -14,0 -26,5 -35,13 -8,9 -13,24 -13,46l0 319c0,21 5,36 13,44 9,9 21,13 35,13 15,0 27,-4 35,-13 9,-8 13,-23 13,-44l0 -85 88 0zm369 -370l-97 287 104 303 -98 0 -76 -233 -77 233 -87 0 104 -303 -97 -287 96 0 70 217 72 -217 86 0zm146 249l127 0 0 84 -127 0 0 173 160 0 0 84 -253 0 0 -590 253 0 0 84 -160 0 0 165zm413 170l63 -419 129 0 0 590 -88 0 0 -423 -64 423 -88 0 -69 -417 0 417 -81 0 0 -590 129 0 69 419zm352 171l-92 0 0 -590 92 0 0 253 106 0 0 -253 94 0 0 590 -94 0 0 -253 -106 0 0 253zm363 0l-95 0 0 -590 83 0 0 353 95 -353 116 0 0 590 -83 0 0 -427 -116 427zm388 -235l-28 54 0 181 -93 0 0 -590 93 0 0 257 123 -257 91 0 -129 263 129 327 -95 0 -91 -235z"/>
 </g>
</svg>
