<?xml version="1.0" encoding="UTF-8"?>
<!DOCTYPE svg PUBLIC "-//W3C//DTD SVG 1.1//EN" "http://www.w3.org/Graphics/SVG/1.1/DTD/svg11.dtd">
<!-- Creator: CorelDRAW X7 -->
<svg xmlns="http://www.w3.org/2000/svg" xml:space="preserve" width="128.548mm" height="12.1929mm" version="1.1" style="shape-rendering:geometricPrecision; text-rendering:geometricPrecision; image-rendering:optimizeQuality; fill-rule:evenodd; clip-rule:evenodd"
viewBox="0 0 14378 1364"
 xmlns:xlink="http://www.w3.org/1999/xlink">
 <defs>
  <style type="text/css">
   <![CDATA[
    .fil0 {fill:#284756;fill-rule:nonzero}
    .fil1 {fill:#284756;fill-rule:nonzero}
   ]]>
  </style>
 </defs>
 <g id="Слой_x0020_1">
  <metadata id="CorelCorpID_0Corel-Layer"/>
  <path class="fil0" d="M4502 265l0 818 239 0 0 -818 306 0 0 -197 -853 0 0 197 308 0zm1173 605c-18,65 -85,92 -148,92 -144,0 -176,-123 -178,-194l566 0 -1 -41c-4,-89 -23,-408 -380,-408 -241,0 -414,139 -414,394 0,375 299,397 396,397 136,0 325,-32 383,-240l-224 0 0 0zm-326 -225c22,-181 153,-178 181,-178 54,0 153,20 156,178l-337 0zm1252 -645c-19,58 -61,32 -241,64 -193,34 -335,146 -335,515 0,273 84,531 416,531 233,0 387,-146 387,-395 0,-241 -150,-396 -358,-396 -176,0 -286,101 -321,223l-4 0c15,-229 122,-282 228,-309 191,-46 392,-7 408,-233l-180 0 0 0zm-2 729c0,168 -73,233 -170,233 -75,0 -171,-41 -171,-233 0,-211 97,-262 171,-262 73,0 170,51 170,262zm894 141c-19,65 -86,92 -149,92 -144,0 -176,-123 -177,-194l565 0 -1 -41c-3,-89 -22,-408 -380,-408 -241,0 -413,139 -413,394 0,375 298,397 396,397 136,0 324,-32 382,-240l-223 0 0 0zm-326 -225c22,-181 152,-178 181,-178 54,0 152,20 155,178l-336 0zm1268 290l0 -588 -221 0 0 736 637 0 0 191 187 0 12 -339 -120 0 0 -588 -220 0 0 588 -275 0 0 0zm718 -588l0 736 221 0 0 -736 -221 0zm0 -106l221 0 0 -173 -221 0 0 173zm624 530l265 0 0 312 220 0 0 -736 -220 0 0 276 -265 0 0 -276 -221 0 0 736 221 0 0 -312zm717 579c38,7 96,14 155,14 191,0 227,-144 260,-242l256 -775 -235 0 -132 479 -171 -479 -265 0 320 727 -10 36c-13,50 -33,103 -107,103 -26,0 -50,-1 -71,-10l0 147 0 0zm980 -727l0 -276 -221 0 0 736 221 0 0 -312 88 0c10,159 120,339 400,339 231,0 403,-125 403,-397 0,-274 -170,-394 -400,-394 -261,0 -383,154 -398,304l-93 0zm488 339c-155,0 -171,-155 -171,-249 0,-235 120,-246 171,-246 55,0 174,11 174,246 0,128 -32,249 -174,249zm721 -468l0 589 221 0 0 -589 243 0 0 -147 -707 0 0 147 243 0zm573 -147l0 736 409 0c141,0 269,-47 269,-227 0,-256 -248,-249 -318,-249l-140 0 0 -260 -220 0 0 0zm220 408l95 0c38,0 134,3 134,94 0,65 -52,86 -129,86l-100 0 0 -180zm653 -687l0 265 61 424 125 0 63 -424 0 -265 -249 0zm4 1015l240 0 0 -230 -240 0 0 230z"/>
  <path class="fil1" d="M0 137l0 1037 261 0 0 -452 144 0c129,0 160,66 172,185 12,126 22,193 60,267l273 0c-56,-96 -81,-169 -97,-332 -19,-183 -94,-217 -207,-236 72,-15 153,-43 176,-220 12,-87 28,-187 99,-249l-273 0c-43,46 -62,105 -81,224 -18,116 -29,158 -153,158l-113 0 0 -382 -261 0zm1798 654c0,-184 -98,-407 -419,-407 -287,0 -404,209 -404,402 0,303 211,411 411,411 257,0 412,-158 412,-406zm-229 7c0,115 -55,219 -180,219 -132,0 -187,-101 -187,-229 0,-160 90,-225 175,-225 123,0 192,72 192,235zm403 -389l0 371c0,101 -5,215 -106,215l-24 0 0 179 24 0c282,0 320,-129 320,-384l0 -208 214 0 0 592 226 0 0 -765 -654 0zm854 0l0 765 226 0 0 -138 270 -290 0 428 226 0 0 -765 -226 0 0 103 -270 290 0 -393 -226 0z"/>
 </g>
</svg>
