<?xml version="1.0" encoding="UTF-8"?>
<!DOCTYPE svg PUBLIC "-//W3C//DTD SVG 1.1//EN" "http://www.w3.org/Graphics/SVG/1.1/DTD/svg11.dtd">
<!-- Creator: CorelDRAW X7 -->
<svg xmlns="http://www.w3.org/2000/svg" xml:space="preserve" width="112.626mm" height="12.1929mm" version="1.1" style="shape-rendering:geometricPrecision; text-rendering:geometricPrecision; image-rendering:optimizeQuality; fill-rule:evenodd; clip-rule:evenodd"
viewBox="0 0 15914 1723"
 xmlns:xlink="http://www.w3.org/1999/xlink">
 <defs>
  <style type="text/css">
   <![CDATA[
    .fil0 {fill:#284756;fill-rule:nonzero}
   ]]>
  </style>
 </defs>
 <g id="Слой_x0020_1">
  <metadata id="CorelCorpID_0Corel-Layer"/>
  <path class="fil0" d="M1249 1119l0 -1033 -929 0 0 297c0,271 -45,516 -194,736l-126 0 15 538 267 0 0 -289 866 0 0 289 267 0 15 -538 -181 0zm-302 -784l0 784 -493 0c106,-163 145,-345 148,-632l2 -152 343 0zm1277 764c-23,82 -108,117 -188,117 -181,0 -222,-156 -223,-246l714 0 -2 -51c-4,-113 -28,-516 -480,-516 -304,0 -522,176 -522,498 0,474 377,501 500,501 172,0 410,-40 483,-303l-282 0zm-411 -284c27,-229 192,-225 228,-225 68,0 193,25 196,225l-424 0zm1623 -480l0 1033 303 0 0 -1033 386 0 0 -249 -1077 0 0 249 388 0zm1483 764c-23,82 -108,117 -188,117 -181,0 -222,-156 -224,-246l715 0 -2 -51c-4,-113 -28,-516 -480,-516 -304,0 -522,176 -522,498 0,474 377,501 500,501 172,0 410,-40 483,-303l-282 0zm-412 -284c28,-229 193,-225 229,-225 68,0 193,25 196,225l-425 0zm1582 -815c-25,73 -77,40 -305,81 -244,43 -423,184 -423,651 0,345 106,670 525,670 295,0 489,-184 489,-499 0,-304 -189,-500 -452,-500 -222,0 -361,128 -405,282l-5 0c18,-290 153,-357 287,-390 242,-59 496,-9 516,-295l-227 0zm-3 921c0,212 -92,295 -215,295 -95,0 -216,-52 -216,-295 0,-266 123,-331 216,-331 92,0 215,65 215,331zm1129 178c-24,82 -108,117 -188,117 -182,0 -222,-156 -224,-246l714 0 -1 -51c-4,-113 -28,-516 -480,-516 -304,0 -522,176 -522,498 0,474 377,501 500,501 172,0 410,-40 483,-303l-282 0zm-412 -284c28,-229 193,-225 229,-225 68,0 192,25 196,225l-425 0zm1602 366l0 -743 -278 0 0 930 804 0 0 241 236 0 16 -428 -152 0 0 -743 -278 0 0 743 -348 0zm908 -743l0 930 279 0 0 -930 -279 0zm0 -134l279 0 0 -218 -279 0 0 218zm788 670l335 0 0 394 278 0 0 -930 -278 0 0 349 -335 0 0 -349 -279 0 0 930 279 0 0 -394zm906 732c48,9 121,17 196,17 241,0 287,-181 328,-306l324 -979 -297 0 -167 606 -216 -606 -335 0 405 919 -13 45c-16,63 -42,130 -135,130 -33,0 -63,-1 -90,-12l0 186zm1238 -919l0 -349 -279 0 0 930 279 0 0 -394 111 0c13,201 152,428 506,428 292,0 509,-157 509,-501 0,-346 -215,-498 -506,-498 -329,0 -483,194 -503,384l-117 0zm617 429c-196,0 -216,-196 -216,-315 0,-297 151,-311 216,-311 69,0 219,14 219,311 0,161 -40,315 -219,315zm911 -592l0 744 279 0 0 -744 307 0 0 -186 -893 0 0 186 307 0zm723 -186l0 930 517 0c179,0 340,-59 340,-286 0,-324 -313,-315 -402,-315l-176 0 0 -329 -279 0zm279 516l119 0c49,0 170,4 170,119 0,82 -66,108 -163,108l-126 0 0 -227zm824 -868l0 335 78 535 158 0 79 -535 0 -335 -315 0zm5 1282l304 0 0 -290 -304 0 0 290z"/>
 </g>
</svg>
