<?xml version="1.0" encoding="UTF-8"?>
<!DOCTYPE svg PUBLIC "-//W3C//DTD SVG 1.1//EN" "http://www.w3.org/Graphics/SVG/1.1/DTD/svg11.dtd">
<!-- Creator: CorelDRAW X7 -->
<svg xmlns="http://www.w3.org/2000/svg" xml:space="preserve" width="119.752mm" height="12.0763mm" version="1.1" style="shape-rendering:geometricPrecision; text-rendering:geometricPrecision; image-rendering:optimizeQuality; fill-rule:evenodd; clip-rule:evenodd"
viewBox="0 0 17211 1736"
 xmlns:xlink="http://www.w3.org/1999/xlink">
 <defs>
  <style type="text/css">
   <![CDATA[
    .fil0 {fill:#284756;fill-rule:nonzero}
   ]]>
  </style>
 </defs>
 <g id="Слой_x0020_1">
  <metadata id="CorelCorpID_0Corel-Layer"/>
  <path class="fil0" d="M1270 1138l0 -1050 -944 0 0 301c0,276 -47,525 -197,749l-129 0 15 547 272 0 0 -294 881 0 0 294 272 0 14 -547 -184 0zm-307 -797l0 797 -501 0c108,-166 147,-350 151,-643l2 -154 348 0zm1300 776c-25,84 -110,120 -192,120 -184,0 -225,-159 -227,-250l726 0 -2 -52c-4,-116 -28,-525 -488,-525 -309,0 -531,178 -531,506 0,483 384,511 509,511 175,0 417,-41 491,-310l-286 0zm-419 -288c28,-233 195,-229 232,-229 69,0 196,26 200,229l-432 0zm1652 -488l0 1050 307 0 0 -1050 393 0 0 -253 -1095 0 0 253 395 0zm1123 719l0 -615 -284 0 0 946 302 0 386 -614 0 614 283 0 0 -946 -300 0 -387 615zm1283 15c11,262 212,352 476,352 282,0 475,-71 475,-298 0,-108 -46,-203 -201,-233l0 -6c121,-31 183,-95 183,-207 0,-257 -296,-273 -451,-273 -160,0 -456,30 -453,339l261 0c4,-136 121,-149 170,-149 91,0 182,26 182,115 0,73 -65,101 -143,101l-118 0 0 177 110 0c146,0 170,65 170,123 0,93 -105,121 -196,121 -160,0 -192,-97 -197,-162l-268 0zm1421 -324c0,-140 123,-151 173,-151 31,0 149,2 153,124 0,10 0,17 0,27 -6,93 -81,74 -289,106 -171,28 -352,80 -352,296 0,78 28,274 330,274 115,0 242,-36 316,-129l6 0 24 93 298 0 0 -17c-54,-13 -58,-76 -56,-178l6 -432c1,-110 -8,-354 -434,-354 -103,0 -432,11 -445,341l270 0zm327 249c0,190 -137,237 -206,237 -52,0 -146,-21 -146,-110 0,-106 107,-127 166,-136 110,-19 101,-13 186,-51l0 60zm514 -555l0 1291 283 0 0 -442c95,123 250,133 287,133 270,0 436,-207 436,-507 0,-313 -164,-510 -430,-510 -67,0 -198,13 -306,149l-5 0 2 -114 -267 0zm270 471c0,-264 136,-316 222,-316 84,0 220,52 220,316 0,164 -58,321 -220,321 -166,0 -222,-157 -222,-321zm1395 511c295,0 518,-162 518,-511 0,-344 -222,-506 -518,-506 -264,0 -517,134 -517,506 0,349 223,511 517,511zm0 -190c-201,0 -223,-200 -223,-321 0,-301 160,-316 223,-316 71,0 224,15 224,316 0,119 -19,321 -224,321zm1401 -1237c-26,74 -78,41 -311,82 -248,45 -430,188 -430,663 0,350 108,682 534,682 300,0 497,-189 497,-509 0,-309 -192,-508 -460,-508 -225,0 -367,130 -411,287l-6 0c19,-295 157,-364 292,-397 246,-60 505,-9 526,-300l-231 0zm-4 937c0,216 -93,300 -218,300 -97,0 -220,-53 -220,-300 0,-270 125,-337 220,-337 93,0 218,67 218,337zm391 458c37,7 73,11 110,11 225,0 372,-58 382,-559l3 -212 254 0 0 756 283 0 0 -946 -807 0 -9 404c-7,296 -50,354 -169,354 -15,0 -32,-2 -47,-4l0 196zm1745 -332l97 0 0 328 283 0 0 -946 -553 0c-58,0 -350,-2 -350,311 0,116 46,261 255,294l-240 341 320 0 188 -328zm97 -428l0 238 -155 0c-100,0 -171,-29 -171,-119 0,-108 112,-119 177,-119l149 0zm1143 183l-376 0c2,-84 43,-218 224,-218 98,0 195,41 210,137l263 0c-19,-139 -114,-327 -473,-327 -134,0 -518,15 -518,519 0,119 26,498 514,498 240,0 425,-81 482,-336l-270 0c-26,108 -108,146 -212,146 -175,0 -222,-135 -220,-229l376 0 0 -190zm790 383l0 -756 -283 0 0 946 1464 0 0 -946 -283 0 0 756 -308 0 0 -756 -283 0 0 756 -307 0zm1499 -1113l0 340 80 544 160 0 80 -544 0 -340 -320 0zm6 1303l309 0 0 -294 -309 0 0 294z"/>
 </g>
</svg>
