<?xml version="1.0" encoding="UTF-8"?>
<!DOCTYPE svg PUBLIC "-//W3C//DTD SVG 1.1//EN" "http://www.w3.org/Graphics/SVG/1.1/DTD/svg11.dtd">
<!-- Creator: CorelDRAW X7 -->
<svg xmlns="http://www.w3.org/2000/svg" xml:space="preserve" width="133.787mm" height="12.0762mm" version="1.1" style="shape-rendering:geometricPrecision; text-rendering:geometricPrecision; image-rendering:optimizeQuality; fill-rule:evenodd; clip-rule:evenodd"
viewBox="0 0 12106 1093"
 xmlns:xlink="http://www.w3.org/1999/xlink">
 <defs>
  <style type="text/css">
   <![CDATA[
    .fil0 {fill:#284756;fill-rule:nonzero}
    .fil1 {fill:#284756;fill-rule:nonzero}
   ]]>
  </style>
 </defs>
 <g id="Слой_x0020_1">
  <metadata id="CorelCorpID_0Corel-Layer"/>
  <path class="fil0" d="M3473 215l0 661 193 0 0 -661 248 0 0 -160 -690 0 0 160 249 0zm707 452l0 -387 -179 0 0 596 190 0 243 -387 0 387 178 0 0 -596 -188 0 -244 387 0 0zm808 10c6,165 133,221 299,221 178,0 299,-44 299,-187 0,-68 -29,-128 -126,-147l0 -4c76,-19 115,-60 115,-130 0,-162 -186,-172 -284,-172 -101,0 -287,19 -285,213l164 0c3,-85 76,-93 107,-93 57,0 115,16 115,72 0,46 -41,64 -90,64l-75 0 0 111 70 0c92,0 107,41 107,78 0,58 -66,76 -124,76 -100,0 -121,-61 -124,-102l-168 0 0 0zm894 -204c0,-88 77,-95 109,-95 19,0 94,1 96,78 0,6 0,10 0,17 -3,58 -51,46 -182,66 -107,18 -221,51 -221,187 0,49 17,172 208,172 72,0 152,-22 198,-81l4 0 15 59 188 0 0 -11c-34,-8 -37,-48 -35,-112l3 -272c1,-69 -5,-223 -273,-223 -65,0 -272,7 -280,215l170 0 0 0zm206 156c0,120 -86,150 -130,150 -32,0 -92,-14 -92,-70 0,-66 68,-80 105,-85 69,-12 63,-8 117,-32l0 37 0 0zm323 -349l0 813 179 0 0 -278c59,77 157,83 180,83 170,0 275,-130 275,-319 0,-197 -104,-321 -271,-321 -42,0 -125,8 -193,94l-3 0 2 -72 -169 0zm170 297c0,-167 86,-199 140,-199 53,0 139,32 139,199 0,103 -37,202 -139,202 -104,0 -140,-99 -140,-202zm879 321c185,0 326,-102 326,-321 0,-217 -140,-319 -326,-319 -167,0 -326,84 -326,319 0,219 140,321 326,321zm0 -119c-127,0 -141,-126 -141,-202 0,-190 101,-199 141,-199 44,0 141,9 141,199 0,75 -12,202 -141,202zm881 -779c-16,47 -49,26 -195,52 -156,28 -271,118 -271,417 0,220 68,429 336,429 189,0 313,-119 313,-320 0,-195 -121,-320 -290,-320 -141,0 -231,82 -258,181l-4 0c12,-186 99,-229 184,-250 155,-38 318,-6 331,-189l-146 0 0 0zm-2 590c0,136 -59,189 -137,189 -61,0 -139,-34 -139,-189 0,-170 79,-212 139,-212 58,0 137,42 137,212zm246 288c23,5 46,7 69,7 142,0 234,-36 241,-352l2 -133 160 0 0 476 178 0 0 -596 -508 0 -6 254c-4,187 -31,223 -106,223 -10,0 -20,-1 -30,-2l0 123 0 0zm1099 -209l61 0 0 207 178 0 0 -596 -348 0c-37,0 -221,-1 -221,196 0,73 29,164 161,185l-151 215 201 0 119 -207 0 0zm61 -269l0 150 -98 0c-63,0 -108,-19 -108,-75 0,-68 71,-75 112,-75l94 0 0 0zm719 115l-237 0c2,-53 27,-137 141,-137 62,0 123,25 133,86l165 0c-12,-88 -72,-206 -298,-206 -84,0 -326,10 -326,327 0,75 17,313 324,313 151,0 267,-51 303,-211l-170 0c-16,68 -68,92 -133,92 -110,0 -140,-85 -139,-144l237 0 0 -120 0 0zm497 241l0 -476 -178 0 0 596 922 0 0 -596 -178 0 0 476 -194 0 0 -476 -178 0 0 476 -194 0 0 0zm944 -701l0 214 50 343 101 0 50 -343 0 -214 -201 0zm4 821l194 0 0 -185 -194 0 0 185z"/>
  <path class="fil1" d="M0 74l0 839 211 0 0 -366 117 0c104,0 129,53 139,150 9,102 18,156 48,216l221 0c-45,-77 -65,-137 -78,-269 -15,-148 -76,-175 -167,-191 58,-12 123,-34 142,-178 10,-70 23,-151 80,-201l-221 0c-35,37 -50,85 -66,181 -14,94 -23,128 -123,128l-92 0 0 -309 -211 0zm1455 529c0,-149 -80,-329 -340,-329 -231,0 -326,168 -326,325 0,245 171,333 332,333 208,0 334,-128 334,-329zm-185 6c0,92 -45,177 -146,177 -107,0 -151,-82 -151,-186 0,-129 72,-181 141,-181 100,0 156,58 156,190zm325 -315l0 300c0,82 -3,174 -85,174l-19 0 0 145 19 0c228,0 259,-105 259,-311l0 -168 173 0 0 479 183 0 0 -619 -530 0zm691 0l0 619 183 0 0 -112 219 -234 0 346 183 0 0 -619 -183 0 0 83 -219 235 0 -318 -183 0z"/>
 </g>
</svg>
