<?xml version="1.0" encoding="UTF-8"?>
<!DOCTYPE svg PUBLIC "-//W3C//DTD SVG 1.1//EN" "http://www.w3.org/Graphics/SVG/1.1/DTD/svg11.dtd">
<!-- Creator: CorelDRAW X6 -->
<svg xmlns="http://www.w3.org/2000/svg" xml:space="preserve" width="58.0632mm" height="8.3227mm" version="1.1" style="shape-rendering:geometricPrecision; text-rendering:geometricPrecision; image-rendering:optimizeQuality; fill-rule:evenodd; clip-rule:evenodd"
viewBox="0 0 5806 832"
 xmlns:xlink="http://www.w3.org/1999/xlink">
 <defs>
  <style type="text/css">
   <![CDATA[
    .fil0 {fill:#284756;fill-rule:nonzero}
   ]]>
  </style>
 </defs>
 <g id="Слой_x0020_1">
  <metadata id="CorelCorpID_0Corel-Layer"/>
  <path class="fil0" d="M333 148l167 0 0 -148 -500 0 0 148 167 0 0 487 165 0 0 -487 0 0zm354 210c0,-59 18,-75 68,-75 48,0 73,9 73,75l-140 0zm281 80l0 -25c0,-181 -48,-231 -210,-231 -174,0 -213,60 -213,231 0,165 41,229 213,229 119,0 210,-12 210,-149l-140 0c0,46 -27,46 -69,46 -59,0 -71,-23 -71,-101l281 0zm194 -156l-5 0 0 -11c0,-107 34,-128 108,-128 116,0 176,-34 176,-135l-103 0c0,25 -20,34 -91,34 -155,0 -212,85 -212,272l0 82c0,183 37,247 215,247 173,0 213,-52 213,-229 0,-171 -52,-212 -192,-212 -55,0 -100,34 -110,80l0 0zm92 32c60,0 68,20 68,100 0,94 -4,117 -71,117 -68,0 -73,-21 -73,-117 0,-78 12,-100 76,-100l0 0zm418 44c0,-59 18,-75 68,-75 48,0 71,9 71,75l-139 0zm281 80l0 -25c0,-181 -48,-231 -212,-231 -174,0 -212,60 -212,231 0,165 41,229 212,229 121,0 212,-12 212,-149l-142 0c0,46 -25,46 -69,46 -59,0 -69,-23 -69,-101l281 0 0 0zm514 91l0 -338 -142 0 0 445 331 0 0 114 126 0 0 -221 -39 0 0 -338 -142 0 0 338 -133 0 0 0zm519 -338l-142 0 0 445 142 0 0 -445zm0 -190l-142 0 0 112 142 0 0 -112zm233 190l-142 0 0 445 142 0 0 -189 133 0 0 189 142 0 0 -445 -142 0 0 149 -133 0 0 -149zm471 0l-148 0 128 445 78 0c-4,52 -16,96 -75,96 -9,0 -16,-4 -25,-4l0 101c16,2 32,4 48,4 121,0 164,-48 187,-158l110 -484 -146 0 -69 361 -2 0 -87 -361 0 0zm494 162l0 -162 -142 0 0 445 142 0 0 -176 68 0c7,140 55,183 217,183 180,0 217,-46 217,-229 0,-187 -36,-231 -217,-231 -158,0 -208,39 -217,171l-68 0 0 0zm359 60c0,101 -11,117 -76,117 -62,0 -73,-16 -73,-117 0,-85 11,-119 73,-119 66,0 76,34 76,119zm553 -222l-370 0 0 107 114 0 0 338 142 0 0 -338 114 0 0 -107 0 0zm192 253l73 0c37,0 52,11 52,44 0,32 -14,46 -52,46l-73 0 0 -91zm0 -253l-142 0 0 445 249 0c108,0 157,-39 157,-148 0,-105 -52,-146 -157,-146l-107 0 0 -151zm507 306l-133 0 0 139 133 0 0 -139zm11 -496l-153 0 9 384 133 0 11 -384z"/>
 </g>
</svg>
