<?xml version="1.0" encoding="UTF-8"?>
<!DOCTYPE svg PUBLIC "-//W3C//DTD SVG 1.1//EN" "http://www.w3.org/Graphics/SVG/1.1/DTD/svg11.dtd">
<!-- Creator: CorelDRAW X7 -->
<svg xmlns="http://www.w3.org/2000/svg" xml:space="preserve" width="87.2162mm" height="11.1175mm" version="1.1" style="shape-rendering:geometricPrecision; text-rendering:geometricPrecision; image-rendering:optimizeQuality; fill-rule:evenodd; clip-rule:evenodd"
viewBox="0 0 10494 1338"
 xmlns:xlink="http://www.w3.org/1999/xlink">
 <defs>
  <style type="text/css">
   <![CDATA[
    .fil0 {fill:#284756;fill-rule:nonzero}
   ]]>
  </style>
 </defs>
 <g id="Слой_x0020_1">
  <metadata id="CorelCorpID_0Corel-Layer"/>
  <path class="fil0" d="M1063 879l0 -879 -790 0 0 253c0,230 -39,439 -165,626l-108 0 12 459 228 0 0 -247 738 0 0 247 227 0 13 -459 -155 0zm-257 -667l0 667 -419 0c90,-138 123,-293 126,-538l1 -129 292 0zm1088 650c-20,70 -92,100 -160,100 -155,0 -189,-133 -191,-209l608 0 -1 -44c-3,-96 -24,-439 -409,-439 -258,0 -444,149 -444,424 0,404 321,427 426,427 146,0 349,-34 411,-259l-240 0zm-351 -242c24,-194 164,-191 195,-191 58,0 164,22 167,191l-362 0zm1383 -408l0 879 257 0 0 -879 329 0 0 -212 -916 0 0 212 330 0zm940 602l0 -515 -237 0 0 792 253 0 323 -514 0 514 237 0 0 -792 -251 0 -325 515zm1135 -515l0 792 471 0c172,0 290,-40 290,-202 0,-125 -58,-180 -189,-208l0 -4c86,-14 161,-78 161,-186 0,-192 -187,-192 -260,-192l-473 0zm237 159l128 0c67,0 125,13 125,78 0,72 -91,74 -130,74l-123 0 0 -152zm0 300l145 0c113,0 136,40 136,93 0,35 -16,81 -133,81l-148 0 0 -174zm580 174l13 365 202 0 0 -206 607 0 0 206 202 0 13 -365 -131 0 0 -633 -678 0 0 147c0,210 -41,362 -123,486l-105 0zm669 -474l0 474 -318 0c44,-79 95,-204 95,-391l0 -83 223 0zm875 663c246,0 433,-136 433,-427 0,-289 -185,-424 -433,-424 -222,0 -434,112 -434,424 0,291 187,427 434,427zm0 -159c-169,0 -187,-167 -187,-268 0,-253 134,-265 187,-265 59,0 187,12 187,265 0,100 -16,268 -187,268zm1041 129l158 0 215 -545 4 0 -4 40 0 505 237 0 0 -792 -315 0 -215 557 -2 0 -215 -557 -315 0 0 792 237 0 0 -505 -5 -40 5 0 215 545zm1048 -536c0,-117 103,-126 145,-126 26,0 124,1 128,104 0,8 0,14 0,22 -5,78 -67,62 -242,89 -144,23 -295,67 -295,248 0,65 24,229 276,229 97,0 203,-30 265,-108l5 0 20 78 250 0 0 -14c-46,-11 -49,-64 -47,-149l5 -362c1,-92 -7,-296 -364,-296 -85,0 -361,9 -372,285l226 0zm274 209c0,159 -115,198 -173,198 -44,0 -122,-17 -122,-92 0,-89 89,-106 139,-114 92,-15 84,-11 156,-42l0 50zm501 -764l0 285 67 456 134 0 67 -456 0 -285 -268 0zm4 1091l259 0 0 -246 -259 0 0 246z"/>
 </g>
</svg>
