<?xml version="1.0" encoding="UTF-8"?>
<!DOCTYPE svg PUBLIC "-//W3C//DTD SVG 1.1//EN" "http://www.w3.org/Graphics/SVG/1.1/DTD/svg11.dtd">
<!-- Creator: CorelDRAW X7 -->
<svg xmlns="http://www.w3.org/2000/svg" xml:space="preserve" width="101.247mm" height="10.7769mm" version="1.1" style="shape-rendering:geometricPrecision; text-rendering:geometricPrecision; image-rendering:optimizeQuality; fill-rule:evenodd; clip-rule:evenodd"
viewBox="0 0 8891 946"
 xmlns:xlink="http://www.w3.org/1999/xlink">
 <defs>
  <style type="text/css">
   <![CDATA[
    .fil0 {fill:#284756;fill-rule:nonzero}
    .fil1 {fill:#284756;fill-rule:nonzero}
   ]]>
  </style>
 </defs>
 <g id="Слой_x0020_1">
  <metadata id="CorelCorpID_0Corel-Layer"/>
  <path class="fil0" d="M3369 155l0 641 187 0 0 -641 240 0 0 -155 -668 0 0 155 241 0zm686 439l0 -376 -173 0 0 578 184 0 236 -375 0 375 173 0 0 -578 -183 0 -237 376zm828 -376l0 578 344 0c125,0 211,-29 211,-147 0,-92 -42,-132 -138,-152l0 -3c63,-10 118,-57 118,-136 0,-140 -137,-140 -190,-140l-345 0 0 0zm173 116l93 0c49,0 91,10 91,57 0,53 -66,54 -94,54l-90 0 0 -111zm0 219l106 0c82,0 99,29 99,68 0,25 -12,59 -97,59l-108 0 0 -127 0 0zm423 127l9 266 148 0 0 -150 443 0 0 150 147 0 10 -266 -96 0 0 -462 -495 0 0 107c0,154 -30,265 -89,355l-77 0zm488 -346l0 346 -232 0c32,-58 69,-149 69,-285l0 -61 163 0zm639 484c179,0 315,-99 315,-312 0,-210 -135,-309 -315,-309 -162,0 -317,82 -317,309 0,213 136,312 317,312zm0 -116c-124,0 -137,-122 -137,-196 0,-184 98,-193 137,-193 43,0 136,9 136,193 0,73 -12,196 -136,196zm759 94l115 0 157 -398 3 0 -3 30 0 368 173 0 0 -578 -230 0 -157 407 -1 0 -157 -407 -230 0 0 578 173 0 0 -368 -3 -30 3 0 157 398zm765 -391c0,-85 75,-92 106,-92 19,0 90,1 93,76 0,6 0,10 0,16 -4,57 -49,45 -177,65 -105,17 -215,49 -215,181 0,47 18,167 202,167 70,0 148,-22 193,-79l4 0 14 57 183 0 0 -10c-34,-8 -36,-47 -35,-109l4 -264c1,-67 -5,-216 -266,-216 -62,0 -263,7 -271,208l165 0 0 0zm200 152c0,116 -84,145 -127,145 -32,0 -89,-12 -89,-67 0,-65 65,-78 102,-83 67,-11 61,-8 114,-31l0 36 0 0zm365 -557l0 208 49 333 98 0 49 -333 0 -208 -196 0zm3 796l189 0 0 -179 -189 0 0 179z"/>
  <path class="fil1" d="M0 5l0 814 205 0 0 -355 113 0c102,0 126,52 135,145 9,99 17,153 47,210l215 0c-44,-75 -64,-132 -76,-260 -15,-144 -74,-171 -163,-186 56,-11 120,-33 138,-173 10,-68 22,-146 78,-195l-215 0c-33,36 -48,82 -63,176 -14,91 -23,124 -120,124l-89 0 0 -300 -205 0zm1412 513c0,-144 -77,-319 -330,-319 -224,0 -317,164 -317,316 0,237 166,323 323,323 202,0 324,-125 324,-320zm-180 6c0,90 -44,172 -142,172 -103,0 -146,-80 -146,-180 0,-126 70,-176 137,-176 97,0 151,56 151,184zm316 -305l0 291c0,79 -4,169 -83,169l-19 0 0 140 19 0c221,0 251,-101 251,-301l0 -163 168 0 0 464 178 0 0 -600 -514 0zm671 0l0 600 177 0 0 -108 212 -228 0 336 178 0 0 -600 -178 0 0 80 -212 228 0 -308 -177 0z"/>
 </g>
</svg>
