<?xml version="1.0" encoding="UTF-8"?>
<!DOCTYPE svg PUBLIC "-//W3C//DTD SVG 1.1//EN" "http://www.w3.org/Graphics/SVG/1.1/DTD/svg11.dtd">
<!-- Creator: CorelDRAW X7 -->
<svg xmlns="http://www.w3.org/2000/svg" xml:space="preserve" width="79.6461mm" height="21.5449mm" version="1.1" style="shape-rendering:geometricPrecision; text-rendering:geometricPrecision; image-rendering:optimizeQuality; fill-rule:evenodd; clip-rule:evenodd"
viewBox="0 0 7453 2016"
 xmlns:xlink="http://www.w3.org/1999/xlink">
 <defs>
  <style type="text/css">
   <![CDATA[
    .fil0 {fill:#284756;fill-rule:nonzero}
   ]]>
  </style>
 </defs>
 <g id="Слой_x0020_1">
  <metadata id="CorelCorpID_0Corel-Layer"/>
  <path class="fil0" d="M173 1534c0,-24 -4,-41 -13,-50 -8,-9 -19,-13 -32,-13 -14,0 -25,4 -33,12 -9,8 -13,23 -13,43l0 59 -82 0 0 -54c0,-45 11,-79 33,-103 22,-24 54,-36 97,-36 43,0 75,12 97,36 22,24 33,58 33,103l0 14c0,60 -20,98 -61,115 22,9 38,24 47,44 9,19 14,44 14,72l0 44c0,45 -11,79 -33,103 -22,24 -54,36 -97,36 -43,0 -75,-12 -97,-36 -22,-24 -33,-58 -33,-103l0 -70 82 0 0 75c0,20 4,34 13,43 8,8 19,12 33,12 13,0 24,-4 32,-13 9,-8 13,-25 13,-50l0 -43c0,-26 -5,-44 -14,-55 -9,-11 -23,-16 -43,-16l-14 0 0 -79 18 0c17,0 30,-4 39,-13 9,-8 14,-24 14,-46l0 -31zm352 419l-87 0 0 -555 275 0 0 555 -89 0 0 -476 -99 0 0 476zm496 -476l-101 0 0 338c0,28 -4,51 -10,69 -7,18 -17,32 -28,42 -12,10 -25,18 -40,22 -15,4 -31,6 -47,6 -8,0 -15,0 -22,0 -6,0 -13,0 -20,-1l0 -79c4,0 9,0 15,0 5,0 10,0 15,0 14,0 25,-3 35,-10 10,-7 15,-21 15,-43l0 -423 275 0 0 555 -87 0 0 -476zm432 476l-88 0 -15 -101 -107 0 -15 101 -80 0 89 -555 127 0 89 555zm-199 -176l84 0 -42 -281 -42 281zm326 176l-87 0 0 -555 87 0 0 238 99 0 0 -238 89 0 0 555 -89 0 0 -238 -99 0 0 238zm275 -79c5,0 10,0 15,0 5,0 10,0 15,0 7,0 13,0 19,-2 6,-2 12,-5 16,-9 5,-4 8,-10 10,-18 3,-8 4,-18 4,-30l-127 -417 87 0 96 325 79 -325 88 0 -114 409c-11,38 -21,67 -31,88 -10,20 -21,34 -33,43 -11,9 -24,14 -37,15 -14,1 -29,1 -45,1 -8,0 -15,0 -22,0 -6,0 -13,0 -20,-1l0 -79zm473 -476c45,0 78,11 98,32 21,21 31,53 31,96l0 19c0,29 -5,53 -14,71 -9,18 -23,32 -42,41 23,9 40,24 50,44 10,21 15,45 15,75l0 45c0,43 -11,76 -34,98 -22,23 -55,34 -99,34l-137 0 0 -555 132 0zm-45 305l0 171 50 0c15,0 26,-4 34,-12 8,-8 11,-23 11,-43l0 -48c0,-26 -4,-44 -13,-54 -8,-9 -23,-14 -43,-14l-39 0zm0 -226l0 147 34 0c17,0 30,-4 39,-13 9,-8 14,-24 14,-46l0 -31c0,-20 -4,-34 -11,-43 -7,-9 -18,-14 -34,-14l-42 0zm515 476l-88 0 -15 -101 -107 0 -15 101 -80 0 89 -555 128 0 88 555zm-198 -176l83 0 -42 -281 -41 281zm325 176l-87 0 0 -555 87 0 0 238 99 0 0 -238 89 0 0 555 -89 0 0 -238 -99 0 0 238zm338 0l-87 0 0 -555 87 0 0 238 99 0 0 -238 89 0 0 555 -89 0 0 -238 -99 0 0 238zm378 -476c-16,0 -27,5 -34,14 -7,9 -11,23 -11,43l0 55c0,22 5,38 14,46 9,8 22,13 38,13l35 0 0 -171 -42 0zm-142 476c4,-11 7,-21 8,-32 1,-10 1,-22 1,-36l0 -85c0,-29 4,-54 13,-74 8,-21 23,-35 45,-44 -38,-18 -57,-56 -57,-113l0 -43c0,-43 10,-75 31,-96 20,-21 53,-32 98,-32l132 0 0 555 -87 0 0 -226 -31 0c-20,0 -34,5 -43,16 -9,10 -14,29 -14,54l0 88c0,11 0,20 0,27 0,8 -1,14 -2,19 0,4 -1,8 -2,11 -1,4 -2,7 -4,11l-88 0zm588 -555c46,0 79,11 99,32 20,21 31,53 31,96l0 19c0,29 -5,53 -14,71 -9,18 -23,32 -43,41 24,9 41,24 51,44 9,21 14,45 14,75l0 45c0,43 -11,76 -33,98 -22,23 -55,34 -99,34l-137 0 0 -555 131 0zm-44 305l0 171 50 0c15,0 26,-4 34,-12 7,-8 11,-23 11,-43l0 -48c0,-26 -4,-44 -13,-54 -9,-9 -23,-14 -43,-14l-39 0zm0 -226l0 147 34 0c17,0 29,-4 39,-13 9,-8 13,-24 13,-46l0 -31c0,-20 -3,-34 -10,-43 -7,-9 -19,-14 -34,-14l-42 0zm323 476l-89 0 0 -555 77 0 0 332 90 -332 109 0 0 555 -78 0 0 -402 -109 402zm379 -555c44,0 76,12 98,35 21,23 32,57 32,102l0 72c0,45 -11,79 -32,102 -22,24 -54,35 -98,35l-41 0 0 209 -87 0 0 -555 128 0zm-41 79l0 188 41 0c14,0 24,-4 32,-11 7,-7 11,-21 11,-41l0 -83c0,-20 -4,-34 -11,-42 -8,-7 -18,-11 -32,-11l-41 0zm290 348c0,20 4,34 12,43 8,8 19,12 33,12 14,0 25,-4 33,-12 8,-9 12,-23 12,-43l0 -299c0,-20 -4,-35 -12,-43 -8,-8 -19,-12 -33,-12 -14,0 -25,4 -33,12 -8,8 -12,23 -12,43l0 299zm-87 -294c0,-45 11,-79 34,-103 22,-24 55,-36 98,-36 43,0 75,12 98,36 23,24 34,58 34,103l0 289c0,45 -11,79 -34,103 -23,24 -55,36 -98,36 -43,0 -76,-12 -98,-36 -23,-24 -34,-58 -34,-103l0 -289zm407 76l41 0c44,0 77,11 98,34 21,24 32,58 32,103l0 72c0,45 -11,79 -32,102 -21,23 -54,35 -98,35l-128 0 0 -555 230 0 0 79 -143 0 0 130zm41 267c14,0 24,-4 32,-12 7,-7 11,-21 11,-41l0 -83c0,-20 -4,-34 -11,-41 -8,-8 -18,-11 -32,-11l-41 0 0 188 41 0zm269 79l-87 0 0 -555 87 0 0 238 99 0 0 -238 88 0 0 555 -88 0 0 -238 -99 0 0 238zm340 0l-89 0 0 -555 77 0 0 332 90 -332 109 0 0 555 -78 0 0 -402 -109 402zm338 -79l99 0 0 -476 89 0 0 476 44 0 0 142 -89 0 0 -63 -230 0 0 -555 87 0 0 476zm240 -476l269 0 0 79 -91 0 0 476 -87 0 0 -476 -91 0 0 -79zm440 0c46,0 79,11 99,32 20,21 31,53 31,96l0 19c0,29 -5,53 -14,71 -9,18 -23,32 -43,41 24,9 41,24 51,44 9,21 14,45 14,75l0 45c0,43 -11,76 -33,98 -22,23 -55,34 -99,34l-137 0 0 -555 131 0zm-44 305l0 171 50 0c15,0 26,-4 34,-12 7,-8 11,-23 11,-43l0 -48c0,-26 -4,-44 -13,-54 -9,-9 -23,-14 -43,-14l-39 0zm0 -226l0 147 34 0c17,0 29,-4 39,-13 9,-8 13,-24 13,-46l0 -31c0,-20 -3,-34 -10,-43 -7,-9 -19,-14 -34,-14l-42 0zm515 476l-88 0 -15 -101 -107 0 -15 101 -80 0 89 -555 127 0 89 555zm-199 -176l84 0 -42 -281 -42 281z"/>
  <path class="fil0" d="M1530 400l200 0 0 132 -200 0 0 271 251 0 0 132 -396 0 0 -924 396 0 0 132 -251 0 0 257zm527 166l-45 85 0 284 -145 0 0 -924 145 0 0 402 193 -402 143 0 -202 412 202 512 -150 0 -141 -369zm489 156c0,34 6,57 20,71 14,14 32,20 55,20 23,0 41,-6 55,-20 13,-14 20,-37 20,-71l0 -499c0,-33 -7,-57 -20,-70 -14,-14 -32,-21 -55,-21 -23,0 -41,7 -55,21 -14,13 -20,37 -20,70l0 499zm-146 -490c0,-74 19,-132 57,-172 38,-40 93,-60 164,-60 71,0 126,20 164,60 38,40 56,98 56,172l0 481c0,75 -18,132 -56,172 -38,40 -93,60 -164,60 -71,0 -126,-20 -164,-60 -38,-40 -57,-97 -57,-172l0 -481zm679 703l-145 0 0 -924 145 0 0 396 165 0 0 -396 148 0 0 924 -148 0 0 -396 -165 0 0 396zm551 -213c0,34 7,57 20,71 14,14 32,20 55,20 23,0 41,-6 55,-20 13,-14 20,-37 20,-71l0 -499c0,-33 -7,-57 -20,-70 -14,-14 -32,-21 -55,-21 -23,0 -41,7 -55,21 -13,13 -20,37 -20,70l0 499zm-145 -490c0,-74 18,-132 56,-172 38,-40 93,-60 164,-60 71,0 126,20 164,60 38,40 57,98 57,172l0 481c0,75 -19,132 -57,172 -38,40 -93,60 -164,60 -71,0 -126,-20 -164,-60 -38,-40 -56,-97 -56,-172l0 -481zm842 435l99 -656 202 0 0 924 -137 0 0 -663 -101 663 -137 0 -108 -654 0 654 -127 0 0 -924 202 0 107 656zm407 -656l145 0 0 924 -145 0 0 -924zm670 579l0 123c0,75 -18,132 -54,172 -37,40 -91,60 -162,60 -71,0 -125,-20 -162,-60 -36,-40 -55,-97 -55,-172l0 -481c0,-74 19,-132 55,-172 37,-40 91,-60 162,-60 71,0 125,20 162,60 36,40 54,98 54,172l0 90 -137 0 0 -99c0,-33 -7,-57 -20,-70 -14,-14 -32,-21 -55,-21 -23,0 -41,7 -55,21 -14,13 -20,37 -20,70l0 499c0,34 6,57 20,70 14,13 32,20 55,20 23,0 41,-7 55,-20 13,-13 20,-36 20,-70l0 -132 137 0zm53 -579l449 0 0 132 -152 0 0 792 -145 0 0 -792 -152 0 0 -132z"/>
 </g>
</svg>
