<?xml version="1.0" encoding="UTF-8"?>
<!DOCTYPE svg PUBLIC "-//W3C//DTD SVG 1.1//EN" "http://www.w3.org/Graphics/SVG/1.1/DTD/svg11.dtd">
<!-- Creator: CorelDRAW X7 -->
<svg xmlns="http://www.w3.org/2000/svg" xml:space="preserve" width="56.5147mm" height="20.99mm" version="1.1" style="shape-rendering:geometricPrecision; text-rendering:geometricPrecision; image-rendering:optimizeQuality; fill-rule:evenodd; clip-rule:evenodd"
viewBox="0 0 3068 1139"
 xmlns:xlink="http://www.w3.org/1999/xlink">
 <defs>
  <style type="text/css">
   <![CDATA[
    .fil0 {fill:#E31E24}
    .fil1 {fill:#FEFEFE;fill-rule:nonzero}
   ]]>
  </style>
 </defs>
 <g id="Слой_x0020_1">
  <metadata id="CorelCorpID_0Corel-Layer"/>
  <path class="fil0" d="M3039 749c22,-68 33,-139 28,-213 -7,-115 -46,-221 -111,-309 -9,-13 -18,-27 -26,-34 -51,-53 -65,-68 -130,-109 -178,-111 -416,-80 -636,-80l-1438 0c-161,0 -282,-8 -418,59 -228,111 -353,384 -293,636 45,188 163,327 324,394 56,23 129,40 196,43 154,6 320,0 475,0 319,0 638,0 956,0 153,0 326,8 476,0 318,-32 505,-94 597,-387z"/>
  <path class="fil1" d="M819 492l-55 0 0 -254 -97 0 0 -46 249 0 0 46 -97 0 0 254zm304 -218l0 218 -53 0 0 -63c0,-29 1,-55 2,-78l-1 0c-9,16 -23,37 -42,62l-58 79 -49 0 0 -218 53 0 0 64c0,31 0,56 -2,77l1 0c9,-15 23,-36 42,-62l58 -79 49 0zm215 213c-6,3 -15,5 -24,7 -10,2 -20,3 -31,3 -16,0 -30,-2 -44,-6 -14,-5 -26,-12 -36,-21 -10,-9 -18,-20 -24,-34 -6,-14 -9,-31 -9,-49 0,-21 4,-39 10,-54 7,-15 16,-27 27,-37 10,-9 23,-16 36,-20 13,-5 26,-7 40,-7 9,0 19,1 28,3 9,1 17,4 24,7l0 43c-7,-3 -14,-5 -21,-7 -7,-2 -15,-2 -24,-2 -8,0 -17,1 -24,4 -8,2 -15,6 -21,12 -6,6 -11,13 -14,22 -4,10 -5,21 -5,34 0,10 1,19 4,27 2,9 6,16 11,22 6,6 12,11 20,14 8,4 18,6 28,6 10,0 19,-1 27,-3 8,-2 15,-4 22,-7l0 43zm187 5l0 -90 -88 0 0 90 -53 0 0 -218 53 0 0 83 88 0 0 -83 53 0 0 218 -53 0zm313 -218l0 218 -53 0 0 -63c0,-29 0,-55 2,-78l-1 0c-9,16 -23,37 -42,62l-58 79 -49 0 0 -218 53 0 0 64c0,31 -1,56 -2,77l1 0c8,-15 22,-36 42,-62l58 -79 49 0zm-915 672c-7,2 -15,5 -25,7 -10,2 -20,3 -31,3 -15,0 -30,-2 -44,-7 -13,-4 -25,-11 -35,-20 -11,-9 -19,-21 -24,-35 -6,-14 -9,-30 -9,-49 0,-21 3,-39 10,-54 7,-15 15,-27 26,-36 11,-10 23,-17 36,-21 14,-4 27,-7 40,-7 10,0 19,1 28,3 9,2 17,4 24,7l0 43c-6,-2 -13,-5 -21,-6 -7,-2 -15,-3 -23,-3 -9,0 -17,1 -25,4 -8,3 -15,7 -21,12 -6,6 -10,14 -14,23 -3,9 -5,21 -5,34 0,9 1,18 4,27 3,8 7,15 12,21 5,6 11,11 19,15 8,3 18,5 29,5 10,0 18,-1 26,-3 8,-1 16,-4 23,-6l0 43zm346 -104c0,17 -2,32 -7,46 -5,14 -12,26 -21,36 -10,11 -21,18 -34,24 -13,5 -28,8 -45,8 -15,0 -29,-2 -42,-7 -12,-4 -23,-11 -32,-19 -9,-8 -16,-18 -21,-30 -6,-12 -10,-25 -11,-40l-34 0 0 90 -54 0 0 -217 54 0 0 82 35 0c2,-13 6,-25 12,-36 6,-11 13,-20 22,-28 9,-7 19,-13 31,-17 12,-4 25,-7 40,-7 17,0 32,3 45,9 14,5 25,13 34,23 9,10 16,22 21,36 5,14 7,30 7,47zm-55 0c0,-23 -5,-41 -14,-53 -10,-12 -22,-18 -38,-18 -16,0 -28,6 -38,18 -9,12 -14,30 -14,53 0,23 5,40 14,52 10,12 22,18 38,18 8,0 15,-1 22,-4 6,-3 11,-8 16,-14 4,-6 8,-13 10,-22 3,-9 4,-19 4,-30zm279 -109l0 172 33 0 0 122 -51 0 0 -77 -140 0 0 77 -51 0 0 -122 15 0c9,-10 18,-20 25,-31 8,-11 15,-24 20,-37 6,-14 10,-29 14,-46 3,-17 5,-36 6,-58l129 0zm-85 44c-2,15 -4,29 -7,41 -3,11 -6,22 -10,32 -5,10 -9,20 -15,29 -5,8 -11,17 -17,25l0 1 81 0 0 -128 -32 0zm353 -44l0 217 -53 0 0 -63c0,-28 1,-54 2,-77l-1 0c-9,16 -23,36 -42,62l-58 78 -49 0 0 -217 53 0 0 63c0,31 -1,57 -2,77l1 0c9,-15 23,-35 42,-62l58 -78 49 0z"/>
 </g>
</svg>
