<?xml version="1.0" encoding="UTF-8"?>
<!DOCTYPE svg PUBLIC "-//W3C//DTD SVG 1.1//EN" "http://www.w3.org/Graphics/SVG/1.1/DTD/svg11.dtd">
<!-- Creator: CorelDRAW X7 -->
<svg xmlns="http://www.w3.org/2000/svg" xml:space="preserve" width="15.4901mm" height="18.2486mm" version="1.1" style="shape-rendering:geometricPrecision; text-rendering:geometricPrecision; image-rendering:optimizeQuality; fill-rule:evenodd; clip-rule:evenodd"
viewBox="0 0 864 1018"
 xmlns:xlink="http://www.w3.org/1999/xlink">
 <defs>
  <style type="text/css">
   <![CDATA[
    .fil1 {fill:#FEFEFE}
    .fil0 {fill:#FEFEFE}
   ]]>
  </style>
 </defs>
 <g id="Слой_x0020_1">
  <metadata id="CorelCorpID_0Corel-Layer"/>
  <path class="fil0" d="M418 917c49,-22 122,-151 162,-93 19,26 67,155 90,194 14,-1 69,-26 77,-33 -2,-19 -67,-153 -79,-180 -45,-98 117,-48 167,-77 -5,-10 -64,-63 -77,-72l-330 -295c-8,-7 -6,-10 -15,-9l5 565z"/>
  <path class="fil1" d="M796 601c29,7 36,-3 45,-30 55,-159 10,-341 -108,-450 -8,-8 -9,-11 -17,-20 -7,-7 -31,-25 -46,-35 -28,-19 -70,-40 -109,-51 -147,-40 -332,1 -425,106 -13,14 -28,24 -40,40 -114,151 -128,313 -33,485 36,66 95,123 160,160 18,9 36,18 56,25 21,8 54,5 40,-25 -6,-13 -38,-20 -54,-28 -17,-7 -37,-20 -50,-29 -41,-29 -53,-39 -83,-79 -110,-144 -122,-333 -5,-478 31,-39 43,-48 83,-77 62,-46 153,-76 248,-72 107,4 169,44 230,90 20,15 55,59 72,89 124,213 18,330 36,379z"/>
  <path class="fil1" d="M393 215c127,-29 231,51 257,173 5,21 4,74 6,81 9,24 40,17 43,-21 3,-47 -11,-102 -33,-142 -7,-14 -26,-42 -33,-51l-47 -43c-19,-13 -32,-22 -54,-31 -97,-37 -203,-2 -267,46 -132,100 -129,300 9,414 9,8 16,15 31,10 48,-18 -35,-57 -67,-120 -32,-65 -39,-144 2,-211l29 -37c3,-3 6,-8 9,-10 27,-28 74,-49 115,-58z"/>
 </g>
</svg>
