<?xml version="1.0" encoding="UTF-8"?>
<!DOCTYPE svg PUBLIC "-//W3C//DTD SVG 1.1//EN" "http://www.w3.org/Graphics/SVG/1.1/DTD/svg11.dtd">
<!-- Creator: CorelDRAW X7 -->
<svg xmlns="http://www.w3.org/2000/svg" xml:space="preserve" width="72.9716mm" height="46.99mm" version="1.1" style="shape-rendering:geometricPrecision; text-rendering:geometricPrecision; image-rendering:optimizeQuality; fill-rule:evenodd; clip-rule:evenodd"
viewBox="0 0 7297 4699"
 xmlns:xlink="http://www.w3.org/1999/xlink">
 <defs>
  <style type="text/css">
   <![CDATA[
    .fil0 {fill:#284756}
    .fil1 {fill:#FEFEFE;fill-rule:nonzero}
   ]]>
  </style>
 </defs>
 <g id="Слой_x0020_1">
  <metadata id="CorelCorpID_0Corel-Layer"/>
  <rect class="fil0" width="7297" height="4699"/>
  <path class="fil1" d="M463 1721l0 -680 245 0 123 462 122 -462 234 0 0 680 -174 0 0 -383 -106 383 -180 0 -104 -379 0 379 -158 0 -2 0zm876 -203l186 0 0 203 -186 0 0 -203zm995 203l0 -337c-45,36 -98,54 -157,54 -51,0 -94,-11 -134,-36 -37,-23 -67,-56 -83,-97 -18,-42 -29,-101 -29,-175l0 -328 201 0 0 336c0,51 5,84 18,106 11,19 31,30 60,30 44,0 85,-22 122,-66l0 -406 201 0 0 919 -201 0 2 0 0 0 0 0zm880 -308l-356 0 0 37c0,60 8,101 26,122 15,19 37,31 64,31 58,0 91,-39 96,-116l170 10c-30,160 -121,237 -270,237 -91,0 -162,-31 -209,-94 -48,-63 -72,-145 -72,-252 0,-117 24,-207 76,-268 51,-62 119,-93 204,-93 76,0 141,28 193,82 50,57 78,156 78,304l0 0 0 0 0 0zm-179 -112c0,-8 0,-14 0,-18 0,-86 -29,-130 -88,-130 -57,0 -86,49 -89,148l175 0 2 0zm291 -260l176 0 0 100c37,-74 89,-109 153,-109 61,0 114,27 154,82 41,54 60,139 60,255 0,119 -19,211 -60,271 -40,62 -96,90 -170,90 -52,0 -96,-19 -129,-60l0 281 -187 0 0 -910 3 0 0 0 0 0zm186 401c0,64 5,108 16,127 10,21 32,30 65,30 30,0 49,-14 62,-40 14,-24 22,-87 22,-188 0,-82 -7,-140 -17,-169 -13,-30 -32,-45 -62,-45 -23,0 -42,10 -60,28 -17,17 -26,60 -26,130l0 128 0 -1zm472 279l0 -680 190 0 0 244 152 0 0 -244 190 0 0 680 -190 0 0 -289 -152 0 0 289 -190 0zm860 -736l-193 0 0 -187 193 0 0 187zm-193 56l190 0 0 680 -190 0 0 -680zm330 680l0 -680 343 0c44,0 76,4 102,14 26,9 47,27 69,57 20,29 30,63 30,101 0,63 -27,111 -85,144 71,34 105,89 105,163 0,60 -16,106 -50,143 -33,39 -82,58 -141,58l-372 0 -1 0 0 0 0 0zm199 -416l106 0c20,0 38,-4 47,-15 11,-10 17,-27 17,-52 0,-20 -4,-36 -10,-52 -7,-14 -23,-20 -53,-20l-104 0 0 139 -3 0zm0 271l115 0c25,0 43,-7 52,-21 11,-11 15,-31 15,-56 0,-26 -4,-43 -15,-57 -9,-14 -27,-19 -52,-19l-115 0 0 154 0 -1zm471 145l0 -680 190 0 0 535 132 0 0 -535 192 0 0 535 83 0 0 306 -135 0 -18 -160 -444 0 0 -1 0 0 0 0zm848 -736l-193 0 0 -187 193 0 0 187zm-193 56l190 0 0 680 -190 0 0 -680zm342 477l186 0 0 185 -114 235 -75 0 89 -217 -89 0 0 -203 3 0z"/>
  <path class="fil1" d="M502 3407l0 -497 251 0c31,0 56,3 74,10 19,8 35,21 51,42 14,22 21,46 21,75 0,46 -20,80 -61,105 51,24 77,64 77,119 0,43 -13,77 -37,105 -25,27 -61,41 -104,41l-271 0 -1 0 0 0 0 0zm146 -304l76 0c16,0 29,-3 36,-10 7,-7 12,-20 12,-39 0,-14 -3,-26 -8,-37 -4,-10 -17,-16 -38,-16l-77 0 0 102 -1 0zm0 198l83 0c19,0 32,-4 39,-14 7,-9 10,-23 10,-42 0,-19 -3,-32 -10,-42 -7,-10 -20,-14 -39,-14l-83 0 0 113 0 -1zm273 -391l139 0 66 303 65 -303 119 0 -149 504c-15,48 -28,82 -38,101 -10,19 -26,36 -46,47 -20,13 -46,19 -77,19 -19,0 -39,-3 -59,-7l0 -109c14,1 27,2 39,2 27,0 44,-4 54,-12 10,-9 20,-28 29,-58l-144 -487 2 0zm343 497l148 -497 145 0 136 497 -143 0 -75 -321 -83 321 -128 0zm481 -148l136 0 0 148 -136 0 0 -148zm448 -524l194 0c58,0 104,5 136,15 32,10 59,31 82,66 21,34 33,77 33,129 0,49 -9,90 -26,122 -17,32 -42,56 -73,70 -32,15 -79,22 -145,22l-52 0 0 248 -146 0 0 -672 -3 0zm146 109l0 200 46 0c40,0 68,-10 79,-29 12,-18 17,-43 17,-73 0,-26 -4,-46 -13,-62 -8,-15 -20,-26 -31,-30 -12,-4 -29,-7 -50,-7l-46 0 -2 1zm290 66l140 0 66 303 64 -303 119 0 -149 504c-14,48 -27,82 -37,101 -10,19 -26,36 -46,47 -20,13 -46,19 -78,19 -18,0 -39,-3 -59,-7l0 -109c15,1 28,2 39,2 27,0 45,-4 55,-12 10,-9 20,-28 28,-58l-143 -487 1 0zm786 183l-128 4c-2,-30 -7,-53 -15,-69 -7,-16 -21,-23 -40,-23 -47,0 -70,49 -70,147 0,56 6,96 17,119 12,23 29,34 50,34 35,0 55,-31 58,-93l128 9c-12,130 -77,196 -194,196 -63,0 -112,-21 -147,-64 -34,-43 -50,-108 -50,-193 0,-84 17,-149 53,-194 36,-44 86,-66 149,-66 117,0 180,65 190,193l-1 0zm76 314l0 -497 139 0 0 171 90 0c55,0 94,16 118,49 24,32 36,70 36,115 0,47 -13,86 -37,116 -26,30 -66,46 -122,46l-223 0 -1 0 0 0 0 0zm139 -96l66 0c9,0 19,-6 29,-16 10,-10 15,-27 15,-50 0,-42 -14,-63 -44,-63l-66 0 0 129 0 0zm311 -401l140 0 0 191 139 -191 126 0 -125 167 138 330 -151 0 -76 -230 -50 69 0 161 -139 0 0 -497 -2 0zm608 158l-131 -13c6,-50 27,-89 63,-114 36,-28 82,-41 137,-41 46,0 83,9 112,28 28,17 46,38 53,61 7,23 11,61 11,110l0 198c0,61 3,99 7,110l-127 0c-5,-13 -8,-39 -8,-76 -30,58 -76,86 -136,86 -39,0 -70,-11 -95,-34 -24,-23 -36,-58 -36,-101 0,-54 19,-97 55,-128 37,-30 103,-48 200,-54l0 -19c0,-33 -3,-56 -11,-69 -7,-13 -20,-18 -38,-18 -35,0 -55,26 -58,76l2 -2zm106 102c-40,5 -69,13 -86,28 -17,12 -26,35 -26,67 0,42 16,63 46,63 17,0 31,-10 46,-28 13,-19 20,-54 20,-104l0 -24 0 -2zm250 89l136 0 0 135 -83 173 -55 0 65 -160 -65 0 0 -148 2 0zm547 -287l-134 -27c22,-147 96,-220 223,-220 67,0 120,19 155,58 36,37 53,84 53,139 0,56 -20,112 -59,165 -39,55 -113,118 -222,190l290 0 -11 130 -429 0 0 -130c124,-105 200,-180 230,-224 30,-44 46,-85 46,-124 0,-56 -22,-83 -63,-83 -26,0 -45,11 -56,33 -12,21 -20,53 -23,95l0 -2zm598 -247l160 0 0 409 76 0 0 115 -76 0 0 158 -147 0 0 -158 -241 0 0 -115 230 -409 -2 0 0 0 0 0zm25 418l0 -277 -149 277 149 0zm617 -102c69,40 104,99 104,174 0,56 -21,105 -59,143 -41,39 -98,59 -175,59 -75,0 -130,-17 -167,-51 -37,-35 -55,-79 -55,-134 0,-33 8,-60 23,-86 16,-25 45,-49 87,-70 -61,-39 -91,-91 -91,-158 0,-52 17,-98 53,-137 36,-39 89,-57 161,-57 69,0 119,16 154,47 34,32 50,73 50,124 0,63 -29,110 -86,143l1 3zm-89 -44c32,-31 46,-62 46,-92 0,-25 -6,-45 -19,-61 -13,-15 -31,-23 -54,-23 -23,0 -42,8 -56,21 -14,14 -22,31 -22,53 0,25 12,46 35,63 23,16 46,29 70,39l0 0zm-69 127c-43,26 -64,59 -64,99 0,29 8,51 25,68 18,17 41,26 71,26 27,0 50,-7 66,-23 16,-16 24,-35 24,-55 0,-17 -7,-34 -20,-51 -13,-18 -47,-38 -102,-62l0 -2z"/>
 </g>
</svg>
