<?xml version="1.0" encoding="UTF-8"?>
<!DOCTYPE svg PUBLIC "-//W3C//DTD SVG 1.1//EN" "http://www.w3.org/Graphics/SVG/1.1/DTD/svg11.dtd">
<!-- Creator: CorelDRAW X6 -->
<svg xmlns="http://www.w3.org/2000/svg" xml:space="preserve" width="87.1657mm" height="209.69mm" version="1.1" style="shape-rendering:geometricPrecision; text-rendering:geometricPrecision; image-rendering:optimizeQuality; fill-rule:evenodd; clip-rule:evenodd"
viewBox="0 0 6635 15961"
 xmlns:xlink="http://www.w3.org/1999/xlink">
 <defs>
  <style type="text/css">
   <![CDATA[
    .fil6 {fill:#231F20}
    .fil5 {fill:#242122}
    .fil4 {fill:#262223}
    .fil3 {fill:#272425}
    .fil2 {fill:#282526}
    .fil0 {fill:#2A2728}
    .fil11 {fill:#2C292A}
    .fil10 {fill:#2D2A2B}
    .fil8 {fill:#2F2D2E}
    .fil14 {fill:#322E31}
    .fil1 {fill:#363435}
    .fil7 {fill:#5F5F61}
    .fil20 {fill:#8B8C8D}
    .fil18 {fill:#8C8D8E}
    .fil12 {fill:#9C9D9E}
    .fil17 {fill:#9FA0A2}
    .fil19 {fill:#A7A8A9}
    .fil23 {fill:#AEAFB1}
    .fil22 {fill:#B4B5B6}
    .fil21 {fill:#B6B6B8}
    .fil16 {fill:#BABBBC}
    .fil15 {fill:#C1C2C4}
    .fil13 {fill:#CACACC}
    .fil9 {fill:#D0D1D2}
   ]]>
  </style>
 </defs>
 <g id="Слой_x0020_1">
  <metadata id="CorelCorpID_0Corel-Layer"/>
  <path class="fil0" d="M1013 15705c35,-53 188,-171 219,-287l192 82c-18,65 -109,102 -169,132 -68,35 -153,66 -241,73zm-588 -192c219,-116 161,-117 287,55 39,53 88,85 123,137 -83,-7 -172,-38 -233,-68 -33,-17 -67,-30 -99,-53l-79 -71 0 0zm520 178l0 -328c77,7 176,25 246,41 -25,94 -169,236 -246,287zm-287 -287c36,-3 130,-32 246,-41l0 328c-78,-52 -144,-121 -197,-199l-49 -87zm561 -41c-84,-7 -177,-41 -273,-41l0 -342 369 0c0,127 -52,301 -96,383l0 0zm246 123c-44,-30 -141,-90 -205,-96l63 -183c20,-69 33,-146 33,-227l328 0c0,269 -140,389 -219,506l0 0zm-930 -506l369 0 0 342c-41,1 -84,9 -136,15 -50,5 -76,24 -138,26 -43,-81 -96,-259 -96,-383l0 0zm-370 0l328 0c0,216 70,297 96,410 -76,18 -142,62 -205,96 -82,-122 -211,-221 -219,-506zm780 -396c90,-2 193,-34 273,-41 47,89 96,248 96,383l-369 0 0 -342 0 0zm-315 -41c51,1 80,13 128,22 41,7 113,16 145,19l0 342 -369 0c0,-124 53,-302 96,-383l0 0zm629 -27c64,-6 161,-66 205,-96 27,40 49,52 79,99 76,116 140,252 140,408l-328 0c0,-79 -13,-151 -30,-217 -8,-30 -17,-56 -30,-93l-36 -101 0 0zm-766 410l-328 0c0,-269 140,-389 219,-507l202 101 -60 179c-20,68 -33,146 -33,227l0 0zm520 -397l-68 0 0 -315c53,36 98,69 139,121 31,39 95,121 107,167 -58,13 -104,27 -178,27zm-110 -315l0 315c-165,0 -149,-19 -246,-27 25,-95 170,-236 246,-287zm110 -13c95,2 382,100 410,205 -42,10 -61,24 -96,41 -33,17 -64,26 -96,41 -25,-109 -184,-236 -219,-287l0 0zm-410 273c-24,0 -152,-68 -178,-82 54,-81 276,-188 410,-191 -32,48 -116,110 -173,197 -14,22 -33,76 -60,76l0 0zm-479 452c0,252 73,406 222,584 44,53 159,125 216,153 220,110 494,116 716,5 47,-24 83,-40 121,-70 559,-446 362,-1255 -290,-1425 -256,-67 -555,17 -743,201 -136,133 -242,347 -242,551z"/>
  <path class="fil0" d="M438 12651l0 -765c0,-42 13,-56 27,-82l96 0c14,27 27,40 27,82l0 793c-87,58 -64,58 -151,0l0 -27 0 0zm712 -27l0 -725c0,-50 21,-66 41,-96 44,0 110,-10 110,55l0 834c-90,47 -150,26 -150,-68l0 0zm314 0c-44,0 -110,10 -110,-55l0 -643c11,-7 59,-41 69,-41 52,0 82,40 82,96l0 547c0,50 -21,67 -41,96zm-1107 0c-44,0 -110,10 -110,-55l0 -643c10,-7 58,-41 68,-41 53,0 82,40 82,96l0 547c0,50 -21,67 -41,96l0 0zm273 -520l479 0 0 315 -479 0 0 -315zm-556 0c24,-13 -25,-3 36,-14l93 7c1,51 15,278 -11,321 -113,-1 -138,30 -137,-81 0,-73 1,-147 1,-220l19 -13 0 0zm1567 315l-96 0 0 -315 137 0c13,54 53,315 -41,315zm-1244 -547c-151,-80 -205,24 -205,178 -211,0 -191,27 -191,301 0,129 101,110 191,110 0,197 50,227 205,191 13,160 233,138 233,0l0 -191 479 0c0,127 -28,301 123,301 99,0 111,-84 123,-110 173,84 192,-73 192,-191 217,0 191,8 191,-301 0,-124 -116,-110 -191,-110 0,-245 -84,-201 -205,-191 -11,-137 -233,-153 -233,41l0 150 -479 0 0 -178c0,-145 -219,-171 -233,0l0 0z"/>
  <path class="fil1" d="M254 4024l400 -3 0 396 -400 -393zm1147 434c-16,24 -633,23 -696,4l-7 -469 -344 -14c-164,1 -137,31 -137,-219l-1 -904c5,-76 42,-54 124,-54 93,1 270,-10 353,3 206,33 484,11 714,11l-5 1641 0 0zm-1225 -1654l0 1190c0,43 333,353 386,407 41,41 88,113 161,113l684 0c32,0 41,-10 41,-41l0 -1668c0,-32 -10,-41 -41,-41l-1190 0c-32,0 -41,10 -41,41l0 0z"/>
  <path class="fil2" d="M996 1072c0,-43 37,-82 56,-109l422 0 0 202c-106,0 -379,18 -435,-25 -15,-11 -43,-57 -43,-68l0 0zm19 -771c15,55 40,69 91,147 34,51 62,89 91,146l-624 0c36,-54 373,-277 441,-293zm183 165l166 0 0 128c-138,0 -113,-28 -166,-128zm-771 128l-184 0 0 56 1121 0 0 239c-129,0 -423,-36 -423,165 0,208 253,165 423,165l0 330 -1267 0 0 -1083 513 18 -183 110zm293 -183l-551 -1c-69,0 -128,-17 -128,56l0 1139 1377 0 0 -386 110 0c0,-360 28,-330 -110,-330l0 -477 -275 0c-139,-263 -104,-213 -423,0l0 0z"/>
  <path class="fil3" d="M1179 9890l154 0 0 85 -154 0 0 -85zm-889 0l154 0 0 85 -154 0 0 -85zm-69 -1402l1180 0 0 1351 -1180 0 0 -1351zm1231 274l34 0 0 205 -34 0 0 -205zm-1316 0l34 0 0 205 -34 0 0 -205zm34 -69c-68,1 -41,-5 -86,17l0 308c39,8 40,13 86,17l0 855 69 0 0 137c109,25 146,25 256,0l0 -137 633 0 0 137c109,25 146,25 257,0l0 -137 68 0 18 -871 69 0 0 -308c-45,-21 -19,-16 -86,-17l0 -257 -1282 0 0 257 0 0z"/>
  <path class="fil3" d="M270 6516l259 0c99,-147 74,-206 148,-260 2,107 47,176 55,278l56 0c4,-20 93,-240 166,-259 21,91 90,186 111,277l55 0c17,-70 39,-77 56,-147 47,35 77,100 92,166l129 0c-102,195 -464,520 -537,630 -153,-102 -490,-491 -593,-685l0 0zm222 -56l-277 0c-24,-100 -197,-390 -6,-598 187,-203 541,-111 617,172 157,-42 63,-278 425,-278 142,0 257,108 298,203 85,197 -18,415 -112,557l-129 0c-21,-90 -72,-132 -92,-223 -121,32 -34,78 -130,148l-129 -297c-92,62 -108,204 -186,260 -37,-79 -36,-199 -73,-278 -70,18 -42,10 -111,148 -31,61 -61,124 -93,185l0 0zm-425 -389c0,181 12,238 92,389 -97,0 -88,-19 -129,37 58,28 84,19 166,19 74,139 51,88 140,211 131,179 334,345 422,466 42,58 47,51 104,81 82,-123 252,-233 344,-359l236 -301c54,-71 47,-25 123,-62 -22,-58 40,-26 -55,-36 106,-202 207,-472 33,-681 -52,-62 -146,-118 -239,-133 -92,-14 -197,-9 -277,36 -63,35 -147,123 -165,204 -67,-48 -73,-121 -166,-186 -242,-167 -630,13 -630,315l0 0z"/>
  <path class="fil4" d="M2162 13114c0,-119 27,-150 123,-150 53,79 41,63 41,191 0,126 -164,141 -164,-41l0 0zm328 137c-132,0 -135,-287 0,-287l27 0c127,190 -13,287 -27,287zm-164 -315c-38,-9 -56,-27 -82,-27 -84,0 -150,95 -150,178 0,150 41,168 137,219l95 -29 1 153 68 0 0 -164c144,97 233,-22 233,-137 0,-180 -83,-278 -233,-178l0 -178c-50,1 -61,-7 -69,41 -3,21 1,97 1,124l0 0z"/>
  <path class="fil0" d="M341 8830l941 0 0 633 -941 0 0 -633zm-51 684l1008 0c40,0 52,-12 52,-51l0 -633c0,-39 -12,-51 -52,-51l-1008 0 0 735 0 0z"/>
  <polygon class="fil3" points="3949,8510 4427,8510 4427,8141 4359,8141 4359,8455 4222,8455 4222,8141 4154,8141 4154,8455 4017,8455 4017,8141 3949,8141 "/>
  <path class="fil3" d="M2861 15941l69 0 13 -287 82 287 68 0c5,-59 26,-85 43,-135l30 -93c17,-36 13,-21 22,-32l0 259 69 0 0 -369 -96 0c-24,101 -72,183 -96,287l-53 -139c-16,-47 -39,-98 -43,-149l-110 0 0 369z"/>
  <path class="fil4" d="M3740 1183c-159,0 -138,-287 -13,-287 37,0 59,9 77,32 68,84 19,255 -64,255zm-191 -219c0,49 14,139 31,174 24,50 53,76 114,92 206,56 284,-289 119,-367 -107,-50 -146,3 -210,46 47,-201 80,-110 222,-147 54,-14 60,-13 64,-72 -59,1 -64,13 -137,13 -169,1 -204,107 -204,260l0 0z"/>
  <path class="fil4" d="M2286 11791c-116,0 -110,-99 -110,-164 0,-62 29,-71 55,-110l96 0c44,67 55,33 55,150 0,57 -39,124 -96,124l0 0zm-14 54c270,0 238,-525 -109,-341 1,-83 36,-115 110,-123 95,-10 155,34 164,-69 -317,0 -303,44 -334,214 -13,69 -5,225 71,282 16,12 77,37 99,37z"/>
  <path class="fil4" d="M3918 7225c-206,0 -95,-403 62,-253 57,55 47,253 -62,253zm-123 -287l0 13 -16 -11 16 -2zm0 0l0 -69c61,-41 43,-56 150,-55 86,1 121,5 123,-81 -36,1 -167,17 -195,24 -158,39 -142,179 -133,304 10,144 62,256 230,204 57,-18 93,-65 107,-126 46,-193 -119,-270 -214,-241 -27,19 -38,25 -68,41z"/>
  <path class="fil5" d="M3861 15037c0,-248 205,-192 205,-68 0,57 7,178 -96,178 -66,0 -109,-43 -109,-110l0 0zm-69 -178c0,124 -16,201 46,282 52,69 296,130 296,-173 0,-95 -71,-150 -178,-150 -62,0 -71,29 -110,55 0,-267 270,-26 274,-219 -175,15 -329,12 -329,205l0 0z"/>
  <path class="fil5" d="M2184 5930l55 0 0 -287c64,47 76,218 109,287l55 0 87 -241c17,-36 13,-21 23,-33l0 274 68 0 0 -370 -96 0 -90 252c-1,4 -7,16 -8,19l-105 -272 -97 1 0 370z"/>
  <path class="fil4" d="M2281 8469c-62,0 -176,-93 -55,-273l110 0c19,29 54,60 54,110 0,80 -32,164 -109,164l0 0zm-178 -246c0,124 10,285 167,299 39,4 86,-13 111,-35 104,-90 122,-346 -114,-346 -62,0 -71,30 -109,55 21,-258 248,-38 287,-205 -223,0 -341,4 -341,233l0 0z"/>
  <path class="fil4" d="M5295 15676l-151 0 0 -178 205 0c76,112 37,178 -54,178l0 0zm-219 273l68 0 0 -205c70,0 193,2 247,-26 89,-47 125,-288 -110,-288l-205 0 0 519 0 0z"/>
  <path class="fil5" d="M4513 10499c-69,0 -174,-96 -55,-273l110 0c125,187 -7,273 -55,273l0 0zm-178 -273c0,80 -7,175 32,241 56,96 178,101 239,56 108,-80 123,-353 -107,-353 -61,0 -71,29 -109,55 3,-127 48,-137 178,-136 79,0 94,-4 109,-69 -170,0 -341,-8 -341,205l0 0z"/>
  <path class="fil4" d="M4097 9529l54 0c26,39 55,57 55,123 0,255 -298,153 -196,-73 16,-36 41,-50 87,-50zm-178 55c0,139 53,308 221,264 50,-13 90,-45 111,-95 50,-116 17,-279 -169,-279 -62,0 -71,30 -110,55 21,-258 248,-38 287,-205 -242,0 -341,13 -341,260l0 0z"/>
  <path class="fil4" d="M2184 192l136 0 0 273 -191 0c28,-59 55,-186 55,-273l0 0zm-55 0c0,70 -10,170 -40,233 -27,58 1,34 -56,40l0 164 55 0 0 -109 287 0 0 109 55 0 0 -164 -41 0 0 -328 -260 0 0 55 0 0z"/>
  <path class="fil5" d="M6168 13288l55 0 0 -287c44,51 66,197 109,287l55 0 110 -273 0 273 55 0 0 -370 -82 0c-24,44 -31,73 -50,129 -19,57 -41,81 -46,145l-27 0c-7,-81 -63,-190 -82,-274l-96 0 0 370 0 0z"/>
  <path class="fil3" d="M3097 7225c-91,-48 -81,-62 -81,-178 0,-119 191,-197 191,55 0,96 -59,112 -110,123zm-81 -301c-16,-39 9,-27 -69,-27l0 479c0,46 24,40 69,41l0 -178c7,4 81,41 81,41 281,0 204,-547 -81,-356z"/>
  <path class="fil4" d="M3009 14112l136 0 0 273 -191 0c19,-78 52,-134 55,-273l0 0zm-150 273l0 164c63,-5 55,-1 55,-110l287 0 0 110c64,-5 55,0 55,-123 0,-38 -10,-33 -41,-41l0 -314 -260 0c0,73 9,303 -96,314l0 0z"/>
  <path class="fil4" d="M4728 6288l150 0 0 260 -191 0c4,-50 18,-69 28,-122 11,-53 13,-68 13,-138zm-55 55c0,73 -10,198 -96,205l0 164 55 0 0 -109 287 0c0,108 -8,104 54,109l0 -164 -41 0 0 -315 -260 0 0 110z"/>
  <path class="fil4" d="M3346 6425c0,-143 74,-150 150,-150 30,43 96,137 31,236 -43,63 -108,65 -151,7 -12,-15 -30,-73 -30,-93zm0 -164c-14,-36 28,-25 -54,-27 0,123 -27,520 27,520 64,0 41,-110 41,-178 70,36 78,56 158,21 144,-62 140,-377 -62,-377 -64,0 -55,26 -110,41l0 0z"/>
  <path class="fil4" d="M2259 8861l150 0 0 260 -191 0c4,-50 18,-69 28,-122 11,-53 13,-68 13,-138zm-54 55c0,74 -10,198 -96,205 0,164 -13,159 55,164l0 -109 287 0c0,108 -8,104 55,109l0 -164 -41 0 0 -315 -259 0 0 110z"/>
  <path class="fil3" d="M2934 883c79,42 96,59 96,150 0,39 -7,75 -24,99 -102,151 -226,-59 -155,-196 21,-41 44,-36 83,-54l0 0zm-164 0l0 451c0,46 25,41 69,41l0 -178c52,27 135,80 213,-19 44,-56 117,-337 -145,-337 -47,0 -19,24 -82,41l0 -41 -41 0c-10,16 -14,15 -14,41l0 0z"/>
  <path class="fil3" d="M3001 12440c-122,0 -147,-287 14,-287 113,0 113,287 -14,287zm-85 -301l-24 16 0 -44 -54 0 0 507 68 0 0 -164c63,33 109,53 179,14 90,-50 123,-252 10,-339 -55,-43 -133,-40 -178,10l0 0z"/>
  <path class="fil4" d="M3161 9121l-123 0 0 -110 96 0c50,0 82,20 82,68 0,17 -28,41 -55,41l0 0zm13 -164l-136 0 0 -96 136 0 27 41 -28 55 0 0zm-204 219c147,0 264,27 301,-70 21,-56 3,-93 -41,-122 59,-88 26,-178 -68,-178l-192 0 0 370 0 0z"/>
  <path class="fil5" d="M4277 6548l-123 0 0 -110 96 0c50,0 82,20 82,68 0,17 -29,41 -55,41l0 0zm13 -164l-136 0c0,-101 -10,-119 73,-102 67,13 47,4 90,34 -6,27 -13,50 -27,68zm-205 219c147,0 264,27 301,-70 21,-56 3,-93 -41,-122 34,-64 27,-56 27,-136 -92,-61 -112,-41 -287,-41l0 370 0 0z"/>
  <path class="fil5" d="M2359 7212l-123 0 0 -110 96 0c50,0 82,20 82,68 0,17 -28,41 -55,41l0 0zm14 -164l-137 0 0 -109c68,0 121,12 164,41 -7,27 -14,50 -27,68zm-205 219c147,0 264,27 301,-70 21,-56 3,-93 -41,-122 33,-64 27,-56 27,-136 -92,-61 -113,-41 -287,-41l0 370 0 0z"/>
  <path class="fil4" d="M3194 9679c0,-165 81,-164 150,-164 44,64 86,153 30,236 -72,107 -181,16 -181,-72zm0 -164l0 -41 -55 0 0 506 69 0 0 -164c64,32 113,76 201,-17 101,-105 52,-339 -106,-339 -62,0 -72,29 -110,55z"/>
  <path class="fil4" d="M3071 3050l-123 0 0 -110 96 0c50,0 81,20 81,69 0,16 -28,41 -55,41l0 0zm14 -164l-137 0 0 -96c135,0 107,-11 164,27 -7,27 -14,50 -27,68zm-205 219c289,0 256,13 315,-110 -27,-51 -13,-53 -55,-68 0,0 102,-192 -82,-192l-178 0 0 370z"/>
  <path class="fil5" d="M2496 1183c-74,0 -68,-40 -68,-96 46,-24 32,-18 93,-30 30,-7 4,-3 45,-11 41,-9 42,-13 43,6l-1 36c-9,57 -40,95 -112,95l0 0zm-123 -259c0,52 -4,4 14,41 60,-7 19,7 47,-21 15,-15 26,-34 35,-47l137 13c3,37 7,37 13,68 -92,44 -259,-2 -259,151 0,68 39,93 101,105 65,12 118,-29 159,-51 15,56 4,40 69,41l-14 -328c-81,-54 -29,-55 -178,-55 -44,0 -76,18 -101,49 -10,12 -21,23 -21,33l0 0z"/>
  <path class="fil4" d="M4547 7266l82 0 164 -274 0 274 68 0 0 -370 -82 0 -158 267c-1,1 -4,4 -6,7l0 -273 -69 0 0 370 0 0z"/>
  <path class="fil3" d="M3233 12480l82 0 164 -260 0 260 69 0 0 -370 -82 0c-13,55 -48,90 -78,141l-87 133 0 -274 -68 0 0 370 0 0z"/>
  <path class="fil5" d="M3707 10499c-129,0 -129,-287 0,-287 156,0 127,287 0,287zm-96 -287l0 -41 -54 0 0 506 68 0 0 -164c158,105 246,-57 246,-124 0,-79 4,-232 -150,-232 -62,0 -71,29 -110,54l0 0z"/>
  <path class="fil4" d="M5767 6561c-97,0 -124,-102 1,-122 59,-9 63,-6 109,-28 0,92 -18,150 -110,150zm-68 -219c23,-99 113,-76 178,-41l0 69c-50,1 -196,21 -230,57 -63,69 -17,177 81,187 16,2 70,-10 88,-16 51,-19 21,-22 73,-36l0 41 69 0c-64,-133 86,-383 -164,-383 -47,0 -110,19 -134,44 -62,67 -14,78 39,79l0 0z"/>
  <path class="fil4" d="M5405 3804l82 0c12,-44 89,-160 120,-208l38 -59c1,-1 4,-4 6,-7l0 273 69 0 0 -370 -82 0 -164 274 0 -274 -68 0 0 370 0 0z"/>
  <path class="fil4" d="M5189 12440c-104,0 -153,-131 110,-137 0,45 6,137 -110,137zm-137 -219c48,0 47,4 69,-13 1,-1 39,-53 41,-55 81,0 73,-7 137,27l0 68c-41,4 -124,18 -164,27 -123,30 -140,189 19,215 56,9 120,-30 159,-50l0 41 68 0c-36,-158 58,-383 -150,-383 -101,0 -158,40 -178,123l0 0z"/>
  <path class="fil5" d="M3196 5602c137,0 110,-36 110,273l-205 0c84,-159 19,-273 96,-273l0 0zm-158 273l-20 10 0 143 41 0 0 -98 287 0c17,28 7,-33 14,40 1,13 -1,44 -1,59l41 0 0 -153 -41 0 0 -315 -259 0c0,129 0,240 -62,315z"/>
  <path class="fil4" d="M4985 1183c-50,0 -81,-19 -81,-68 0,-53 145,-60 191,-82 0,93 -18,150 -110,150l0 0zm-136 -232c31,7 31,10 68,13 5,-59 -2,-24 27,-68 116,0 93,-11 150,27l0 68c-361,8 -285,224 -145,241 70,9 107,-36 159,-50l0 41 69 0c-50,-216 75,-383 -178,-383 -130,0 -130,67 -150,110l0 0z"/>
  <path class="fil4" d="M4187 8848c76,0 107,20 109,109l-191 0c1,-63 30,-109 82,-109zm-164 136c0,245 300,264 342,82 -32,-7 -32,-10 -69,-13 -25,108 -167,123 -205,-41l274 0c0,-91 -13,-219 -164,-219 -115,0 -178,109 -178,191l0 0z"/>
  <path class="fil4" d="M5060 13247c-74,0 -68,-40 -68,-96 42,-20 121,-36 178,-41 0,45 7,136 -110,136l0 0zm-123 -219c112,-2 64,-130 233,-41l0 68c-147,12 -168,30 -246,82l0 109c124,84 147,60 260,0 14,56 4,40 68,41l-13 -247c0,-46 -1,-74 -25,-99 -59,-58 -273,-64 -276,85l0 0z"/>
  <path class="fil5" d="M2544 14331c2,-3 5,-10 6,-8l13 -15c1,-1 4,-5 7,-7 34,-30 125,-37 167,-39 0,97 -12,137 -150,137 -19,-27 -25,-38 -41,-68zm-41 -150c52,-1 39,16 96,-69 121,0 137,-10 137,96 -24,2 -117,15 -143,21 -58,16 -65,36 -104,61l0 110c113,76 133,67 260,0 15,55 4,39 68,41l-13 -247c-1,-200 -222,-133 -258,-106 -34,26 -43,36 -44,93l0 0z"/>
  <path class="fil5" d="M2979 1875c-74,0 -68,-40 -68,-96 21,-11 172,-68 187,-36 10,23 -16,132 -119,132l0 0zm-123 -232l54 15c14,-52 16,-30 42,-70l136 13c3,37 7,37 14,68 -92,44 -260,-2 -260,151 0,36 9,60 32,77 77,59 156,16 228,-23 14,56 4,40 68,41 -4,-56 -14,-74 -14,-150 1,-59 0,-119 0,-178 -81,-54 -28,-55 -178,-55 -70,0 -117,43 -123,110l0 0z"/>
  <path class="fil4" d="M2654 11503c77,0 107,20 110,110l-192 0c1,-50 24,-110 82,-110l0 0zm14 341c85,0 147,-50 164,-123 -31,-7 -31,-10 -68,-13 -28,119 -169,114 -205,-41l273 0c0,-91 -12,-219 -164,-219 -200,0 -234,305 -73,374 15,7 60,22 73,22z"/>
  <path class="fil4" d="M2756 9775c-84,41 -102,33 -164,0 0,-93 72,-107 191,-109 -1,47 -10,78 -27,109l0 0zm-219 -191c141,-3 -16,-68 205,-68 34,50 39,17 41,96 -119,10 -260,21 -260,136 0,110 125,145 260,55 28,53 3,41 82,41 -20,-43 -27,-253 -27,-328 -47,-32 -52,-55 -137,-55 -93,0 -156,35 -164,123z"/>
  <path class="fil5" d="M4874 12426l-123 0 0 -110 123 0c33,0 55,23 55,55 0,32 -22,55 -55,55l0 0zm-13 -164l-110 0 0 -96 110 0c27,0 55,24 55,41 0,32 -23,55 -55,55zm-164 219c112,0 301,25 301,-96 0,-56 -22,-74 -55,-96 138,-207 -119,-179 -247,-179l0 370z"/>
  <path class="fil4" d="M4879 479c-62,0 -121,-95 2,-120 50,-10 82,-12 121,-30 0,51 1,84 -24,113 -19,23 -62,37 -99,37zm-123 -232c36,10 11,-1 41,13 29,-21 35,-39 55,-68 116,0 93,-11 150,27l0 68c-46,0 -136,15 -167,24 -116,37 -112,133 -56,185 73,70 160,24 223,-19 28,53 3,41 82,41 -91,-190 126,-383 -205,-383 -74,0 -109,49 -123,110l0 0z"/>
  <path class="fil4" d="M2677 8182l14 0 27 0c31,46 49,36 55,109l-205 0c6,-67 38,-109 110,-109zm-178 136c0,113 36,175 145,199 47,10 91,-2 127,-22 44,-26 47,-52 70,-94 -37,-3 -38,-7 -69,-13 -33,122 -193,104 -205,-41l274 0c0,-64 -5,-104 -33,-146 -81,-125 -310,-90 -310,119l0 0z"/>
  <path class="fil4" d="M3490 8848c72,0 104,41 110,109l-205 0c13,-55 30,-109 96,-109l0 0zm-164 136c0,212 179,230 272,176 44,-26 48,-52 70,-94 -37,-3 -37,-7 -68,-13 -26,96 -121,98 -171,47 -21,-21 -31,-53 -34,-89l273 0c0,-312 -342,-268 -342,-27l0 0z"/>
  <path class="fil4" d="M2558 10499c-50,0 -82,-20 -82,-68 0,-49 137,-67 192,-69 0,86 -27,137 -110,137l0 0zm-126 -246c7,10 2,11 19,27l39 0c23,-100 174,-112 178,27 -390,32 -260,227 -146,241 70,9 107,-36 159,-50l0 41 68 0c-45,-95 30,-270 -50,-346 -43,-41 -219,-82 -267,59l0 0z"/>
  <path class="fil5" d="M3690 1875c-41,0 -55,-13 -81,-27l0 -68c47,-25 30,-19 94,-29 33,-4 70,-13 97,-26 0,73 -22,150 -110,150l0 0zm-136 -232c36,10 11,-1 41,13 29,-21 35,-39 55,-68l123 0c19,36 26,39 27,96 -357,0 -288,230 -148,244 57,5 116,-31 148,-53 28,53 3,41 82,41 -18,-37 -28,-172 -27,-233 2,-156 -35,-150 -178,-150 -73,0 -109,49 -123,110z"/>
  <polygon class="fil3" points="2861,3804 3148,3804 3148,3914 3203,3914 3203,3749 3162,3749 3162,3435 3093,3435 3093,3749 2929,3749 2929,3435 2861,3435 "/>
  <path class="fil5" d="M5426 8455l-123 0 0 -110c104,0 107,-10 178,27 0,31 2,82 -55,82zm-13 -164l-110 0 0 -96 110 0c26,0 54,24 54,41 0,33 -22,55 -54,55l0 0zm-164 219c87,0 284,30 301,-96 -15,-62 -8,-64 -55,-96 37,-54 27,-28 27,-136 -90,-61 -104,-41 -273,-41l0 370 0 0z"/>
  <path class="fil4" d="M5677 11503c81,0 95,44 110,110l-205 0c1,-76 49,-110 96,-110l0 0zm-164 123c0,89 -10,113 50,168 99,90 249,52 278,-73 -36,-10 -11,1 -41,-13 -32,24 -59,82 -96,82 -83,0 -121,-39 -123,-124 238,0 284,25 267,-59 -50,-246 -335,-186 -335,19l0 0z"/>
  <path class="fil4" d="M5882 15621l96 0c30,46 48,37 54,110l-204 0c6,-73 24,-64 54,-110zm-123 110c0,245 166,258 260,205 36,-20 64,-42 68,-96 -36,-10 -11,1 -41,-14 -45,33 -9,10 -39,44 -64,76 -178,40 -180,-84 182,0 345,50 247,-138 -41,-77 -177,-119 -258,-38 -27,26 -58,73 -58,121l0 0z"/>
  <path class="fil5" d="M4408 15120c-84,41 -102,33 -164,0l0 -68c61,-30 135,-28 191,-55 0,56 -8,87 -27,123l0 0zm-219 -191c52,-1 36,10 64,-19 1,-1 30,-48 32,-50 104,0 148,-13 150,96 -367,8 -280,232 -148,244 57,6 116,-30 148,-53 28,53 3,41 82,41 -27,-56 -27,-237 -27,-328 -58,-39 -36,-55 -137,-55 -93,0 -156,35 -164,124l0 0z"/>
  <path class="fil5" d="M4542 11791c-74,0 -68,-41 -68,-96 41,-19 132,-39 191,-41 -7,79 -34,137 -123,137l0 0zm-123 -219c141,-3 -16,-68 205,-68 21,32 36,44 41,96 -119,10 -260,21 -260,137 0,109 125,145 260,55 15,56 10,41 82,41 -41,-86 -27,-204 -27,-328 -70,-47 -158,-88 -256,-23 -33,22 -41,44 -45,91l0 0z"/>
  <path class="fil4" d="M3735 12964c81,0 95,44 110,110l-205 0c5,-59 37,-110 96,-110l0 0zm-164 123c0,240 179,237 260,192 36,-20 64,-43 68,-96 -36,-10 -11,1 -41,-13 -45,33 -9,10 -39,44 -65,76 -178,40 -181,-85 235,0 285,26 270,-62 -40,-232 -338,-188 -338,21l0 0z"/>
  <path class="fil4" d="M2826 5602c73,0 94,36 96,109l-164 0c-73,0 -27,-109 68,-109zm-178 150c0,36 27,102 41,123 44,67 159,81 234,41 39,-21 47,-59 67,-96 -31,-7 -32,-10 -68,-14 -35,129 -194,99 -205,-41l273 0c0,-317 -342,-268 -342,-13l0 0z"/>
  <path class="fil4" d="M2732 4428c-193,93 -264,-103 27,-110 -1,47 -10,78 -27,110zm-219 -192c119,-3 30,-68 150,-68 69,0 94,27 96,96 -45,4 -117,18 -163,27 -190,40 -90,333 163,164 28,53 4,41 82,41 -33,-68 -27,-224 -27,-328 -80,-54 -156,-76 -247,-28 -37,19 -50,45 -54,96l0 0z"/>
  <path class="fil5" d="M3860 15900c-74,0 -68,-41 -68,-96 44,-21 125,-41 191,-41 -1,84 -39,137 -123,137zm-123 -219c64,-1 39,16 96,-69l110 0c34,51 39,18 41,96 -351,8 -296,216 -159,242 62,12 124,-27 159,-50 15,56 10,41 82,41 -39,-81 -27,-210 -27,-328 -67,-45 -159,-90 -255,-22 -33,23 -42,43 -46,91l0 0z"/>
  <path class="fil4" d="M3544 3763c-61,0 -68,-18 -68,-96 52,-12 87,-39 191,-41 -1,81 -33,136 -123,136zm-123 -219c119,-3 30,-68 150,-68 68,0 90,32 96,96 -121,10 -260,24 -260,137 0,68 40,93 101,105 62,12 124,-27 159,-51 15,56 10,41 82,41 -36,-75 -27,-216 -27,-328 -139,-93 -290,-59 -301,68l0 0z"/>
  <path class="fil5" d="M5873 7212l-123 0 0 -110 123 0c32,0 55,23 55,55 0,32 -23,55 -55,55l0 0zm-13 -164l-110 0c0,-167 17,-96 150,-96 1,1 45,96 -41,96zm-164 219c88,0 204,13 261,-27 38,-27 73,-106 -15,-165 144,-214 -157,-178 -246,-178l0 370 0 0z"/>
  <path class="fil4" d="M6150 8182c89,0 104,27 124,109l-205 0c1,-54 -7,-39 22,-73 17,-19 33,-36 59,-36zm-150 123c0,109 12,186 145,212 90,17 165,-37 183,-116 -36,-10 -11,1 -41,-13 -38,27 -47,81 -110,81 -94,0 -93,-61 -123,-123 176,0 290,29 281,-46 -33,-258 -336,-206 -336,5l0 0z"/>
  <path class="fil5" d="M3469 5930l82 0 164 -274 0 274 55 0 0 -370 -68 0c-27,52 -136,239 -164,260l0 -260 -68 0 0 370 0 0z"/>
  <path class="fil4" d="M3401 4168c51,0 81,46 82,109l-191 0c1,-70 37,-109 109,-109zm-178 96c0,107 -13,137 51,196 99,90 248,52 277,-73 -36,-10 -11,1 -41,-13 -17,11 -99,150 -196,45 -36,-39 -13,-39 -36,-87l273 0c0,-336 -328,-221 -328,-68l0 0z"/>
  <path class="fil5" d="M3976 520c104,0 73,-36 178,-192l55 -81 0 273 68 0 0 -383c-81,0 -57,-20 -150,137 -17,29 -28,46 -46,77l-50 73 0 -287 -55 0 0 383 0 0z"/>
  <path class="fil5" d="M3528 14181c0,-68 106,-69 178,-69l0 137c-68,0 -178,-4 -178,-68zm27 96l0 27c-49,13 -86,93 -109,136l81 0c10,-36 37,-73 60,-104 29,-39 54,-46 118,-46l0 150 69 0 0 -369c-170,0 -298,-31 -307,98 -4,56 21,101 88,107z"/>
  <path class="fil5" d="M3659 3104c87,0 69,7 146,-127l101 -146 0 273 55 0 0 -370 -69 0 -76 129c-27,43 -54,107 -87,131l0 -260 -69 0 0 370 0 0z"/>
  <path class="fil5" d="M4056 3104l82 0c11,-48 13,-38 35,-74 19,-30 21,-39 41,-68l81 -124c1,-1 4,-4 7,-7l0 273 55 0 0 -370c-62,0 -59,-4 -86,38l-147 236 0 -274 -68 0 0 370 0 0z"/>
  <path class="fil5" d="M5008 3804c95,0 69,0 147,-126l99 -147 0 273 55 0 0 -370 -69 0c-24,47 -123,230 -164,260l0 -260 -68 0 0 370z"/>
  <path class="fil5" d="M4645 5930c89,0 82,-28 178,-191l55 -83 0 274 68 0 0 -370 -82 0c-12,50 -82,147 -119,210l-45 64 0 -273 -55 0 0 370 0 0z"/>
  <path class="fil5" d="M5339 8861c31,-23 84,-18 127,-7 8,34 21,107 -7,126 -71,8 -110,-10 -164,-24 0,-79 -18,-81 44,-96zm-112 0c0,74 -10,143 81,150l-109 164 82 0c62,-93 69,-141 178,-150l0 150 68 0 0 -370c-249,0 -190,-19 -301,55l0 0z"/>
  <path class="fil5" d="M5042 5930c91,0 72,-12 140,-121 26,-41 59,-115 93,-139l0 260 68 0 0 -370c-96,0 -62,-4 -147,126 -29,43 -63,122 -99,147l0 -273 -55 0 0 370 0 0z"/>
  <path class="fil5" d="M2550 7266c97,0 62,4 147,-126 29,-43 64,-122 99,-148l0 274 55 0 0 -370c-91,0 -72,11 -139,121 -27,41 -60,115 -93,139l0 -260 -68 0 0 370 0 0z"/>
  <path class="fil5" d="M4957 7266l287 0 0 109c64,-5 55,0 55,-123 0,-38 -11,-33 -41,-41l0 -315 -68 0 0 315 -178 0 0 -315 -55 0 0 370 0 0z"/>
  <path class="fil5" d="M5940 15188c91,0 72,-11 139,-120 27,-42 60,-115 93,-139l0 259 68 0 0 -369c-72,0 -70,-5 -101,50 -27,48 -110,198 -145,224l0 -273 -55 0 0 369 0 0z"/>
  <path class="fil5" d="M6356 12166c30,-22 84,-16 125,-7 10,36 21,107 -7,127 -96,7 -93,-8 -164,-24 0,-82 -19,-81 46,-96l0 0zm-114 55c0,61 24,91 81,96 -16,61 -76,90 -96,164l68 0c21,-30 43,-69 66,-99 28,-36 57,-47 112,-52l0 150 69 0 0 -370c-147,0 -301,-30 -301,110l0 0z"/>
  <path class="fil4" d="M3703 8469c-128,0 -173,-287 13,-287 127,0 133,287 -13,287zm-178 -136c0,187 206,236 303,139 60,-60 67,-199 7,-285 -61,-88 -310,-106 -310,146z"/>
  <path class="fil4" d="M4801 10348l27 -96c44,-68 192,-66 192,96 0,200 -219,200 -219,0l0 0zm-69 0c0,39 27,121 47,145 22,29 89,59 132,59 158,-1 227,-198 132,-336 -73,-105 -310,-75 -310,132z"/>
  <path class="fil3" d="M4466 1225l68 0 0 -164 164 0 0 164 68 0 0 -383c-82,1 -68,-6 -68,164l-164 0c0,-170 13,-162 -68,-164l0 383z"/>
  <path class="fil4" d="M4103 10499c-105,0 -140,-160 -83,-247 54,-81 193,-43 193,96 0,76 -41,150 -110,150l0 0zm-178 -137c0,250 356,246 356,0 0,-265 -356,-284 -356,0z"/>
  <path class="fil4" d="M2506 15750c0,-185 219,-186 219,0 0,199 -219,199 -219,0zm287 0c0,-234 -301,-253 -341,-68 -74,341 341,353 341,68z"/>
  <path class="fil4" d="M3620 370l0 -123c78,-53 13,-55 150,-55 54,81 55,29 55,178 0,141 -205,141 -205,0zm-68 -55c0,322 342,237 342,55 0,-339 -270,-224 -304,-181 -21,26 -38,81 -38,127l0 0z"/>
  <path class="fil5" d="M3317 897l55 0c50,74 55,30 55,164 0,139 -199,188 -213,-18 -5,-72 19,-146 104,-146l0 0zm-164 96l0 68c0,220 342,263 342,-41 0,-56 -15,-93 -41,-123 -95,-107 -301,-53 -301,96l0 0z"/>
  <path class="fil5" d="M3729 6425c0,-207 219,-184 219,-41 0,280 -219,184 -219,41zm-55 -55l0 96c0,169 342,240 342,-55 0,-263 -342,-235 -342,-41l0 0z"/>
  <path class="fil5" d="M3574 15147c-176,0 -160,-287 -13,-287 104,0 130,144 82,233 -10,19 -49,54 -69,54l0 0zm-191 -150c0,120 55,197 166,201 41,2 97,-21 125,-47 86,-79 81,-346 -113,-346 -116,0 -178,77 -178,192l0 0z"/>
  <path class="fil5" d="M2481 12303c0,-200 219,-187 219,-41 0,281 -219,181 -219,41zm-55 -55l0 96c0,170 341,240 341,-54 0,-266 -341,-228 -341,-41z"/>
  <path class="fil5" d="M2649 479c-65,0 -109,-64 -109,-150 0,-84 23,-89 55,-136 67,0 164,-11 164,136 0,76 -40,150 -110,150l0 0zm-178 -150c0,193 183,254 292,155 67,-62 139,-346 -141,-346 -90,0 -151,98 -151,191z"/>
  <path class="fil5" d="M3577 9666c0,-179 219,-236 219,13 0,167 -219,161 -219,-13zm-55 -55l0 96c0,136 210,201 304,86 56,-70 72,-332 -140,-332 -84,0 -164,64 -164,150z"/>
  <path class="fil5" d="M3398 7116c0,-150 1,-98 55,-178l96 0c54,80 54,28 54,178 0,146 -205,144 -205,0zm-68 -55c0,105 26,209 166,216 235,10 236,-393 12,-393 -107,0 -178,70 -178,178z"/>
  <path class="fil5" d="M2614 8998c0,-207 219,-184 219,-41 0,274 -219,190 -219,41zm-54 -55l0 96c0,169 341,240 341,-55 0,-265 -341,-228 -341,-41l0 0z"/>
  <path class="fil5" d="M5908 12960c149,0 156,287 0,287 -138,0 -138,-287 0,-287zm-164 123c0,70 -4,113 44,161 76,76 299,113 299,-176 0,-199 -342,-238 -342,14z"/>
  <polygon class="fil4" points="4447,9176 4516,9176 4516,9012 4679,9012 4679,9176 4747,9176 4747,8806 4679,8806 4679,8957 4516,8957 4516,8806 4447,8806 "/>
  <polygon class="fil3" points="3612,11831 3680,11831 3680,11517 3844,11517 3844,11831 3913,11831 3913,11462 3612,11462 "/>
  <polygon class="fil4" points="5248,6603 5316,6603 5316,6438 5480,6438 5480,6603 5549,6603 5549,6233 5480,6233 5480,6383 5316,6383 5316,6233 5248,6233 "/>
  <polygon class="fil4" points="4844,9176 4912,9176 4912,9012 5076,9012 5076,9176 5145,9176 5145,8806 5076,8806 5076,8957 4912,8957 4912,8806 4844,8806 "/>
  <polygon class="fil3" points="3263,3104 3331,3104 3331,2940 3495,2940 3495,3104 3563,3104 3563,2735 3495,2735 3495,2885 3331,2885 3331,2735 3263,2735 "/>
  <polygon class="fil3" points="2129,4496 2198,4496 2198,4181 2362,4181 2362,4496 2430,4496 2430,4127 2129,4127 "/>
  <polygon class="fil4" points="5859,12480 5927,12480 5927,12316 6092,12316 6092,12480 6160,12480 6160,12111 6092,12111 6092,12262 5927,12262 5927,12111 5859,12111 "/>
  <polygon class="fil4" points="5462,12480 5531,12480 5531,12316 5695,12316 5695,12480 5763,12480 5763,12111 5695,12111 5695,12262 5531,12262 5531,12111 5462,12111 "/>
  <path class="fil5" d="M2524 2927c0,-176 219,-236 219,13 0,175 -219,153 -219,-13zm-55 -55l0 96c0,169 342,240 342,-55 0,-53 -19,-104 -44,-133 -99,-114 -298,-36 -298,93l0 0z"/>
  <path class="fil5" d="M4383 9666c0,-207 219,-184 219,-41 0,241 -151,184 -189,134 -12,-15 -30,-73 -30,-93l0 0zm-55 -55l0 96c0,126 190,201 298,93 73,-73 75,-339 -133,-339 -82,0 -164,69 -164,150l0 0z"/>
  <path class="fil5" d="M3366 11503c156,0 144,287 0,287 -139,0 -144,-287 0,-287zm-164 96l0 68c0,214 341,276 341,-54 0,-213 -341,-211 -341,-14z"/>
  <path class="fil6" d="M5470 10539c99,0 72,-19 145,-128 32,-47 64,-117 101,-145l0 273 54 0 0 -369c-76,0 -64,-13 -146,127 -35,61 -57,117 -100,133l0 -260 -55 0 0 369z"/>
  <path class="fil5" d="M4988 8182c159,0 138,287 14,287 -156,0 -159,-287 -14,-287zm-164 123c0,118 40,221 176,216 227,-10 224,-393 -12,-393 -97,0 -164,79 -164,178z"/>
  <path class="fil5" d="M2628 3763c-34,0 -73,-11 -91,-32 -92,-105 17,-361 150,-219 79,84 14,250 -59,250zm-191 -150l0 14c0,267 341,214 341,41l0 -96c0,-175 -341,-227 -341,41l0 0z"/>
  <path class="fil5" d="M2473 1821l0 27c-36,18 -14,13 -68,14l0 55c156,0 137,-27 137,-328l164 0 0 328 55 0 0 -383 -287 0 0 287 0 0z"/>
  <path class="fil5" d="M3859 3709l0 27c-36,17 -15,12 -69,13l0 55c151,0 124,18 124,-315l164 0 0 315 68 0 0 -370 -287 0 0 274 0 0z"/>
  <path class="fil4" d="M5375 13138c0,47 -10,53 -13,96 -61,1 -64,-4 -69,55l123 -14c24,-104 14,-177 14,-301l164 0 0 315 69 0 0 -370 -287 0 0 219 0 0z"/>
  <path class="fil5" d="M4036 11736l0 27c-36,17 -15,13 -68,13l0 55 96 0c63,-94 41,-130 41,-315l164 0 0 315 55 0 0 -370 -287 0 0 274 0 0z"/>
  <path class="fil5" d="M4373 520l55 0 0 -164 178 0 0 164 68 0c0,-369 32,-381 -68,-383l0 164c-210,0 -178,32 -178,-164l-55 0 0 383z"/>
  <path class="fil4" d="M2649 6616c0,64 -59,93 -110,68 3,127 119,70 159,-33l156 -419 -69 0c-15,67 -73,190 -96,287 -7,-10 -7,-7 -16,-26 -7,-16 -7,-20 -13,-41l-80 -221 -69 0c21,40 137,339 137,383l0 0z"/>
  <path class="fil0" d="M461 8591l701 0 0 51 -701 0 0 -51zm-52 103l804 0 0 -154 -804 0 0 154z"/>
  <path class="fil4" d="M5163 9857c0,64 -59,93 -110,68 3,135 119,59 151,-13 10,-23 17,-47 24,-70 13,-36 19,-42 31,-79 16,-46 36,-93 51,-140 16,-50 36,-106 57,-149l-69 0c-24,101 -71,183 -96,287 -25,-36 -35,-89 -53,-139 -11,-32 -19,-43 -28,-68 -12,-33 -16,-53 -29,-81l-68 0c21,40 137,339 137,383l0 0z"/>
  <path class="fil5" d="M4437 12480c0,18 -23,66 -34,76 -27,27 -48,19 -76,6 3,123 101,77 146,-19 21,-46 37,-87 54,-137 17,-51 31,-88 52,-140 21,-53 44,-93 49,-156 -86,2 -47,-15 -97,121 -14,38 -53,116 -53,166l-13 0c0,-42 -82,-227 -96,-287l-68 0c11,24 137,364 137,370l0 0z"/>
  <path class="fil5" d="M2166 15284c12,24 10,17 13,54 127,0 119,-32 200,-238l101 -281 -68 0c-8,93 -74,173 -82,273l-27 0c-8,-101 -74,-181 -82,-273l-68 0c21,87 64,182 94,261 14,36 41,100 33,127 -15,60 -56,75 -113,76l0 0z"/>
  <polygon class="fil5" points="4611,3804 4679,3804 4679,3640 4857,3640 4857,3804 4912,3804 4912,3435 4857,3435 4857,3585 4679,3585 4679,3435 4611,3435 "/>
  <polygon class="fil5" points="5379,15188 5447,15188 5447,15024 5625,15024 5625,15188 5680,15188 5680,14819 5625,14819 5625,14969 5447,14969 5447,14819 5379,14819 "/>
  <polygon class="fil5" points="5130,11831 5198,11831 5198,11667 5376,11667 5376,11831 5431,11831 5431,11462 5376,11462 5376,11613 5198,11613 5198,11462 5130,11462 "/>
  <polygon class="fil5" points="2154,9844 2209,9844 2209,9679 2387,9679 2387,9844 2455,9844 2455,9474 2387,9474 2387,9624 2209,9624 2209,9474 2154,9474 "/>
  <polygon class="fil5" points="5617,8510 5686,8510 5686,8346 5864,8346 5864,8510 5919,8510 5919,8141 5864,8141 5864,8291 5686,8291 5686,8141 5617,8141 "/>
  <polygon class="fil5" points="4248,5930 4303,5930 4303,5766 4481,5766 4481,5930 4550,5930 4550,5561 4481,5561 4481,5711 4303,5711 4303,5561 4248,5561 "/>
  <polygon class="fil5" points="3870,14440 3925,14440 3925,14276 4103,14276 4103,14440 4171,14440 4171,14071 4103,14071 4103,14222 3925,14222 3925,14071 3870,14071 "/>
  <polygon class="fil5" points="3188,13292 3256,13292 3256,13127 3434,13127 3434,13292 3489,13292 3489,12922 3434,12922 3434,13073 3256,13073 3256,12922 3188,12922 "/>
  <polygon class="fil5" points="2100,3104 2169,3104 2169,2790 2333,2790 2333,3104 2387,3104 2387,2735 2100,2735 "/>
  <path class="fil4" d="M5188 15133l-110 0 0 -123c98,0 95,-9 164,27 0,36 7,96 -54,96l0 0zm-178 55c241,0 301,20 301,-164 -87,-58 -73,-69 -233,-69l0 -136 -68 0 0 369 0 0z"/>
  <path class="fil4" d="M5265 14385l-96 0 0 -123c107,0 156,-14 178,82l-27 27c-19,11 -24,13 -55,13zm-164 55c250,0 301,22 301,-164 -33,-22 -32,-35 -74,-50 -55,-20 -100,-19 -159,-19l0 -136 -68 0 0 369 0 0z"/>
  <path class="fil4" d="M2339 1916l0 -367 -276 0c-28,41 -13,314 -13,367l68 0 0 -328 164 0 0 328 57 0z"/>
  <path class="fil5" d="M4420 3749l-110 0 0 -123c76,0 98,-4 164,27 0,36 7,96 -54,96l0 0zm-178 55c119,0 301,30 301,-110 0,-133 -140,-110 -233,-110l0 -150 -68 0 0 370 0 0z"/>
  <path class="fil5" d="M2909 6603l68 0 0 -328c208,0 164,-56 164,328l55 0 0 -370 -287 0 0 370z"/>
  <path class="fil5" d="M3354 15941l68 0 0 -328c208,0 164,-56 164,328l55 0 0 -369 -287 0 0 369z"/>
  <path class="fil4" d="M3009 10266c81,0 64,-7 96,-55 135,0 135,110 0,110 5,59 2,44 54,56 61,15 56,24 56,95 -57,30 -84,47 -139,-11 -36,-38 9,-30 -80,-30 59,256 433,53 232,-82 7,-10 90,-95 10,-159 -67,-53 -199,-50 -228,77l0 0z"/>
  <path class="fil4" d="M2161 14167c81,0 64,-7 96,-55 135,0 135,110 0,110l0 55c99,0 110,-1 110,96 -57,30 -84,47 -139,-12 -36,-37 9,-29 -80,-29 60,257 430,50 233,-82 92,-138 -2,-192 -96,-192 -73,0 -109,49 -123,110l0 0z"/>
  <path class="fil4" d="M2887 11558c42,4 26,0 55,13 20,-75 54,-68 110,-68 39,75 46,110 -69,110l0 54c190,0 99,124 27,124 -66,0 -27,-66 -136,-69 14,172 270,147 287,14 -14,-63 -8,-64 -55,-96 99,-148 -29,-192 -96,-192 -67,0 -118,46 -123,110l0 0z"/>
  <path class="fil4" d="M2042 924c9,14 2,12 16,27l41 0c10,-41 5,-22 27,-55 91,0 96,-12 96,81 -36,19 -40,27 -96,27l0 41c40,9 41,13 96,13 10,41 13,42 13,96 -90,48 -121,27 -164,-54 -25,12 -17,10 -55,13 27,115 116,138 194,113 104,-34 132,-132 39,-195 27,-40 65,-84 23,-146 -33,-49 -183,-95 -231,37l0 0z"/>
  <path class="fil4" d="M2881 287c0,78 -12,230 153,244 32,3 90,-19 110,-35 27,-23 47,-70 51,-113l-68 0c-3,132 -125,102 -162,53 -13,-19 -25,-76 -27,-96 -1,-19 12,-79 20,-99 20,-45 51,-49 101,-49 69,0 32,64 97,68 21,1 27,-1 33,-16 1,-4 -16,-107 -116,-107 -93,0 -192,25 -192,150z"/>
  <path class="fil6" d="M4627 15092l0 27c-36,17 -15,13 -69,13l0 55 69 0c131,0 -17,-328 96,-328 174,0 137,-50 137,328l54 0 0 -369 -287 0 0 273 0 0z"/>
  <path class="fil6" d="M3013 15092l0 27c-36,17 -15,13 -68,13l0 55 68 0c131,0 -16,-328 96,-328 174,0 137,-50 137,328l55 0 0 -369 -287 0 0 273 0 0z"/>
  <path class="fil4" d="M2171 6411c0,312 333,195 322,79 -3,-35 -19,-23 -63,-24 -3,42 -4,43 -30,66 -167,145 -233,-257 -66,-257 120,0 32,65 150,68 -16,-185 -314,-167 -314,68l0 0z"/>
  <path class="fil4" d="M4404 14235c0,250 191,244 270,176 33,-28 43,-50 44,-107 -87,1 -43,-8 -75,48 -49,87 -172,46 -172,-62l0 -123c54,-36 93,-101 167,-16 34,39 -1,30 80,30 -46,-196 -315,-156 -315,54l0 0z"/>
  <polygon class="fil6" points="4147,15941 4202,15941 4202,15777 4380,15777 4380,15941 4435,15941 4435,15572 4380,15572 4380,15722 4202,15722 4202,15572 4147,15572 "/>
  <polygon class="fil6" points="4164,7266 4219,7266 4219,7102 4396,7102 4396,7266 4451,7266 4451,6897 4396,6897 4396,7047 4219,7047 4219,6897 4164,6897 "/>
  <path class="fil5" d="M2882 8236l68 0c44,-82 67,-54 123,-41l0 82c-32,7 -40,13 -81,13l0 55c120,0 78,3 109,68 -27,32 -76,94 -147,24 -47,-47 23,-35 -72,-37 1,53 4,59 36,87 119,101 278,-26 237,-127 -2,-3 -5,-10 -7,-7 -1,1 -9,-10 -13,-13 -16,-13 -20,-13 -35,-21 7,-10 90,-95 9,-159 -51,-41 -130,-41 -181,0 -24,20 -33,52 -46,77l0 0z"/>
  <path class="fil4" d="M3708 8902l69 0c43,-82 67,-54 123,-41l0 82c-54,13 -69,4 -96,41 30,41 24,27 96,27 11,24 16,44 27,68 -27,32 -76,94 -147,24 -48,-47 22,-35 -73,-37 4,166 274,159 274,0 0,-56 -13,-71 -55,-82 27,-41 41,-27 41,-82 0,-126 -150,-130 -214,-77 -24,20 -33,52 -46,77l0 0z"/>
  <path class="fil4" d="M3967 13101c0,267 310,255 315,54 -78,2 -40,-1 -73,50 -32,48 -173,120 -173,-131 0,-70 82,-167 166,-71 34,40 -1,30 80,30 -39,-166 -208,-137 -270,-65 -26,30 -44,81 -44,134l0 0z"/>
  <path class="fil5" d="M4708 13069l-7 36 55 19c19,12 27,15 45,27l0 68c-37,20 -65,40 -110,16 -78,-44 11,-56 -109,-56 59,254 430,50 233,-82l44 -53c-7,-181 -227,-181 -262,-29 80,0 63,-7 96,-55 55,0 114,7 96,68 -27,40 -16,39 -79,41l0 0z"/>
  <path class="fil4" d="M3876 12343c-13,156 -192,112 -192,-41 0,-70 27,-150 96,-150 120,0 32,66 151,68 -14,-163 -243,-156 -293,-19 -27,75 -19,168 19,224 59,87 219,84 271,-19 27,-56 16,-63 -52,-64l0 0z"/>
  <path class="fil4" d="M2081 3599c0,270 221,235 276,167 16,-19 62,-99 10,-99 -61,0 -30,96 -123,96 -192,0 -93,-422 70,-248 36,38 -9,30 80,30 -20,-42 -10,-55 -51,-85 -102,-77 -263,-22 -263,140l0 0z"/>
  <path class="fil4" d="M3852 5684c0,137 148,116 233,96l0 150 68 0 0 -370 -68 0c0,205 27,178 -137,178 -47,-70 -41,-83 -41,-178l-55 0 0 123 0 0z"/>
  <path class="fil5" d="M2126 12480l54 0 0 -164c71,6 122,100 137,164l68 0c-19,-84 -99,-156 -123,-191l54 -97c41,-64 61,19 69,-81l-81 0c-87,164 -44,149 -124,151l0 -151 -54 0 0 370z"/>
  <path class="fil5" d="M2923 4496l55 0 0 -164c67,6 73,44 136,164l69 0c-92,-173 -50,-83 -123,-192 80,-119 33,-116 109,-123l0 -55c-178,0 -49,139 -191,150l0 -150 -55 0 0 370 0 0z"/>
  <path class="fil7" d="M366 3392c16,24 2,27 41,27l780 0c39,0 25,-6 41,-27 -16,-23 -2,-27 -41,-27l-780 0c-24,0 -37,7 -41,27z"/>
  <path class="fil5" d="M2150 15941l55 0 0 -164c61,5 56,19 85,65 21,34 34,65 52,99l68 0c-10,-36 -37,-76 -57,-107 -30,-47 -53,-58 -79,-99 101,-27 9,-96 123,-123l0 -41c-176,0 -57,139 -192,150l0 -150 -55 0 0 369 0 0z"/>
  <path class="fil5" d="M3238 8510l55 0 0 -164c67,6 73,44 137,164l68 0c-84,-160 -84,-127 -137,-205 43,-12 46,-13 69,-110l54 0 0 -55c-176,0 -57,139 -191,150l0 -150 -55 0 0 370 0 0z"/>
  <path class="fil3" d="M3212 1588l110 0 0 328 68 0 0 -328 123 0c-7,-81 -21,-55 -301,-55l0 55 0 0z"/>
  <path class="fil3" d="M3224 192l110 0 0 328 68 0 0 -328 123 0c-7,-81 -22,-55 -301,-55l0 55 0 0z"/>
  <polygon class="fil3" points="4110,897 4219,897 4219,1225 4288,1225 4288,897 4397,897 4397,842 4110,842 "/>
  <path class="fil3" d="M6184 15485l0 96 -41 0 0 41 41 0 13 315 123 13 0 -55c-53,-1 -32,4 -68,-13l0 -260 55 0 0 -41 -55 0 0 -137c-30,16 -41,23 -68,41l0 0z"/>
  <path class="fil3" d="M4496 8195l109 0 0 315 69 0 0 -315c123,0 118,10 123,-55l-301 0 0 55z"/>
  <path class="fil3" d="M4698 9529l110 0 0 315 68 0 0 -315c123,0 118,10 123,-55l-301 0 0 55 0 0z"/>
  <polygon class="fil3" points="3972,12166 4081,12166 4081,12480 4150,12480 4150,12166 4259,12166 4259,12111 3972,12111 "/>
  <polygon class="fil3" points="5115,10225 5224,10225 5224,10539 5293,10539 5293,10225 5402,10225 5402,10170 5115,10170 "/>
  <path class="fil6" d="M6389 15566c-25,13 -18,11 -55,14l0 41 55 0c0,347 -29,328 123,328l0 -55 -55 0c-24,-101 -14,-152 -14,-273l69 0 0 -41c-54,-1 -33,4 -69,-14l0 -109c-76,17 -54,17 -54,109z"/>
  <polygon class="fil5" points="366,3009 1228,3009 1228,2968 366,2968 "/>
  <path class="fil3" d="M6567 15471l0 479 68 0 0 -519c-44,1 -68,-4 -68,41z"/>
  <path class="fil3" d="M407 3214l821 0 0 -41 -862 0c8,30 3,41 41,41z"/>
  <polygon class="fil5" points="2832,12977 2955,12977 2955,13292 3010,13292 3010,12977 3133,12977 3133,12922 2832,12922 "/>
  <polygon class="fil5" points="3579,4181 3702,4181 3702,4496 3757,4496 3757,4181 3880,4181 3880,4127 3579,4127 "/>
  <path class="fil5" d="M2079 10225l123 0 0 314 55 0 0 -314c123,0 118,10 123,-55l-301 0 0 55z"/>
  <path class="fil5" d="M4775 11517l123 0 0 315 55 0 0 -315c123,0 118,10 123,-55l-301 0 0 55z"/>
  <path class="fil5" d="M5609 15621c-13,-16 -9,16 -13,-41l-55 0 0 369 55 0c0,-127 -13,-213 41,-314 56,0 44,-5 82,13 7,-31 10,-31 13,-68 -27,-7 -100,-44 -123,41l0 0z"/>
  <path class="fil6" d="M4746 14112c157,0 123,-47 123,328l55 0c0,-375 -34,-328 123,-328l0 -41 -301 0 0 41z"/>
  <path class="fil6" d="M5327 6938c157,0 123,-47 123,328l55 0c0,-376 -34,-328 123,-328l0 -41 -301 0 0 41z"/>
  <path class="fil6" d="M2740 15188l55 0 0 -287c0,-32 10,-41 41,-41l110 0 0 -41 -205 0 0 369 0 0z"/>
  <path class="fil3" d="M3973 883l0 342 68 0 0 -383c-44,1 -68,-4 -68,41l0 0z"/>
  <polygon class="fil3" points="4530,15941 4598,15941 4598,15572 4530,15572 "/>
  <polygon class="fil3" points="4468,6603 4537,6603 4537,6233 4468,6233 "/>
  <polygon class="fil3" points="6065,7266 6133,7266 6133,6897 6065,6897 "/>
  <polygon class="fil3" points="5775,15188 5844,15188 5844,14819 5775,14819 "/>
  <path class="fil6" d="M462 3624c17,10 15,14 41,14l533 0 0 -41 -533 0c-25,0 -38,7 -41,27z"/>
  <polygon class="fil6" points="4721,15941 4776,15941 4776,15572 4721,15572 "/>
  <polygon class="fil6" points="2709,13292 2764,13292 2764,12922 2709,12922 "/>
  <polygon class="fil6" points="3323,14440 3378,14440 3378,14071 3323,14071 "/>
  <polygon class="fil6" points="4267,14440 4321,14440 4321,14071 4267,14071 "/>
  <polygon class="fil6" points="3271,3804 3326,3804 3326,3435 3271,3435 "/>
  <path class="fil0" d="M324 9685c0,-68 51,-69 119,-69 1,2 56,119 -51,119 -33,0 -69,-31 -69,-51l0 0zm-52 -18c0,194 362,157 189,-103 -71,0 -189,-9 -189,103z"/>
  <path class="fil0" d="M1160 9669l18 -19c12,-19 8,-14 18,-32l86 0c28,104 22,22 0,119l-86 0 -35 -68zm-50 -1c0,117 100,119 188,119 72,-107 70,-117 0,-222 -59,0 -111,-8 -146,25 -6,6 -42,76 -42,78l0 0z"/>
  <path class="fil8" d="M462 3830c16,23 2,27 41,27l383 0c39,0 25,-6 41,-27 -44,-24 -447,-21 -465,0z"/>
  <path class="fil9" d="M1400 4458l-692 0c0,-69 16,-413 -12,-464l7 469c63,19 681,19 696,-4z"/>
  <polygon class="fil3" points="4323,13141 4515,13141 4515,13073 4323,13073 "/>
  <path class="fil0" d="M872 4075l273 0c38,0 33,-10 41,-41l-315 0 0 41z"/>
  <path class="fil10" d="M4126 96c70,0 95,-27 96,-96l-41 0c-15,57 -6,29 -55,55 -48,-26 -39,2 -54,-55l-41 0c1,68 27,96 96,96z"/>
  <path class="fil11" d="M5487 3366c73,36 169,36 178,-68 -107,11 17,41 -110,41 -77,0 17,-39 -96,-41 11,24 16,44 27,68l0 0z"/>
  <path class="fil11" d="M4138 2667c73,36 169,36 178,-68 -107,11 17,41 -110,41 -58,0 -10,-34 -96,-41 11,24 16,44 27,68l0 0z"/>
  <path class="fil3" d="M6090 14764c90,0 78,-22 110,-82 -119,3 -6,41 -110,41 -58,0 -10,-34 -96,-41 13,53 30,82 96,82z"/>
  <path class="fil3" d="M5192 5506l55 0c24,-36 32,-38 55,-81 -119,2 -6,41 -110,41 -58,0 -10,-34 -96,-41 13,53 31,81 96,81l0 0z"/>
  <path class="fil12" d="M2339 1916c11,-21 4,22 10,-28l1 -355 -219 -1c-6,0 -36,1 -40,1 -30,7 -10,2 -28,15l276 0 0 367 0 0z"/>
  <path class="fil13" d="M192 12419c26,-44 12,-270 11,-321l-93 -7c-61,11 -11,1 -36,14l118 0 0 315 0 0z"/>
  <path class="fil14" d="M4530 15462c0,46 24,40 68,41l0 -81c-44,1 -68,-4 -68,41l0 0z"/>
  <path class="fil14" d="M6065 6787c0,46 24,41 68,41l0 -82c-44,1 -68,-4 -68,41l0 0z"/>
  <path class="fil3" d="M1048 1050c18,29 14,24 22,59 90,-2 90,-1 92,-91 -49,-13 -16,1 -56,-19l-59 52 0 0z"/>
  <polygon class="fil2" points="4653,15517 4721,15517 4721,15449 4653,15449 "/>
  <polygon class="fil4" points="4776,15517 4844,15517 4844,15449 4776,15449 "/>
  <polygon class="fil2" points="3973,774 4041,774 4041,705 3973,705 "/>
  <polygon class="fil11" points="4267,14002 4321,14002 4321,13921 4267,13921 "/>
  <polygon class="fil11" points="3323,14002 3378,14002 3378,13921 3323,13921 "/>
  <polygon class="fil10" points="2709,12854 2764,12854 2764,12772 2709,12772 "/>
  <polygon class="fil5" points="3271,3366 3326,3366 3326,3298 3271,3298 "/>
  <path class="fil0" d="M5788 14737c19,13 -24,13 42,13 15,-30 13,-16 14,-61l-56 -12 -1 60z"/>
  <path class="fil15" d="M6474 12286c29,-21 17,-92 7,-127 -41,-9 -96,-16 -125,7l118 0 0 121z"/>
  <path class="fil16" d="M5459 8981c27,-19 15,-92 7,-126 -44,-11 -96,-16 -127,7l121 0 0 119z"/>
  <path class="fil2" d="M4480 6151c4,40 46,1 47,0l0 -56 -47 0 0 56z"/>
  <path class="fil17" d="M3059 6028l-41 0 0 -143 20 -10 -34 0 0 164c8,0 23,1 27,-1 32,-7 17,-4 28,-10l0 0z"/>
  <path class="fil18" d="M4480 6151l0 -56 47 0 0 56 10 -68 -70 0c0,8 -1,33 1,41 5,23 5,16 12,27l0 0z"/>
  <path class="fil19" d="M3401 6029l-41 0c0,-15 1,-46 1,-59 -7,-73 3,-12 -14,-40l0 109 55 -10 0 0z"/>
  <path class="fil19" d="M5788 14737l1 -60 56 12c-25,-24 11,-10 -28,-19 -8,-2 -31,-1 -41,-1 0,8 -1,33 1,40 5,23 6,17 12,28l0 0z"/>
  <path class="fil20" d="M4756 13124l-55 -19 7 -36c-13,17 -16,-18 -16,55l64 0 0 0z"/>
  <path class="fil21" d="M2915 12138c-3,-4 -10,-11 -11,-13 -1,-1 -5,-6 -7,-7 -1,-1 -4,-4 -7,-7l0 44 24 -16z"/>
  <path class="fil22" d="M2451 10280c-17,-16 -13,-17 -19,-27l-13 27 32 1 0 0z"/>
  <path class="fil23" d="M2058 952c-14,-16 -7,-13 -16,-27l-12 27 28 1z"/>
 </g>
</svg>
