<?xml version="1.0" encoding="UTF-8"?>
<!DOCTYPE svg PUBLIC "-//W3C//DTD SVG 1.1//EN" "http://www.w3.org/Graphics/SVG/1.1/DTD/svg11.dtd">
<!-- Creator: CorelDRAW X7 -->
<svg xmlns="http://www.w3.org/2000/svg" xml:space="preserve" width="189.809mm" height="123.279mm" version="1.1" style="shape-rendering:geometricPrecision; text-rendering:geometricPrecision; image-rendering:optimizeQuality; fill-rule:evenodd; clip-rule:evenodd"
viewBox="0 0 19039 12366"
 xmlns:xlink="http://www.w3.org/1999/xlink">
 <defs>
  <style type="text/css">
   <![CDATA[
    .fil6 {fill:#919395}
    .fil2 {fill:#919496}
    .fil5 {fill:#929597}
    .fil1 {fill:#ED1B24}
    .fil4 {fill:#ED1C29}
    .fil7 {fill:#F69578}
    .fil8 {fill:#F8A88D}
    .fil3 {fill:#FDFEFD}
    .fil0 {fill:white}
   ]]>
  </style>
 </defs>
 <g id="Слой_x0020_1">
  <metadata id="CorelCorpID_0Corel-Layer"/>
  <path class="fil0" d="M13356 10645l-2 239 -177 6 -1 -768c83,0 189,20 210,19 0,0 390,-145 479,179 89,323 -228,464 -509,325zm-1534 -162c-94,356 -800,293 -700,-154 80,-360 815,-284 700,154zm3123 202l-170 6 -7 -569c109,0 173,-36 179,62 460,-233 504,68 458,506l-168 0c-17,-165 60,-455 -135,-451 -214,4 -146,281 -157,446zm-2832 0l-170 6 -1 -587 202 59c201,-101 272,-81 418,49 413,-314 523,39 469,478l-169 -1 -46 -426c-284,-131 -231,234 -246,423l-165 4c-17,-173 59,-455 -133,-450 -215,7 -146,259 -159,445zm-1259 -226l184 0c-5,314 -661,363 -688,-26 -27,-404 624,-458 684,-91l-164 0c-74,-35 -44,-118 -192,-101 -193,22 -176,311 -3,330 123,13 130,-46 179,-112zm3159 -150c22,-209 293,-251 487,-184 194,66 103,349 146,565 -141,0 -192,-33 -213,-35 -15,-2 -134,53 -211,54 -186,2 -355,-143 -225,-288 106,-118 433,-30 448,-137 13,-87 -149,-79 -204,-45 -105,65 0,84 -228,70zm1543 580l-1 -136c270,0 160,-99 83,-270 -51,-113 -124,-242 -164,-360l196 0 141 346 169 -345 191 0c-49,142 -152,315 -222,458 -118,242 -73,307 -393,307zm-1793 -3224l581 0 1 1221 825 1 0 394 -1408 0 1 -1616zm-10847 1236c7,-100 46,-147 144,-158 443,-48 357,145 357,541 -339,1 -49,-59 -268,2 -99,28 -207,-5 -237,-71 -124,-273 247,-317 320,-219 42,-248 -110,-102 -189,-91 -29,4 -96,-1 -127,-4zm3026 -1233c263,-16 1343,-30 1533,43 173,66 312,247 293,510 -26,342 -206,302 -362,425l390 634 -571 1c-173,0 -265,-524 -423,-588l-280 0 0 586 -580 0 0 -1611zm-1996 -3l1115 0c475,0 837,255 617,750 -167,374 -704,285 -1151,298l1 568 -580 0 -2 -1616zm7890 0l1728 9 0 352 -571 7 -1 1249 -582 0 -1 -1253 -573 -8 0 -356zm-1874 0l1728 0 0 362 -571 3 -1 1252c-144,0 -457,13 -582,-9l-3 -1245 -571 -4 0 -359zm-155 1272l2 344 -1726 0 0 -1616 1705 9 0 353 -1116 -3 -4 260c161,0 947,-19 1040,12l-2 356c-96,37 -872,14 -1038,14l0 243 1031 -1c5,0 64,0 65,0 49,9 17,-4 43,29zm8936 -2752l-18451 -1 -3 5899 18456 0 -2 -5898z"/>
  <path class="fil1" d="M4971 4861l935 -3134 1274 -1 950 3133 -849 5 -170 -545 -1126 5c-22,140 -83,536 -238,543 -219,8 -559,8 -776,-6zm4288 -695l1457 7c20,84 15,594 4,693l-2227 8c0,0 -26,-1 -32,-2 -65,-12 -19,-5 -39,-15l3 -3131 2263 4 0 682 -1426 3 0 571 1338 6 0 575 -1338 3 -3 596zm1748 -2432c120,-7 890,4 940,-16l593 1359 542 -1349 961 -2c-130,425 -723,1472 -954,1945 -413,844 -480,1325 -1652,1199l0 -676c1043,170 497,-511 243,-1030 -229,-470 -443,-962 -673,-1430zm-10715 4450l18451 1 2 -5897 -18447 0 -6 5896z"/>
  <path class="fil2" d="M292 6184l6 -5896 18447 0 -2 5897 2 5898 -18456 0 3 -5899zm-292 6182l19039 -3 0 -12357 -5 -2 -5142 1 -125 -5 -2221 2 -246 0 -6609 0 -4691 1 0 12363z"/>
  <path class="fil3" d="M6562 2365l378 1354 -770 -1 392 -1353zm-1591 2496c217,14 557,14 776,6 155,-7 216,-403 238,-543l1126 -5 170 545 849 -5 -950 -3133 -1274 1 -935 3134z"/>
  <path class="fil0" d="M8422 4857l2285 0 2 -667 -1416 -2c-42,-12 -10,0 -34,-22l3 -596 1338 -3 0 -575 -1338 -6 0 -571 1426 -3 0 -682 -2263 -4 -3 3131z"/>
  <path class="fil3" d="M11007 1734c230,468 444,960 673,1430 254,519 800,1200 -243,1030l0 676c1172,126 1239,-355 1652,-1199 231,-473 824,-1520 954,-1945l-961 2 -542 1349 -593 -1359c-50,20 -820,9 -940,16z"/>
  <path class="fil4" d="M6530 8032c182,0 672,-74 661,155 -10,220 -482,142 -668,142l7 -297zm-588 1247l580 0 0 -586 280 0c158,64 250,588 423,588l571 -1 -390 -634c156,-123 336,-83 362,-425 19,-263 -120,-444 -293,-510 -190,-73 -1270,-59 -1533,-43l0 1611z"/>
  <path class="fil4" d="M9807 8937c-153,-43 -903,16 -1149,-17 -14,-79 -23,-195 8,-269l1025 0 0 -351 -1028 -4c-17,-51 -38,-239 9,-272l1116 3 0 -353 -1705 -9 0 1616 1726 0 -2 -344z"/>
  <path class="fil4" d="M4531 8033c189,-4 610,-77 613,156 2,233 -428,162 -618,157l5 -313zm-583 1248l580 0 -1 -568c447,-13 984,76 1151,-298 220,-495 -142,-750 -617,-750l-1115 0 2 1616z"/>
  <path class="fil4" d="M9962 8024l571 4 3 1245c125,22 438,9 582,9l1 -1252 571 -3 0 -362 -1728 0 0 359z"/>
  <polygon class="fil4" points="11836,8021 12409,8029 12410,9282 12992,9282 12993,8033 13564,8026 13564,7674 11836,7665 "/>
  <polygon class="fil4" points="13762,9281 15170,9281 15170,8887 14345,8886 14344,7665 13763,7665 "/>
  <polygon class="fil1" points="6170,3718 6940,3719 6562,2365 "/>
  <path class="fil5" d="M12113 10685c13,-186 -56,-438 159,-445 192,-5 116,277 133,450l165 -4c15,-189 -38,-554 246,-423l46 426 169 1c54,-439 -56,-792 -469,-478 -146,-130 -217,-150 -418,-49l-202 -59 1 587 170 -6z"/>
  <path class="fil2" d="M13463 10252c223,-88 298,242 133,306 -226,87 -346,-222 -133,-306zm-107 393c281,139 598,-2 509,-325 -89,-324 -479,-179 -479,-179 -21,1 -127,-19 -210,-19l1 768 177 -6 2 -239z"/>
  <path class="fil2" d="M14161 10495c69,-60 201,-52 288,-73 4,96 -37,135 -117,157 -107,29 -162,14 -171,-84zm-148 -186c228,14 123,-5 228,-70 55,-34 217,-42 204,45 -15,107 -342,19 -448,137 -130,145 39,290 225,288 77,-1 196,-56 211,-54 21,2 72,35 213,35 -43,-216 48,-499 -146,-565 -194,-67 -465,-25 -487,184z"/>
  <path class="fil2" d="M11413 10252c216,-85 310,237 133,307 -222,87 -348,-222 -133,-307zm409 231c115,-438 -620,-514 -700,-154 -100,447 606,510 700,154z"/>
  <path class="fil2" d="M15556 10889c320,0 275,-65 393,-307 70,-143 173,-316 222,-458l-191 0 -169 345 -141 -346 -196 0c40,118 113,247 164,360 77,171 187,270 -83,270l1 136z"/>
  <path class="fil2" d="M10854 10459c-49,66 -56,125 -179,112 -173,-19 -190,-308 3,-330 148,-17 118,66 192,101l164 0c-60,-367 -711,-313 -684,91 27,389 683,340 688,26l-184 0z"/>
  <path class="fil5" d="M14945 10685c11,-165 -57,-442 157,-446 195,-4 118,286 135,451l168 0c46,-438 2,-739 -458,-506 -6,-98 -70,-62 -179,-62l7 569 170 -6z"/>
  <path class="fil6" d="M3237 9085c1,72 0,99 -97,87 -60,-8 -76,-34 -48,-89 62,-29 86,-19 145,2zm-321 -184c31,3 98,8 127,4 79,-11 231,-157 189,91 -73,-98 -444,-54 -320,219 30,66 138,99 237,71 219,-61 -71,-1 268,-2 0,-396 86,-589 -357,-541 -98,11 -137,58 -144,158z"/>
  <path class="fil3" d="M6523 8329c186,0 658,78 668,-142 11,-229 -479,-155 -661,-155l-7 297z"/>
  <path class="fil3" d="M4526 8346c190,5 620,76 618,-157 -3,-233 -424,-160 -613,-156l-5 313z"/>
  <path class="fil3" d="M11413 10252c-215,85 -89,394 133,307 177,-70 83,-392 -133,-307z"/>
  <path class="fil3" d="M13463 10252c-213,84 -93,393 133,306 165,-64 90,-394 -133,-306z"/>
  <path class="fil7" d="M9807 8937c-26,-33 6,-20 -43,-29 -1,0 -60,0 -65,0l-1031 1 0 -243c166,0 942,23 1038,-14l2 -356c-93,-31 -879,-12 -1040,-12l4 -260c-47,33 -26,221 -9,272l1028 4 0 351 -1025 0c-31,74 -22,190 -8,269 246,33 996,-26 1149,17z"/>
  <path class="fil8" d="M8422 4857c20,10 -26,3 39,15 6,1 32,2 32,2l2227 -8c11,-99 16,-609 -4,-693l-1457 -7c24,22 -8,10 34,22l1416 2 -2 667 -2285 0z"/>
  <path class="fil3" d="M14161 10495c9,98 64,113 171,84 80,-22 121,-61 117,-157 -87,21 -219,13 -288,73z"/>
  <path class="fil3" d="M3092 9083c-28,55 -12,81 48,89 97,12 98,-15 97,-87 -59,-21 -83,-31 -145,-2z"/>
 </g>
</svg>
