<?xml version="1.0" encoding="UTF-8"?>
<!DOCTYPE svg PUBLIC "-//W3C//DTD SVG 1.1//EN" "http://www.w3.org/Graphics/SVG/1.1/DTD/svg11.dtd">
<!-- Creator: CorelDRAW X7 -->
<svg xmlns="http://www.w3.org/2000/svg" xml:space="preserve" width="19.7813mm" height="141.755mm" version="1.1" style="shape-rendering:geometricPrecision; text-rendering:geometricPrecision; image-rendering:optimizeQuality; fill-rule:evenodd; clip-rule:evenodd"
viewBox="0 0 245 1753"
 xmlns:xlink="http://www.w3.org/1999/xlink">
 <defs>
  <style type="text/css">
   <![CDATA[
    .fil0 {fill:#153647;fill-rule:nonzero}
   ]]>
  </style>
 </defs>
 <g id="Слой_x0020_1">
  <metadata id="CorelCorpID_0Corel-Layer"/>
  <path class="fil0" d="M217 83c0,-50 -36,-84 -86,-83l-31 0 -25 0 -26 0c-5,0 -9,4 -9,10l0 214c0,7 3,10 9,10l51 0c6,0 10,-4 10,-10l0 -58 21 0c50,0 86,-33 86,-83zm-71 0c0,6 -2,11 -6,15 -4,4 -9,6 -14,6l-16 0 0 -42 16 0c5,0 10,2 14,6 4,4 6,9 6,15zm-24 216c-22,0 -43,6 -61,17 -19,10 -34,25 -45,44 -11,18 -16,39 -16,61 0,23 5,43 16,62 11,19 26,33 44,44 19,11 40,16 62,16 23,0 43,-5 62,-16 19,-11 34,-25 44,-44 11,-19 17,-39 17,-62 0,-22 -6,-43 -17,-61 -10,-19 -25,-34 -44,-44 -19,-11 -39,-17 -62,-17zm0 174c-28,0 -52,-24 -51,-52 -1,-28 23,-52 51,-51 29,-1 53,23 52,51 1,28 -23,52 -52,52zm98 289c1,-39 -36,-67 -86,-67l-30 0 0 -24 82 0c5,0 8,-3 8,-8l0 -47c0,-6 -3,-8 -8,-8l-146 0c-4,0 -7,2 -7,7l0 220c0,4 3,7 7,7l94 0c51,1 87,-33 86,-80zm-71 0c0,10 -6,16 -15,16l-30 0 0 -31 30 0c9,0 15,6 15,15zm-27 145c-22,0 -43,5 -61,16 -19,11 -34,26 -45,44 -11,19 -16,40 -16,62 0,22 5,43 16,62 11,18 26,33 44,44 19,11 40,16 62,16 23,0 43,-5 62,-16 19,-11 34,-26 44,-44 11,-19 17,-40 17,-62 0,-22 -6,-43 -17,-62 -10,-18 -25,-33 -44,-44 -19,-11 -39,-16 -62,-16zm0 173c-28,1 -52,-23 -51,-51 -1,-28 23,-52 51,-52 29,0 53,24 52,52 1,28 -23,52 -52,51zm-89 192c0,7 4,11 10,11l44 0 0 159c0,6 3,10 10,10l50 0c7,0 10,-4 10,-10l0 -159 44 0c6,0 10,-4 10,-11l0 -46c0,-7 -4,-11 -10,-11l-158 0c-6,0 -10,4 -10,11l0 46zm206 475c0,-1 0,-3 0,-4l-83 -215c-3,-5 -8,-9 -13,-9l-42 0c-5,0 -10,4 -12,9l-84 215c0,1 0,2 0,4 0,4 2,6 8,6l56 0c6,0 11,-4 12,-9l7 -21 68 0 7 21c2,6 7,9 12,9l56 0c6,0 8,-2 8,-6zm-133 -83l16 -51 16 51 -32 0z"/>
 </g>
</svg>
