<?xml version="1.0" encoding="UTF-8"?>
<!DOCTYPE svg PUBLIC "-//W3C//DTD SVG 1.1//EN" "http://www.w3.org/Graphics/SVG/1.1/DTD/svg11.dtd">
<!-- Creator: CorelDRAW X7 -->
<svg xmlns="http://www.w3.org/2000/svg" xml:space="preserve" width="34.4256mm" height="164.808mm" version="1.1" style="shape-rendering:geometricPrecision; text-rendering:geometricPrecision; image-rendering:optimizeQuality; fill-rule:evenodd; clip-rule:evenodd"
viewBox="0 0 2259 10816"
 xmlns:xlink="http://www.w3.org/1999/xlink">
 <defs>
  <style type="text/css">
   <![CDATA[
    .str0 {stroke:#153848;stroke-width:32.8154;stroke-linecap:round;stroke-linejoin:round}
    .fil0 {fill:none}
    .fil1 {fill:#153647}
    .fil2 {fill:#153848}
    .fil4 {fill:#173848}
    .fil3 {fill:#173949}
    .fil5 {fill:#416075}
    .fil15 {fill:#46657B}
    .fil7 {fill:#47657C}
    .fil13 {fill:#47667D}
    .fil14 {fill:#49677E}
    .fil9 {fill:#4B6A81}
    .fil10 {fill:#4C6B82}
    .fil12 {fill:#517189}
    .fil6 {fill:#53728B}
    .fil8 {fill:#54748C}
    .fil11 {fill:#5B7C95}
   ]]>
  </style>
 </defs>
 <g id="Слой_x0020_1">
  <metadata id="CorelCorpID_0Corel-Layer"/>
  <g>
   <path class="fil0 str0" d="M1680 9420c-100,-290 203,-381 262,-192 86,278 -195,384 -262,192zm-166 62c-279,40 -194,-286 -117,-317 183,-73 246,175 117,317zm108 -346c-49,-53 -151,-129 -273,-66 -223,116 -107,765 273,443l16 18c28,30 58,65 99,78 342,114 400,-488 155,-568 -179,-58 -239,66 -270,95z"/>
   <path id="1" class="fil1" d="M1680 9420c-100,-290 203,-381 262,-192 86,278 -195,384 -262,192zm-166 62c-279,40 -194,-286 -117,-317 183,-73 246,175 117,317zm108 -346c-49,-53 -151,-129 -273,-66 -223,116 -107,765 273,443l16 18c28,30 58,65 99,78 342,114 400,-488 155,-568 -179,-58 -239,66 -270,95z"/>
  </g>
  <g>
   <path class="fil0 str0" d="M1742 4338c310,-34 232,339 119,379 -107,39 -174,-20 -190,-118 -22,-130 8,-195 71,-261zm-346 358c-102,-96 -79,-194 -35,-317 118,-46 211,-29 220,122 10,158 -37,211 -185,195zm226 -362c-40,-30 -59,-64 -111,-79 -415,-122 -349,843 111,471 3,3 7,7 9,9l24 28c5,5 22,25 23,26 68,65 181,54 241,21 162,-91 173,-500 -26,-574 -179,-66 -249,76 -271,98z"/>
   <path id="1" class="fil1" d="M1742 4338c310,-34 232,339 119,379 -107,39 -174,-20 -190,-118 -22,-130 8,-195 71,-261zm-346 358c-102,-96 -79,-194 -35,-317 118,-46 211,-29 220,122 10,158 -37,211 -185,195zm226 -362c-40,-30 -59,-64 -111,-79 -415,-122 -349,843 111,471 3,3 7,7 9,9l24 28c5,5 22,25 23,26 68,65 181,54 241,21 162,-91 173,-500 -26,-574 -179,-66 -249,76 -271,98z"/>
  </g>
  <g>
   <path class="fil0 str0" d="M465 3789c-110,-272 178,-388 252,-210 46,110 20,336 -169,295 -84,-19 -82,-83 -83,-85zm-352 -43c-61,-259 199,-287 240,-136 66,241 -191,347 -240,136zm289 131c70,63 116,154 279,89 188,-75 187,-483 -1,-558 -164,-65 -208,29 -278,92 -171,-159 -382,-109 -382,187 0,288 215,354 382,190z"/>
   <path id="1" class="fil2" d="M465 3789c-110,-272 178,-388 252,-210 46,110 20,336 -169,295 -84,-19 -82,-83 -83,-85zm-352 -43c-61,-259 199,-287 240,-136 66,241 -191,347 -240,136zm289 131c70,63 116,154 279,89 188,-75 187,-483 -1,-558 -164,-65 -208,29 -278,92 -171,-159 -382,-109 -382,187 0,288 215,354 382,190z"/>
  </g>
  <g>
   <path class="fil0 str0" d="M524 9139c133,-15 188,6 207,126 17,108 -7,206 -90,238 -201,76 -270,-221 -117,-364zm-414 235c-45,-269 210,-272 244,-125 65,276 -211,320 -244,125zm292 138c3,3 3,8 8,10 7,1 14,15 17,18l78 64c329,141 423,-458 178,-559 -182,-74 -254,64 -281,90 -129,-142 -383,-141 -382,192 2,281 189,344 382,185z"/>
   <path id="1" class="fil1" d="M524 9139c133,-15 188,6 207,126 17,108 -7,206 -90,238 -201,76 -270,-221 -117,-364zm-414 235c-45,-269 210,-272 244,-125 65,276 -211,320 -244,125zm292 138c3,3 3,8 8,10 7,1 14,15 17,18l78 64c329,141 423,-458 178,-559 -182,-74 -254,64 -281,90 -129,-142 -383,-141 -382,192 2,281 189,344 382,185z"/>
  </g>
  <g>
   <path class="fil0 str0" d="M458 412c-91,-283 195,-375 262,-196 104,275 -195,405 -262,196zm-280 -254c115,-14 170,7 182,122 29,274 -235,258 -252,78 -11,-107 10,-145 70,-200zm224 350c22,22 87,157 271,92 204,-73 188,-479 16,-557 -156,-71 -213,16 -287,89 -66,-52 -126,-120 -255,-74 -200,73 -185,621 144,524 63,-18 64,-40 111,-74z"/>
   <path id="1" class="fil1" d="M458 412c-91,-283 195,-375 262,-196 104,275 -195,405 -262,196zm-280 -254c115,-14 170,7 182,122 29,274 -235,258 -252,78 -11,-107 10,-145 70,-200zm224 350c22,22 87,157 271,92 204,-73 188,-479 16,-557 -156,-71 -213,16 -287,89 -66,-52 -126,-120 -255,-74 -200,73 -185,621 144,524 63,-18 64,-40 111,-74z"/>
  </g>
  <g>
   <path class="fil0 str0" d="M1334 7980c-85,-391 550,-383 612,-132 48,189 -71,298 -232,317 -181,22 -342,-15 -380,-185zm431 -409c-512,-107 -597,341 -478,551 44,78 115,128 219,150 639,134 696,-610 259,-701z"/>
   <path id="1" class="fil1" d="M1334 7980c-85,-391 550,-383 612,-132 48,189 -71,298 -232,317 -181,22 -342,-15 -380,-185zm431 -409c-512,-107 -597,341 -478,551 44,78 115,128 219,150 639,134 696,-610 259,-701z"/>
  </g>
  <g>
   <path class="fil0 str0" d="M513 6234c348,50 314,550 -203,460 -299,-52 -318,-535 203,-460zm-481 320c46,217 240,289 496,252 437,-63 420,-780 -210,-683 -219,34 -341,179 -286,431z"/>
   <path id="1" class="fil1" d="M513 6234c348,50 314,550 -203,460 -299,-52 -318,-535 203,-460zm-481 320c46,217 240,289 496,252 437,-63 420,-780 -210,-683 -219,34 -341,179 -286,431z"/>
  </g>
  <g>
   <path class="fil0 str0" d="M115 8004c-41,-176 63,-271 227,-290 505,-59 505,429 151,468 -180,20 -340,-15 -378,-178zm-82 37c86,394 895,366 775,-199 -80,-372 -894,-351 -775,199z"/>
   <path id="1" class="fil1" d="M115 8004c-41,-176 63,-271 227,-290 505,-59 505,429 151,468 -180,20 -340,-15 -378,-178zm-82 37c86,394 895,366 775,-199 -80,-372 -894,-351 -775,199z"/>
  </g>
  <g>
   <path class="fil0 str0" d="M481 2400c-171,15 -339,-19 -369,-179 -35,-185 76,-275 243,-290 499,-48 488,438 126,469zm-451 -151c73,393 881,388 780,-176 -68,-383 -883,-373 -780,176z"/>
   <path id="1" class="fil1" d="M481 2400c-171,15 -339,-19 -369,-179 -35,-185 76,-275 243,-290 499,-48 488,438 126,469zm-451 -151c73,393 881,388 780,-176 -68,-383 -883,-373 -780,176z"/>
  </g>
  <g>
   <path class="fil0 str0" d="M421 4196c118,259 -48,506 -246,368 -75,-52 -180,-426 246,-368zm97 36c99,49 203,159 245,282l74 -47c-23,-70 -107,-178 -143,-217 -186,-205 -612,-256 -663,62 -37,232 66,412 305,382 240,-31 212,-258 182,-462z"/>
   <path id="1" class="fil2" d="M421 4196c118,259 -48,506 -246,368 -75,-52 -180,-426 246,-368zm97 36c99,49 203,159 245,282l74 -47c-23,-70 -107,-178 -143,-217 -186,-205 -612,-256 -663,62 -37,232 66,412 305,382 240,-31 212,-258 182,-462z"/>
  </g>
  <g>
   <path class="fil0 str0" d="M1642 7325c-132,-307 94,-509 249,-373 106,92 122,457 -249,373zm-101 -56l19 34 -31 -25c-127,-59 -198,-227 -241,-275l-61 42c42,145 210,314 347,368 385,151 568,-219 417,-499 -38,-68 -128,-110 -240,-103 -231,14 -229,245 -210,458z"/>
   <path id="1" class="fil2" d="M1642 7325c-132,-307 94,-509 249,-373 106,92 122,457 -249,373zm-101 -56l19 34 -31 -25c-127,-59 -198,-227 -241,-275l-61 42c42,145 210,314 347,368 385,151 568,-219 417,-499 -38,-68 -128,-110 -240,-103 -231,14 -229,245 -210,458z"/>
  </g>
  <g>
   <path class="fil0 str0" d="M1649 2322c-9,-11 -11,-6 -21,-31l-16 -125c-2,-58 -2,-121 20,-169 41,-87 173,-117 260,-46 140,115 65,465 -243,371zm-101 -38c-72,-33 -105,-70 -156,-125 -40,-44 -59,-110 -103,-157 -45,22 -25,3 -59,49 32,97 155,246 232,298 48,32 62,44 114,62 575,198 611,-630 174,-603 -232,14 -238,258 -202,476z"/>
   <path id="1" class="fil2" d="M1649 2322c-9,-11 -11,-6 -21,-31l-16 -125c-2,-58 -2,-121 20,-169 41,-87 173,-117 260,-46 140,115 65,465 -243,371zm-101 -38c-72,-33 -105,-70 -156,-125 -40,-44 -59,-110 -103,-157 -45,22 -25,3 -59,49 32,97 155,246 232,298 48,32 62,44 114,62 575,198 611,-630 174,-603 -232,14 -238,258 -202,476z"/>
  </g>
  <g>
   <path class="fil0 str0" d="M185 7454l240 15 6 -40c3,-166 -57,-442 181,-388 179,41 119,272 89,430l84 0c171,-553 -268,-638 -389,-464 -70,100 -43,183 -61,309l21 64c-62,3 -88,3 -136,-17l-109 2 0 -396 -84 -5 1 486 157 4z"/>
   <path id="1" class="fil3" d="M185 7454l240 15 6 -40c3,-166 -57,-442 181,-388 179,41 119,272 89,430l84 0c171,-553 -268,-638 -389,-464 -70,100 -43,183 -61,309l21 64c-62,3 -88,3 -136,-17l-109 2 0 -396 -84 -5 1 486 157 4z"/>
  </g>
  <g>
   <path class="fil0 str0" d="M51 10263c47,1 59,13 79,-15 -14,-191 -102,-424 185,-383 84,110 58,160 58,317l84 -2c0,-154 -23,-385 184,-317 159,52 70,279 65,408 110,0 98,-32 109,-152 14,-155 -5,-359 -206,-369 -117,-6 -155,35 -193,95 -46,-45 -63,-87 -156,-95 -88,-7 -151,30 -185,74 -84,108 -50,309 -24,439z"/>
   <path id="1" class="fil2" d="M51 10263c47,1 59,13 79,-15 -14,-191 -102,-424 185,-383 84,110 58,160 58,317l84 -2c0,-154 -23,-385 184,-317 159,52 70,279 65,408 110,0 98,-32 109,-152 14,-155 -5,-359 -206,-369 -117,-6 -155,35 -193,95 -46,-45 -63,-87 -156,-95 -88,-7 -151,30 -185,74 -84,108 -50,309 -24,439z"/>
  </g>
  <g>
   <path class="fil0 str0" d="M1272 10263c46,1 57,13 78,-15 -13,-193 -100,-423 184,-383 85,109 59,160 59,317l84 4c0,-150 -27,-403 194,-319 140,54 61,274 55,404 61,0 73,14 91,-42 9,-26 17,-96 19,-126 31,-406 -288,-429 -400,-257 -50,-48 -68,-93 -172,-96 -278,-7 -227,342 -192,513z"/>
   <path id="1" class="fil2" d="M1272 10263c46,1 57,13 78,-15 -13,-193 -100,-423 184,-383 85,109 59,160 59,317l84 4c0,-150 -27,-403 194,-319 140,54 61,274 55,404 61,0 73,14 91,-42 9,-26 17,-96 19,-126 31,-406 -288,-429 -400,-257 -50,-48 -68,-93 -172,-96 -278,-7 -227,342 -192,513z"/>
  </g>
  <g>
   <path class="fil0 str0" d="M1272 5505c60,2 58,15 81,-20 -19,-131 -74,-364 71,-399 198,-48 169,185 169,338l84 -10c0,-67 -8,-208 14,-265 23,-59 110,-87 183,-55 139,62 49,280 54,419 58,0 71,10 88,-42 30,-89 33,-295 -16,-391 -32,-63 -85,-109 -188,-109 -101,1 -130,44 -178,100 -181,-212 -477,-120 -362,434z"/>
   <path id="1" class="fil2" d="M1272 5505c60,2 58,15 81,-20 -19,-131 -74,-364 71,-399 198,-48 169,185 169,338l84 -10c0,-67 -8,-208 14,-265 23,-59 110,-87 183,-55 139,62 49,280 54,419 58,0 71,10 88,-42 30,-89 33,-295 -16,-391 -32,-63 -85,-109 -188,-109 -101,1 -130,44 -178,100 -181,-212 -477,-120 -362,434z"/>
  </g>
  <g>
   <path class="fil0 str0" d="M1591 4004l77 11c0,-75 -13,-184 18,-238 22,-117 365,-263 234,332l82 -6c53,-116 49,-364 -16,-457 -57,-81 -219,-139 -348,15 -53,-44 -63,-91 -175,-94 -274,-5 -230,347 -190,543l88 -9c-34,-113 -74,-361 34,-410 212,-97 205,162 196,313z"/>
   <path id="1" class="fil2" d="M1591 4004l77 11c0,-75 -13,-184 18,-238 22,-117 365,-263 234,332l82 -6c53,-116 49,-364 -16,-457 -57,-81 -219,-139 -348,15 -53,-44 -63,-91 -175,-94 -274,-5 -230,347 -190,543l88 -9c-34,-113 -74,-361 34,-410 212,-97 205,162 196,313z"/>
  </g>
  <g>
   <path class="fil0 str0" d="M1293 1268c28,8 10,10 43,8 39,-2 14,10 33,-18 -31,-99 -66,-225 -25,-334 42,-115 171,-94 265,-27 65,45 144,136 191,197 145,188 108,217 234,217l0 -580 -83 0 -3 410c-90,-125 -266,-377 -437,-405 -154,-26 -225,55 -256,178 -27,109 -16,266 38,354z"/>
   <path id="1" class="fil1" d="M1293 1268c28,8 10,10 43,8 39,-2 14,10 33,-18 -31,-99 -66,-225 -25,-334 42,-115 171,-94 265,-27 65,45 144,136 191,197 145,188 108,217 234,217l0 -580 -83 0 -3 410c-90,-125 -266,-377 -437,-405 -154,-26 -225,55 -256,178 -27,109 -16,266 38,354z"/>
  </g>
  <g>
   <path class="fil0 str0" d="M624 5411l4 -424 183 -5 2 -105 -185 -4 0 -80c-67,13 -56,19 -79,84l-282 1 0 100 278 5 0 312c-87,-39 -182,-112 -260,-160 -91,-55 -164,-104 -254,-156l-4 100c122,84 462,331 597,332z"/>
   <path id="1" class="fil2" d="M624 5411l4 -424 183 -5 2 -105 -185 -4 0 -80c-67,13 -56,19 -79,84l-282 1 0 100 278 5 0 312c-87,-39 -182,-112 -260,-160 -91,-55 -164,-104 -254,-156l-4 100c122,84 462,331 597,332z"/>
  </g>
  <g>
   <path class="fil0 str0" d="M549 788c-15,9 -9,10 -36,15 -6,1 -30,2 -31,2l-208 -1 0 97 269 0 2 313c-121,-62 -448,-295 -518,-313l2 100c130,85 456,327 599,328l0 -425 186 -4 -4 -105 -182 -5c-1,-68 0,-54 -20,-78 -45,22 -35,32 -59,76z"/>
   <path id="1" class="fil1" d="M549 788c-15,9 -9,10 -36,15 -6,1 -30,2 -31,2l-208 -1 0 97 269 0 2 313c-121,-62 -448,-295 -518,-313l2 100c130,85 456,327 599,328l0 -425 186 -4 -4 -105 -182 -5c-1,-68 0,-54 -20,-78 -45,22 -35,32 -59,76z"/>
  </g>
  <g>
   <path class="fil0 str0" d="M1331 634l1 -445 700 361 1 -125c-129,-56 -253,-123 -377,-186 -105,-52 -289,-182 -408,-158l0 549 83 4z"/>
   <path id="1" class="fil3" d="M1331 634l1 -445 700 361 1 -125c-129,-56 -253,-123 -377,-186 -105,-52 -289,-182 -408,-158l0 549 83 4z"/>
  </g>
  <g>
   <path class="fil0 str0" d="M1654 2642c-99,-49 -290,-175 -406,-157l0 554 83 -4 5 -446 695 362c5,-163 -2,-122 -377,-309z"/>
   <path id="1" class="fil3" d="M1654 2642c-99,-49 -290,-175 -406,-157l0 554 83 -4 5 -446 695 362c5,-163 -2,-122 -377,-309z"/>
  </g>
  <g>
   <path class="fil0 str0" d="M1343 6361l690 359 1 -120c-123,-50 -263,-128 -383,-188 -94,-47 -273,-163 -379,-163 -35,99 -15,421 -15,547l66 0 1 -402c10,-45 -3,-7 19,-33z"/>
   <path id="1" class="fil1" d="M1343 6361l690 359 1 -120c-123,-50 -263,-128 -383,-188 -94,-47 -273,-163 -379,-163 -35,99 -15,421 -15,547l66 0 1 -402c10,-45 -3,-7 19,-33z"/>
  </g>
  <g>
   <path class="fil0 str0" d="M1283 6123c421,-59 307,-194 958,22l-4 -98c-184,-152 -781,-165 -964,-12l-16 78c17,20 -25,37 26,10z"/>
   <path id="1" class="fil2" d="M1283 6123c421,-59 307,-194 958,22l-4 -98c-184,-152 -781,-165 -964,-12l-16 78c17,20 -25,37 26,10z"/>
  </g>
  <g>
   <path class="fil0 str0" d="M1021 5998c3,-108 24,-113 -204,-175 -259,-70 -559,-49 -786,75l-4 97c109,-15 203,-103 486,-106 232,-3 326,59 508,109z"/>
   <path id="1" class="fil2" d="M1021 5998c3,-108 24,-113 -204,-175 -259,-70 -559,-49 -786,75l-4 97c109,-15 203,-103 486,-106 232,-3 326,59 508,109z"/>
  </g>
  <g>
   <path class="fil0 str0" d="M2243 8522l0 -111c-262,75 -415,171 -771,77 -72,-19 -164,-64 -224,-71l0 94c122,72 314,121 485,123 225,3 333,-57 510,-112z"/>
   <path id="1" class="fil2" d="M2243 8522l0 -111c-262,75 -415,171 -771,77 -72,-19 -164,-64 -224,-71l0 94c122,72 314,121 485,123 225,3 333,-57 510,-112z"/>
  </g>
  <g>
   <path class="fil0 str0" d="M1023 8525l0 -107c-245,67 -423,167 -770,76 -76,-20 -160,-62 -226,-70l0 92c120,67 319,116 486,118 228,3 330,-57 510,-109z"/>
   <path id="1" class="fil2" d="M1023 8525l0 -107c-245,67 -423,167 -770,76 -76,-20 -160,-62 -226,-70l0 92c120,67 319,116 486,118 228,3 330,-57 510,-109z"/>
  </g>
  <g>
   <path class="fil0 str0" d="M101 2885c42,-31 26,-11 26,-86l687 0 -2 -106 -784 1 35 144c28,67 -7,17 38,47z"/>
   <path id="1" class="fil4" d="M101 2885c42,-31 26,-11 26,-86l687 0 -2 -106 -784 1 35 144c28,67 -7,17 38,47z"/>
  </g>
  <g>
   <polygon class="fil0 str0" points="1704,10638 1704,10797 1787,10800 1787,10646 1948,10635 1952,10547 1789,10540 1787,10380 1704,10384 1702,10543 1539,10543 1542,10638 "/>
   <polygon id="1" class="fil2" points="1704,10638 1704,10797 1787,10800 1787,10646 1948,10635 1952,10547 1789,10540 1787,10380 1704,10384 1702,10543 1539,10543 1542,10638 "/>
  </g>
  <g>
   <path class="fil0 str0" d="M484 10638l0 159 83 3 0 -154 161 -11 4 -88 -163 -7c-1,-52 8,-112 -12,-160l-67 1 -9 162 -162 0 3 95 162 0z"/>
   <path id="1" class="fil2" d="M484 10638l0 159 83 3 0 -154 161 -11 4 -88 -163 -7c-1,-52 8,-112 -12,-160l-67 1 -9 162 -162 0 3 95 162 0z"/>
  </g>
  <g>
   <polygon class="fil0 str0" points="1786,3432 1787,3136 1704,3138 1704,3429 "/>
   <polygon id="1" class="fil2" points="1786,3432 1787,3136 1704,3138 1704,3429 "/>
  </g>
  <g>
   <polygon class="fil0 str0" points="561,1703 568,1417 513,1417 484,1419 485,1701 "/>
   <polygon id="1" class="fil2" points="561,1703 568,1417 513,1417 484,1419 485,1701 "/>
  </g>
  <g>
   <polygon class="fil0 str0" points="560,3281 560,3001 481,3007 484,3279 "/>
   <polygon id="1" class="fil2" points="560,3281 560,3001 481,3007 484,3279 "/>
  </g>
  <g>
   <polygon class="fil0 str0" points="1780,1403 1704,1405 1702,1687 1780,1696 "/>
   <polygon id="1" class="fil2" points="1780,1403 1704,1405 1702,1687 1780,1696 "/>
  </g>
  <g>
   <path class="fil0 str0" d="M1343 6361c-22,26 -9,-12 -19,33l-1 402 -66 0c0,-126 -20,-448 15,-547 -30,11 -33,-37 -30,127 1,121 -13,351 9,435l77 2 15 -452z"/>
   <path id="1" class="fil5" d="M1343 6361c-22,26 -9,-12 -19,33l-1 402 -66 0c0,-126 -20,-448 15,-547 -30,11 -33,-37 -30,127 1,121 -13,351 9,435l77 2 15 -452z"/>
  </g>
  <g>
   <path class="fil0 str0" d="M1780 1403l0 293 -78 -9c20,19 -9,16 32,21 45,7 21,2 55,-10 12,-72 19,-236 -9,-295z"/>
   <path id="1" class="fil6" d="M1780 1403l0 293 -78 -9c20,19 -9,16 32,21 45,7 21,2 55,-10 12,-72 19,-236 -9,-295z"/>
  </g>
  <g>
   <path class="fil0 str0" d="M549 788l-283 2c-4,28 -10,34 -8,62 5,75 5,30 16,49l0 -97 208 1c1,0 25,-1 31,-2 27,-5 21,-6 36,-15z"/>
   <path id="1" class="fil7" d="M549 788l-283 2c-4,28 -10,34 -8,62 5,75 5,30 16,49l0 -97 208 1c1,0 25,-1 31,-2 27,-5 21,-6 36,-15z"/>
  </g>
  <g>
   <path class="fil0 str0" d="M560 3281l16 -68c3,-65 13,-214 -31,-229 -87,2 -47,8 -64,23l79 -6 0 280z"/>
   <path id="1" class="fil8" d="M560 3281l16 -68c3,-65 13,-214 -31,-229 -87,2 -47,8 -64,23l79 -6 0 280z"/>
  </g>
  <g>
   <path class="fil0 str0" d="M1686 3777c-31,54 -18,163 -18,238l-77 -11c19,20 -33,23 63,26 54,-44 29,-179 32,-253z"/>
   <path id="1" class="fil9" d="M1686 3777c-31,54 -18,163 -18,238l-77 -11c19,20 -33,23 63,26 54,-44 29,-179 32,-253z"/>
  </g>
  <g>
   <path class="fil0 str0" d="M431 7429l-6 40 -240 -15c56,30 192,32 265,19l-19 -44z"/>
   <path id="1" class="fil10" d="M431 7429l-6 40 -240 -15c56,30 192,32 265,19l-19 -44z"/>
  </g>
  <g>
   <path class="fil0 str0" d="M1283 6123c-51,27 -9,10 -26,-10l16 -78c-49,20 -31,49 -31,113 71,-11 23,-4 41,-25z"/>
   <path id="1" class="fil5" d="M1283 6123c-51,27 -9,10 -26,-10l16 -78c-49,20 -31,49 -31,113 71,-11 23,-4 41,-25z"/>
  </g>
  <g>
   <path class="fil0 str0" d="M335 7316l-7 44c0,2 -4,8 -5,12l-103 -9c48,20 74,20 136,17l-21 -64z"/>
   <path id="1" class="fil11" d="M335 7316l-7 44c0,2 -4,8 -5,12l-103 -9c48,20 74,20 136,17l-21 -64z"/>
  </g>
  <g>
   <path class="fil0 str0" d="M1369 1258c-19,28 6,16 -33,18 -33,2 -15,0 -43,-8 28,30 -13,11 30,24 20,5 40,2 61,2l-15 -36z"/>
   <path id="1" class="fil7" d="M1369 1258c-19,28 6,16 -33,18 -33,2 -15,0 -43,-8 28,30 -13,11 30,24 20,5 40,2 61,2l-15 -36z"/>
  </g>
  <g>
   <path class="fil0 str0" d="M1353 5485c-23,35 -21,22 -81,20 17,11 3,12 34,16 31,4 31,-1 57,-5l-10 -31z"/>
   <path id="1" class="fil12" d="M1353 5485c-23,35 -21,22 -81,20 17,11 3,12 34,16 31,4 31,-1 57,-5l-10 -31z"/>
  </g>
  <g>
   <path class="fil0 str0" d="M1350 10248c-21,28 -32,16 -78,15 14,9 4,12 34,15 32,3 30,-1 58,-6l-14 -24z"/>
   <path id="1" class="fil13" d="M1350 10248c-21,28 -32,16 -78,15 14,9 4,12 34,15 32,3 30,-1 58,-6l-14 -24z"/>
  </g>
  <g>
   <path class="fil0 str0" d="M130 10248c-20,28 -32,16 -79,15 15,9 5,12 35,15 33,3 29,-1 58,-6l-14 -24z"/>
   <path id="1" class="fil14" d="M130 10248c-20,28 -32,16 -79,15 15,9 5,12 35,15 33,3 29,-1 58,-6l-14 -24z"/>
  </g>
  <g>
   <polygon class="fil0 str0" points="1541,7269 1529,7278 1560,7303 "/>
   <polygon id="1" class="fil15" points="1541,7269 1529,7278 1560,7303 "/>
  </g>
 </g>
</svg>
